<svg xmlns="http://www.w3.org/2000/svg" height="400" width="300"><path d="M150.206 165.894c-4.06 0-7.65 3.356-7.65 7.97 0 2.153.798 4.024 2.044 5.417-2.094 0-5.82.006-6.206 0l-1.5-.017v6H147l-.88 36.993c-5.56-.702-10.52-2.7-14.383-5.587l1.313-1.145 1.387-1.2-1.48-1.087-10.632-7.838-2.813-2.08.488 3.486 2.175 15.188.375 2.68 2.044-1.78 3.056-2.663c5.075 5.146 11.603 8.327 18.525 9.264l.375 3.32.15 1.292h7.499l.13-1.312.357-3.263c4.437-.582 8.83-2.045 12.863-4.574 2.136-1.34 3.944-2.852 5.606-4.518l2.625 2.418 1.97 1.838.487-2.644 2.644-15 .64-3.563-2.945 2.12-10.612 7.612-1.482 1.05 1.333 1.236 1.293 1.182c-3.85 2.872-8.775 4.865-14.306 5.568l-.9-36.993h10.105v-5.982h-1.48c-1.173.006-4.012 0-6.713 0 1.244-1.392 2.025-3.266 2.025-5.418 0-4.612-3.57-7.968-7.63-7.968zm0 3.337c2.9 0 4.95 2.286 4.95 4.633 0 2.346-2.05 4.63-4.95 4.63-2.9 0-4.968-2.284-4.968-4.63 0-2.347 2.07-4.632 4.968-4.632z" fill="#a30075" /><ellipse cx="150" cy="200" fill="#333" opacity="0" rx="60" ry="60" /></svg>
