<svg xmlns="http://www.w3.org/2000/svg" height="400" width="300"><path d="M149.806 166.887c-3.957 0-7.162 2.86-7.162 6.413 0 3.02 2.326 5.555 5.456 6.244v2.53l-10.125-.112v3.057h10.144l-.114 4.874c-7.436.888-13.2 7.212-13.2 14.887 0 7.43 5.4 13.6 12.488 14.795l-.13 5.606c-7.166-.566-13.555-3.21-18.17-7.18l2.7-2.362-10.63-7.838 2.174 15.206 4.05-3.525c5.233 5.814 12.372 9.277 19.856 9.995l.487 4.388h4.857l.47-4.388c4.62-.43 9.207-1.923 13.405-4.556 2.486-1.56 4.558-3.272 6.375-5.29l3.657 3.376 2.643-15-10.612 7.63 2.606 2.4c-4.6 3.937-10.94 6.577-18.055 7.145l-.13-5.7c6.825-1.404 11.96-7.456 11.96-14.7 0-7.5-5.502-13.722-12.693-14.83L152 185h10.144v-3.038L151.72 182v-2.494c3.02-.756 5.23-3.254 5.23-6.206 0-3.554-3.193-6.412-7.144-6.412zm0 3.357c1.882 0 3.413 1.384 3.413 3.075 0 1.69-1.532 3.055-3.414 3.055-1.88 0-3.394-1.365-3.394-3.056 0-1.69 1.513-3.076 3.394-3.076zm.056 21.843c6.96 0 12.6 5.642 12.6 12.6 0 6.96-5.64 12.6-12.6 12.6-6.958 0-12.6-5.64-12.6-12.6 0-6.958 5.642-12.6 12.6-12.6z" fill="#a30075" /><ellipse cx="150" cy="200" fill="#333" opacity="0" rx="60" ry="60" /></svg>
