<svg xmlns="http://www.w3.org/2000/svg" height="400" version="1" width="300"><path d="M146 158c-5.565 0-11.123.163-17.188.5-9.297.517-16.932 2.273-22.25 8.625-5.045 6.026-7.726 15.28-9.72 30.062h-8.03v5.656h49.03c1.288 5.533 6.234 9.656 12.157 9.656 5.924 0 10.87-4.12 12.155-9.657h41.47v-5.594h-7.47c-2.02-14.87-4.97-24.19-10.27-30.2-5.59-6.32-13.4-8.04-22.69-8.56-6.07-.34-11.63-.5-17.19-.5zm0 7c5.427 0 10.854.17 16.812.5 8.706.484 13.898 1.758 17.812 6.188 3.632 4.11 6.503 11.877 8.47 25.53l-26.94-.03c-1.284-5.536-6.23-9.657-12.155-9.657-5.924 0-10.87 4.124-12.157 9.657h-5.53c-1.032-12.575-3.697-21.47-9.814-31 1.955-.33 4.14-.546 6.687-.687 5.958-.33 11.385-.5 16.812-.5zm-30.375 3.47c6.284 9.152 8.643 16.507 9.656 28.718h-21.343c1.942-13.68 4.586-21.484 8-25.562 1.1-1.312 2.308-2.342 3.688-3.156zm34.38 24.03c4.14 0 7.5 3.36 7.5 7.5s-3.36 7.5-7.5 7.5-7.5-3.36-7.5-7.5 3.36-7.5 7.5-7.5z" /><path d="M132.38 196.966c-.032-.103-.137-1.03-.233-2.06-.973-10.406-3.634-18.855-8.492-26.96-.518-.864-.892-1.612-.83-1.664.143-.124 2.5-.41 4.827-.584 10.55-.793 31.643-.674 39.25.222 3.518.414 5.588.88 7.79 1.75 3.255 1.29 5.944 3.68 7.983 7.094 1.958 3.278 3.842 9.02 5.185 15.798.488 2.46 1.064 5.89 1.064 6.33 0 .25-.704.26-13.337.225l-13.337-.038-.424-1.225c-2.49-7.187-10.972-10.507-17.684-6.92-1.536.82-2.896 1.94-3.917 3.226-.968 1.218-1.947 3.06-2.245 4.223l-.198.77h-2.673c-2.01 0-2.688-.046-2.73-.187zM104.053 196.817c.043-.186.243-1.383.446-2.66 1.4-8.846 3.382-15.735 5.667-19.7 1.3-2.254 2.925-4.12 4.672-5.363l.745-.53 1.025 1.585c4.986 7.712 7.266 14.42 8.326 24.494l.264 2.51h-21.224l.077-.337z" fill="#ffd400" /><ellipse cx="150" cy="200" fill="#333" opacity="0" rx="80" ry="80" /></svg>
