<svg xmlns="http://www.w3.org/2000/svg" height="400" version="1" width="300"><path d="M141.48 126.264v64.75c-1.704 1.65-2.947 3.77-3.5 6.156h-8.438l-.125 5.656h8.563c1.287 5.533 6.233 9.657 12.156 9.657 5.925 0 10.87-4.12 12.156-9.657l8.313-.03v-5.657l-8.313.03c-.587-2.53-1.947-4.75-3.813-6.437v-64.47h-17zm4.063 4.03h8.968v57.69h-8.968v-57.69zm4.593 62.19c4.14 0 7.5 3.36 7.5 7.5s-3.36 7.5-7.5 7.5-7.5-3.36-7.5-7.5 3.36-7.5 7.5-7.5z" fill="#000407" fill-rule="evenodd" /><path d="M145.15 158.94h10.076v.994H145.15z" /><path d="M145.59 144.627v-14.25h8.796v28.5h-8.796v-14.25z" fill="#ffd400" /><path d="M145.59 173.918v-13.986h8.796v27.972h-8.796v-13.986z" /><rect fill="#333" height="200" opacity="0" width="50" x="125" y="100" /></svg>
