<svg xmlns="http://www.w3.org/2000/svg" height="400" version="1" width="300"><path d="M141.35 126.286v64.75c-1.704 1.65-2.947 3.77-3.5 6.156h-8.438l-.125 5.656h8.563c1.287 5.533 6.233 9.657 12.156 9.657 5.925 0 10.87-4.12 12.156-9.657l8.313-.03v-5.657l-8.313.032c-.587-2.53-1.947-4.75-3.813-6.437v-64.47h-17zm4.063 4.03h8.968v57.69h-8.968v-57.69zm4.593 62.19c4.14 0 7.5 3.36 7.5 7.5s-3.36 7.5-7.5 7.5-7.5-3.36-7.5-7.5 3.36-7.5 7.5-7.5z" fill="#000407" fill-rule="evenodd" /><path d="M145.82 159.36v-28.62h8.08v57.24h-8.08v-28.62z" fill="#ffd400" /><rect fill="#333" height="200" opacity="0" width="50" x="125" y="100" /></svg>
