<svg xmlns="http://www.w3.org/2000/svg" height="400" version="1" width="300"><path d="M141.46 126.27v64.75c-1.704 1.648-2.947 3.77-3.5 6.155h-8.438l-.124 5.656h8.562c1.287 5.534 6.233 9.658 12.156 9.658 5.925 0 10.87-4.12 12.156-9.657l8.313-.03v-5.656l-8.313.03c-.587-2.528-1.947-4.75-3.812-6.436v-64.47h-17zm4.063 4.03h8.968v57.688h-8.968V130.3zm4.593 62.188c4.14 0 7.5 3.36 7.5 7.5s-3.36 7.5-7.5 7.5-7.5-3.36-7.5-7.5 3.36-7.5 7.5-7.5z" fill="#000407" fill-rule="evenodd" /><path d="M144.89 148.052h9.983v.968h-9.983zM145.06 168.067h9.72v1.056h-9.72z" /><path d="M145.81 139.194v-8.62h8.444v17.24h-8.444v-8.62zM145.81 178.6v-9.323h8.444v18.649h-8.444V178.6z" fill="#d40000" /><path d="M145.81 158.546v-9.324h8.444v18.648h-8.444v-9.324z" fill="#00d400" /><rect fill="#333" height="200" opacity="0" width="50" x="125" y="100" /></svg>
