<svg xmlns="http://www.w3.org/2000/svg" height="400" version="1" width="300"><path d="M141.49 127.295v64.75c-1.704 1.65-2.947 3.77-3.5 6.156h-8.438l-.124 5.657h8.562c1.287 5.533 6.233 9.657 12.156 9.657 5.925 0 10.87-4.12 12.156-9.657l8.313-.03v-5.657l-8.313.03c-.587-2.528-1.947-4.75-3.812-6.436v-64.47h-17zm4.063 4.03h8.968v57.688h-8.968v-57.687zm4.593 62.188c4.14 0 7.5 3.36 7.5 7.5s-3.36 7.5-7.5 7.5-7.5-3.36-7.5-7.5 3.36-7.5 7.5-7.5z" fill="#000407" fill-rule="evenodd" /><path d="M145.84 160.276V131.6h8.444v57.351h-8.444v-28.674z" fill="#d40000" /><rect fill="#333" height="200" opacity="0" width="50" x="125" y="100" /></svg>
