<svg xmlns="http://www.w3.org/2000/svg" height="400" version="1" width="300"><path d="M141.45 126.237v64.75c-1.704 1.65-2.947 3.77-3.5 6.156h-8.438l-.125 5.656h8.563c1.287 5.532 6.233 9.656 12.156 9.656 5.925 0 10.87-4.12 12.156-9.657l8.313-.032v-5.656l-8.313.03c-.587-2.528-1.947-4.75-3.813-6.436v-64.47h-17zm4.063 4.03h8.968v57.688h-8.968v-57.687zm4.593 62.188c4.14 0 7.5 3.36 7.5 7.5s-3.36 7.5-7.5 7.5-7.5-3.36-7.5-7.5 3.36-7.5 7.5-7.5z" fill="#000407" fill-rule="evenodd" /><path d="M145.12 158.91h10.076v.996H145.12zM145.52 144.633V130.39h8.956v28.486h-8.956v-14.243z" /><path d="M145.52 173.928v-13.932h8.956v27.864h-8.956v-13.932z" fill="#ffd400" /><rect fill="#333" height="200" opacity="0" width="50" x="125" y="100" /></svg>
