<svg xmlns="http://www.w3.org/2000/svg" xmlns:xlink="http://www.w3.org/1999/xlink" width="60" height="60"><symbol id="a"><path d="M15.93 1h28.14C52.34 1 59 7.66 59 15.93v28.14C59 52.34 52.34 59 44.07 59H15.93C7.66 59 1 52.34 1 44.07V15.93C1 7.66 7.66 1 15.93 1z" fill="#fff" fill-opacity=".502" stroke="#a30075" stroke-width="2"/><path d="M18.43 4.926L14.9 8.488l3.53 3.5c.266.24.484.505.688.782l-.782 6.156-6.125.844c-.156-.113-.32-.21-.467-.344-.124-.11-.264-.22-.375-.344v-.03h-.032l-3.5-3.5-3.53 3.53 3.343 3.313c.23.257.492.518.75.75 2.995 2.704 7.223 3.238 10.718 1.718.095.123.168.262.28.375l26.47 26.47c1.462 1.46 3.82 1.46 5.28 0 1.463-1.463 1.463-3.82 0-5.282L24.68 19.956c-.122-.12-.242-.21-.375-.31 1.577-3.738.758-8.233-2.312-11.158L18.43 4.926z" fill="#a30075"/></symbol><use xlink:href="#a"/></svg>
