<svg xmlns="http://www.w3.org/2000/svg" xmlns:ns1="http://www.w3.org/1999/xlink" height="400" version="1" width="300"><symbol id="a"><path d="M148.91 126.31c-11.35.58-20.41 10.02-20.41 21.5 0 3.88 1.04 7.51 2.84 10.66-1.25-.23-2.53-.31-3.84-.31-11.75 0-21.47 9.56-21.47 21.53 0 7.24 3.56 13.6 8.97 17.5h-1.19v5.65h24c1.29 5.54 6.24 9.66 12.16 9.66s10.87-4.12 12.15-9.66h24v-5.65h-1.15c5.41-3.9 8.97-10.26 8.97-17.5 0-11.97-9.69-21.53-21.44-21.53-1.31 0-2.6.08-3.84.31 1.8-3.15 2.84-6.78 2.84-10.66 0-11.85-9.65-21.5-21.5-21.5-.27 0-.63-.02-1.09 0zm.18 4c.2-.01.51 0 .91 0 9.69 0 17.5 7.81 17.5 17.5 0 9.69-7.81 17.5-17.5 17.5-9.69 0-17.5-7.81-17.5-17.5 0-9.38 7.34-17.03 16.59-17.5zm-21.59 31.97c9.79 0 17.56 7.83 17.56 17.41 0 9.57-7.77 17.4-17.56 17.4s-17.59-7.83-17.59-17.4c0-9.58 7.8-17.41 17.59-17.41zm45 0c9.79 0 17.56 7.83 17.56 17.41 0 9.57-7.77 17.4-17.56 17.4s-17.59-7.83-17.59-17.4c0-9.58 7.8-17.41 17.59-17.41zm-26.44 6.66c1.28.24 2.59.37 3.94.37 1.34 0 2.64-.14 3.91-.37-1.83 3.16-2.88 6.82-2.88 10.75 0 2.87.58 5.62 1.59 8.12-.85-.18-1.74-.28-2.65-.28-.89 0-1.76.1-2.59.28 1.01-2.5 1.56-5.25 1.56-8.12 0-3.94-1.05-7.59-2.88-10.75zm3.91 23.56c3.14 0 5.82 1.95 6.94 4.69.35.87.56 1.81.56 2.81 0 4.14-3.36 7.5-7.5 7.5-4.14 0-7.5-3.36-7.5-7.5 0-1 .21-1.94.56-2.81 1.12-2.74 3.8-4.69 6.94-4.69zm-6.94 4.69h13.88c-4.68-.01-9.19-.01-13.88 0z" /></symbol><use ns1:href="#a" /><ellipse cx="150" cy="200" fill="#333" opacity="0" rx="80" ry="80" /></svg>
