<svg xmlns="http://www.w3.org/2000/svg" xmlns:ns1="http://www.w3.org/1999/xlink" height="400" version="1" width="300"><symbol id="a"><path d="M159.48 160.26l-28.062-8.844-15.22 45.75h-7.968v5.656h29.688c1.287 5.533 6.233 9.657 12.156 9.657 5.925 0 10.87-4.122 12.156-9.658h29.844V197.166h-7.687l9-26.188-29.938-9.437-3.97-1.28zm-23.03-.22l47.155 15.97-7.22 21.156H162.23c-1.285-5.535-6.23-9.656-12.156-9.656-5.923 0-10.87 4.123-12.156 9.656h-13.72l12.25-37.125zm13.624 32.44c4.14 0 7.5 3.36 7.5 7.5 0 4.14-3.36 7.5-7.5 7.5-4.14 0-7.5-3.36-7.5-7.5 0-4.14 3.36-7.5 7.5-7.5z" /></symbol><use ns1:href="#a" /><ellipse cx="150" cy="200" fill="#333" opacity="0" rx="60" ry="60" /></svg>
