<svg xmlns="http://www.w3.org/2000/svg" height="400" version="1" width="300"><path d="M159.4 160.24l-28.062-8.844-15.22 45.75h-7.968v5.657h29.688c1.288 5.533 6.234 9.656 12.156 9.656 5.925 0 10.87-4.122 12.156-9.657h29.844v-5.657h-7.687l9-26.188-29.938-9.437-3.97-1.28zm-23.03-.22l47.155 15.97-7.22 21.156H162.15c-1.285-5.535-6.23-9.656-12.156-9.656-5.923 0-10.87 4.123-12.156 9.656h-13.72l12.25-37.125zm13.624 32.44c4.14 0 7.5 3.36 7.5 7.5s-3.36 7.5-7.5 7.5-7.5-3.36-7.5-7.5 3.36-7.5 7.5-7.5z" fill="#000407" fill-rule="evenodd" /><path d="M124.29 196.9c.285-1.074 12.12-36.728 12.193-36.728.065 0 43.393 14.633 46.82 15.812.12.042-2.01 6.433-6.25 18.738l-.824 2.395h-14.011l-.207-.716c-1.078-3.74-4.095-6.913-7.826-8.23-4.644-1.64-9.738-.454-13.147 3.057-1.46 1.505-2.553 3.344-3.05 5.133l-.21.757h-6.774c-6.39 0-6.77-.013-6.716-.218z" fill="#00d400" /><ellipse cx="150" cy="200" fill="#333" opacity="0" rx="60" ry="60" /></svg>
