<svg xmlns="http://www.w3.org/2000/svg" height="400" version="1" width="300"><path d="M131.42 151.417l-15.22 45.75h-7.968v5.656h29.688c1.288 5.533 6.234 9.656 12.156 9.656 5.925 0 10.87-4.12 12.156-9.657h29.844v-5.655h-7.687l9.04-26.137zm5.03 8.625l47.157 15.97-7.22 21.155h-14.155c-1.285-5.536-6.23-9.656-12.156-9.656-5.923 0-10.87 4.124-12.156 9.657H124.2zm13.626 32.438c4.14 0 7.5 3.36 7.5 7.5s-3.36 7.5-7.5 7.5-7.5-3.36-7.5-7.5 3.36-7.5 7.5-7.5z" fill="#000407" fill-rule="evenodd" /><path d="M130.685 177.324l47.257 15.812-.262.782-47.256-15.812zM133.234 169.55l47.406 15.86-.225.67-47.405-15.86z" /><path d="M154.29 185.17c-17.353-5.808-23.423-7.873-23.423-7.967 0-.07.506-1.642 1.124-3.493.95-2.84 1.148-3.363 1.273-3.34.256.047 46.72 15.605 46.787 15.667.056.05-2.104 6.57-2.274 6.864-.048.084-5.7-1.777-23.486-7.73z" fill="#ffd400" /><path d="M156.9 177.43c-12.88-4.314-23.442-7.867-23.47-7.896-.038-.037 2.934-9.212 3.044-9.4.018-.03 46.433 15.67 46.845 15.846l.22.094-1.568 4.607c-.862 2.535-1.587 4.605-1.61 4.6-.024-.003-10.58-3.535-23.46-7.85zM126.59 190.07c1.29-3.9 2.693-8.162 3.12-9.47.426-1.308.8-2.378.834-2.378.08 0 46.81 15.64 46.85 15.68.016.017-.21.748-.502 1.625l-.532 1.593-7.035.022-7.035.02-.3-.946c-.877-2.78-2.76-5.23-5.238-6.815-1.88-1.204-4.37-1.918-6.684-1.918s-4.802.714-6.684 1.92c-2.452 1.57-4.327 4.002-5.225 6.78l-.318.98h-13.596l2.344-7.092z" /><ellipse cx="150" cy="200" fill="#333" opacity="0" rx="60" ry="60" /></svg>
