<svg xmlns="http://www.w3.org/2000/svg" height="400" version="1" width="300"><path d="M159.43 160.28l-28.062-8.844-15.22 45.75h-7.968v5.656h29.688c1.288 5.533 6.234 9.657 12.156 9.657 5.925 0 10.87-4.122 12.156-9.658h29.844V197.186h-7.687l9-26.188-29.938-9.437-3.97-1.28zm-23.03-.22l47.155 15.97-7.22 21.156H162.18c-1.285-5.535-6.23-9.656-12.156-9.656-5.923 0-10.87 4.123-12.156 9.656h-13.72l12.25-37.125zm13.624 32.44c4.14 0 7.5 3.36 7.5 7.5s-3.36 7.5-7.5 7.5-7.5-3.36-7.5-7.5 3.36-7.5 7.5-7.5z" fill="#000407" fill-rule="evenodd" /><path d="M130.628 177.34l47.256 15.81-.26.783-47.258-15.812zM133.176 169.564l47.406 15.86-.224.67-47.406-15.86z" /><path d="M165.47 188.94c-6.602-2.215-17.103-5.74-23.336-7.83l-11.332-3.804 1.116-3.443c.614-1.893 1.13-3.458 1.144-3.476.03-.036 46.857 15.622 46.927 15.692.084.084-2.268 6.836-2.392 6.86-.068.016-5.526-1.785-12.128-4z" fill="#00d400" /><path d="M156.82 177.42c-12.862-4.312-23.405-7.856-23.428-7.875-.03-.027 2.94-9.19 3.035-9.36.035-.06 46.76 15.785 46.876 15.898.108.105-2.902 9.217-3.035 9.19-.034-.007-10.586-3.54-23.448-7.853zM124.31 196.93c.204-.892 6.16-18.61 6.257-18.61.07-.003 10.628 3.51 23.464 7.802l23.337 7.806-.52 1.558-.522 1.557-7.034.032-7.034.033-.336-1.028c-1.328-4.06-4.55-7.05-8.897-8.258-.634-.176-1.278-.225-2.985-.23-1.912-.003-2.306.033-3.235.29-4.16 1.153-7.416 4.26-8.716 8.322l-.29.9h-6.763c-5.757 0-6.758-.025-6.724-.174z" fill="#d40000" /><ellipse cx="150" cy="200" fill="#333" opacity="0" rx="60" ry="60" /></svg>
