<svg xmlns="http://www.w3.org/2000/svg" height="400" version="1" width="300"><path d="M159.48 160.26l-28.062-8.844-15.22 45.75h-7.968v5.656h29.688c1.287 5.533 6.233 9.657 12.156 9.657 5.925 0 10.87-4.122 12.156-9.658h29.844V197.166h-7.687l9-26.188-29.938-9.437-3.97-1.28zm-23.03-.22l47.155 15.97-7.22 21.156H162.23c-1.285-5.535-6.23-9.656-12.156-9.656-5.923 0-10.87 4.123-12.156 9.656h-13.72l12.25-37.125zm13.624 32.44c4.14 0 7.5 3.36 7.5 7.5s-3.36 7.5-7.5 7.5-7.5-3.36-7.5-7.5 3.36-7.5 7.5-7.5z" fill="#000407" fill-rule="evenodd" /><path d="M124.54 196.64c.06-.17 2.783-8.443 6.054-18.383l5.947-18.072 3.863 1.326c2.124.73 12.64 4.3 23.367 7.93s19.532 6.634 19.564 6.67c.033.037-1.523 4.713-3.458 10.39l-3.517 10.326-7.01.066-7.007.066-.3-.936c-1.617-5.072-6.45-8.525-11.93-8.525-5.04 0-9.182 2.584-11.355 7.083-.46.954-.837 1.878-.837 2.053 0 .25-1.435.318-6.743.318-5.287 0-6.72-.066-6.637-.31z" fill="#ffd400" /><ellipse cx="150" cy="200" fill="#333" opacity="0" rx="60" ry="60" /></svg>
