<svg xmlns="http://www.w3.org/2000/svg" height="400" version="1" width="300"><path d="M131.42 151.417l-15.22 45.75h-7.968v5.656h29.688c1.288 5.533 6.234 9.656 12.156 9.656 5.925 0 10.87-4.12 12.156-9.657h29.844v-5.655h-7.687l9.04-26.137zm5.03 8.625l47.157 15.97-7.22 21.155h-14.155c-1.285-5.536-6.23-9.656-12.156-9.656-5.923 0-10.87 4.124-12.156 9.657H124.2zm13.626 32.438c4.14 0 7.5 3.36 7.5 7.5s-3.36 7.5-7.5 7.5-7.5-3.36-7.5-7.5 3.36-7.5 7.5-7.5z" fill="#000407" fill-rule="evenodd" /><path d="M131.52 174.29l47.257 15.813-.26.783-47.258-15.812zM124.32 196.99c.024-.092 1.647-5.03 3.608-10.975l3.564-10.808 21.76 7.28c27.09 9.062 25.114 8.394 25.146 8.49.015.046-.44 1.445-1.01 3.11l-1.037 3.027-7.023.02-7.024.022-.316-.97c-1.26-3.874-4.144-6.793-7.976-8.07-1.372-.46-2.264-.595-3.913-.597-1.048-.002-1.656.04-2.273.156-2.53.474-4.74 1.64-6.567 3.46-1.63 1.627-2.6 3.306-3.306 5.726l-.073.252-6.8.022c-6.745.02-6.8.02-6.757-.146z" /><path d="M155.2 182.17c-12.843-4.303-23.363-7.835-23.378-7.85-.022-.02 4.59-14.097 4.65-14.19.02-.03 46.427 15.668 46.848 15.845l.222.094-2.372 6.944c-1.61 4.713-2.413 6.95-2.496 6.96-.067.01-10.63-3.502-23.474-7.804z" fill="#ffd400" /><ellipse cx="150" cy="200" fill="#333" opacity="0" rx="60" ry="60" /></svg>
