<svg xmlns="http://www.w3.org/2000/svg" height="400" version="1" width="300"><path d="M131.42 151.417l-15.22 45.75h-7.968v5.656h29.688c1.288 5.533 6.234 9.656 12.156 9.656 5.925 0 10.87-4.12 12.156-9.657h29.844v-5.655h-7.687l9.04-26.137zm5.03 8.625l47.157 15.97-7.22 21.155h-14.155c-1.285-5.536-6.23-9.656-12.156-9.656-5.923 0-10.87 4.124-12.156 9.657H124.2zm13.626 32.438c4.14 0 7.5 3.36 7.5 7.5s-3.36 7.5-7.5 7.5-7.5-3.36-7.5-7.5 3.36-7.5 7.5-7.5z" fill="#000407" fill-rule="evenodd" /><path d="M129.98 178.803l47.256 15.81-.26.784-47.258-15.812zM132.106 172.163l47.406 15.862-.225.67-47.405-15.86zM134.397 165.79l47.406 15.86-.225.672-47.405-15.862z" /><path d="M158.13 173.69c-12.89-4.318-23.45-7.886-23.463-7.93-.013-.042.387-1.327.89-2.855.655-1.99.947-2.77 1.03-2.75.114.026 46.9 15.856 46.938 15.88.04.028-1.86 5.516-1.907 5.51-.027-.002-10.596-3.537-23.488-7.855zM153.75 186.71c-12.802-4.285-23.313-7.827-23.358-7.87-.092-.087 1.77-5.798 1.892-5.798.115 0 46.802 15.627 46.86 15.684.09.09-1.87 5.738-2 5.757-.065.01-10.592-3.488-23.394-7.774z" fill="#d40000" /><path d="M155.92 180.09c-12.86-4.307-23.38-7.872-23.38-7.922 0-.255 1.81-5.607 1.888-5.58.05.02 10.6 3.55 23.45 7.846s23.392 7.84 23.433 7.877c.1.088-1.792 5.637-1.915 5.622-.052-.006-10.616-3.535-23.475-7.842zM127.13 188.42l2.872-8.7 3.45 1.157c1.9.637 12.41 4.154 23.36 7.816s19.955 6.676 20.01 6.696c.072.025.02.276-.175.86l-.277.826-7.045.022c-5.595.017-7.052 0-7.077-.084-.545-1.78-.86-2.52-1.546-3.632-1.757-2.847-4.66-4.9-7.944-5.615-2.763-.603-5.78-.227-8.277 1.032-3.094 1.56-5.46 4.373-6.392 7.598l-.196.678-6.817.022-6.817.02 2.872-8.698z" fill="#fff" /><ellipse cx="150" cy="200" fill="#333" opacity="0" rx="60" ry="60" /></svg>
