<svg xmlns="http://www.w3.org/2000/svg" height="400" version="1" width="300"><path d="M159.43 160.24l-28.062-8.844-15.22 45.75h-7.968v5.657h29.688c1.288 5.533 6.234 9.656 12.156 9.656 5.925 0 10.87-4.122 12.156-9.657h29.844v-5.657h-7.687l9-26.188-29.938-9.437-3.97-1.28zm-23.03-.22l47.155 15.97-7.22 21.156H162.18c-1.285-5.535-6.23-9.656-12.156-9.656-5.923 0-10.87 4.123-12.156 9.656h-13.72l12.25-37.125zm13.624 32.44c4.14 0 7.5 3.36 7.5 7.5s-3.36 7.5-7.5 7.5-7.5-3.36-7.5-7.5 3.36-7.5 7.5-7.5z" fill="#000407" fill-rule="evenodd" /><path d="M124.32 196.85c.07-.256 12.074-36.65 12.104-36.7.038-.062 46.762 15.784 46.88 15.898.066.066-1.322 4.32-3.44 10.534l-3.55 10.423-7.03.032-7.027.032-.336-1.028c-1.327-4.06-4.55-7.05-8.896-8.258-.634-.176-1.278-.226-2.985-.23-1.913-.003-2.307.033-3.236.29-4.16 1.153-7.416 4.26-8.716 8.32l-.29.903h-6.768c-6.388 0-6.767-.012-6.71-.218z" fill="#d40000" /><ellipse cx="150" cy="200" fill="#333" opacity="0" rx="60" ry="60" /></svg>
