<svg xmlns="http://www.w3.org/2000/svg" xmlns:xlink="http://www.w3.org/1999/xlink" width="60" height="60"><symbol id="a"><rect width="58" height="58" rx="15" ry="15" x="1" y="1" fill="none" stroke="#a30075" stroke-width="2"/><path d="M15.686 57.86c-2.165-.078-3.01-.223-4.576-.788-2.275-.82-4.663-2.576-6.11-4.492-1.442-1.907-2.166-3.49-2.678-5.848l-.24-1.1-.002-15.625-.003-15.625.242-1.1c.132-.606.375-1.488.54-1.96 1.506-4.348 5.27-7.752 9.807-8.867 1.534-.377 4.997-.442 19.587-.367 14.652.075 14.287.06 16.182.694 3.55 1.19 6.434 3.702 8.063 7.024.49 1.005.636 1.394.99 2.67.24.854.278 1.262.37 3.97.143 4.11.054 29.19-.105 29.992-.87 4.386-3.564 8.02-7.392 9.966-1.05.534-1.81.82-3.056 1.153-.72.192-1.304.24-3.866.313-3.608.104-24.816.097-27.754-.01z" fill="#fff" fill-opacity=".5"/><path d="M25.97 7.93c-7.973.268-14.268 6.994-14 14.968v17.375H7.064v5.032H11.97v5.5h5v-5.5h18.97v5.5H40.97v-5.5h.688c.242.425.545.825.906 1.187 1.054 1.053 2.733 1.843 4.72 1.843 1.985 0 3.664-.79 4.718-1.843 1.053-1.054 1.625-2.412 1.625-3.875v-.157l-.032-.156h-.03c-.076-1.343-.584-2.583-1.563-3.562-1.054-1.054-2.733-1.844-4.72-1.844-1.985 0-3.664.79-4.718 1.844-.455.455-.798.98-1.062 1.53h-.532V21.805h-.03C40.6 13.894 33.9 7.662 25.97 7.93zm.188 5c5.254-.178 9.574 3.878 9.78 9.124v18.22H16.97V22.74c-.177-5.274 3.915-9.635 9.188-9.813zm21.125 26.405c.5 0 1.08.207 1.656.782.574.574 1.03 1.478 1.03 2.5 0 1.02-.456 1.925-1.03 2.5-.576.574-1.158.75-1.657.75-.5 0-1.05-.176-1.625-.75-.575-.575-1.03-1.48-1.03-2.5 0-1.022.455-1.926 1.03-2.5.575-.575 1.125-.782 1.625-.782z" fill="#a30075"/></symbol><use xlink:href="#a"/></svg>
