<svg xmlns="http://www.w3.org/2000/svg" xmlns:ns1="http://www.w3.org/1999/xlink" height="400" width="300"><symbol id="a"><path d="M137.72 68.5c-4.986 43.002-10 86-15 129h-10.282v5h22.718c1.205 7.066 7.384 12.5 14.78 12.5 7.4 0 13.547-5.434 14.75-12.5h22.75v-5h-10.28c-4.9-43.01-10.153-85.983-15-129H137.72zm4.436 5h15.563l14.436 124h-7.47c-1.203-7.066-7.35-12.5-14.75-12.5-7.396 0-13.575 5.434-14.78 12.5h-7.437zm7.78 116.5c5.554 0 10 4.448 10 10s-4.446 10-10 10c-5.55 0-10-4.448-10-10s4.45-10 10-10z" /><path d="M186.25 27.563c-.493.01-.97.023-1.47.062-6.32.49-13.097 3.376-19.655 9.53-.987-.22-1.985-.32-3-.31-4.1.03-8.346 1.614-12.22 4.155-7.745 5.082-14.23 14.358-12.186 24.563l4.905-.97c-1.515-7.564 3.56-15.16 10.03-19.406 3.237-2.122 6.745-3.32 9.532-3.343 2.788-.022 4.7.83 6.032 3.156l4.343-2.47c-.69-1.202-1.57-2.215-2.563-3.03 9.027-7.804 17.263-8.293 24.188-5.5 7.533 3.04 13.574 10.482 15.843 17.688 1.136 3.602 1.3 7.108.532 9.843-.767 2.736-2.325 4.77-5.28 6.064-5.56 2.434-16.892 1.612-35.188-7.438.26-.237.535-.487.78-.75 1.063-1.138 2-2.68 2-4.562h-5c0 .265-.088.548-.655 1.156-.568.608-1.55 1.343-2.69 2.125-2.274 1.563-5.268 3.165-6.81 6.344l4.5 2.186c.405-.838 1.742-1.976 3.405-3.187 20.195 10.42 33.356 12.32 41.656 8.686 4.246-1.858 6.983-5.32 8.095-9.28 1.112-3.96.764-8.377-.594-12.688-2.714-8.624-9.474-17.116-18.718-20.844-3.033-1.224-6.358-1.85-9.812-1.782z" /></symbol><use ns1:href="#a" /><rect fill="#333" height="380" opacity="0" width="150" x="75" y="10" /></svg>
