<svg xmlns="http://www.w3.org/2000/svg" height="400" width="300"><g color="#000"><path d="M100 179v42h2.063c.51-6.17 5.63-11 11.937-11h72c6.307 0 11.427 4.83 11.938 11H200v-42h-2.062c-.51 6.17-5.63 11-11.938 11h-72c-6.306 0-11.427-4.83-11.938-11h-2.06z" /><path d="M171 150h-42v2.063c6.17.51 11 5.63 11 11.938v72c0 6.307-4.83 11.427-11 11.938V250h42v-2.062c-6.17-.51-11-5.63-11-11.94v-72c0-6.306 4.83-11.427 11-11.938V150z" /></g><g stroke="#000"><path d="M175.48 199.23c0 13.906-11.006 25.18-24.583 25.18s-24.583-11.274-24.583-25.18 11.006-25.18 24.583-25.18 24.583 11.274 24.583 25.18z" fill="none" stroke-width="4.062" transform="matrix(.9966 0 0 .97306 -.382 6.143)" /><path d="M157.5 201.73c0 4.043-3.118 7.32-6.964 7.32s-6.965-3.277-6.965-7.32 3.12-7.32 6.966-7.32 6.964 3.276 6.964 7.32z" transform="matrix(.67077 0 0 .63805 49.027 71.29)" /></g><ellipse cx="150" cy="200" fill="#333" opacity="0" rx="80" ry="80" /></svg>
