<svg xmlns="http://www.w3.org/2000/svg" height="400" width="300"><path d="M153 200a3 3 0 1 1-6 0 3 3 0 1 1 6 0z" /><path color="#000" d="M186.002 200a36 36 0 1 1-72 0 36 36 0 1 1 72 0z" fill="none" stroke="#000" stroke-linejoin="round" stroke-width="4.000155840000001" /><g color="#000"><path d="M100 179v42h2.063c.51-6.17 5.63-11 11.937-11h72c6.307 0 11.427 4.83 11.938 11H200v-42h-2.062c-.51 6.17-5.63 11-11.938 11h-72c-6.306 0-11.427-4.83-11.938-11h-2.06z" /><path d="M171 150h-42v2.063c6.17.51 11 5.63 11 11.938v72c0 6.307-4.83 11.427-11 11.938V250h42v-2.062c-6.17-.51-11-5.63-11-11.94v-72c0-6.306 4.83-11.427 11-11.938V150z" /></g><ellipse cx="150" cy="200" fill="#333" opacity="0" rx="80" ry="80" /></svg>
