<svg xmlns="http://www.w3.org/2000/svg" xmlns:ns1="http://www.w3.org/1999/xlink" height="400" width="300"><symbol id="a"><path d="M129 150v2.063c6.17.51 11 5.63 11 11.937v26h-26c-6.307 0-11.427-4.83-11.938-11H100v42h2.063c.51-6.17 5.63-11 11.937-11h26v26c0 6.307-4.83 11.427-11 11.938V250h42v-2.063c-6.17-.51-11-5.627-11-11.937v-26h26c6.307 0 11.427 4.83 11.938 11H200v-42h-2.063c-.51 6.17-5.63 11-11.937 11h-26v-26c0-6.307 4.83-11.427 11-11.938V150h-42z" /></symbol><use ns1:href="#a" /><ellipse cx="150" cy="200" fill="#333" opacity="0" rx="80" ry="80" /></svg>
