<svg xmlns="http://www.w3.org/2000/svg" xmlns:ns1="http://www.w3.org/1999/xlink" height="400" version="1" width="300"><symbol id="a"><path d="M166 155.313c-24.657-.093-45.764 17.707-49.97 41.843h-7.81v5.656h29.686c1.288 5.533 6.234 9.657 12.156 9.657 5.925 0 10.872-4.122 12.157-9.657h29.843v-5.657h-6.282c.542-16.21-6.78-31.79-19.78-41.75v-.093zm-2.406 7.093c10.064 8.644 15.652 21.457 15.125 34.75h-16.5c-1.287-5.535-6.233-9.656-12.157-9.656-5.923 0-10.87 4.123-12.157 9.656h-14.812c3.93-19.416 20.567-33.785 40.5-34.75zm-13.53 30.063c4.14 0 7.5 3.36 7.5 7.5 0 4.14-3.36 7.5-7.5 7.5-4.14 0-7.5-3.36-7.5-7.5 0-4.14 3.36-7.5 7.5-7.5z" /></symbol><use ns1:href="#a" /><ellipse cx="150" cy="200" fill="#333" opacity="0" rx="60" ry="60" /></svg>
