<svg xmlns="http://www.w3.org/2000/svg" height="400" version="1" width="300"><path d="M108.23 197.17v5.656h29.688c1.287 5.533 6.233 9.656 12.156 9.656 5.925 0 10.87-4.12 12.156-9.656h29.844V197.17H108.23zm54 0c-1.285-5.536-6.23-9.656-12.156-9.656-5.923 0-10.87 4.123-12.156 9.656h24.312zm-12.156-4.688c4.14 0 7.5 3.36 7.5 7.5s-3.36 7.5-7.5 7.5-7.5-3.36-7.5-7.5 3.36-7.5 7.5-7.5z" fill="#000407" fill-rule="evenodd" /><path d="M15.636 156.98c-3.115-15.327 5.89-30.53 20.985-35.435" fill="none" stroke="#000" stroke-width="4.647" transform="matrix(1.4165 .47394 -.48207 1.4407 172.66 -33.634)" /><path d="M110.54 99.547c7.82 2.71 13.71 9.32 15.584 17.485" fill="none" stroke="#000" stroke-width="3.594" transform="matrix(1.8607 .6226 -.61354 1.8337 19.2 -93.27)" /><path d="M132.12 177.323l47.256 15.812-.26.782-47.258-15.81zM133.234 169.55l47.406 15.86-.225.67-47.405-15.86zM158.14 177.84c-10.394-3.487-18.916-6.343-18.938-6.346-.08-.012 1.515-1.15 2.775-1.98 1.73-1.14 2.943-1.83 4.81-2.734 4.946-2.398 9.97-3.777 15.41-4.23 1.057-.087 1.27-.084 1.465.02.367.196 3.278 3.078 4.316 4.272 1.39 1.6 2.245 2.72 3.417 4.478 2.692 4.035 4.4 7.77 5.823 12.732.025.09 0 .143-.07.138-.06-.005-8.614-2.863-19.008-6.35zM123.2 197.1c0-.035.13-.613.286-1.284 1.15-4.906 3.234-9.705 6.075-13.982 1.047-1.575 2.528-3.53 2.67-3.523.057.004 10.54 3.498 23.295 7.767l23.19 7.76.026 1.39c.014.764.003 1.512-.024 1.662l-.05.273H162.3l-.315-.972c-1.26-3.872-4.145-6.79-7.976-8.07-1.374-.457-2.266-.593-3.915-.594-1.05 0-1.656.04-2.273.156-2.53.474-4.74 1.64-6.567 3.462-1.63 1.626-2.6 3.305-3.306 5.724l-.075.253-7.338.022c-4.036.012-7.337-.007-7.337-.042z" /><path d="M156.45 185.42l-22.914-7.676-.733-.244 1.206-1.305c1.1-1.19 2.386-2.412 3.845-3.65l.556-.474 19.522 6.535c10.737 3.593 19.536 6.546 19.554 6.563.06.054.43 1.81.637 3.022.23 1.336.614 4.682.536 4.667-.016-.003-10.01-3.35-22.21-7.437z" fill="#ffd400" /><ellipse cx="150" cy="200" fill="#333" opacity="0" rx="60" ry="60" /></svg>
