<svg xmlns="http://www.w3.org/2000/svg" height="400" version="1" width="300"><path d="M108.23 197.17v5.656h29.688c1.287 5.533 6.233 9.656 12.156 9.656 5.925 0 10.87-4.12 12.156-9.656h29.844V197.17H108.23zm54 0c-1.285-5.536-6.23-9.656-12.156-9.656-5.923 0-10.87 4.123-12.156 9.656h24.312zm-12.156-4.688c4.14 0 7.5 3.36 7.5 7.5s-3.36 7.5-7.5 7.5-7.5-3.36-7.5-7.5 3.36-7.5 7.5-7.5z" fill="#000407" fill-rule="evenodd" /><path d="M15.636 156.98c-3.115-15.327 5.89-30.53 20.985-35.435" fill="none" stroke="#000" stroke-width="4.647" transform="matrix(1.4165 .47394 -.48207 1.4407 172.66 -33.634)" /><path d="M110.54 99.547c7.82 2.71 13.71 9.32 15.584 17.485" fill="none" stroke="#000" stroke-width="3.594" transform="matrix(1.8607 .6226 -.61354 1.8337 19.2 -93.27)" /><path d="M123.81 194.81c1.92-7.283 5.55-13.69 10.858-19.163 6.315-6.513 14.414-10.86 23.248-12.476 2.568-.47 5.374-.737 5.73-.546.604.323 4.944 4.952 6.14 6.55 4.502 6.008 7.418 12.956 8.46 20.162.148 1.015.32 3.177.382 4.806l.114 2.96H162.29l-.197-.78c-.478-1.895-2.37-4.706-4.065-6.04-1.265-.996-3.32-2.05-4.797-2.465-1.547-.433-4.612-.445-6.186-.024-4.193 1.124-7.603 4.327-8.932 8.39l-.3.92h-14.607l.605-2.293z" fill="#ffd400" /><ellipse cx="150" cy="200" fill="#333" opacity="0" rx="60" ry="60" /></svg>
