<svg xmlns="http://www.w3.org/2000/svg" height="400" version="1" width="300"><path d="M108.23 197.17v5.656h29.688c1.287 5.533 6.233 9.656 12.156 9.656 5.925 0 10.87-4.12 12.156-9.656h29.844V197.17H108.23zm54 0c-1.285-5.536-6.23-9.656-12.156-9.656-5.923 0-10.87 4.123-12.156 9.656h24.312zm-12.156-4.688c4.14 0 7.5 3.36 7.5 7.5s-3.36 7.5-7.5 7.5-7.5-3.36-7.5-7.5 3.36-7.5 7.5-7.5z" fill="#000407" fill-rule="evenodd" /><path d="M15.636 156.98c-3.115-15.327 5.89-30.53 20.985-35.435" fill="none" stroke="#000" stroke-width="4.647" transform="matrix(1.4165 .47394 -.48207 1.4407 172.66 -33.634)" /><path d="M110.54 99.547c7.82 2.71 13.71 9.32 15.584 17.485" fill="none" stroke="#000" stroke-width="3.594" transform="matrix(1.8607 .6226 -.61354 1.8337 19.2 -93.27)" /><path d="M132.12 177.323l47.256 15.812-.26.782-47.258-15.81zM133.234 169.55l47.406 15.86-.225.67-47.405-15.86z" /><path d="M158.52 177.9c-10.21-3.42-18.72-6.265-18.914-6.32-.295-.084-.173-.23.753-.905 6.424-4.675 13.42-7.238 22.162-8.12l.997-.1 1.712 1.62c4.967 4.7 8.977 11 11.14 17.497.453 1.364.798 2.496.767 2.515-.033.018-8.41-2.766-18.62-6.187zM123.25 196.96c0-.4 1.296-4.8 1.864-6.33.732-1.97 2.477-5.55 3.61-7.4.924-1.513 3.342-4.862 3.51-4.86.066 0 10.54 3.49 23.278 7.757l23.158 7.76V197.017l-8.16.046-8.162.046-.302-.93c-.82-2.525-2.8-5.135-5.04-6.638-5.678-3.813-13.403-2.28-17.37 3.447-.572.828-1.708 3.353-1.71 3.807-.003.29-.47.31-7.34.31-4.034 0-7.336-.066-7.336-.147z" fill="#d40000" stroke="#000" stroke-width=".177" /><path d="M155.65 185.11c-12.368-4.153-22.535-7.6-22.594-7.657-.126-.126 3.34-3.653 4.558-4.637l.842-.682 19.398 6.5c10.67 3.574 19.455 6.55 19.525 6.61.183.164.647 2.47.942 4.692.314 2.363.32 2.755.036 2.738-.122-.007-10.34-3.41-22.708-7.564z" fill="#00d400" stroke="#000" stroke-width=".177" /><ellipse cx="150" cy="200" fill="#333" opacity="0" rx="60" ry="60" /></svg>
