<svg xmlns="http://www.w3.org/2000/svg" height="400" version="1" width="300"><path d="M108.23 197.17v5.656h29.688c1.287 5.533 6.233 9.656 12.156 9.656 5.925 0 10.87-4.12 12.156-9.656h29.844V197.17H108.23zm54 0c-1.285-5.536-6.23-9.656-12.156-9.656-5.923 0-10.87 4.123-12.156 9.656h24.312zm-12.156-4.688c4.14 0 7.5 3.36 7.5 7.5s-3.36 7.5-7.5 7.5-7.5-3.36-7.5-7.5 3.36-7.5 7.5-7.5z" fill="#000407" fill-rule="evenodd" /><path d="M15.636 156.98c-3.115-15.327 5.89-30.53 20.985-35.435" fill="none" stroke="#000" stroke-width="4.647" transform="matrix(1.4165 .47394 -.48207 1.4407 172.66 -33.634)" /><path d="M110.54 99.547c7.82 2.71 13.71 9.32 15.584 17.485" fill="none" stroke="#000" stroke-width="3.594" transform="matrix(1.8607 .6226 -.61354 1.8337 19.2 -93.27)" /><path d="M132.88 174.294l47.257 15.812-.262.782-47.257-15.812z" /><path d="M167.65 185.89c-5.76-1.94-15.44-5.18-21.5-7.21l-11.02-3.69.582-.535c3.758-3.447 7.043-5.725 11.075-7.68 4.945-2.397 9.97-3.776 15.41-4.228 1.056-.088 1.27-.085 1.464.018.368.197 3.28 3.08 4.317 4.273 2.548 2.932 4.688 6.148 6.33 9.51 2 4.104 3.12 7.697 3.992 12.835.024.15.002.23-.065.226-.057-.004-4.82-1.588-10.583-3.522z" fill="#ffd400" /><path d="M123.2 197.1c0-.035.13-.613.286-1.284 1.346-5.75 4.01-11.403 7.61-16.158 1.14-1.504 3.198-3.873 3.37-3.878.03 0 9.934 3.3 22.007 7.336 19.167 6.407 21.956 7.36 21.99 7.515.168.766.373 5.627.26 6.22l-.057.313H162.3l-.315-.97c-1.26-3.874-4.145-6.793-7.976-8.072-1.375-.457-2.267-.593-3.916-.594-1.048 0-1.656.04-2.272.156-2.53.475-4.74 1.64-6.568 3.462-1.63 1.626-2.6 3.305-3.306 5.725l-.074.25-7.337.023c-4.036.01-7.338-.007-7.338-.042z" /><ellipse cx="150" cy="200" fill="#333" opacity="0" rx="60" ry="60" /></svg>
