<svg xmlns="http://www.w3.org/2000/svg" height="400" version="1" width="300"><path d="M108.23 197.17v5.656h29.688c1.287 5.533 6.233 9.656 12.156 9.656 5.925 0 10.87-4.12 12.156-9.656h29.844V197.17H108.23zm54 0c-1.285-5.536-6.23-9.656-12.156-9.656-5.923 0-10.87 4.123-12.156 9.656h24.312zm-12.156-4.688c4.14 0 7.5 3.36 7.5 7.5s-3.36 7.5-7.5 7.5-7.5-3.36-7.5-7.5 3.36-7.5 7.5-7.5z" fill="#000407" fill-rule="evenodd" /><path d="M15.636 156.98c-3.115-15.327 5.89-30.53 20.985-35.435" fill="none" stroke="#000" stroke-width="4.647" transform="matrix(1.4165 .47394 -.48207 1.4407 172.66 -33.634)" /><path d="M110.54 99.547c7.82 2.71 13.71 9.32 15.584 17.485" fill="none" stroke="#000" stroke-width="3.594" transform="matrix(1.8607 .6226 -.61354 1.8337 19.2 -93.27)" /><path d="M132.88 174.294l47.257 15.812-.262.782-47.257-15.812zM167.65 185.89c-5.76-1.94-15.44-5.18-21.5-7.21l-11.02-3.69.582-.535c3.758-3.447 7.043-5.725 11.075-7.68 4.945-2.397 9.97-3.776 15.41-4.228 1.056-.088 1.27-.085 1.464.018.368.197 3.28 3.08 4.317 4.273 2.548 2.932 4.688 6.148 6.33 9.51 2 4.104 3.12 7.697 3.992 12.835.024.15.002.23-.065.226-.057-.004-4.82-1.588-10.583-3.522z" /><path d="M123.22 197.04c0-.272.88-3.6 1.233-4.667 1.715-5.173 4.53-10.284 7.844-14.237.924-1.103 2.08-2.357 2.17-2.357.09 0 43.904 14.64 43.956 14.686.145.13.38 4.717.303 5.874l-.055.82h-16.375l-.3-.946c-.877-2.778-2.76-5.23-5.237-6.815-1.882-1.206-4.37-1.92-6.684-1.92s-4.803.714-6.684 1.92c-2.453 1.57-4.328 4.003-5.225 6.78l-.317.98h-7.314c-6.29 0-7.314-.016-7.314-.12z" fill="#ffd400" /><ellipse cx="150" cy="200" fill="#333" opacity="0" rx="60" ry="60" /></svg>
