<svg xmlns="http://www.w3.org/2000/svg" height="400" version="1" width="300"><path d="M108.23 197.17v5.656h29.688c1.287 5.533 6.233 9.656 12.156 9.656 5.925 0 10.87-4.12 12.156-9.656h29.844V197.17H108.23zm54 0c-1.285-5.536-6.23-9.656-12.156-9.656-5.923 0-10.87 4.123-12.156 9.656h24.312zm-12.156-4.688c4.14 0 7.5 3.36 7.5 7.5s-3.36 7.5-7.5 7.5-7.5-3.36-7.5-7.5 3.36-7.5 7.5-7.5z" fill="#000407" fill-rule="evenodd" /><path d="M15.636 156.98c-3.115-15.327 5.89-30.53 20.985-35.435" fill="none" stroke="#000" stroke-width="4.647" transform="matrix(1.4165 .47394 -.48207 1.4407 172.66 -33.634)" /><path d="M110.54 99.547c7.82 2.71 13.71 9.32 15.584 17.485" fill="none" stroke="#000" stroke-width="3.594" transform="matrix(1.8607 .6226 -.61354 1.8337 19.2 -93.27)" /><path d="M129.507 177.82l49.628 16.605-.262.782-49.628-16.605zM132.99 170.976l47.404 15.86-.224.672-47.406-15.862zM141.768 165.507l35.27 11.8-.225.67-35.27-11.8z" /><path d="M160.4 171.69c-7.593-2.542-13.862-4.644-13.932-4.673-.27-.113 3.177-1.596 5.555-2.39 3.532-1.178 6.9-1.846 10.835-2.147l.69-.052.825.752c3.283 2.994 5.94 6.223 8.194 9.964.67 1.113 1.72 3.09 1.666 3.14-.015.015-6.24-2.052-13.833-4.594zM155.29 186.41l-23.375-7.828.682-.81c.375-.447 1.542-1.673 2.594-2.725l1.914-1.913 2.01.678c1.104.373 10.262 3.44 20.35 6.816s18.363 6.156 18.385 6.18c.08.08.44 2.298.603 3.728.16 1.415.315 3.734.246 3.713l-23.41-7.84z" fill="#00d400" /><path d="M157.83 179.25c-10.81-3.622-19.725-6.612-19.81-6.644-.13-.05-.078-.124.337-.467.878-.73 2.3-1.77 3.513-2.574 1.37-.908 3.42-2.088 3.543-2.04.047.017 6.676 2.235 14.732 4.93l14.647 4.898.156.353c.502 1.142 1.268 3.137 1.637 4.267.59 1.808 1.124 3.874 1 3.866-.054-.003-8.944-2.97-19.755-6.59zM123.23 196.99c0-.238.57-2.506.92-3.665 1.195-3.947 2.97-7.76 5.2-11.175.716-1.096 1.922-2.788 1.987-2.788.014 0 10.665 3.56 23.667 7.913 13.003 4.353 23.654 7.913 23.67 7.913.017 0 .03.436.03.97v.967l-8.225-.02-8.227-.023-.114-.42c-.717-2.647-2.53-5.243-4.783-6.85-.868-.617-2.472-1.425-3.443-1.73-1.565-.495-3.21-.68-4.86-.546-5.162.415-9.446 3.88-10.97 8.874l-.217.714h-7.318c-6.644 0-7.32-.012-7.32-.134z" fill="#fff" /><ellipse cx="150" cy="200" fill="#333" opacity="0" rx="60" ry="60" /></svg>
