<svg xmlns="http://www.w3.org/2000/svg" height="400" version="1" width="300"><path d="M108.23 197.17v5.656h29.688c1.287 5.533 6.233 9.656 12.156 9.656 5.925 0 10.87-4.12 12.156-9.656h29.844V197.17H108.23zm54 0c-1.285-5.536-6.23-9.656-12.156-9.656-5.923 0-10.87 4.123-12.156 9.656h24.312zm-12.156-4.688c4.14 0 7.5 3.36 7.5 7.5s-3.36 7.5-7.5 7.5-7.5-3.36-7.5-7.5 3.36-7.5 7.5-7.5z" fill="#000407" fill-rule="evenodd" /><path d="M15.636 156.98c-3.115-15.327 5.89-30.53 20.985-35.435" fill="none" stroke="#000" stroke-width="4.647" transform="matrix(1.4165 .47394 -.48207 1.4407 172.66 -33.634)" /><path d="M110.54 99.547c7.82 2.71 13.71 9.32 15.584 17.485" fill="none" stroke="#000" stroke-width="3.594" transform="matrix(1.8607 .6226 -.61354 1.8337 19.2 -93.27)" /><path d="M123.25 196.96c0-.08.274-1.146.61-2.367 2.865-10.46 9.275-19.267 18.306-25.154 6.027-3.93 12.37-6.074 20.354-6.88l.997-.1 1.712 1.62c8.302 7.858 13.237 19.106 13.405 30.552l.035 2.387-8.16.044-8.162.046-.302-.93c-.82-2.525-2.8-5.134-5.04-6.637-5.678-3.814-13.403-2.28-17.37 3.447-.572.828-1.708 3.353-1.71 3.808-.003.29-.47.31-7.34.31-4.034 0-7.336-.067-7.336-.148z" fill="#d40000" stroke="#000" stroke-width=".177" /><ellipse cx="150" cy="200" fill="#333" opacity="0" rx="60" ry="60" /></svg>
