<svg xmlns="http://www.w3.org/2000/svg" xmlns:xlink="http://www.w3.org/1999/xlink" width="60" height="60"><symbol id="a"><rect width="58" height="58" rx="15" ry="15" x="1" y="1" fill="#fff" fill-opacity=".5" stroke="#a30075" stroke-width="2"/><path d="M31.818 8.522c-4.26 0-7.68 3.435-7.68 7.66 0 2.994 2.112 5.79 4.573 7.12l-.02 4.078c0 1.032.783 2.29 1.747 2.59l.15.043.13.043.152.043.128.042.15.065.13.043.28.108.282.13.28.13.26.15.258.13.26.15.107.065.13.065.107.065.108.064.108.087.108.064.086.065.087.043.085.087.086.043.066.064.086.044.043.064.065.043c1.433 1.232 2.33 3.063 2.33 5.158 0 3.693-3.057 6.754-6.818 6.754-3.826 0-6.883-3.06-6.883-6.754 0-1.297-1.17-2.567-2.57-2.567-1.13 0-2.13.768-2.394 1.9-.102.465-.065.968-.065 1.467 0 6.686 5.493 12.17 12.28 12.17 6.72 0 12.21-5.484 12.21-12.17 0-3.726-1.613-7.028-4.206-9.257-.465-.4-2.46-1.232-3.56-1.963-1.03-.732-1.058-.916-1.058-2.978 3.46-.7 6.02-3.796 6.02-7.488 0-4.225-3.415-7.66-7.638-7.66zm0 3.603c2.115 0 3.863 1.79 3.863 3.906 0 2.17-1.747 3.84-3.862 3.84h-.194l-.194-.02-.194-.022-.194-.02-.195-.045-.194-.064-.172-.044-.194-.065-.172-.085-.173-.087-.15-.086-.173-.108-.15-.086-.152-.13-.15-.108-.13-.13-.13-.13-.13-.15-.13-.13-.106-.15-.088-.15-.108-.174-.086-.172-.086-.173-.065-.172-.065-.172-.043-.194-.066-.173-.02-.195-.023-.194-.02-.194v-.215c0-2.115 1.778-3.905 3.948-3.905z" fill="#a30075" stroke="#000" stroke-width="0"/></symbol><use xlink:href="#a"/></svg>
