<svg xmlns="http://www.w3.org/2000/svg" xmlns:ns1="http://www.w3.org/1999/xlink" height="400" width="300"><symbol id="a"><path d="M119 67v8h62v-8h-62zm27-33v152h8V34h-8zm-33.47 163.53v5h25v-5h-25zm50 0v5h25v-5h-25zm-12.486-12.49c-8.254 0-15 6.746-15 15 0 8.256 6.746 15 15 15 8.255 0 15-6.744 15-15 0-8.254-6.745-15-15-15zm0 5c5.553 0 10 4.45 10 10 0 5.553-4.447 10-10 10-5.552 0-10-4.447-10-10 0-5.55 4.448-10 10-10z" /></symbol><use ns1:href="#a" /><rect fill="#333" height="380" opacity="0" width="100" x="100" y="10" /></svg>
