<svg xmlns="http://www.w3.org/2000/svg" xmlns:ns1="http://www.w3.org/1999/xlink" height="400" width="300"><symbol id="a"><path d="M140.938 39.22l-2.188 1.25c-24.324 14.043-30.79 47.774-15 75.124 4.397 7.615 10.086 13.985 16.53 18.906h-.53l-.25 2.25-5 50-.156 1.813c-2.65 2.24-4.52 5.38-5.125 8.937H106.5a2.5 2.5 0 0 0-.25 0 2.503 2.503 0 1 0 .25 5h22.72c1.202 7.068 7.38 12.5 14.78 12.5 7.4 0 13.578-5.432 14.78-12.5h22.72a2.5 2.5 0 1 0 0-5h-22.72c-.604-3.558-2.474-6.696-5.124-8.938l-.156-1.812-4.688-46.813c15.16 7.953 32.806 8.703 47.5.22l2.157-1.25-1.25-2.188-26.97-46.75.156-.157 6.188-6.25-1.094-1.626-7.875 3.344-.063.032-25.375-43.937-1.25-2.156zm-1.782 6.936l52.438 90.78c-21.402 10.64-49.378.62-63.5-23.842-14.12-24.457-8.842-53.72 11.062-66.938zm32.406 39.625l-1.656 1.69-.437-.782 2.093-.907zM144 142.25l4.22 42.25h-8.44l4.22-42.25zm0 47.75c5.332 0 9.634 4.1 9.97 9.344a2.503 2.503 0 0 0 0 1.312 2.503 2.503 0 0 0 0 .03c-.35 5.23-4.65 9.314-9.97 9.314-5.447 0-9.804-4.283-9.97-9.688a2.5 2.5 0 0 0 0-.625c.166-5.404 4.523-9.687 9.97-9.687z" /></symbol><use ns1:href="#a" /><rect fill="#333" height="380" opacity="0" width="100" x="100" y="10" /></svg>
