<svg xmlns="http://www.w3.org/2000/svg" width="200" height="200"><path d="M97.503 51.482l-6.16.64-6.052 1.414-5.787 2.107-5.39 2.854-4.83 3.547-4.17 4.24-3.61 4.748-3.212 5.147-3.025 5.306 3.61 2.107 1.354-2.267 3.238-5.174 3.504-4.907 4.01-4.427 4.62-3.788 5.255-3.013 5.708-2.24 6.053-1.414 6.24-.56 6.265.293 6.16 1.147 5.866 2 5.388 2.774 4.78 3.546 4.062 4.24 3.424 4.855 2.947 5.227 2.63 5.575 2.495 5.68 4.805 3.654-1.062-5.627-1.54-5.84-2.31-5.655-3.08-5.308-3.77-4.854-4.406-4.374-4.885-3.734-5.336-3.067-5.654-2.32-5.894-1.6-6.08-.827-6.154-.103zM54.363 84.5l-1.328 6.107-.902 5.974-.133 5.95.77 5.946 1.274 5.974 22.3-12.4 5.15 3.04 5.258 3.013 5.39 2.667 5.654 2.08 5.894 1.28 6.027.56 6.106-.053 6.08-.72 5.867-1.467 5.55-2.267 5.15-3.067 4.83-3.6 4.7-3.894-4.513-3.734-4.832-3.574-5.177-2.987-5.576-2.214-5.893-1.44-6.08-.773-6.107-.134-6.053.48-5.894 1.254-5.6 2.08-5.39 2.774-5.284 2.934-5.257 2.933-21.993-12.727zm74.945 10.908c2.345 0 4.248 1.912 4.248 4.268 0 2.355-1.903 4.267-4.248 4.267s-4.248-1.912-4.248-4.267c0-2.358 1.905-4.27 4.247-4.27zm18.69 8.775l-5.124 3.92-1.115 3.174-2.178 5.708-2.548 5.468-3.213 5.014-4.034 4.454-4.78 3.84-5.335 3.12-5.734 2.322-5.92 1.493-6.027.667-6.08-.16-6-1.014-5.868-1.786-5.602-2.587-5.15-3.307-4.487-4-3.796-4.668-3.212-5.12-2.92-5.36-3.61 2.106.344.746 2.786 5.388 3.186 5.12 3.823 4.64 4.514 4.082 5.043 3.467 5.442 2.826 5.76 2.08 5.948 1.44 6.053.615 6.08-.133 5.974-.906 5.813-1.707 5.55-2.426 5.282-3.094 4.86-3.707 4.352-4.294 3.717-4.774 2.868-5.254 2.176-5.6 1.7-5.842 1.457-5.948z" fill="#a30075"/></svg>
