<svg xmlns="http://www.w3.org/2000/svg" xmlns:ns1="http://www.w3.org/1999/xlink" height="400" width="300"><symbol id="a"><path d="M141.5 25v160.22c-6.25 1.063-11.217 6.03-12.28 12.28H106.5v5h22.72c1.202 7.068 7.38 12.5 14.78 12.5 7.4 0 13.578-5.432 14.78-12.5h22.72v-5h-22.72c-1.063-6.25-6.03-11.217-12.28-12.28V84.5h42v-47h-42V25h-5zm5 17.5h37v37h-37v-37zM144 190c5.552 0 10 4.448 10 10s-4.448 10-10 10-10-4.448-10-10 4.448-10 10-10z" /></symbol><use ns1:href="#a" /><rect fill="#333" height="380" opacity="0" width="100" x="100" y="10" /></svg>
