<svg xmlns="http://www.w3.org/2000/svg" xmlns:ns1="http://www.w3.org/1999/xlink" height="400" width="300"><symbol id="a"><path d="M162.813 20.094s-2.83 2.32-6.563 5.812l-.063-.03c-.014.03-.017.06-.03.093-4.133 3.874-9.422 9.27-14.47 15.81-4.85 6.287-9.303 13.426-11.656 20.845-2.352 7.42-2.6 15.192 1.126 22.313.832 1.59 1.8 2.902 2.844 4v99.937c-2.463 2.217-4.203 5.227-4.78 8.625H106.5a2.5 2.5 0 0 0-.25 0 2.503 2.503 0 1 0 .25 5h22.72c1.202 7.068 7.38 12.5 14.78 12.5 7.4 0 13.578-5.432 14.78-12.5h22.72a2.5 2.5 0 1 0 0-5h-22.72c-.577-3.398-2.317-6.408-4.78-8.625V87.22c.41-.444.81-.897 1.188-1.376 3.82-4.867 5.24-9.442 5.28-13.844.04-4.402-1.217-8.57-2.468-12.906-2.46-8.527-5.04-17.715.688-31.344 3.265-3.018 6-5.344 6-5.344l-1.875-2.312zm-8.938 12.437c-3.16 11.38-.863 20.085 1.25 27.407 1.255 4.348 2.38 8.228 2.344 12.032-.036 3.803-1.168 7.585-4.657 12.03-.274.348-.55.677-.844 1h-17.314c-.282-.443-.543-.923-.812-1.438-3.29-6.288-3.13-13.123-.938-20.03 2.19-6.91 6.44-13.795 11.156-19.907 3.284-4.256 6.647-7.87 9.813-11.094zM149 91.126V99.5l-7.125-6.656c.48.03.956.032 1.438 0 1.973-.13 3.887-.755 5.687-1.72zm-10 1.156c.348.12.71.2 1.063.282l8.937 8.344v20.406l-10-10v-19.03zm0 20.407l10 10V141.5l-10-9.375v-19.438zm0 20.813l10 9.375v20.656l-10-10.155V133.5zm0 21.28l10 10.157v19.344l-10-8.936V154.78zm0 21.907l9.28 8.313H139v-8.313zM144 190c5.332 0 9.634 4.1 9.97 9.344a2.503 2.503 0 0 0 0 1.344c-.35 5.227-4.65 9.312-9.97 9.312-5.447 0-9.804-4.283-9.97-9.688a2.5 2.5 0 0 0 0-.625c.166-5.404 4.523-9.687 9.97-9.687z" /></symbol><use ns1:href="#a" /><rect fill="#333" height="380" opacity="0" width="100" x="100" y="10" /></svg>
