<svg xmlns="http://www.w3.org/2000/svg" height="400" version="1" width="300"><path d="M141.43 190.96c-1.704 1.65-2.925 3.84-3.478 6.224l-41.906-.022.03 5.634 41.833.044c1.286 5.533 6.254 9.744 12.177 9.744 5.925 0 10.893-4.208 12.178-9.744l41.76-.03-.045-5.635-41.737.01c-.587-2.53-1.822-4.512-3.688-6.2l-1.524-1.272-1.88-1.21-2.304-.716-2.91-.296-2.864.286-2.173.688-1.913 1.185-1.557 1.31zm8.656 1.624c4.14 0 7.5 3.36 7.5 7.5s-3.36 7.5-7.5 7.5-7.5-3.36-7.5-7.5 3.36-7.5 7.5-7.5z" fill="#000407" fill-rule="evenodd" /><path d="M138.19 157.255h23.944l5.827 16.563-35.958.02 6.188-16.584z" fill="none" stroke="#000" stroke-width="4.237" /><path d="M113.81 199.97l-11.787-35.008 15.957 8.998 64.123.036 15.884-9.034-11.963 35.008" fill="none" stroke="#000" stroke-width="4" /><path d="M109.38 183.04h81.603v.933H109.38z" /><path d="M135.64 170.556c.204-.513 1.2-3.172 2.213-5.91l1.843-4.975 10.433-.064 10.432-.064 2.03 5.796c1.118 3.187 2.032 5.876 2.032 5.973 0 .1-6.605.18-14.677.18H135.27l.37-.934zM114.98 196.8c-.415-1.103-4.097-12.278-4.097-12.434 0-.106 17.577-.192 39.06-.192s39.06.094 39.06.21c0 .176-1.94 5.975-3.78 11.296l-.495 1.43h-11.18c-8.73 0-11.2-.067-11.27-.31-1.012-3.528-3.958-6.94-7.29-8.438-2.818-1.27-7.736-1.163-10.503.227-2.156 1.08-4.33 3.28-5.44 5.5-.525 1.047-1.02 2.155-1.1 2.462l-.146.56h-11.352c-8.853 0-11.377-.07-11.468-.312z" fill="#d40000" /><path d="M110.26 182.62c-1.218-3.426-4.307-12.754-4.244-12.818.048-.047 2.59 1.347 5.65 3.098l5.562 3.184 32.716.068 32.716.067 5.594-3.22c3.077-1.77 5.634-3.18 5.682-3.133s-.902 3.006-2.11 6.573l-2.2 6.485-39.628.003c-31.48.002-39.65-.06-39.738-.308z" fill="#00d400" /><ellipse cx="150" cy="200" fill="#333" opacity="0" rx="80" ry="80" /></svg>
