<svg xmlns="http://www.w3.org/2000/svg" height="400" version="1" width="300"><path d="M141.45 190.98c-1.704 1.65-2.925 3.84-3.478 6.224l-41.906-.022.03 5.634 41.833.044c1.286 5.533 6.254 9.744 12.177 9.744 5.925 0 10.893-4.208 12.178-9.744l41.76-.03-.045-5.635-41.737.01c-.587-2.53-1.822-4.512-3.688-6.2l-1.524-1.272-1.88-1.21-2.304-.716-2.91-.296-2.864.286-2.173.688-1.913 1.185-1.557 1.31zm8.656 1.624c4.14 0 7.5 3.36 7.5 7.5s-3.36 7.5-7.5 7.5-7.5-3.36-7.5-7.5 3.36-7.5 7.5-7.5z" fill="#000407" fill-rule="evenodd" /><path d="M138.22 157.275h23.944l5.827 16.563-35.958.02 6.188-16.584z" fill="none" stroke="#000" stroke-width="4.237" /><path d="M113.83 199.99l-11.787-35.008L118 173.98l64.123.036 15.884-9.034-11.963 35.008" fill="none" stroke="#000" stroke-width="4" /><path d="M149.5 158.736h1v29.544h-1z" /><path d="M113.8 193.27c-2.433-7.113-7.997-23.705-7.95-23.705.027 0 2.643 1.464 5.814 3.255l5.767 3.254h31.971v11.395l-1.183.127c-2.578.276-4.78 1.358-6.792 3.34-1.522 1.497-2.777 3.57-3.277 5.414l-.227.834h-22.78l-1.34-3.914zM135.33 171.53c0-.116 3.72-10.193 4.313-11.68.113-.283.516-.308 4.942-.308h4.82v12.14h-7.038c-3.87 0-7.037-.07-7.037-.152z" fill="#fff" /><path d="M150.63 165.61v-6.07h9.98l1.1 3.123c.604 1.718 1.562 4.45 2.128 6.07l1.03 2.946H150.63v-6.07zM162.36 197.05c-.042-.073-.177-.45-.3-.837-.876-2.762-3.352-5.704-6.213-7.38-.95-.557-2.716-1.09-4.12-1.243l-1.1-.12v-11.4h32.14l5.586-3.178c3.073-1.748 5.627-3.137 5.677-3.088.05.05-2.003 6.21-4.562 13.69l-4.652 13.598-11.19.046c-6.154.025-11.224-.015-11.266-.088z" fill="#d40000" /><ellipse cx="150" cy="200" fill="#333" opacity="0" rx="80" ry="80" /></svg>
