<svg xmlns="http://www.w3.org/2000/svg" height="400" version="1" width="300"><path d="M141.45 190.98c-1.704 1.65-2.925 3.84-3.478 6.224l-41.906-.022.03 5.634 41.833.044c1.286 5.533 6.254 9.744 12.177 9.744 5.925 0 10.893-4.208 12.178-9.744l41.76-.03-.045-5.635-41.737.01c-.587-2.53-1.822-4.512-3.688-6.2l-1.524-1.272-1.88-1.21-2.304-.716-2.91-.296-2.864.286-2.173.688-1.913 1.185-1.557 1.31zm8.656 1.624c4.14 0 7.5 3.36 7.5 7.5s-3.36 7.5-7.5 7.5-7.5-3.36-7.5-7.5 3.36-7.5 7.5-7.5z" fill="#000407" fill-rule="evenodd" /><path d="M138.22 157.275h23.944l5.827 16.563-35.958.02 6.188-16.584z" fill="none" stroke="#000" stroke-width="4.237" /><path d="M113.83 199.99l-11.787-35.008L118 173.98l64.123.036 15.884-9.034-11.963 35.008" fill="none" stroke="#000" stroke-width="4" /><path d="M109.41 183.06h81.603v.933H109.41zM135.44 164.936h28v.933h-28z" /><path d="M137.88 164.64c0-.073.415-1.26.924-2.638l.925-2.507 10.45.044 10.45.042.842 2.375c.465 1.306.848 2.474.854 2.595.007.174-2.55.22-12.217.22-6.726 0-12.228-.06-12.23-.132zM108.09 176.34c-1.223-3.604-2.224-6.606-2.223-6.672s2.585 1.34 5.744 3.123l5.744 3.242h65.492l5.447-3.1c2.995-1.706 5.545-3.14 5.666-3.186.12-.047-.79 2.892-2.024 6.53l-2.243 6.615-39.69.002h-39.69l-2.223-6.552z" fill="#d40000" /><path d="M135.24 171.59c0-.024.464-1.27 1.03-2.77l1.03-2.728h25.604l.94 2.64c.517 1.45.942 2.697.944 2.77.002.073-6.645.132-14.773.132-8.127 0-14.777-.02-14.776-.044zM112.92 190.72c-1.2-3.534-2.142-6.463-2.096-6.51s17.7-.063 39.233-.04l39.15.046-2.2 6.465-2.198 6.466H162.362l-.302-.924c-.707-2.16-1.886-3.932-3.624-5.44-1.665-1.447-3.073-2.308-4.545-2.778-1.14-.364-1.665-.422-3.87-.424-2.167-.002-2.748.06-3.863.403-3.562 1.097-6.73 4.36-8 8.24l-.303.923H115.1l-2.18-6.426z" fill="#fff" /><ellipse cx="150" cy="200" fill="#333" opacity="0" rx="80" ry="80" /></svg>
