<svg xmlns="http://www.w3.org/2000/svg" xmlns:ns1="http://www.w3.org/1999/xlink" height="400" version="1" width="300"><symbol id="a"><path d="M136.844 155.156c-.015 0-4.004 10.553-6.344 16.813h-12.03c-6.665-3.766-13.328-7.534-20-11.282 4.146 12.152 8.215 24.33 12.31 36.5H96.063l.032 5.625 41.844.062c1.287 5.533 6.233 9.72 12.156 9.72 5.925 0 10.902-4.184 12.187-9.72l41.75-.03-.03-5.657h-14.906c4.16-12.19 8.38-24.36 12.5-36.563-6.655 3.84-13.35 7.613-20.03 11.406h-11.94c-1.988-5.624-3.97-11.252-5.968-16.874-9.765.006-18.05-.012-26.812 0zm2.844 4.25h20.968L165 171.72l-29.906.03zm-34.094 9.875c3.954 2.237 7.924 4.446 11.875 6.69l65.186.06c3.914-2.262 7.852-4.482 11.78-6.718l-9.56 27.875-22.626.032c-.587-2.53-1.822-4.534-3.688-6.22l-1.5-1.28-1.906-1.19-2.28-.718-2.907-.312-2.876.28-2.188.69-1.906 1.186-1.563 1.313c-1.704 1.648-2.915 3.864-3.468 6.25l-22.97-.032zm44.5 23.314c4.14 0 7.5 3.36 7.5 7.5 0 4.14-3.36 7.5-7.5 7.5-4.14 0-7.5-3.36-7.5-7.5 0-4.14 3.36-7.5 7.5-7.5z" /></symbol><use ns1:href="#a" /><ellipse cx="150" cy="200" fill="#333" opacity="0" rx="80" ry="80" /></svg>
