<svg xmlns="http://www.w3.org/2000/svg" height="400" version="1" width="300"><path d="M141.42 191c-1.704 1.65-2.925 3.84-3.478 6.224l-41.906-.022.03 5.634 41.833.044c1.286 5.533 6.254 9.744 12.177 9.744 5.925 0 10.893-4.208 12.178-9.744l41.76-.03-.045-5.635-41.737.01c-.587-2.53-1.822-4.512-3.688-6.2l-1.524-1.272-1.88-1.21-2.304-.716-2.91-.296-2.864.286-2.173.688-1.913 1.185-1.557 1.31zm8.656 1.624c4.14 0 7.5 3.36 7.5 7.5s-3.36 7.5-7.5 7.5-7.5-3.36-7.5-7.5 3.36-7.5 7.5-7.5z" fill="#000407" fill-rule="evenodd" /><path d="M138.18 157.293h23.944l5.827 16.563-35.958.02 6.188-16.584z" fill="none" stroke="#000" stroke-width="4.237" /><path d="M113.8 200.01l-11.787-35.008L117.97 174l64.123.036 15.884-9.034-11.963 35.008" fill="none" stroke="#000" stroke-width="4" /><path d="M109.37 183.07h81.603v.933H109.37zM136.67 168.168l2.253-5.97.982-2.613h10.135c5.575 0 10.253.19 10.397.422.144.233 1.14 2.92 2.216 5.97l1.954 5.55H135.4l1.27-3.36zM113.12 190.68l-2.06-6.22h38.77c21.32 0 38.767.176 38.767.39s-.86 2.957-1.91 6.095l-1.91 5.706-11.173.134-11.173.134-.588-1.626c-2.316-6.39-11.114-9.836-17.37-6.807-2.496 1.207-5.365 4.352-6.154 6.746l-.55 1.67h-22.589l-2.06-6.22z" /><path d="M110.32 182.6c-.64-1.132-3.89-11.673-3.666-11.897.146-.146 2.576 1.04 5.4 2.632l5.136 2.898 32.447.19 32.447.19 5.533-3.083c3.043-1.696 5.624-2.992 5.735-2.88.11.11-.71 2.93-1.825 6.262l-2.027 6.06h-39.484c-21.716 0-39.58-.167-39.696-.372z" fill="#d40000" /><ellipse cx="150" cy="200" fill="#333" opacity="0" rx="80" ry="80" /></svg>
