<svg xmlns="http://www.w3.org/2000/svg" height="400" version="1" width="300"><path d="M141.4 191.02c-1.704 1.65-2.925 3.84-3.478 6.224l-41.906-.022.03 5.634 41.833.044c1.286 5.533 6.254 9.744 12.177 9.744 5.925 0 10.893-4.208 12.178-9.744l41.76-.03-.045-5.635-41.737.01c-.587-2.53-1.822-4.512-3.688-6.2L157 189.774l-1.88-1.21-2.304-.716-2.91-.296-2.864.286-2.173.688-1.913 1.185-1.557 1.31zm8.656 1.624c4.14 0 7.5 3.36 7.5 7.5s-3.36 7.5-7.5 7.5-7.5-3.36-7.5-7.5 3.36-7.5 7.5-7.5z" fill="#000407" fill-rule="evenodd" /><path d="M138.16 157.313h23.944l5.827 16.563-35.958.02 6.188-16.584z" fill="none" stroke="#000" stroke-width="4.237" /><path d="M113.78 200.03l-11.787-35.008 15.957 8.998 64.123.036 15.884-9.034-11.963 35.008" fill="none" stroke="#000" stroke-width="4" /><path d="M107.73 180.11h84.837v.933H107.73z" /><path d="M114.95 196.86c-.414-1.1-5.092-15.266-5.092-15.42 0-.105 18.073-.19 40.163-.19h40.164l-1.31 3.793c-.723 2.086-1.96 5.67-2.75 7.96l-1.437 4.168h-11.175c-8.727 0-11.194-.067-11.264-.31-1.012-3.528-3.958-6.94-7.29-8.438-2.818-1.27-7.736-1.162-10.503.227-2.156 1.082-4.33 3.28-5.442 5.5-.523 1.048-1.018 2.155-1.098 2.463l-.146.558h-11.352c-8.853 0-11.377-.067-11.468-.31z" fill="#ffd400" /><path d="M109.23 179.694c-1.53-4.338-3.325-9.756-3.255-9.826.05-.05 2.595 1.34 5.655 3.092l5.562 3.184 32.716.068 32.716.067 5.595-3.22c3.076-1.77 5.635-3.18 5.685-3.128s-.675 2.337-1.614 5.08L190.586 180l-40.623.002c-32.276.002-40.645-.06-40.732-.308z" /><path d="M135.61 170.613c.204-.513 1.2-3.172 2.213-5.91l1.843-4.975 10.433-.065 10.432-.064 2.03 5.795c1.118 3.187 2.032 5.875 2.032 5.973s-6.605.178-14.677.178H135.24l.37-.933z" /><ellipse cx="150" cy="200" fill="#333" opacity="0" rx="80" ry="80" /></svg>
