<svg xmlns="http://www.w3.org/2000/svg" height="400" version="1" width="300"><path d="M141.4 191.01c-1.704 1.65-2.925 3.84-3.478 6.224l-41.906-.022.03 5.634 41.833.044c1.286 5.533 6.254 9.744 12.177 9.744 5.925 0 10.893-4.208 12.178-9.744l41.76-.03-.045-5.635-41.737.01c-.587-2.53-1.822-4.512-3.688-6.2L157 189.764l-1.88-1.21-2.304-.716-2.91-.296-2.864.286-2.173.688-1.913 1.185-1.557 1.31zm8.656 1.624c4.14 0 7.5 3.36 7.5 7.5s-3.36 7.5-7.5 7.5-7.5-3.36-7.5-7.5 3.36-7.5 7.5-7.5z" fill="#000407" fill-rule="evenodd" /><path d="M138.16 157.297h23.944l5.827 16.563-35.958.02 6.188-16.584z" fill="none" stroke="#000" stroke-width="4.237" /><path d="M113.78 200.01l-11.787-35.008L117.95 174l64.123.036 15.884-9.034-11.963 35.008" fill="none" stroke="#000" stroke-width="4" /><path d="M114.95 196.84c-.787-2.153-9.01-26.952-8.956-27.008.04-.042 2.578 1.356 5.637 3.108l5.564 3.184 32.716.067 32.716.07 5.594-3.22c3.077-1.772 5.636-3.18 5.685-3.13.068.067-6.283 18.864-8.93 26.432l-.283.81h-11.18c-8.73 0-11.198-.07-11.267-.312-1.012-3.528-3.958-6.94-7.29-8.438-2.817-1.27-7.736-1.162-10.503.227-2.156 1.08-4.33 3.28-5.44 5.5-.525 1.047-1.02 2.155-1.1 2.462l-.146.56h-11.35c-8.855 0-11.377-.07-11.466-.312z" fill="#00d400" /><path d="M135.61 170.597c.204-.513 1.2-3.172 2.213-5.91l1.843-4.975 10.433-.065 10.432-.064 2.03 5.796c1.118 3.186 2.032 5.875 2.032 5.972 0 .098-6.605.178-14.677.178H135.24l.37-.933z" fill="#00d400" /><ellipse cx="150" cy="200" fill="#333" opacity="0" rx="80" ry="80" /></svg>
