<svg xmlns="http://www.w3.org/2000/svg" xmlns:xlink="http://www.w3.org/1999/xlink" width="60" height="60"><symbol id="a"><rect width="58" height="58" rx="16" ry="16" x="1" y="1" fill="#fff" fill-opacity=".5" stroke="#a30075" stroke-width="2"/><path d="M30.563 20.486c0 .597-.472 1.062-1.074 1.062H18.25c-.605 0-1.073-.465-1.073-1.062V11.01c0-.6.47-1.064 1.074-1.064h11.24c.6 0 1.073.465 1.073 1.063v9.476zm13.102 1.21c-1.422-.312-1.938-1.043-1.938-1.715v-2.448s.946.21 1.172.27c.46.12.753.828.765 1.445.015.617 0 2.45 0 2.45zm2.863 14.88c0-.024-.395-3.01-.395-3.01v-13.78c0-1.476-.484-2.676-1.484-3.683L38.265 9.75c-.44 0-1.66 1.216-1.66 1.216 0 .442 3.168 3.586 3.168 3.586L39.68 19.9c0 1.898 1.543 3.437 3.45 3.437l.855.012-.305 10.218.426 3.504 1.918 10.34c.07 1.68-1.465 2.68-2.676 2.68-1.12 0-2.422-.927-2.422-2.122l.024-18.12c0-2.204-1.79-3.993-3.992-3.993h-3.852c.27-.015.28-11.867.28-14.383v-.465c0-2.145-1.75-3.89-3.897-3.89H18.25c-2.148 0-3.898 1.745-3.898 3.89v41.073l19.035.317.02-23.996H37c.825 0 1.497.672 1.497 1.496v18.07c0 2.426 2.265 4.55 4.85 4.55 2.443 0 5.177-1.94 5.177-4.55-.043-.602-1.996-11.395-1.996-11.395z" fill="#a30075"/></symbol><use xlink:href="#a"/></svg>
