<svg xmlns="http://www.w3.org/2000/svg" width="70" height="100"><path d="M158.19 240.23c0 44.63-34.782 80.843-77.648 80.843-42.865 0-77.647-36.212-77.647-80.842 0-44.63 34.782-80.84 77.647-80.84 42.866 0 77.647 36.21 77.647 80.84z" fill="none" stroke="#a30075" stroke-width="7.963" transform="matrix(.425 0 0 .59375 .77 -92.637)"/><path d="M34.75 16.656c-3.28 0-6.094 3.403-6.094 7.813 0 2.72 1.095 5.045 2.688 6.436-1.948-.026-3.896-.046-5.844-.093v6.437h6.813l-.594 33.97c-3.45-.675-6.52-2.395-8.97-4.845.608-.726 1.21-1.457 1.813-2.187-3.73-3.83-7.643-7.863-10.844-11.188.786 8.01 1.44 14.36 2.218 21.72 1.198-1.49 2.412-2.963 3.625-4.44 3.382 4.673 7.658 7.58 12.218 8.5.15 1.478.258 2.957.345 4.44h5.563c.114-1.46.23-2.918.343-4.376 2.954-.584 5.85-1.96 8.533-4.313 1.372-1.202 2.538-2.58 3.625-4.06 1.09 1.425 2.202 2.836 3.312 4.25.915-7.207 1.695-14.857 2.437-21.104-4.013 3.742-7.18 6.945-10.656 10.51l1.75 2.28c-2.44 2.44-5.505 4.14-8.936 4.813l-.563-33.97h6.783v-6.406H43.03l-4.81.03c1.55-1.402 2.593-3.725 2.593-6.405 0-4.41-2.787-7.814-6.063-7.814zm0 3.563c2.045 0 3.53 1.973 3.53 4.25 0 1.887-1.022 3.586-2.56 4.124l-.876.312-.97-.28c-1.598-.49-2.686-2.225-2.686-4.157 0-2.278 1.512-4.25 3.562-4.25z" style="text-indent:0;text-align:start;line-height:normal;text-transform:none;block-progression:tb;-inkscape-font-specification:Sans" color="#000" fill="#a30075" overflow="visible" font-family="Sans"/><g transform="matrix(.19867 0 0 .27572 2.96 5.456)" fill-opacity="0" fill="none"><path d="M259.13 187.39l-9.012 51.135-12.354-11.49c-6.16 6.88-13.177 12.718-21.6 18.037-14.235 8.985-29.814 14.066-45.482 15.532l-1.6 14.964H152.61l-1.647-14.964c-25.37-2.45-49.56-14.25-67.3-34.08l-13.72 12.01-7.363-51.842 36.022 26.71-9.176 8.038c15.646 13.547 37.316 22.602 61.604 24.538l3.247-137.06h-34.38v-10.38l34.306.38v-8.63c-10.61-2.352-18.49-10.982-18.49-21.29 0-12.124 10.865-21.935 24.278-21.935 13.392 0 24.265 9.81 24.265 21.936 0 10.07-7.527 18.58-17.77 21.16v8.485l35.32-.12v10.38h-34.38l3.318 137.06c24.117-1.938 45.622-10.923 61.224-24.35l-8.87-8.23 36.026-26zM171.58 69c0-5.767-5.173-10.447-11.553-10.447-6.376 0-11.55 4.682-11.55 10.447 0 5.77 5.174 10.45 11.55 10.45 6.38 0 11.553-4.682 11.553-10.45z"/><ellipse cx="160.02" cy="69.003" rx="11.553" ry="10.449"/></g></svg>
