<svg xmlns="http://www.w3.org/2000/svg" width="200" height="200"><path d="M100 53.5c-25.637 0-46.5 20.862-46.5 46.5s20.863 46.5 46.5 46.5 46.5-20.862 46.5-46.5-20.863-46.5-46.5-46.5zm0 6c22.392 0 40.5 18.108 40.5 40.5s-18.108 40.5-40.5 40.5-40.5-18.108-40.5-40.5S77.608 59.5 100 59.5zm-.064 6.32c-4.474 0-8.288 3.31-8.288 7.574 0 3.136 2.14 5.683 5.007 6.844-3.144-.03-6.288-.094-9.432-.094v5.83h9.6L95.98 121c-5.21-.67-9.85-2.536-13.482-5.23.853-.75 1.71-1.49 2.57-2.233-4.952-3.642-10.14-7.46-14.4-10.612 1.076 7.568 1.93 13.693 2.943 20.587 1.617-1.436 3.258-2.844 4.895-4.256 4.818 4.86 10.99 7.86 17.55 8.756.176 1.468.34 2.936.487 4.407h7.256c.168-1.45.327-2.9.488-4.35 4.203-.564 8.367-1.974 12.187-4.37 2.01-1.26 3.718-2.692 5.288-4.256l4.426 4.087c.01-.013 3.18-19.724 3.18-19.724s-11.362 7.74-14.055 9.675c.84.76 1.668 1.534 2.495 2.308-3.622 2.68-8.245 4.542-13.425 5.212l-.844-35.025h9.6v-5.83c-3.238 0-6.475.022-9.713.036 2.76-1.205 4.782-3.726 4.782-6.787 0-4.262-3.8-7.575-8.27-7.575zm0 2.943c3.042 0 5.325 2.138 5.325 4.63 0 2.07-1.563 3.888-3.862 4.463l-1.386.28v.005l-1.387-.243c-2.406-.423-4.032-2.383-4.032-4.5 0-2.494 2.294-4.63 5.344-4.63z" fill="#a30075"/></svg>
