<svg xmlns="http://www.w3.org/2000/svg" xmlns:xlink="http://www.w3.org/1999/xlink" width="60" height="60"><symbol id="a"><ellipse cx="30" cy="30" rx="24" ry="28" fill="none" stroke="#000" stroke-width="4"/><path d="M29.94 5.5c-2.564 0-4.764 2.454-4.764 5.634 0 1.962.856 3.64 2.1 4.642-1.522-.02-3.045-.033-4.567-.068v4.643h5.324l-.464 24.496c-2.696-.485-5.097-1.726-7.01-3.492.474-.524.945-1.05 1.416-1.578-2.915-2.76-5.974-5.67-8.476-8.068.616 5.777 1.126 10.357 1.734 15.662.937-1.072 1.886-2.136 2.834-3.2 2.644 3.37 5.986 5.465 9.55 6.13.118 1.065.2 2.132.27 3.2h4.347l.27-3.155c2.307-.42 4.57-1.414 6.667-3.11 1.073-.867 1.984-1.862 2.834-2.93.853 1.03 1.722 2.047 2.59 3.065.714-5.196 1.324-10.713 1.904-15.218-3.137 2.7-5.61 5.01-8.33 7.58.456.548.912 1.096 1.37 1.644-1.91 1.76-4.305 2.985-6.987 3.47l-.44-24.495h5.3v-4.62h-1l-3.763.024c1.214-1.012 2.028-2.687 2.028-4.62 0-3.18-2.178-5.634-4.74-5.634zm0 2.57c1.597 0 2.76 1.423 2.76 3.064 0 1.36-.8 2.586-2.004 2.974l-.684.226-.757-.203c-1.25-.352-2.1-1.603-2.1-2.996 0-1.642 1.182-3.065 2.784-3.065z"/></symbol><use xlink:href="#a"/></svg>
