<svg xmlns="http://www.w3.org/2000/svg" xmlns:ns1="http://www.w3.org/1999/xlink" height="400" width="300"><symbol id="a"><path d="M131.5 29.5V71l-8.844 126.5H112.5v5h22.72c1.202 7.068 7.38 12.5 14.78 12.5 7.4 0 13.578-5.432 14.78-12.5h22.72v-5h-10.156L168.5 71V29.5h-37zm5 5h27v34h-27v-34zm-.156 39h27.312l8.656 124h-7.53c-1.204-7.068-7.383-12.5-14.782-12.5-7.4 0-13.578 5.432-14.78 12.5h-7.532l8.656-124zM150 190c5.552 0 10 4.448 10 10s-4.448 10-10 10-10-4.448-10-10 4.448-10 10-10z" /></symbol><use ns1:href="#a" /><rect fill="#333" height="380" opacity="0" width="100" x="100" y="10" /></svg>
