<svg xmlns="http://www.w3.org/2000/svg" xmlns:ns1="http://www.w3.org/1999/xlink" height="400" version="1" width="300"><symbol id="a"><path d="M150.694 173.393l-16.266-71.744-1.178-5.26.097-5.235 1.966-5.04 3.468-4.26 4.52-2.942 5.224-1.366 5.535.356 5.184 1.968 4.032 3.336 2.314 4.44.99 5.17.264 5.556.01 1.13-16.16 73.89zm1.852 28.223c-.892 1.395-2.748 1.804-4.143.912-1.395-.892-1.804-2.75-.912-4.144.893-1.395 2.75-1.804 4.145-.912 1.395.892 1.803 2.75.91 4.144z" fill-rule="evenodd" /></symbol><use ns1:href="#a" /><ellipse cx="150" cy="200" fill="#333" opacity="0" rx="125" ry="125" /></svg>
