<svg xmlns="http://www.w3.org/2000/svg" height="400" version="1" width="300"><path d="M126.66 212.705l-54 49.958-3.965 3.65-4.582 2.533-5.35.818-5.42-.874-4.808-2.442-3.796-3.84-2.46-4.973-.887-5.474.872-5.16 2.687-4.222 3.985-3.442 4.678-3.008.974-.575 72.07-22.948zm23.515-15.716c1.654.074 2.936 1.477 2.86 3.132-.074 1.654-1.477 2.936-3.13 2.86-1.656-.074-2.938-1.477-2.863-3.132.075-1.654 1.48-2.936 3.133-2.86z" fill="#ff0" fill-rule="evenodd" /><ellipse cx="150" cy="200" fill="#333" opacity="0" rx="125" ry="125" /></svg>
