<svg xmlns="http://www.w3.org/2000/svg" height="400" version="1" width="300"><path d="M173.397 187.265l54-49.958 3.965-3.65 4.58-2.534 5.35-.817 5.422.874 4.808 2.44 3.797 3.844 2.458 4.972.887 5.473-.87 5.158-2.69 4.224-3.983 3.442-4.68 3.007-.973.576-72.07 22.95zm-23.515 15.716c-1.656-.072-2.938-1.475-2.863-3.13.074-1.653 1.478-2.937 3.132-2.86 1.655.073 2.936 1.477 2.86 3.13-.073 1.655-1.477 2.937-3.13 2.862z" fill="#ff0" fill-rule="evenodd" /><ellipse cx="150" cy="200" fill="#333" opacity="0" rx="125" ry="125" /></svg>
