<svg xmlns="http://www.w3.org/2000/svg" height="400" version="1" width="300"><path d="M172.727 213.895l70.265 21.785 5.144 1.61 4.484 2.7 3.383 4.224 1.954 5.133.29 5.384-1.43 5.21-3.076 4.615-4.296 3.505-4.904 1.825-5.002-.215-4.973-1.73-4.943-2.548-.985-.556-55.91-50.94zm-25.368-12.507c-.764-1.47-.19-3.282 1.28-4.044 1.47-.762 3.283-.188 4.045 1.282.763 1.47.188 3.282-1.282 4.044-1.47.763-3.282.188-4.044-1.282z" fill="red" fill-rule="evenodd" /><ellipse cx="150" cy="200" fill="#333" opacity="0" rx="125" ry="125" /></svg>
