<svg xmlns="http://www.w3.org/2000/svg" height="400" version="1" width="300"><path d="M126.602 212.712L72.604 262.67l-3.966 3.65-4.582 2.533-5.35.818-5.42-.873-4.808-2.442-3.796-3.84-2.458-4.973-.888-5.474.872-5.16 2.687-4.223 3.985-3.442 4.678-3.008.974-.575 72.07-22.948zm23.516-15.716c1.654.075 2.936 1.478 2.86 3.133-.074 1.653-1.477 2.935-3.13 2.86-1.656-.075-2.938-1.478-2.863-3.133.075-1.654 1.48-2.936 3.133-2.86z" fill="red" fill-rule="evenodd" /><ellipse cx="150" cy="200" fill="#333" opacity="0" rx="125" ry="125" /></svg>
