<svg xmlns="http://www.w3.org/2000/svg" xmlns:xlink="http://www.w3.org/1999/xlink" width="160" height="160"><symbol id="a"><path d="M77.763 45.26a3 3 0 0 0-2.563 1.655l-16.25 31.5a3 3 0 0 0-.156 2.875 3 3 0 0 0 .156.375l16.25 31.5a3 3 0 1 0 5.313-2.75L64.856 80.04l15.657-30.375a3 3 0 0 0-2.75-4.406zm20.53.03a3 3 0 0 0-.343.032 3 3 0 0 0-2.28 1.656l-16.25 31.5a3.005 3.005 0 0 0-.314 1.25 3 3 0 0 0 .313 2l16.25 31.5a3.005 3.005 0 1 0 5.343-2.75L85.356 80.103l15.657-30.375a3 3 0 0 0-2.72-4.438z"/><path d="M140.498 80c0 33.413-27.086 60.5-60.5 60.5C46.587 140.5 19.5 113.413 19.5 80S46.586 19.5 80 19.5c33.412 0 60.498 27.087 60.498 60.5z" fill="none" stroke="#000" stroke-width="4"/></symbol><use xlink:href="#a"/></svg>
