<svg xmlns="http://www.w3.org/2000/svg" xmlns:xlink="http://www.w3.org/1999/xlink" width="80" height="80"><symbol id="a"><path d="M76.6 39.7C76.6 59.748 60.346 76 40.3 76 20.252 76 4 59.748 4 39.7S20.252 3.4 40.3 3.4c20.047 0 36.3 16.252 36.3 36.3z" fill="none" stroke="#000" stroke-width="4"/><path d="M44.65 15.817a5 5 0 0 0-4.28 2.78l-9.75 18.908a5 5 0 0 0-.47 3.625 5 5 0 0 0 .062.25 5 5 0 0 0 .094.218 5 5 0 0 0 .125.375 5 5 0 0 0 .032.094 5 5 0 0 0 .125.22 5 5 0 0 0 .032.093l9.75 18.906a5.01 5.01 0 0 0 8.905-4.594l-8.656-16.75 8.655-16.75a5 5 0 0 0-4.625-7.375z" style="text-indent:0;text-align:start;line-height:normal;text-transform:none;block-progression:tb;-inkscape-font-specification:Sans" color="#000" fill="#1a171b" stroke-width="16.667" overflow="visible" font-family="Sans"/></symbol><use xlink:href="#a"/></svg>
