<svg xmlns="http://www.w3.org/2000/svg" version="1" width="300" height="400"><path d="M110.558 223.06h37.17l1.194-68.424h1.797l.295 14.007 14.695-7.014-.085 6.09.21 6.08.72 6.04 1.438 5.898 2.125 5.706 2.632 5.48 3.024 5.288 3.626 4.825 3.7 3.85-31.186 6.082v6.09h37.465l-4.06 4.527-4.272 4.28-4.62 3.806-5.16 3.122-5.57 2.38-5.878 1.653-6.016.9-6.057.15-5.994-.59-5.856-1.35-5.688-2.124-5.392-2.84-4.937-3.53-4.365-4.193-3.796-4.675-1.162-1.514zm9.293-3.357l-.38-6.113-.064-6.07.58-6.017 1.428-5.9 2.157-5.715 2.76-5.48 3.277-5.148 3.838-4.676 4.44-4.033 4.905-3.517 3.13-2.06-3.236 5.138-2.79 5.364-2.072 5.715-1.344 5.963-.676 6.082.03 6.08.804 6.02 1.195 5.554-17.98 8.814" fill="#a30075"/></svg>
