<svg xmlns="http://www.w3.org/2000/svg" width="300" height="400"><path d="M110.435 228.02h37.17l1.194-68.425h1.796l.296 14.006 14.695-7.013-.085 6.09.21 6.082.72 6.038 1.438 5.9 2.125 5.704 2.632 5.48 3.024 5.288 3.627 4.826 3.7 3.85-31.186 6.08v6.093h37.465l-4.06 4.526-4.27 4.278-4.62 3.808-5.16 3.12-5.57 2.383-5.878 1.652-6.016.9-6.056.15-5.994-.59-5.856-1.35-5.688-2.125-5.392-2.84-4.937-3.53-4.365-4.193-3.796-4.676-1.16-1.514zm9.292-3.358l-.38-6.114-.064-6.07.58-6.017 1.428-5.897 2.158-5.717 2.76-5.48 3.276-5.148 3.838-4.676 4.44-4.033 4.905-3.52 3.13-2.058-3.236 5.137-2.79 5.362-2.072 5.716-1.343 5.963-.676 6.083.03 6.08.803 6.02 1.195 5.554-17.98 8.815m-11.09.322l-2.632-5.48-2.22-5.61-1.427-5.888-.604-6.102.233-6.157 1.024-6.07 1.766-5.9 2.484-5.62 3.15-5.243 3.785-4.805 4.333-4.28 4.852-3.68 5.286-3.066 5.636-2.338 5.93-1.62 6.09-.825 6.163-.064 6.12.708 5.963 1.47 5.697 2.23 5.307 3.003 4.853 3.69 4.345 4.322 3.796 4.857 3.235 5.31 2.58 5.673 1.88 5.952 1.164 6.103.326 6.134-.55 6.017-1.448 5.845-2.146 5.673-2.484 5.587-.074.173h-4.79l2.697-5.492 2.327-5.598 1.544-5.834.645-6.08-.295-6.156-1.12-6.103-1.936-5.877-2.684-5.566-3.394-5.105-4.038-4.6-4.642-3.947-5.158-3.26-5.593-2.49-5.856-1.694-6.068-.835-6.122.043-6.046.933-5.88 1.78-5.57 2.554-5.138 3.314-4.62 4-3.985 4.622-3.308 5.137-2.642 5.577-1.935 5.877-1.14 6.103-.318 6.157.602 6.06 1.596 5.823 2.39 5.577 2.558 5.083h-4.495z" fill="#a30075"/></svg>
