<svg xmlns="http://www.w3.org/2000/svg" xmlns:ns1="http://www.w3.org/1999/xlink" height="400" width="300"><symbol id="a"><path d="M190.813 71.75A5.264 4.75 0 0 0 185.75 77c0 8.383-3.93 16.853-10.5 22.78-6.57 5.93-15.96 9.47-25.25 9.47s-18.713-3.54-25.28-9.47c-6.57-5.927-10.47-14.397-10.47-22.78a5.264 4.75 0 0 0-5.906-4.813A5.264 4.75 0 0 0 103.688 77c0 10.99 4.95 21.79 13.562 29.563 7.43 6.705 17.344 10.9 27.75 11.937v67.438c-5.02 1.808-8.803 6.218-9.72 11.593h-22.75v5h22.75c1.197 7.077 7.346 12.5 14.75 12.5 7.406 0 13.586-5.423 14.782-12.5h22.72v-5h-22.72c-.92-5.407-4.744-9.837-9.812-11.624V118.5c10.377-1.042 20.234-5.24 27.656-11.938C191.268 98.793 196.22 87.99 196.22 77a5.264 4.75 0 0 0-5.407-5.25zM150.03 190.03c5.554 0 10 4.45 10 10 0 5.554-4.446 10-10 10-5.55 0-10-4.446-10-10 0-5.55 4.45-10 10-10z" /></symbol><use ns1:href="#a" /><rect fill="#333" height="380" opacity="0" width="100" x="100" y="10" /></svg>
