<svg xmlns="http://www.w3.org/2000/svg" xmlns:ns1="http://www.w3.org/1999/xlink" height="400" width="300"><symbol id="a"><path d="M144 29c-18.754 0-34 15.246-34 34 0 9.838 4.28 18.637 10.97 24.844L116.562 197.5H106.5v5h22.75c1.204 7.066 7.352 12.5 14.75 12.5s13.577-5.434 14.78-12.5h22.72v-5h-10.063L167.03 87.844C173.72 81.64 178 72.84 178 63v-.844l-.094-.125C177.38 43.736 162.422 29 144 29zm0 5c1.164 0 2.31.086 3.438.22l25.406 25.905c.092.947.156 1.903.156 2.875 0 4.89-1.215 9.495-3.344 13.53L130.47 37.345C134.505 35.217 139.106 34 144 34zm5.094.47c12.15 2.14 21.66 11.767 23.562 24l-23.562-24zm-19.53 3.374l39.592 39.593c-1.653 2.88-3.777 5.447-6.28 7.594l-.907.782L162 87l.125 2.97-42.344-42.94c2.493-3.776 5.845-6.928 9.782-9.186zm-10.345 10.062l42.968 43.5.812 20.406-48-48.093c-.006-.24 0-.48 0-.72 0-5.534 1.545-10.7 4.22-15.094zm-4.126 17.25l47.97 48.125.81 20.814-38.218-38.188L126 87l.063-1.188-.938-.78c-5.692-4.884-9.45-11.925-10.03-19.876zm10.5 32.094l38.344 38.344.843 20.812-39.936-40.187.75-18.97zm-.813 20.313l40.064 40.343.812 20.688L124 136.78l.78-19.218zm-.843 20.593l41.782 41.938.686 16.906h-3.875l-5.186-5.28c-1.314-2.257-3.177-4.153-5.406-5.5-.02-.013-.043-.02-.063-.032l-28.688-29.157.75-18.874zm-.78 20.188l26.124 26.594c-1.65-.608-3.42-.938-5.28-.938-4.2 0-7.996 1.704-10.78 4.438l-10.845-10.75.78-19.344zm-.844 20.687l10.218 10.126c-1.934 2.16-3.29 4.86-3.78 7.844h-7.156l.72-17.97zM144 190c5.553 0 10 4.447 10 10s-4.447 10-10 10-10-4.447-10-10 4.447-10 10-10zm14.594 4.438l2.53 2.562h-1.874c-.145-.885-.368-1.733-.656-2.563z" /></symbol><use ns1:href="#a" /><rect fill="#333" height="380" opacity="0" width="100" x="100" y="10" /></svg>
