<svg xmlns="http://www.w3.org/2000/svg" height="60" width="60"><path d="M9.714 9.71v40.575h40.574V9.71H9.714z" fill="#fff"/><path stroke-linejoin="bevel" d="M157.37 259.18h62.435c.18 0 .362-.014.54-.037.18-.025.357-.062.532-.112.175-.044.348-.102.514-.172s.33-.152.485-.244c.157-.09.31-.19.45-.3.145-.11.28-.23.41-.36.127-.128.247-.263.357-.406s.212-.295.3-.452c.093-.156.174-.318.243-.485.07-.166.13-.337.176-.512.05-.174.088-.353.114-.532.025-.178.037-.36.036-.54v-62.47c0-.18-.014-.36-.04-.54-.023-.18-.06-.356-.11-.53-.044-.176-.103-.347-.173-.515-.07-.165-.152-.328-.245-.483-.09-.157-.19-.307-.3-.45s-.23-.28-.358-.407c-.128-.13-.264-.25-.408-.36-.142-.11-.294-.21-.45-.3-.156-.092-.32-.173-.485-.243-.166-.07-.338-.128-.513-.175-.175-.05-.352-.087-.53-.112s-.36-.038-.542-.036h-62.468c-.18 0-.362.013-.54.037-.18.025-.36.062-.532.112-.175.045-.348.103-.514.173-.167.07-.328.152-.484.245-.156.09-.308.19-.45.3-.144.11-.28.23-.408.36-.128.127-.248.262-.358.406-.112.144-.212.294-.302.45-.09.158-.172.32-.242.486-.07.167-.13.34-.175.513-.05.175-.087.352-.112.532-.025.18-.037.36-.036.54v62.47c0 .18.014.36.04.54.023.18.06.357.11.53.044.176.103.348.173.514.07.17.15.33.243.486.09.157.192.308.302.452s.23.278.358.406c.128.13.264.25.407.36.143.11.295.21.45.3.157.09.32.172.486.242.168.07.34.128.515.175.175.05.352.09.53.114s.36.037.542.036h.033z" stroke="#000" stroke-miterlimit="22.926" stroke-width=".278" fill="#fff" transform="matrix(.8179 0 0 .81793 -124.234 -153.048)"/><path stroke-linejoin="bevel" d="M157.37 259.25h-.034c-.183 0-.367-.014-.548-.04-.183-.022-.364-.06-.54-.11-.18-.046-.353-.106-.523-.177-.17-.072-.334-.154-.492-.248-.16-.092-.313-.194-.458-.306-.146-.114-.284-.235-.414-.366-.13-.13-.25-.266-.364-.413s-.213-.297-.305-.457c-.092-.16-.175-.324-.246-.493-.072-.17-.13-.344-.178-.522-.05-.177-.09-.358-.113-.54-.027-.182-.04-.365-.038-.55V192.56c0-.184.014-.368.04-.55.024-.183.06-.363.11-.54.047-.178.106-.353.177-.523.072-.168.154-.333.25-.49.09-.16.192-.313.304-.46s.234-.283.365-.413c.13-.13.27-.253.414-.364.146-.113.3-.215.458-.306.16-.094.324-.175.493-.247.17-.07.345-.13.522-.178.177-.05.358-.09.54-.115.182-.027.365-.038.55-.036h62.47c.183 0 .367.012.548.036.183.025.363.063.54.113.18.045.352.104.522.176.17.07.334.154.493.248.16.09.313.193.458.306.146.11.285.234.413.364.133.13.254.267.366.413.112.147.214.3.307.46.092.158.175.322.246.492.07.17.13.342.176.52.052.177.09.36.115.54.026.182.04.366.037.55v62.47c0 .183-.013.366-.038.55-.026.18-.064.36-.114.538-.046.178-.105.352-.176.522-.07.17-.154.334-.247.493-.093.16-.195.312-.307.458-.112.146-.233.285-.365.414-.127.13-.266.254-.412.365-.145.11-.3.214-.458.305-.16.093-.324.175-.492.246-.17.073-.345.13-.523.18-.177.05-.357.088-.54.114-.18.025-.365.037-.55.036H157.37z" stroke="#000" stroke-miterlimit="22.926" stroke-width="2.445" fill="#fff" transform="matrix(.8179 0 0 .81793 -124.234 -153.048)"/><path d="M4.896 57.168H4.88c-.09 0-.178-.007-.267-.02-.088-.01-.176-.03-.262-.053-.086-.022-.17-.052-.253-.086-.082-.035-.16-.075-.238-.12-.078-.046-.153-.095-.224-.15-.07-.055-.138-.113-.2-.177-.064-.063-.123-.13-.177-.2-.056-.07-.105-.145-.15-.223-.044-.076-.085-.157-.12-.24-.034-.082-.062-.166-.085-.252-.025-.086-.044-.174-.056-.262-.014-.09-.02-.178-.02-.267V4.876c0-.09.01-.18.02-.266.012-.088.03-.175.055-.262.022-.086.05-.17.085-.253.034-.083.075-.162.12-.24.045-.076.094-.15.15-.222.053-.07.112-.137.176-.2.062-.063.13-.123.2-.177.07-.054.146-.104.223-.15.076-.043.156-.083.238-.118.082-.035.167-.063.253-.086.087-.025.175-.043.264-.055.088-.013.177-.02.266-.02h50.24c.09 0 .18.007.268.02.088.012.176.03.262.055.087.022.17.05.254.085.082.035.162.075.24.12.075.045.15.095.22.15.072.053.138.113.2.176.065.063.124.13.178.2.055.072.104.146.148.222.046.078.086.157.12.24.034.082.063.167.086.253.025.087.044.174.056.263.013.088.02.178.018.267V55.12c0 .088-.006.177-.018.266-.012.088-.03.176-.056.262-.022.086-.05.17-.085.254-.033.08-.073.162-.12.238-.044.078-.093.152-.148.223-.054.07-.113.137-.177.2-.063.064-.13.123-.2.178-.07.055-.146.104-.222.15-.077.044-.157.084-.24.118-.082.034-.166.064-.253.087-.086.024-.174.043-.262.055-.09.013-.177.018-.267.018H4.896z" fill-rule="evenodd" fill="#e72512"/><path d="M10.662 10.66V49.33h38.666V10.66H10.662z" fill="#fff"/><path d="M18.63 28.516L14.403 15.72h2.047l2.916 9.74h.036l2.915-9.74h2.047L20.14 28.516zM32.762 28.516V22.93h-5.076v5.586h-1.94V15.72h1.94v5.48h5.076v-5.48h1.94v12.796zM37.408 28.516V15.72h8.185v1.835H39.35v3.768h5.32v1.73h-5.32v5.463z"/></svg>
