<svg xmlns="http://www.w3.org/2000/svg" xmlns:xlink="http://www.w3.org/1999/xlink" width="60" height="60"><symbol id="a"><path d="M31.28 8.625c-2.274 7.963-4.056 15.822-5.374 23.625l-1.406.625-.22.594s.702 1.235 1.126 1.874c-.518 3.385-.944 6.77-1.28 10.125-.003-.992-.128-1.92-.532-2.407-1.076-1.302-2.28-2.62-4.188-4.47l-.062-3.093c-.013-.645-.49-1.165-.532-1.72 1.833.067 3.638-.113 5.438-.374l.22-.562-7.157-.875-1.688.186c-1.38 1.715.458 3.497.844 5.125l.06 2.064c.063 1.96 2.812 3.812 4.907 4.562.297 1.968.8 3.884 1.72 5.688l.624-.407c7.777-.892 14.96-5.536 21.782-12.624-2.53-10.328-6.985-19.756-14.28-27.938zm-8.124 40.97c-1.525.044-3.007.282-4.406.75l.47.968 9.374.093.437-1.156c-2.036-.476-3.995-.71-5.874-.656zm-7.28-21.532c-.875-.058-1.622.952-1.47 1.937.154.984.806 1.798 1.78 2 .978.2 1.377-.92 1.252-2s-.69-1.88-1.563-1.938z"/></symbol><use xlink:href="#a"/></svg>
