<svg xmlns="http://www.w3.org/2000/svg" height="60" width="60"><path stroke-linejoin="bevel" d="M-13.566 319.16h61.454c.2 0 .403-.015.6-.043.2-.027.4-.067.593-.122.196-.05.386-.115.572-.194.186-.076.366-.168.54-.27.174-.1.34-.212.5-.335.16-.122.31-.256.452-.4.144-.14.278-.29.4-.45.123-.16.235-.33.335-.503.1-.173.19-.353.268-.54.078-.185.143-.376.195-.57.055-.195.098-.392.125-.592.03-.2.04-.4.04-.6v-61.49c0-.202-.015-.402-.042-.602-.027-.2-.068-.397-.123-.59-.05-.195-.115-.387-.192-.572-.078-.186-.168-.366-.27-.54-.102-.173-.213-.342-.336-.5-.122-.16-.256-.312-.4-.453-.14-.143-.292-.276-.45-.4-.16-.123-.328-.234-.503-.334-.172-.104-.353-.194-.538-.27-.186-.08-.378-.144-.57-.196-.195-.055-.393-.096-.593-.125-.2-.03-.4-.042-.602-.04h-61.49c-.2 0-.402.014-.6.04-.2.03-.4.07-.592.124-.195.05-.387.115-.572.194-.186.077-.366.168-.538.27-.175.1-.343.212-.503.336-.16.122-.31.256-.45.4-.145.14-.28.29-.4.45-.124.16-.236.33-.335.502-.102.174-.192.354-.27.54-.077.185-.144.377-.195.572-.055.193-.097.39-.125.59-.03.2-.04.4-.04.6v61.492c0 .2.015.4.04.6.03.2.07.398.125.593.05.193.115.385.193.57.078.186.168.366.272.54.1.173.21.34.334.5s.256.312.4.453c.14.143.292.277.45.4.16.123.33.234.504.334.172.103.353.193.538.27.187.078.377.143.572.195.193.055.39.096.59.125.2.028.4.04.602.04H-13.566z" stroke="#231f20" stroke-miterlimit="22.926" stroke-width=".278" fill="none" transform="matrix(.81845 0 0 .81844 15.97 -202.266)"/><path stroke-linejoin="bevel" d="M-13.566 319.22h-.036c-.205 0-.41-.016-.612-.043-.202-.027-.402-.07-.598-.125-.198-.05-.392-.116-.58-.196-.19-.08-.372-.17-.547-.275-.176-.1-.346-.214-.51-.34-.16-.122-.314-.26-.457-.404-.145-.143-.28-.296-.405-.458-.125-.162-.238-.332-.34-.51-.103-.175-.194-.358-.273-.547s-.145-.38-.197-.577c-.057-.198-.1-.398-.128-.6s-.042-.407-.04-.61V253.04c0-.202.015-.406.043-.61s.068-.4.125-.6c.05-.196.116-.39.195-.58.08-.186.17-.37.276-.545.1-.176.214-.346.34-.51.123-.16.258-.314.403-.457.143-.147.297-.282.458-.407.164-.122.334-.235.51-.337.178-.104.36-.195.548-.274.188-.08.382-.146.58-.2.196-.055.397-.096.6-.125.2-.03.405-.042.61-.04h61.49c.204 0 .408.015.61.043.203.026.403.07.6.123.197.053.392.12.58.198.188.078.37.17.546.275.177.102.347.215.508.34.163.125.317.26.46.405.145.143.28.297.405.458.125.163.238.332.34.51.103.175.194.358.273.545.08.19.145.384.197.58.057.2.1.4.128.6.027.204.04.408.04.61v61.492c0 .204-.015.408-.043.61s-.068.403-.125.6c-.05.198-.116.392-.196.58-.078.188-.17.37-.274.547-.1.176-.215.346-.34.507-.123.163-.258.315-.403.46-.144.144-.298.28-.46.404-.162.126-.332.24-.51.34-.174.104-.357.196-.546.275-.188.08-.382.145-.58.197-.196.057-.396.098-.6.127-.2.028-.405.04-.608.04h-61.456z" fill-rule="evenodd" stroke="#000" stroke-miterlimit="22.926" stroke-width="2.444" fill="#fff" transform="matrix(.81845 0 0 .81844 15.97 -202.266)"/><path d="M5.214 57.17h49.59c.105 0 .207-.007.31-.02.102-.014.203-.035.302-.063.1-.026.198-.06.292-.1.095-.04.187-.085.276-.14.09-.05.175-.106.257-.17.083-.063.16-.13.233-.204.073-.073.14-.15.204-.23.063-.083.12-.168.17-.258.053-.09.1-.18.14-.276.04-.096.072-.193.1-.293.027-.1.048-.2.062-.303.014-.102.02-.205.02-.308V5.196c0-.103-.008-.205-.02-.308-.015-.102-.036-.203-.063-.302-.027-.1-.06-.197-.1-.292s-.086-.188-.14-.276c-.05-.09-.107-.175-.17-.257-.063-.08-.13-.158-.204-.23-.072-.074-.15-.142-.232-.205-.08-.062-.166-.12-.256-.17-.09-.053-.18-.1-.276-.14-.094-.04-.192-.072-.292-.1-.1-.027-.2-.048-.303-.063-.102-.014-.204-.02-.308-.02H5.195c-.102 0-.205.008-.307.02-.103.015-.204.036-.302.064-.1.026-.198.06-.293.1-.095.04-.187.085-.275.138-.09.05-.176.11-.258.17-.08.064-.158.132-.23.205-.074.072-.143.15-.206.23-.062.083-.12.17-.17.258-.053.09-.1.18-.138.276-.04.095-.074.193-.1.292-.03.1-.05.2-.065.303-.013.1-.02.203-.02.306v49.61c0 .103.01.206.022.308.014.103.036.204.064.303.025.1.058.198.1.292.038.094.084.186.137.275.05.09.11.175.17.257.065.082.133.16.206.23.072.075.15.143.23.206.082.062.168.12.258.17.088.053.18.1.275.14.095.04.193.072.293.1.098.027.2.048.302.063.102.015.205.02.308.02h.018z" fill-rule="evenodd" fill="#e72512"/><path d="M43.474 49.33L10.666 16.524V49.33h32.808M49.333 43.48V10.67H16.526L49.333 43.48" fill-rule="evenodd" fill="#fff"/><path stroke-linejoin="bevel" d="M4.16 284.6l11.314-2.99-3.224-1.865c.048-.06.097-.116.148-.17.052-.058.104-.112.156-.167l.21-.225c.068-.077.138-.15.21-.223.206-.21.43-.403.665-.58.237-.175.485-.334.745-.474.257-.146.523-.274.797-.384.273-.108.553-.198.84-.27.285-.073.575-.128.867-.163s.587-.05.882-.044c.295 0 .588.024.88.067.292.04.58.103.863.186.284.076.563.174.834.29.27.116.532.25.784.404.254.15.498.315.73.497.23.184.45.383.654.595.206.21.4.434.575.67.176.235.336.484.48.74.145.258.272.524.38.798.11.273.2.553.272.84.074.285.13.575.164.867.033.294.048.588.042.883-.003.295-.024.588-.067.88-.042.292-.105.58-.186.863-.08.284-.177.563-.293.834-.117.27-.252.533-.403.785-.15.255-.316.5-.5.73-.18.23-.38.45-.59.654-.21.205-.435.396-.67.573s-.486.336-.744.48c-.255.148-.52.278-.795.39-.272.11-.553.198-.84.263-.19.044-.382.08-.575.107-.193.026-.387.048-.58.067-.085.01-.168.016-.253.023-.084.006-.17.01-.254.01v4.758c.12.003.236 0 .354-.005.118-.007.237-.016.355-.027.357-.033.712-.077 1.066-.134.352-.058.704-.13 1.05-.22.486-.12.964-.27 1.427-.456.467-.187.92-.404 1.354-.653.438-.24.86-.514 1.262-.814.4-.297.78-.625 1.137-.977.36-.348.697-.72 1.008-1.11.31-.395.592-.81.846-1.243.26-.427.488-.873.685-1.335.197-.46.363-.933.495-1.416.14-.482.247-.972.318-1.468s.11-.997.112-1.497c.01-.5-.015-1.002-.073-1.5s-.152-.99-.278-1.475c-.12-.486-.274-.963-.46-1.428-.185-.467-.402-.918-.65-1.354-.242-.438-.514-.86-.814-1.26-.3-.403-.626-.783-.978-1.14-.348-.36-.72-.698-1.113-1.008-.393-.31-.808-.592-1.24-.846-.43-.26-.876-.487-1.336-.686-.46-.198-.934-.363-1.416-.496-.48-.14-.97-.245-1.468-.317-.495-.072-.996-.11-1.497-.113-.5-.01-1 .015-1.5.073-.496.06-.99.152-1.474.28-.487.12-.963.273-1.428.46-.467.185-.92.402-1.355.65-.44.24-.864.51-1.267.81-.402.298-.78.625-1.133.98-.127.124-.248.252-.365.383-.12.132-.23.27-.335.412l-1.782-3.063L4.16 284.6z" fill-rule="evenodd" stroke="#000" stroke-miterlimit="22.926" stroke-width=".278" transform="matrix(.81845 0 0 .81844 15.97 -202.266)"/><path stroke-linejoin="bevel" d="M38.872 276.95l-2.98-11.318-1.8 3.103c-.074-.083-.15-.165-.225-.245-.075-.082-.152-.16-.23-.24-.68-.694-1.4-1.347-2.162-1.952-.76-.605-1.564-1.156-2.404-1.647-.828-.508-1.693-.955-2.587-1.337-.895-.382-1.815-.702-2.754-.957-.936-.27-1.887-.475-2.85-.615-.962-.14-1.933-.212-2.904-.22-.973-.018-1.945.03-2.912.143-.965.115-1.922.295-2.862.542-.945.233-1.87.53-2.775.89-.904.36-1.78.783-2.626 1.265-.85.468-1.67.996-2.448 1.578-.78.582-1.518 1.217-2.21 1.9-.7.674-1.355 1.395-1.956 2.16-.603.763-1.15 1.568-1.643 2.407-.504.832-.95 1.697-1.332 2.59-.383.895-.704 1.813-.962 2.75-.27.936-.476 1.887-.616 2.85-.14.962-.213 1.933-.22 2.905-.018.972.03 1.945.144 2.91.115.966.295 1.923.54 2.863.233.945.53 1.872.892 2.775.36.904.783 1.782 1.264 2.627.47.85.996 1.67 1.58 2.448.58.78 1.215 1.518 1.898 2.21.675.702 1.396 1.355 2.16 1.957.763.602 1.567 1.15 2.406 1.642.832.503 1.7.948 2.592 1.33.894.385 1.813.708 2.75.965.934.27 1.885.48 2.848.62s1.934.21 2.906.215c.974.016 1.946-.034 2.912-.15.965-.117 1.92-.295 2.862-.534.363-.086.725-.184 1.082-.29.36-.11.714-.235 1.063-.375l-1.62-4.437c-.272.114-.55.212-.832.296-.282.085-.567.16-.855.228-.745.178-1.5.317-2.26.412-.76.095-1.524.136-2.29.126-.765 0-1.53-.055-2.287-.167-.76-.11-1.51-.274-2.245-.49-.738-.204-1.462-.458-2.167-.76-.704-.302-1.386-.652-2.04-1.048-.663-.386-1.296-.82-1.897-1.294-.603-.474-1.17-.99-1.702-1.542-.538-.545-1.038-1.126-1.497-1.74-.458-.615-.874-1.26-1.244-1.93-.38-.667-.71-1.358-.995-2.07-.284-.71-.52-1.442-.702-2.185-.194-.74-.337-1.494-.427-2.256-.09-.76-.128-1.526-.113-2.292.005-.766.062-1.53.174-2.29.11-.758.272-1.508.484-2.244.204-.74.458-1.462.76-2.166.303-.705.653-1.386 1.05-2.042.387-.662.82-1.295 1.293-1.897.475-.602.99-1.17 1.542-1.7.544-.54 1.126-1.04 1.74-1.497.613-.46 1.258-.875 1.93-1.245.666-.378 1.357-.71 2.068-.994.71-.284 1.443-.52 2.186-.703.742-.192 1.495-.335 2.255-.425.76-.09 1.527-.127 2.293-.112.766.004 1.533.06 2.29.17.76.11 1.51.272 2.244.486.737.205 1.46.46 2.162.763.704.303 1.387.653 2.046 1.046.665.386 1.303.816 1.91 1.287.603.47 1.167.99 1.687 1.55.084.088.165.176.246.266s.16.183.237.275l-3.156 1.815 11.292 3.046z" fill-rule="evenodd" stroke="#000" stroke-miterlimit="22.926" stroke-width=".278" transform="matrix(.81845 0 0 .81844 15.97 -202.266)"/></svg>
