<svg xmlns="http://www.w3.org/2000/svg" xmlns:xlink="http://www.w3.org/1999/xlink" width="60" height="60"><symbol id="a"><path d="M29.906 7.75L4.188 52.25l.03.03v.032h51.47c.005-.01.024-.02.03-.03L29.907 7.75zm-11.25 23.28c.045-.004.112.002.157 0H41.78c.037 0 .09-.003.126 0 .038.006.058.025.094.032.044.01.114.018.156.032.043.015.085.01.125.03.04.02.06.07.095.095.037.02.09.034.125.06.034.03.065.065.094.095.03.03.038.06.062.094.024.032.044.056.063.093.017.036.05.086.06.125.015.038.026.085.032.125.008.038 0 .053 0 .093.002.04.006.086 0 .125-.005.04-.02.088-.03.126-.012.04-.016.088-.032.125-.016.04-.04.06-.063.095l-.03.03-11.47 17.376c-.018.03-.04.07-.062.095-.023.026-.037.04-.063.063-.03.03-.058.067-.093.093-.036.026-.088.043-.126.064-.04.02-.083.046-.125.062-.043.016-.082.02-.126.032-.044.01-.08.025-.125.03-.047.007-.112 0-.157 0-.047.002-.08.006-.125 0-.047-.003-.08-.02-.125-.03-.044-.01-.083-.017-.125-.032-.043-.014-.085-.012-.125-.03-.04-.02-.088-.04-.125-.063-.037-.024-.06-.067-.094-.094-.033-.03-.065-.064-.094-.095-.03-.03-.07-.06-.094-.094L17.938 32.407l-.032-.03c-.017-.03-.016-.065-.03-.095-.015-.03-.022-.06-.032-.093-.013-.038-.024-.055-.032-.093-.007-.04-.03-.085-.03-.125-.002-.04-.006-.086 0-.126.004-.04.02-.087.03-.125.01-.04.016-.057.032-.095.016-.037.04-.09.062-.125.02-.035.067-.06.094-.094.026-.032.03-.065.063-.093.03-.03.088-.068.125-.094.034-.026.054-.042.093-.064.04-.02.085-.046.126-.062.043-.016.08-.02.125-.032s.08-.025.126-.03z"/></symbol><use xlink:href="#a"/></svg>
