<svg xmlns="http://www.w3.org/2000/svg" xmlns:xlink="http://www.w3.org/1999/xlink" width="60" height="60"><symbol id="a"><path d="M50.64 31.088L31.203 50.526l-.016.014-.015.015c-.05.05-.105.094-.162.136-.057.043-.118.08-.18.114s-.126.064-.192.09c-.066.025-.134.045-.203.06-.068.018-.138.03-.208.038-.07.007-.142.01-.212.007-.07-.002-.142-.008-.21-.02-.07-.01-.14-.026-.208-.047-.068-.02-.134-.044-.2-.073-.064-.028-.126-.062-.186-.1-.048-.028-.096-.06-.14-.096-.046-.034-.09-.072-.13-.112l-.015-.013-.013-.014L9.475 31.088l-.015-.015-.014-.016c-.05-.05-.095-.105-.136-.162-.042-.057-.08-.117-.113-.18-.035-.062-.064-.126-.09-.192-.025-.066-.045-.133-.06-.202-.018-.068-.03-.138-.038-.208C9 30.042 9 29.972 9 29.9c.003-.07.01-.14.02-.21.01-.07.027-.14.048-.208.02-.068.043-.134.072-.2.03-.063.062-.126.1-.186.03-.05.06-.096.096-.142.035-.045.072-.088.112-.13l.014-.013c.004-.004.01-.008.013-.013L28.912 9.36l.015-.015.015-.015c.05-.05.105-.094.163-.136.057-.042.117-.08.18-.112.06-.035.125-.065.19-.09.067-.026.135-.046.204-.062.068-.017.137-.03.208-.037.07-.007.14-.01.212-.007.07 0 .14.007.21.018.07.01.14.027.207.048.068.02.134.044.2.073.064.028.126.062.186.1.05.03.097.06.143.095.045.035.088.073.13.113l.013.013.013.014L50.64 28.797l.015.015.014.016c.048.05.094.105.136.162.04.057.08.117.112.18.035.06.065.126.09.192.025.066.046.134.062.202.016.07.03.14.036.21.008.07.01.14.008.21 0 .072-.008.142-.02.212-.01.07-.026.14-.046.207-.02.068-.044.134-.073.2-.03.063-.062.126-.1.186-.03.048-.06.095-.096.14-.036.046-.073.09-.113.13l-.014.014-.013.014"/></symbol><use xlink:href="#a"/></svg>
