<svg xmlns="http://www.w3.org/2000/svg" height="60" width="60"><path stroke-linejoin="bevel" d="M4.484 58.944H55.55c.15 0 .297-.01.443-.03.147-.02.292-.05.435-.092.143-.037.284-.085.42-.142s.27-.124.396-.2c.13-.073.252-.155.37-.246.117-.09.228-.188.332-.293.105-.103.203-.215.293-.33.09-.12.17-.243.245-.37.076-.128.142-.26.198-.397.058-.137.106-.277.144-.42.04-.143.07-.288.092-.435.02-.147.03-.294.028-.442V4.452c0-.148-.01-.296-.03-.442-.02-.147-.05-.293-.09-.435-.038-.143-.085-.283-.143-.42-.057-.136-.124-.27-.2-.396-.074-.13-.156-.253-.246-.37-.09-.117-.19-.23-.294-.332-.105-.107-.215-.205-.333-.295s-.24-.172-.37-.245c-.126-.075-.26-.14-.395-.2-.137-.056-.277-.104-.42-.142-.143-.04-.288-.072-.435-.092-.146-.02-.294-.03-.442-.03H4.458c-.148 0-.295.012-.443.03-.146.02-.29.05-.434.092-.143.037-.284.084-.42.14-.136.06-.27.126-.397.202-.128.073-.252.155-.368.245-.118.09-.228.188-.333.295-.105.103-.203.215-.293.33-.092.12-.174.243-.248.37-.075.13-.14.26-.198.398-.057.136-.105.276-.144.42-.04.142-.07.288-.092.434-.02.146-.03.295-.028.442V55.546c0 .147.01.295.03.442.02.146.05.29.09.435.037.143.085.283.143.42.057.136.123.268.2.396.073.127.156.25.246.368.09.117.187.23.292.333.105.105.215.203.333.295.116.09.24.17.368.245.128.075.26.14.397.2s.277.104.42.142c.143.04.288.07.435.092.147.02.294.03.442.03h.028z" stroke="#231f20" stroke-miterlimit="22.926" stroke-width=".22752632" fill="none"/><path stroke-linejoin="bevel" d="M4.484 59h-.028c-.15 0-.3-.01-.45-.03-.148-.02-.295-.052-.44-.092-.146-.038-.29-.087-.427-.145-.14-.058-.274-.126-.403-.203-.13-.074-.257-.158-.376-.25-.12-.09-.23-.19-.336-.298-.108-.106-.208-.22-.3-.337-.09-.12-.175-.245-.25-.376-.076-.13-.143-.265-.2-.404-.06-.138-.108-.28-.147-.427-.04-.146-.072-.293-.093-.443-.02-.148-.03-.298-.03-.45V4.455c0-.15.012-.3.03-.45.022-.15.052-.296.093-.44.038-.147.086-.29.145-.43.058-.137.126-.27.202-.4.076-.13.16-.257.25-.375.093-.12.192-.234.3-.34.105-.106.218-.207.337-.298.12-.092.246-.176.377-.25.13-.076.263-.144.402-.202.138-.058.28-.106.425-.145.146-.042.293-.073.442-.094.15-.02.3-.03.45-.03H55.55c.152.002.302.012.45.033.15.02.298.05.442.092.146.037.29.086.428.144.14.057.273.125.402.202.13.074.255.158.375.25.12.09.232.192.338.298.107.106.206.22.3.34.09.117.173.243.248.373.077.13.144.264.202.403.058.14.107.28.146.427.042.145.074.292.094.442.022.148.03.298.03.45v51.093c0 .15-.012.3-.032.45-.02.15-.05.296-.09.44-.04.147-.087.29-.146.428-.06.14-.126.273-.203.403-.075.13-.157.255-.25.375-.092.118-.19.23-.298.337-.106.107-.218.207-.338.3-.12.09-.244.174-.375.248-.13.076-.264.144-.403.202-.14.058-.283.106-.428.146-.144.04-.293.072-.44.093-.15.022-.3.032-.45.03H4.483z" stroke="#000" stroke-miterlimit="22.926" stroke-width="2.0002673599999996" fill="#fff"/><path d="M4.484 56.513h-.008c-.043 0-.086-.003-.128-.01-.043-.004-.085-.013-.127-.026-.04-.01-.08-.023-.12-.04-.04-.017-.078-.036-.115-.06-.038-.02-.074-.044-.108-.07-.033-.026-.066-.055-.096-.085-.03-.03-.058-.063-.085-.097-.025-.033-.05-.07-.07-.107-.023-.037-.04-.076-.06-.115-.015-.04-.03-.08-.04-.122-.012-.04-.02-.082-.026-.125-.007-.042-.01-.085-.01-.128V4.472c0-.043.003-.086.01-.13.004-.042.013-.084.025-.125.01-.042.024-.083.04-.123.018-.04.037-.078.06-.114.02-.037.045-.073.07-.108.027-.034.055-.065.086-.096.03-.03.064-.06.097-.085.034-.026.07-.05.108-.07.037-.022.075-.04.114-.06.04-.015.08-.03.12-.04.043-.012.085-.02.128-.026.042-.007.085-.01.128-.01H55.53c.044 0 .087.004.13.01.043.005.085.014.126.026.042.01.083.025.123.04.037.017.076.037.113.06.037.02.073.044.108.07.034.027.066.055.097.086.03.03.06.062.085.096.026.035.05.07.07.108.023.036.042.075.06.115.016.04.03.08.04.122.013.04.02.083.027.126.005.043.008.086.008.13v51.054c0 .043-.003.086-.01.128-.005.043-.013.085-.026.126-.01.043-.024.083-.04.123-.017.04-.036.078-.06.115-.02.038-.044.074-.07.107-.026.034-.055.067-.085.097-.03.03-.063.06-.096.085-.034.026-.07.05-.107.07-.037.024-.076.042-.116.06-.038.016-.08.03-.12.04-.042.013-.084.022-.127.027-.043.006-.086.01-.13.01H4.485" fill-rule="evenodd" fill="#003499"/></svg>
