<svg xmlns="http://www.w3.org/2000/svg" height="60" width="60"><g stroke="#000" fill="#fff"><path stroke-linejoin="bevel" d="M58.95 55.515V4.45c0-.148-.01-.296-.03-.442-.02-.147-.05-.293-.09-.435-.037-.142-.085-.283-.143-.42s-.123-.268-.2-.395c-.073-.13-.156-.252-.246-.37-.09-.116-.187-.228-.292-.332-.104-.105-.215-.204-.332-.294-.117-.09-.24-.174-.37-.246-.127-.076-.26-.14-.396-.2-.136-.056-.277-.104-.42-.142-.143-.04-.288-.072-.434-.092-.148-.02-.295-.03-.442-.03H4.46c-.148 0-.296.012-.443.03-.147.02-.29.05-.434.092-.144.037-.284.084-.42.14-.137.06-.27.126-.397.202-.128.072-.25.155-.37.245-.116.09-.227.188-.33.293-.107.104-.204.216-.295.332-.09.118-.17.24-.245.37-.074.128-.14.26-.198.396-.057.138-.106.278-.143.42-.04.143-.072.29-.092.436-.02.146-.03.295-.03.442V55.54c0 .15.01.297.03.444.02.146.05.292.092.434.036.143.083.284.14.42.06.137.126.27.2.396.075.13.157.253.247.37.092.117.19.228.295.332.104.106.215.204.332.294.118.09.24.173.37.246.127.075.26.14.396.2.136.055.276.103.42.142.143.04.288.07.434.092.147.02.295.03.442.03h51.093c.147 0 .294-.01.442-.032.146-.02.29-.05.434-.09.144-.037.284-.085.42-.142.137-.057.27-.124.397-.2.128-.073.252-.156.368-.246.118-.09.23-.188.333-.294.105-.104.203-.215.294-.332.09-.117.172-.24.246-.37.075-.127.14-.26.198-.396.058-.137.106-.277.144-.42.04-.142.07-.288.092-.435.02-.146.03-.293.03-.442v-.025z" stroke-miterlimit="22.926" stroke-width=".22814015"/><path stroke-linejoin="bevel" d="M59.007 55.515v.027c-.002.15-.012.3-.032.45-.02.15-.05.296-.09.44-.04.147-.088.29-.147.428-.058.138-.125.273-.202.402-.075.13-.16.256-.25.375-.092.12-.192.233-.298.338-.107.107-.22.208-.338.3-.12.09-.245.174-.376.248-.13.077-.263.145-.403.203-.138.057-.28.106-.425.145-.145.042-.293.074-.442.094-.15.022-.3.03-.45.03H4.46c-.15 0-.3-.01-.45-.03-.15-.02-.296-.052-.442-.093-.145-.037-.288-.085-.427-.143-.137-.058-.27-.126-.4-.204-.13-.074-.257-.158-.376-.25-.12-.09-.232-.19-.338-.298-.107-.105-.207-.218-.298-.338-.092-.118-.176-.244-.25-.375-.076-.13-.144-.264-.202-.402-.06-.14-.107-.28-.146-.428-.042-.144-.072-.29-.094-.44-.02-.15-.03-.3-.03-.45V4.448c.002-.15.012-.3.032-.45.02-.15.05-.296.092-.44.037-.147.086-.29.145-.43.058-.137.125-.272.202-.4.075-.132.16-.257.25-.376.092-.12.192-.233.3-.338.105-.107.218-.207.337-.3.12-.09.245-.174.376-.248.13-.077.263-.145.402-.202.14-.058.28-.107.426-.146.146-.04.293-.072.442-.093.15-.022.3-.03.45-.03h51.094c.15 0 .3.01.45.032.148.02.296.05.44.09.146.04.29.087.427.146.14.058.275.126.404.203.13.074.256.158.376.25.12.09.23.19.338.298.107.105.206.22.298.338.09.12.175.244.25.375.077.13.143.264.2.403.06.138.108.282.148.427s.07.292.093.442c.02.147.03.298.03.448v51.067z" stroke-miterlimit="22.926" stroke-width="2.00006275"/></g><path d="M56.52 55.515v.008c0 .043-.003.086-.01.128-.004.044-.013.086-.025.128-.01.04-.025.08-.04.12-.018.04-.037.08-.06.116-.02.038-.045.073-.07.107-.027.035-.055.068-.086.097-.03.03-.063.06-.097.086-.034.026-.07.05-.108.07-.036.023-.075.042-.114.06-.04.016-.08.03-.12.04-.043.012-.085.022-.128.027-.042.006-.085.01-.128.01H4.48c-.044 0-.087-.004-.13-.01-.042-.005-.085-.015-.126-.027-.042-.01-.083-.024-.122-.04-.04-.017-.078-.037-.115-.06-.037-.02-.073-.044-.107-.07-.034-.026-.066-.055-.097-.086-.03-.03-.06-.062-.085-.096-.026-.033-.05-.068-.07-.106-.023-.037-.042-.076-.06-.115-.016-.04-.03-.082-.04-.122-.012-.042-.02-.084-.027-.127-.005-.04-.008-.084-.007-.127V4.467c0-.043.002-.086.008-.13.007-.04.016-.083.027-.124.01-.042.025-.083.04-.122.02-.04.038-.078.06-.115s.045-.072.07-.106c.027-.036.055-.068.086-.098s.063-.06.097-.085c.034-.027.07-.05.107-.072s.075-.04.115-.058c.04-.017.08-.03.122-.04.04-.013.084-.022.126-.028.043-.007.086-.01.13-.01h51.054c.043 0 .086.003.128.01.043.005.085.014.127.026.04.01.08.024.12.04.04.017.08.037.115.06.038.02.074.044.108.07.034.026.066.055.096.086.03.03.058.062.085.097.025.033.05.068.07.105.023.037.04.076.06.116.015.04.03.08.04.123.012.04.02.083.027.125.005.043.008.086.008.13v51.047" fill-rule="evenodd" fill="#039"/><path d="M2.814 33.77H57.65v-8.227H2.814v8.226z" fill="#fff"/><path d="M28.268 57.413h3.47V2.578h-3.47v54.835z" fill="#fff"/></svg>
