<svg xmlns="http://www.w3.org/2000/svg" height="60" width="60"><g stroke="#000" fill="#fff"><path stroke-linejoin="bevel" d="M4.485 58.94h51.067c.148-.002.295-.012.442-.032.147-.02.292-.05.434-.09.144-.037.285-.085.42-.143s.27-.123.397-.2c.13-.073.25-.155.37-.246.116-.09.227-.19.332-.293.105-.105.203-.216.293-.333.09-.117.172-.24.246-.37.075-.127.14-.26.198-.396s.106-.277.143-.42c.04-.143.072-.288.093-.434s.03-.295.03-.442V4.447c-.002-.147-.012-.295-.03-.44-.02-.15-.052-.293-.093-.436-.036-.143-.083-.283-.14-.42-.06-.136-.126-.268-.2-.396-.075-.128-.157-.25-.247-.37-.09-.116-.188-.227-.293-.33-.105-.107-.216-.204-.333-.295-.118-.09-.24-.173-.37-.247-.127-.074-.26-.14-.396-.198-.136-.057-.276-.105-.42-.143-.142-.04-.287-.072-.434-.092-.147-.02-.295-.03-.442-.03H4.458c-.148 0-.295.01-.443.03-.146.02-.29.05-.433.092-.145.036-.285.084-.42.14-.138.06-.27.126-.398.2-.128.075-.25.157-.368.247s-.23.187-.333.294c-.105.103-.203.214-.293.33-.09.12-.173.242-.247.37-.074.128-.14.26-.198.397s-.105.28-.143.42c-.04.144-.07.29-.093.436-.02.146-.03.294-.03.44v51.097c0 .147.01.295.032.442.02.146.05.29.09.435.036.142.084.282.142.418.057.137.124.27.2.397.073.128.156.252.246.368.09.118.188.23.293.334.104.104.215.202.333.293.117.09.24.172.368.246.128.075.26.14.397.198.138.058.278.106.422.144.142.04.287.07.434.092.147.02.294.03.442.03h.027z" stroke-miterlimit="22.926" stroke-width=".22814015"/><path stroke-linejoin="bevel" d="M4.485 58.995h-.028c-.15 0-.3-.012-.45-.032s-.295-.05-.44-.092c-.146-.036-.29-.085-.427-.143-.14-.06-.274-.126-.402-.203-.13-.075-.256-.16-.376-.25-.12-.092-.232-.192-.337-.298-.108-.107-.208-.22-.3-.338-.09-.12-.174-.245-.25-.375-.076-.13-.143-.264-.2-.404-.06-.14-.108-.282-.147-.427-.04-.145-.072-.293-.093-.442-.02-.147-.03-.298-.03-.448V4.447c0-.15.012-.3.03-.45.022-.148.052-.295.093-.44.038-.146.086-.29.145-.428.058-.14.125-.273.202-.403.076-.13.16-.256.25-.375.093-.12.192-.232.3-.338.105-.107.217-.207.337-.298.12-.092.245-.176.376-.25.128-.076.264-.144.402-.202.14-.06.28-.107.426-.146.146-.04.293-.072.442-.094.15-.02.3-.03.45-.03H55.55c.15.002.3.012.45.032.148.02.295.052.44.092.146.037.29.086.428.145.138.058.274.126.402.202.13.075.256.16.376.25.12.092.232.192.337.3.108.105.207.218.3.337.09.12.174.245.25.375.076.13.143.264.2.403.06.14.108.28.147.426.04.146.07.293.093.442.02.15.03.3.03.45V55.54c-.002.15-.012.3-.032.45-.02.148-.05.296-.09.44-.04.146-.087.29-.147.427-.058.14-.125.273-.202.403-.075.13-.16.255-.25.375-.092.12-.19.23-.3.338-.104.107-.217.206-.336.298-.12.09-.245.175-.376.25-.13.076-.264.143-.403.202-.14.058-.282.106-.427.145-.146.042-.293.073-.442.094-.148.02-.298.032-.448.03H4.485z" stroke-miterlimit="22.926" stroke-width="2.00006275"/></g><path d="M4.485 56.51h-.008c-.043 0-.086-.005-.128-.01-.044-.006-.086-.015-.128-.027-.04-.01-.082-.025-.122-.04-.04-.018-.077-.037-.114-.06-.038-.02-.074-.044-.108-.07-.033-.027-.066-.055-.096-.086-.03-.03-.06-.062-.086-.096-.025-.034-.05-.07-.07-.107-.023-.036-.04-.075-.06-.114-.015-.04-.03-.082-.04-.124-.012-.04-.02-.083-.027-.126-.006-.042-.01-.085-.01-.128V4.467c0-.043.004-.086.01-.13.005-.04.014-.084.026-.125.01-.042.025-.083.04-.122.018-.04.037-.078.06-.115.02-.037.045-.073.07-.108.027-.033.055-.065.086-.096.03-.03.063-.058.096-.084.034-.026.07-.05.108-.07.037-.023.075-.042.114-.06.04-.016.08-.03.122-.04.042-.013.084-.02.127-.027.04-.007.084-.01.127-.01h51.055c.043 0 .086.003.13.01.04.005.084.013.125.025.042.01.083.025.122.04.04.018.077.037.114.06.037.02.073.045.107.07.035.027.067.056.098.086s.06.064.085.097c.026.035.05.07.07.108s.042.076.06.115c.016.04.03.08.04.122.013.04.02.084.027.126.006.043.01.086.008.13V55.52c0 .043-.002.086-.008.128-.006.043-.014.085-.026.126-.01.042-.025.083-.04.123-.02.038-.038.077-.06.113-.02.038-.045.073-.07.108-.027.035-.055.067-.086.097-.03.03-.063.06-.097.086-.033.026-.07.05-.106.07-.037.023-.075.04-.115.06-.04.015-.08.03-.123.04-.04.012-.084.02-.126.026-.042.005-.085.01-.128.01H4.485" fill-rule="evenodd" fill="#039"/><path d="M38.606 23.19L27.52 21.984h-.584l-.012.255-.014.255c-.033.535-.098 1.068-.19 1.596-.095.53-.22 1.05-.373 1.563-.064.22-.13.437-.2.654-.073.217-.144.433-.218.648h9.932l2.793-3.573-.014-.047-.012-.047-.012-.05-.01-.048" fill-rule="evenodd" fill="#039"/><g><g fill-rule="evenodd"><path d="M11.69 39.2l1.418 1.955c.302.03.604.052.907.068.3.017.6.014.9-.01.344-.03.684-.09 1.017-.177.336-.087.667-.19.992-.31.67-.24 1.325-.52 1.962-.842.635-.32 1.257-.666 1.864-1.037.516-.315 1.034-.63 1.553-.94.515-.31 1.05-.59 1.6-.83.49-.22.996-.4 1.515-.536.528-.138 1.065-.236 1.608-.293.628-.08 1.264-.092 1.894-.033.617.054 1.217.22 1.774.49.267.122.522.267.766.43.248.165.49.336.727.514.7-.102 1.398-.213 2.095-.33.695-.12 1.386-.264 2.07-.434.764-.194 1.516-.428 2.254-.704.74-.276 1.463-.594 2.166-.953.655-.323 1.29-.685 1.9-1.084.61-.4 1.19-.844 1.733-1.33.267-.233.524-.478.768-.735.246-.254.476-.523.69-.805.288-.373.55-.767.784-1.177.235-.41.45-.833.644-1.265.183-.395.354-.795.515-1.2.16-.404.318-.81.472-1.215-.556.326-1.112.65-1.67.97-.56.32-1.123.63-1.693.932-.74.39-1.492.76-2.255 1.107-.763.348-1.534.677-2.313.987-.41.166-.82.326-1.234.484-.412.157-.825.313-1.24.468L11.692 39.2" fill="#fff"/><path d="M47.952 25.848l-17.283-.19-5.048-4.5-.277-.224-.282-.227c-.107-.09-.218-.174-.332-.255-.11-.078-.233-.144-.36-.192-.13-.05-.27-.084-.41-.098-.145-.016-.29-.025-.435-.028l-5.1-.45c-.143-.03-.285-.05-.43-.068-.143-.015-.29-.01-.434.013-.112.017-.222.053-.325.103-.1.047-.187.118-.255.205-.043.053-.078.113-.104.177-.028.065-.054.132-.075.198l-1.015 5.883c-.03.14-.06.28-.087.42-.028.144-.047.29-.06.434-.017.177-.015.356.008.532.02.172.074.338.16.488.07.126.16.237.27.33.11.1.23.182.357.252.274.15.567.258.87.324l.91.2c.384.087.76.2 1.128.342.368.14.73.29 1.088.454.156.068.31.138.467.208.154.07.31.14.464.212l.322 1.088-7.195 2c-.108.017-.217.038-.323.062-.11.025-.217.057-.32.098-.173.068-.333.164-.474.284-.136.113-.243.26-.31.422-.057.14-.087.288-.085.438 0 .16.01.317.032.476-.103.004-.206.013-.308.027-.1.014-.198.042-.29.083-.14.072-.26.177-.352.306-.095.13-.163.28-.2.437-.034.125-.05.253-.05.382.002.128.01.255.022.383l.76 1.434 24.706-7.58c.392-.133.784-.268 1.176-.404.392-.136.782-.277 1.17-.42.908-.338 1.804-.706 2.688-1.102.884-.396 1.754-.822 2.61-1.277.508-.268 1.013-.544 1.514-.826.5-.283 1-.57 1.498-.856" fill="#fff"/><path d="M24.46 30.67l7.48-2.03-6.428-6.393-1.146 1.81c-.05.087-.102.17-.16.25-.055.075-.123.14-.202.19-.075.043-.157.072-.243.085-.087.015-.177.018-.266.008-.06-.005-.12-.013-.177-.027-.058-.012-.115-.025-.172-.04L20.13 23.39l-.487 2.958c0 .05.002.098.006.147 0 .048.01.097.023.144.017.053.04.107.07.155.03.047.07.09.114.12.05.04.107.067.167.084.062.017.126.03.19.04l2.855.98c.074.035.15.07.223.106.074.037.148.075.22.12.083.05.16.11.233.175.072.066.133.14.182.223.037.063.068.128.09.197.025.068.047.14.067.21l.375 1.62" fill="#039"/><path d="M20.59 21.18l-.158.707 2.6 1.288c.04.014.078.027.118.038.042.013.084.023.127.03.04.007.08.008.118.007.037 0 .073-.012.105-.03.03-.015.055-.038.075-.065.02-.03.042-.06.06-.09l.92-1.343c.01-.058.012-.117.01-.176 0-.055-.01-.11-.035-.16-.023-.042-.055-.08-.094-.11-.038-.03-.082-.053-.13-.068-.04-.013-.08-.02-.12-.022-.043-.002-.084-.002-.126 0l-3.47-.005" fill="#039"/><path d="M11.448 44.226c.363.13.73.253 1.098.365.365.113.738.194 1.116.245.393.047.788.056 1.18.03.4-.03.795-.08 1.187-.156.606-.11 1.204-.26 1.79-.45.585-.19 1.158-.413 1.716-.67.437-.192.867-.404 1.286-.633.42-.23.83-.478 1.228-.744.377-.253.752-.51 1.123-.773.37-.26.752-.505 1.145-.73.474-.275.973-.503 1.492-.678.53-.18 1.076-.298 1.63-.355.42-.058.848-.067 1.27-.028.41.035.808.15 1.173.34.266.135.514.304.736.502.226.203.443.415.65.64.15.156.3.315.45.473l.44.474c.385-.2.776-.39 1.17-.57.394-.18.8-.33 1.214-.45.33-.093.663-.16 1.002-.2.34-.042.68-.053 1.02-.034.324.014.646.055.963.12.316.067.628.155.933.263.405.144.804.305 1.196.485.39.18.786.348 1.187.505.47.184.955.33 1.45.433.498.106 1.004.167 1.512.182.557.03 1.117 0 1.667-.092.546-.09 1.078-.25 1.583-.48.176-.075.35-.158.52-.247.17-.09.338-.18.506-.275v-2.057c-.272.17-.548.335-.826.494-.278.158-.566.3-.86.423-.397.163-.81.282-1.233.358-.423.077-.852.107-1.282.09-.41-.01-.82-.06-1.222-.147s-.796-.206-1.18-.353c-.41-.157-.814-.326-1.213-.51-.398-.182-.805-.347-1.216-.497-.39-.142-.79-.255-1.194-.336-.407-.083-.82-.132-1.235-.147-.43-.022-.86-.007-1.287.043-.425.05-.847.134-1.26.252-.264.073-.527.154-.786.247-.26.09-.517.186-.774.285-.08-.084-.162-.166-.244-.25-.08-.08-.163-.162-.247-.242-.204-.196-.42-.38-.645-.547-.224-.17-.462-.318-.713-.443-.522-.267-1.087-.436-1.67-.5-.594-.066-1.193-.06-1.787.02-.673.066-1.337.208-1.98.424-.632.213-1.24.492-1.812.835-.405.235-.8.488-1.185.76-.385.27-.773.535-1.166.795-.36.236-.73.458-1.105.664-.377.207-.76.4-1.152.574-.493.228-1 .427-1.515.597-.52.17-1.05.303-1.586.398-.302.06-.608.103-.915.126-.303.024-.608.02-.91-.014-.423-.048-.837-.145-1.236-.29-.406-.148-.807-.312-1.202-.49v1.946M20.812 16.998c0 .094-.008.187-.022.28-.014.094-.037.185-.066.273-.028.09-.064.177-.107.26-.042.083-.09.163-.147.24-.055.076-.116.147-.182.214-.067.066-.138.127-.215.182-.076.055-.155.104-.238.147-.084.043-.17.08-.26.107-.088.03-.18.052-.272.067-.093.014-.186.022-.28.02-.095 0-.188-.005-.28-.02-.093-.015-.185-.038-.274-.067-.09-.028-.176-.064-.26-.107-.083-.043-.163-.092-.238-.147-.077-.055-.15-.116-.215-.182-.067-.067-.127-.14-.182-.215-.055-.077-.106-.157-.148-.24-.043-.083-.078-.17-.106-.26-.03-.087-.05-.18-.066-.272-.015-.093-.022-.186-.02-.28-.002-.094.006-.187.02-.28.015-.093.036-.184.067-.273.03-.09.065-.176.107-.26.042-.082.093-.162.148-.237.055-.077.115-.15.182-.215.066-.067.138-.127.215-.182.075-.055.155-.105.238-.147.084-.043.17-.078.26-.106.088-.03.18-.052.272-.068.093-.015.186-.022.28-.02.095-.002.188.006.28.02.093.015.185.036.273.067.09.027.176.063.26.106.083.042.162.092.238.148.077.055.148.116.215.183.066.066.127.138.182.215.056.075.105.155.147.238.043.084.08.17.107.26.03.088.052.18.066.272.015.092.022.186.022.28" fill="#fff"/></g></g></svg>
