<svg xmlns="http://www.w3.org/2000/svg" xmlns:xlink="http://www.w3.org/1999/xlink" width="60" height="60"><symbol id="a"><path d="M28.688 18.97c-.097-.002-.217.015-.313.03-.095.016-.19.03-.28.063-.093.028-.165.08-.25.125-.087.043-.173.068-.25.125-.08.056-.15.118-.22.187-.07.07-.13.17-.188.25-.056.078-.113.133-.156.22-.043.084-.064.188-.093.28-.03.092-.077.185-.093.28-.014.097 0 .185 0 .282 0 .097-.015.186 0 .282.016.095.062.19.093.28.03.094.05.196.094.282.044.086.1.172.157.25.057.078.12.15.188.22.07.068.14.13.22.186.077.057.163.112.25.157.085.043.157.064.25.093.09.03.185.046.28.062.096.015.215.032.313.03.097.002.185-.015.28-.03.096-.016.19-.032.282-.063.093-.028.164-.05.25-.093.085-.046.172-.1.25-.157.08-.057.15-.12.22-.188.067-.07.13-.14.186-.22.058-.077.113-.163.157-.25.044-.085.096-.187.125-.28.03-.09.047-.185.062-.28.014-.097.03-.185.03-.282 0-.097-.015-.187-.03-.282-.015-.095-.032-.188-.063-.28-.028-.092-.08-.195-.125-.28-.043-.087-.098-.142-.156-.22-.057-.08-.12-.18-.187-.25-.07-.07-.14-.132-.22-.188-.078-.056-.165-.08-.25-.125-.086-.044-.157-.096-.25-.125-.09-.03-.186-.046-.28-.062-.097-.014-.185-.032-.282-.03zm20.093 3.093c-5.056 1.53-6.943 2.052-9.968 2.968-.966.294-2.59-2.146-3.343-1.655-1.05.684-1.436 1.187-1.845 1.656-.266-.116-5.653-2.49-8.438-1.905-.477.1-.92.466-1.187.875-.967 1.48-1.317 4.646-1.406 5.75-3.85 1.06-8.205 2.123-11.907 3.063l1.5 2.437 1.032 2c.31.03.624.077.936.094.31.017.63-.007.938-.032.353-.03.687-.097 1.03-.187.347-.09.697-.19 1.032-.313.69-.247 1.376-.544 2.032-.874.654-.33 1.28-.68 1.906-1.063.532-.325 1.09-.647 1.625-.97.53-.318 1.057-.593 1.624-.843.504-.226 1.028-.422 1.562-.562.544-.143 1.097-.223 1.657-.28.647-.084 1.32-.124 1.968-.064.637.056 1.24.252 1.814.532.275.125.56.27.812.437.255.17 1.537 1.098 1.782 1.28 2.282-.82 5.03-1.556 7.468-2.56 1.37-.566 2.976-.87 4-1.94 1.965-2.05 2.704-6.102 3.375-7.843zm-19.874 3.406l3.094.905c-.38.234-.81.494-1.438.78-.78.36-1.834.715-2.968 1.095l1.312-2.78zm-17.062 3.905L8 30.47l.563 1.936 3.843-1.093-.562-1.938zm16.843 4.47c-.307.002-.6.02-.906.06-.692.07-1.4.216-2.06.44-.653.218-1.254.52-1.845.874-.42.24-.854.5-1.25.78-.396.278-.783.545-1.188.813-.37.242-.737.474-1.125.687-.387.212-.784.413-1.187.594-.508.235-1.03.418-1.563.593-.534.176-1.102.34-1.656.438-.31.06-.62.1-.937.125-.314.024-.628.004-.94-.03-.434-.05-.87-.133-1.28-.282-.42-.152-.812-.317-1.22-.5v2c.376.134.747.26 1.126.374.377.115.767.198 1.156.25.405.05.813.06 1.22.032.41-.03.814-.078 1.218-.157.625-.112 1.24-.272 1.844-.468.602-.196 1.174-.425 1.75-.69.45-.198.91-.42 1.343-.655.433-.237.84-.507 1.25-.78.39-.262.774-.513 1.157-.782.38-.27.782-.52 1.187-.75.49-.284.998-.54 1.532-.72.546-.184 1.116-.284 1.688-.343.433-.06.877-.07 1.313-.03.42.036.842.147 1.218.343.275.14.522.326.75.53.235.21.445.427.657.657.155.162.315.305.47.47.15.16.317.335.468.5.397-.207.78-.41 1.188-.595.404-.185.823-.344 1.25-.47.338-.095.682-.144 1.03-.186.35-.043.712-.05 1.063-.032.334.014.673.056 1 .124.327.068.655.14.97.25.417.15.814.315 1.218.5.403.186.805.37 1.218.532.485.19.99.33 1.5.437.514.11 1.04.173 1.563.19.575.03 1.152 0 1.72-.095.562-.092 1.104-.264 1.624-.5.18-.078.355-.158.53-.25.175-.093.358-.184.53-.28v-2.126c-.28.174-.556.335-.843.5-.286.162-.602.31-.906.436-.408.168-.813.297-1.25.375-.434.08-.9.113-1.343.095-.423-.01-.835-.066-1.25-.156-.413-.092-.823-.193-1.218-.345-.424-.16-.84-.343-1.25-.53-.41-.19-.827-.38-1.25-.532-.402-.147-.802-.26-1.22-.344-.42-.087-.853-.11-1.28-.126-.443-.023-.874-.02-1.314.03-.438.053-.887.13-1.312.25-.273.076-.546.156-.813.25-.267.096-.515.21-.78.313-.083-.086-.166-.164-.25-.25-.083-.085-.195-.167-.28-.25-.21-.2-.424-.388-.657-.562-.23-.174-.46-.34-.72-.47-.536-.274-1.118-.465-1.718-.53-.306-.034-.63-.034-.938-.03z"/></symbol><use xlink:href="#a"/></svg>
