<svg xmlns="http://www.w3.org/2000/svg" xmlns:xlink="http://www.w3.org/1999/xlink" width="60" height="60"><symbol id="a"><path d="M51.337 17.44L13.2 25.54l3.337 5.4 17.513-.9c5.948-1.76 17.975-4.95 17.288-12.6zm.038 10.688l-35.7 5.325.75 1.425 16.8-2.625c-.722.247-1.238.904-1.238 1.65 0 .908.758 1.654 1.725 1.725l-17.4 2.438h-.075v.075l-.525.638c-.646.8-1.148 1.045-1.537 1.013-.39-.032-.915-.36-1.5-1.274L12 37.428l-.45 1.2c-.19.53-.368.852-.525 1.013-.157.16-.258.19-.375.188-.234-.002-.782-.337-1.388-.937l-.862.9c.68.673 1.358 1.267 2.25 1.276.446.004.896-.212 1.237-.563.147-.15.218-.438.338-.637.545.624 1.138 1.104 1.837 1.162.783.065 1.48-.38 2.138-1.05l-.038 2.4 35.438-.112-.113-9.15-16.837 2.362c.635-.276 1.087-.884 1.087-1.575 0-.954-.835-1.725-1.875-1.725l17.625-2.737-.112-1.312zm-17.512 5.025c.448 0 .787.338.787.75s-.34.75-.787.75c-.45 0-.826-.338-.826-.75s.377-.75.825-.75z"/></symbol><use xlink:href="#a"/></svg>
