<svg xmlns="http://www.w3.org/2000/svg" height="60" width="60"><path d="M4.896 57.173H4.88c-.09 0-.178-.008-.267-.02-.088-.01-.176-.03-.263-.054-.085-.023-.17-.05-.252-.086-.083-.035-.162-.075-.24-.12-.077-.044-.152-.095-.222-.15s-.138-.113-.2-.176c-.064-.063-.123-.13-.177-.2-.056-.07-.105-.145-.15-.223-.045-.076-.085-.157-.12-.24-.034-.082-.063-.166-.086-.252-.025-.087-.043-.174-.055-.263-.014-.087-.02-.177-.02-.266V4.88c0-.088.008-.177.02-.265.012-.09.03-.177.054-.262.022-.087.052-.17.086-.254s.074-.163.12-.24c.045-.077.094-.15.15-.222.053-.07.112-.138.176-.2.062-.064.13-.123.2-.177.07-.054.145-.104.222-.148.078-.045.157-.085.24-.12.082-.034.167-.062.252-.086.087-.024.175-.043.263-.055.09-.01.177-.017.267-.017h50.242c.09 0 .178.007.267.02.088.01.175.03.26.054.087.022.172.05.254.084.083.036.162.077.24.122.076.044.15.094.22.15.073.053.14.113.203.176.063.062.12.13.177.2.054.07.103.145.148.223.045.077.085.157.12.24.034.082.063.166.086.253.024.086.042.174.055.262.012.088.018.178.017.266v50.244c0 .09-.007.18-.018.266-.012.09-.03.176-.054.263-.023.087-.05.17-.086.254-.035.08-.075.162-.12.238-.045.078-.094.152-.148.223-.056.07-.114.137-.177.2-.064.064-.13.123-.202.177-.07.055-.145.105-.222.15-.077.044-.156.083-.24.12-.08.033-.166.06-.252.084-.085.024-.172.042-.26.055-.09.013-.18.02-.268.018H4.896z" fill-rule="evenodd" fill="#e72512"/><path d="M43.478 49.332l-32.81-32.81v32.81h32.81M49.333 43.48V10.67h-32.81l32.81 32.81" fill-rule="evenodd" fill="#fff"/><path stroke-linejoin="bevel" d="M4.48 58.94H55.55c.148 0 .295-.01.442-.03.147-.02.292-.05.434-.09.144-.038.285-.085.42-.144.137-.057.27-.123.397-.2.13-.073.253-.155.37-.245s.228-.188.333-.293c.105-.104.203-.214.293-.332s.172-.24.246-.37c.076-.127.142-.26.198-.396.058-.137.106-.277.145-.42.04-.144.07-.29.09-.435s.03-.295.03-.442V4.448c0-.147-.01-.295-.03-.442-.02-.147-.05-.292-.09-.434-.038-.144-.085-.284-.143-.42-.057-.137-.124-.27-.2-.397-.074-.128-.156-.25-.246-.37-.09-.116-.188-.227-.293-.332-.105-.105-.215-.203-.333-.293s-.24-.172-.37-.246c-.126-.074-.26-.14-.396-.198-.136-.058-.276-.106-.42-.143-.142-.04-.287-.072-.434-.093-.147-.02-.294-.03-.442-.03H4.455c-.15.002-.297.012-.443.032-.146.02-.292.05-.435.09-.143.037-.283.084-.42.142-.136.058-.268.125-.396.2-.127.074-.25.156-.368.246-.117.09-.23.188-.332.293-.106.105-.204.216-.295.333-.09.118-.172.24-.245.37-.075.127-.14.26-.2.396-.056.136-.104.277-.142.42-.04.143-.072.288-.092.434s-.03.295-.03.442v51.095c0 .147.012.296.032.442.02.146.05.29.09.435.037.143.085.283.142.42.057.136.124.268.2.396.073.128.155.252.246.37.09.116.188.227.294.33.103.107.215.205.332.295.117.09.24.173.37.247.127.075.26.14.396.198.136.058.277.106.42.144.142.04.288.07.435.09.146.02.293.03.442.03h.026z" stroke="#231f20" stroke-miterlimit="22.926" stroke-width=".22752632" fill="none"/><path stroke-linejoin="bevel" d="M4.48 58.998h-.027c-.15 0-.3-.012-.45-.032-.148-.02-.295-.05-.44-.09-.146-.04-.29-.087-.427-.146-.14-.06-.273-.126-.403-.203-.13-.075-.256-.158-.375-.25-.12-.092-.232-.19-.338-.298-.107-.108-.207-.22-.3-.34-.09-.12-.174-.243-.25-.374-.075-.13-.142-.264-.2-.403-.058-.138-.107-.282-.146-.427-.04-.145-.072-.293-.093-.442-.02-.148-.03-.3-.03-.45V4.45c.002-.15.012-.3.032-.45.02-.148.05-.295.092-.44.038-.146.086-.29.145-.428.057-.138.124-.272.2-.402.077-.13.16-.256.252-.375.09-.12.19-.232.298-.338s.218-.207.338-.298c.12-.093.245-.177.375-.252.13-.075.264-.143.403-.2.14-.06.28-.108.426-.147.146-.04.293-.07.442-.093.15-.02.3-.03.45-.03h51.094c.15 0 .3.012.45.032.148.02.297.05.44.09.147.038.29.087.43.146.138.058.272.126.4.202.132.075.256.16.376.25.12.092.232.192.338.3.107.105.206.218.298.337.092.12.175.245.25.375.077.13.144.264.203.403.057.14.106.28.145.426.04.145.073.292.093.44.023.15.032.3.03.45v51.095c0 .15-.01.3-.03.45-.02.148-.05.296-.092.44-.038.146-.086.29-.145.428-.06.14-.126.273-.203.403-.075.13-.158.255-.25.375s-.19.232-.298.34c-.106.106-.22.205-.338.298-.12.09-.244.174-.375.25-.13.076-.265.142-.404.2-.14.06-.282.107-.427.147-.146.04-.294.072-.443.093-.148.02-.3.03-.45.03H4.482z" stroke="#000" stroke-miterlimit="22.926" stroke-width="2.0002673599999996" fill="none"/><path d="M26.702 27.283c-.206-.345-.417-.686-.634-1.024-.214-.337-.445-.662-.692-.976-.347-.433-.726-.84-1.134-1.215-.413-.382-.843-.743-1.29-1.085-.438-.353-.902-.676-1.386-.965-.482-.287-1.003-.5-1.55-.63-.1-.024-.2-.05-.3-.078-.1-.027-.197-.063-.288-.11-.043-.023-.083-.048-.122-.074-.04-.027-.08-.055-.116-.084-.058-.043-.114-.09-.168-.137-.054-.047-.103-.1-.15-.153-.04-.05-.08-.103-.114-.16-.033-.055-.064-.113-.09-.173-.026-.06-.05-.12-.068-.183-.018-.063-.032-.126-.042-.19-.01-.066-.017-.13-.018-.196 0-.064 0-.13.008-.194.008-.09.023-.178.044-.265.02-.086.046-.172.074-.256.03-.093.065-.184.102-.274.038-.09.08-.177.123-.263.068-.13.143-.258.223-.38.082-.123.168-.243.257-.36.148-.194.306-.382.473-.56.167-.18.347-.347.536-.5.187-.16.387-.303.596-.43.21-.13.427-.24.653-.337.197-.086.4-.162.604-.227.207-.065.415-.125.624-.18.203-.053.408-.103.613-.147.206-.044.414-.077.622-.1.296-.032.593-.04.89-.025.298.017.595.052.89.106.256.042.51.097.762.166.25.068.498.15.74.243.306.116.603.252.89.408.287.155.565.33.828.525.265.19.517.398.754.623.237.225.46.466.662.722.207.252.397.52.568.798.17.278.322.568.453.867.134.298.248.604.34.918.093.313.164.632.213.955.053.323.085.648.093.974.01.327-.005.654-.04.978-.033.325-.09.647-.165.965-.075.318-.173.63-.292.935-.115.306-.25.604-.406.892-.156.287-.33.562-.527.824-.045.063-.09.125-.138.186l-.142.183.016.01c.006.004.012.01.017.012.134.092.26.195.38.308.117.113.228.235.33.363.102.128.196.26.28.4.087.14.163.284.23.434.067.15.126.302.173.46.047.155.082.314.103.476.02.148.032.297.034.447.003.15.002.3-.003.45.402-.006.803-.018 1.205-.037.397-.02.794-.056 1.19-.113.548-.084 1.09-.21 1.62-.375.535-.167 1.064-.36 1.583-.573.526-.205 1.036-.445 1.53-.72.488-.273.933-.62 1.318-1.026l.22-.223c.074-.072.154-.137.24-.193.04-.025.082-.047.125-.068.044-.022.087-.04.13-.06.067-.028.135-.054.202-.077.07-.022.138-.04.21-.052.063-.01.128-.017.193-.018.066-.002.13 0 .196.01.066.006.13.016.194.032.063.015.125.034.186.058.06.023.12.05.178.082.058.03.113.066.166.104.073.052.142.11.206.17.066.062.127.127.186.194.065.073.127.148.186.225.06.077.115.157.167.238.08.124.152.25.218.383.065.132.126.266.182.402.096.226.18.456.25.69.072.234.127.473.166.714.043.242.068.486.074.73.007.246-.005.492-.035.734-.025.215-.06.428-.107.64-.047.21-.1.42-.157.627-.054.204-.114.406-.178.606-.065.2-.14.397-.225.59-.12.27-.26.533-.422.782-.162.25-.34.49-.534.717-.166.2-.34.393-.526.577-.185.183-.38.356-.58.52-.254.206-.52.395-.8.566s-.567.322-.868.453c-.297.135-.603.25-.917.342-.313.093-.632.164-.955.213-.322.054-.648.085-.975.094-.327.008-.654-.006-.98-.042-.323-.032-.646-.087-.964-.162-.316-.077-.628-.175-.933-.294-.306-.115-.604-.25-.89-.407-.287-.157-.564-.333-.826-.527-.265-.19-.517-.398-.754-.622-.237-.225-.458-.465-.662-.72-.208-.253-.4-.52-.57-.798-.17-.278-.322-.57-.45-.868-.032-.07-.063-.142-.093-.213-.028-.07-.058-.14-.086-.213l-.018.008-.017.008c-.142.063-.288.116-.438.157-.15.04-.3.08-.45.112l-.026.005-.024.004c-.16.027-.324.042-.487.047-.164.005-.327-.002-.49-.02-.162-.016-.323-.043-.482-.082-.16-.038-.315-.087-.467-.147-.154-.057-.303-.125-.448-.202-.143-.077-.28-.165-.41-.264-.025-.018-.05-.036-.073-.055-.024-.02-.048-.037-.072-.056-.19.346-.377.694-.557 1.045-.18.35-.343.705-.488 1.07-.2.516-.364 1.048-.486 1.59-.123.547-.222 1.1-.295 1.657-.086.557-.134 1.12-.142 1.683-.008.56.07 1.12.23 1.656.028.1.056.2.082.302.027.1.043.202.048.305 0 .047 0 .094-.003.14-.003.05-.01.096-.014.144-.01.073-.02.144-.035.214-.015.07-.034.14-.06.206-.02.062-.047.12-.08.18-.03.056-.066.11-.105.164-.038.053-.08.103-.125.15-.045.048-.093.093-.144.133-.052.04-.105.08-.16.113-.056.034-.115.065-.174.09-.08.038-.165.07-.25.095-.087.026-.174.047-.262.064-.095.02-.19.036-.288.048-.095.012-.192.02-.29.025-.146.007-.293.006-.44-.002-.146-.01-.293-.023-.438-.043-.244-.03-.486-.073-.724-.128-.238-.056-.473-.128-.7-.214-.232-.084-.456-.185-.67-.303-.217-.117-.423-.25-.62-.396-.173-.13-.34-.266-.5-.412-.158-.146-.314-.296-.465-.45-.15-.148-.295-.3-.436-.457-.14-.156-.273-.32-.397-.488-.176-.24-.332-.493-.467-.758s-.254-.54-.354-.82c-.09-.245-.17-.493-.237-.745-.068-.25-.12-.506-.16-.763-.053-.322-.084-.648-.093-.974-.01-.326.006-.654.042-.978.03-.325.084-.648.16-.966.078-.317.176-.63.295-.933.115-.306.25-.604.407-.89.156-.287.332-.564.526-.827.19-.265.398-.517.623-.754.226-.237.467-.46.723-.663.252-.208.52-.398.797-.57.28-.17.57-.32.868-.45.298-.135.604-.25.917-.342.314-.092.634-.164.956-.214.325-.054.65-.086.978-.095.326-.01.652.004.976.044.112.01.224.026.335.043.11.016.22.034.33.052.03-.142.06-.283.093-.423s.073-.277.12-.412c.057-.153.124-.302.203-.444.08-.143.167-.28.264-.414.095-.133.2-.26.31-.38.113-.12.234-.228.363-.328.117-.092.24-.175.368-.252.13-.077.26-.15.392-.222" fill-rule="evenodd" stroke="#000" stroke-width=".8438116399999999"/></svg>
