<svg xmlns="http://www.w3.org/2000/svg" height="60" width="60"><path d="M9.71 9.71v40.573h40.573V9.71H9.71z" fill="#fff"/><path stroke-linejoin="bevel" d="M605.94 673.46h62.435c.18 0 .362-.014.54-.037.18-.025.358-.062.533-.112.175-.044.347-.102.513-.172s.33-.152.485-.244c.157-.09.31-.192.45-.302.145-.11.28-.23.41-.358.127-.128.247-.263.357-.407s.212-.295.3-.45c.093-.157.174-.32.243-.486.07-.166.13-.337.176-.512.05-.174.088-.353.114-.532.025-.178.037-.36.036-.54v-62.47c0-.18-.014-.36-.04-.54-.023-.18-.06-.356-.11-.53-.044-.176-.103-.347-.173-.515-.07-.165-.152-.328-.245-.483-.09-.157-.19-.307-.3-.45s-.23-.28-.358-.407c-.128-.13-.264-.25-.408-.36-.142-.11-.294-.21-.45-.3-.156-.092-.32-.173-.485-.243-.166-.07-.338-.128-.513-.175-.175-.05-.352-.087-.53-.112s-.36-.038-.542-.036h-62.468c-.18 0-.363.013-.54.037-.18.025-.36.062-.533.112-.175.045-.347.103-.513.173-.167.07-.328.152-.484.245-.157.09-.308.19-.452.3-.142.11-.278.23-.406.36-.128.127-.248.262-.358.406-.112.144-.212.294-.302.45-.09.158-.172.32-.242.486-.07.167-.13.34-.175.513-.05.175-.087.352-.112.532-.025.18-.037.36-.036.54v62.47c0 .18.014.36.04.54.023.18.06.357.11.53.044.176.103.348.173.514.07.17.15.33.243.486.09.157.192.308.302.452s.23.278.358.406c.128.13.264.25.407.36.143.11.295.21.45.3.157.09.32.172.486.242.168.07.34.128.515.175.175.05.352.09.53.114s.36.037.542.036h.033z" stroke="#000" stroke-miterlimit="22.926" stroke-width=".278" fill="#fff" transform="matrix(.8179 0 0 .81793 -491.128 -491.902)"/><path stroke-linejoin="bevel" d="M605.94 673.53h-.034c-.183 0-.367-.014-.548-.04-.183-.022-.364-.06-.54-.11-.18-.046-.353-.106-.523-.177-.17-.072-.334-.154-.492-.248-.16-.092-.313-.194-.458-.306-.146-.114-.284-.235-.414-.366-.13-.13-.25-.266-.364-.413s-.213-.297-.305-.457c-.092-.16-.175-.324-.246-.493-.07-.17-.13-.344-.178-.522-.05-.177-.088-.358-.113-.54-.027-.182-.04-.365-.038-.55V606.84c0-.184.014-.368.04-.55.024-.183.06-.363.11-.54.047-.178.106-.353.178-.523.07-.168.153-.333.248-.49.093-.16.194-.313.306-.46s.234-.283.365-.413c.13-.13.27-.253.414-.364.146-.113.3-.215.458-.306.16-.094.324-.175.493-.247.17-.07.345-.13.522-.178.177-.05.358-.09.54-.115.182-.027.365-.038.55-.036h62.47c.183 0 .367.012.548.036.183.025.363.063.54.113.18.045.352.104.522.176.17.07.334.154.493.248.16.09.313.193.458.306.146.11.285.234.413.364.133.13.254.267.366.413.112.147.214.3.307.46.092.158.175.322.246.492.07.17.13.342.176.52.052.177.09.36.115.54.026.182.04.366.037.55v62.47c0 .183-.013.366-.038.55-.026.18-.064.36-.114.538-.046.178-.105.352-.176.522-.07.17-.154.334-.247.493-.093.16-.195.312-.307.458-.112.146-.233.285-.365.414-.127.13-.266.254-.412.365-.145.11-.3.214-.458.305-.16.093-.324.175-.492.246-.17.073-.345.13-.523.18-.177.05-.357.088-.54.114-.18.025-.365.037-.55.036H605.94z" stroke="#000" stroke-miterlimit="22.926" stroke-width="2.445" fill="#fff" transform="matrix(.8179 0 0 .81793 -491.128 -491.902)"/><path d="M4.887 57.166H4.87c-.088 0-.177-.007-.265-.02-.09-.01-.176-.03-.263-.053-.086-.022-.17-.052-.253-.086-.084-.034-.163-.074-.24-.12-.077-.045-.15-.094-.223-.148-.07-.057-.138-.115-.2-.18-.063-.062-.123-.128-.177-.2-.054-.07-.104-.144-.148-.222-.045-.076-.085-.157-.12-.24-.035-.082-.063-.166-.086-.252-.025-.086-.043-.174-.055-.262-.012-.09-.018-.178-.017-.267V4.875c0-.09.007-.18.02-.266.01-.09.028-.177.053-.264.022-.086.05-.17.086-.253.034-.083.074-.162.12-.24.045-.076.094-.15.148-.222.054-.07.114-.136.177-.2.062-.062.13-.122.2-.176.072-.054.146-.104.224-.15.077-.043.157-.083.24-.118.08-.035.166-.063.252-.086.087-.025.174-.043.263-.055.088-.013.177-.02.266-.02h50.243c.09 0 .178.007.266.02.088.012.175.03.262.055.086.022.17.05.253.085.083.035.162.075.24.12.076.045.15.095.22.15.072.053.138.113.202.176.063.064.123.13.177.2.054.073.103.147.148.223.045.078.085.157.12.24.034.082.063.167.086.253.024.087.043.174.055.263.013.086.02.176.018.265v50.242c0 .09-.004.178-.017.267-.012.088-.03.176-.055.262-.022.086-.05.17-.086.254-.034.08-.074.162-.12.238-.045.078-.094.152-.148.223-.054.07-.114.138-.177.2-.064.065-.13.124-.2.18-.072.053-.146.102-.223.147-.077.045-.156.085-.24.12-.08.033-.166.063-.252.086-.087.024-.174.043-.263.055-.09.013-.178.018-.267.018H4.886z" fill-rule="evenodd" fill="#e72512"/><path d="M10.662 10.667v38.668h38.666V10.667H10.662z" fill="#fff"/><path d="M11.938 30.25v10.625H33V59.22h4.47V40.874h21.75V30.25H11.937z" fill-rule="evenodd" transform="matrix(.8179 0 0 .81793 .905 .906)" stroke-miterlimit="22.926" stroke-width=".278" stroke="#000"/></svg>
