<svg xmlns="http://www.w3.org/2000/svg" xmlns:xlink="http://www.w3.org/1999/xlink" width="60" height="60"><symbol id="a"><path d="M29.75 8.47c-.072.01-.15.04-.22.06-.068.02-.15.034-.218.064-.065.03-.126.055-.187.094-.05.03-.078.09-.125.124-.046.036-.114.053-.156.094-.005.005.004.026 0 .03L8.937 28.814v.03h-.03c-.05.053-.083.13-.126.188-.042.06-.09.125-.124.19-.035.062-.068.12-.094.186-.026.068-.046.148-.062.22-.017.07-.023.115-.03.186-.008.072-.004.147 0 .22 0 .07-.013.146 0 .218.01.07.04.15.06.22.022.068.034.12.064.186.028.067.056.158.094.22.03.05.09.077.124.124.036.046.053.083.094.125l.03.03 19.908 19.907.03.032c.053.05.1.082.157.125.06.04.124.09.19.124.06.036.12.068.186.093.068.026.148.047.22.063.07.016.115.024.186.03.073.01.147.003.22 0 .072 0 .146.012.218 0 .072-.01.15-.04.22-.06.068-.022.15-.034.218-.064.065-.03.126-.087.187-.125.05-.03.078-.057.125-.093.046-.035.114-.052.156-.093.005-.005-.004-.026 0-.032.005-.004.026.006.032 0l19.875-19.906.03-.03c.05-.053.083-.1.126-.157.042-.06.09-.125.124-.19.035-.062.068-.12.093-.186.027-.068.047-.148.063-.22.017-.07.024-.146.03-.218.01-.072.004-.116 0-.187 0-.074.012-.15 0-.22-.01-.072-.04-.15-.06-.22-.02-.068-.034-.15-.064-.218-.028-.066-.056-.126-.093-.187-.03-.05-.09-.08-.126-.125-.034-.046-.052-.114-.093-.156h-.032v-.032L31.189 8.938h-.032v-.03c-.052-.05-.13-.084-.187-.126-.06-.042-.124-.09-.19-.124-.062-.036-.12-.067-.186-.094-.068-.025-.148-.046-.22-.062-.07-.017-.115-.024-.186-.03-.073-.008-.147-.003-.22 0-.072 0-.146-.013-.218 0zm-4.344 8.155c.018-.005.012.003.032 0 .018-.003.043 0 .062 0h9.75c.016 0 .047-.002.063 0 .015.003.016-.004.03 0 .02.005.045.025.063.03.018.008.046-.01.063 0 .016.01.014.022.03.032.016.012.05.05.063.063.013.013.018.016.03.03.013.016.022.015.032.032.01.017.023.045.03.063.01.017-.004.044 0 .063.006.018.03.043.032.062.003.02 0 .012 0 .03 0 .02.002.045 0 .064 0 .02.005.043 0 .062-.004.02-.024.045-.03.063l-.032.06-4.875 8.407c-.007.014-.022.02-.03.032-.01.01.01.02 0 .03-.015.014-.05.02-.064.03-.014.014-.015.053-.03.064-.017.01-.046-.008-.064 0-.018.007-.044.026-.062.03-.02.007-.044-.002-.063 0-.02.004-.01.032-.03.032-.02 0-.044.002-.063 0-.02-.002-.044-.026-.063-.03-.018-.006-.043.006-.06 0-.02-.008-.016-.022-.032-.032-.018-.01-.047-.02-.063-.032-.016-.01-.018-.018-.03-.03-.016-.014-.05-.05-.064-.063-.01-.016-.02-.016-.03-.032l-4.875-8.407c-.008-.012.006-.047 0-.06-.006-.016-.027-.017-.03-.032-.007-.02.002-.043 0-.063-.005-.02 0-.043 0-.063-.002-.018-.003-.043 0-.062 0-.02-.005-.012 0-.03.004-.02-.008-.046 0-.064.006-.017.02-.045.03-.062.01-.017.02-.016.03-.032.013-.015.02-.048.032-.062.014-.014.048-.02.063-.03.016-.014.015-.023.03-.032l.064-.032c.017-.008.043-.025.062-.03zm-.156 9.75c.02-.003.044 0 .063 0h9.75c.017 0 .016-.002.032 0 .015.003.048-.004.062 0 .02.005.013.025.032.03.018.008.045.023.062.032.017.01.047.02.063.032.015.01.017.016.03.03.015.013.02.016.032.03.012.016.02.047.03.064.012.016.024.013.032.03.008.018.026.045.032.064.004.018-.005.043 0 .062v.125c-.003.02.004.044 0 .063-.005.018-.026.013-.032.03-.008.02.008.047 0 .063l-4.876 8.407c-.007.014-.022.02-.03.032-.01.01-.02.05-.032.06-.014.015-.017.02-.03.032-.016.013-.047.02-.064.032-.016.01-.014.023-.03.03-.02.008-.045-.004-.064 0-.018.007-.043.03-.062.032-.02.004-.043 0-.063 0-.018 0-.043.002-.062 0-.02-.002-.044.005-.063 0-.018-.005-.013-.024-.03-.03-.02-.007-.047-.022-.063-.032-.018-.01-.048-.02-.064-.032-.016-.01-.018-.018-.03-.03-.016-.014-.02-.017-.032-.032-.013-.015-.022-.046-.032-.063h-.03l-4.845-8.406c-.008-.012-.025-.015-.03-.03-.007-.015.003-.047 0-.063-.006-.018-.03-.042-.032-.062-.003-.02 0-.012 0-.03 0-.02-.002-.045 0-.064.003-.018-.004-.042 0-.06.005-.02.025-.046.03-.064.01-.017.023-.045.032-.062.01-.017.02-.016.032-.032.01-.015.016-.048.03-.062.013-.014.017-.02.03-.03.017-.014.047-.023.064-.032.016-.01.013-.024.03-.032.018-.008.045.006.064 0 .018-.005.042-.03.062-.03zm0 9.72c.02-.005.044 0 .063 0h9.75c.017 0 .016-.003.032 0 .015 0 .048-.005.062 0 .02.004.013.023.032.03.018.007.045.02.062.03.017.01.047.02.063.032.015.012.017.018.03.032.015.012.02.015.032.03.012.016.02.045.03.063.012.015.024.013.032.03.008.018.026.045.032.063.004.02-.005.044 0 .063v.124c-.003.02.004.012 0 .03-.005.02-.026.045-.032.063-.008.02.008.047 0 .063l-4.876 8.406c-.007.013-.022.02-.03.032-.01.012-.02.05-.032.062-.014.014-.017.02-.03.03-.016.014-.047.022-.064.032-.016.01-.014.024-.03.032-.02.008-.045-.006-.064 0-.018.005-.043.028-.062.03-.02.004-.043 0-.063 0-.018.002-.043.003-.062 0-.02-.002-.044.005-.063 0-.018-.004-.013-.024-.03-.03-.02-.007-.047-.022-.063-.032-.018-.008-.048-.02-.064-.03-.016-.012-.018-.02-.03-.032-.016-.014-.02-.017-.032-.03-.013-.016-.022-.047-.032-.064h-.03l-4.845-8.406c-.008-.013-.025-.017-.03-.03-.007-.016.003-.048 0-.064-.006-.018-.03-.043-.032-.062-.003-.02 0-.012 0-.032 0-.018-.002-.043 0-.062.003-.02-.004-.044 0-.063.005-.018.025-.044.03-.062l.032-.063c.01-.016.02-.015.032-.03.01-.016.016-.05.03-.063.013-.015.017-.02.03-.032.017-.013.047-.022.064-.032.016-.01.013-.023.03-.03.018-.008.045.005.064 0 .018-.007.042-.03.062-.032z"/></symbol><use xlink:href="#a"/></svg>
