<svg xmlns="http://www.w3.org/2000/svg" height="60" width="60"><path d="M4.897 57.173H4.88c-.088 0-.177-.007-.265-.02-.09-.01-.176-.03-.263-.053-.086-.022-.17-.05-.253-.085-.084-.035-.163-.075-.24-.12-.077-.045-.15-.095-.223-.15-.07-.054-.137-.113-.2-.177-.063-.062-.123-.13-.177-.2-.054-.07-.104-.145-.148-.222-.045-.077-.085-.157-.12-.24-.035-.082-.063-.167-.086-.252-.025-.087-.043-.174-.055-.263-.012-.087-.02-.176-.017-.265V4.883c0-.09.007-.18.02-.267.01-.088.028-.176.053-.262.022-.087.05-.17.085-.254.036-.082.076-.162.122-.238.044-.078.094-.152.148-.223.054-.072.114-.138.177-.202.063-.063.13-.122.2-.177.072-.053.146-.102.223-.147.077-.045.157-.085.24-.12.08-.034.166-.062.252-.086.087-.025.174-.043.263-.055.088-.013.177-.02.266-.018h50.243c.09 0 .178.007.266.018.088.012.175.03.262.055.086.023.17.05.253.086.083.034.162.074.24.12.076.045.15.094.22.148.073.056.14.115.202.178.064.064.123.13.177.2.055.072.104.146.148.224.046.076.086.156.12.238.034.083.063.168.086.254.024.086.044.174.056.262.013.088.02.177.018.267v50.242c0 .09-.006.178-.018.266-.012.09-.032.177-.056.264-.022.085-.05.17-.085.253-.034.082-.075.162-.12.24-.045.076-.094.15-.15.22-.053.072-.112.14-.176.2-.063.065-.13.125-.2.18-.07.053-.146.103-.222.147-.078.045-.157.085-.24.12-.082.034-.167.063-.253.086-.087.024-.174.043-.263.055-.09.013-.178.018-.267.018H4.897z" fill-rule="evenodd" fill="#e72512"/><path stroke-linejoin="bevel" d="M318.8 567.75h62.435c.18 0 .362-.014.54-.037.18-.025.358-.062.533-.112.175-.044.347-.103.513-.173s.33-.15.485-.243c.158-.09.31-.192.45-.302.145-.11.28-.23.41-.358.128-.128.248-.263.358-.407s.21-.293.3-.45c.092-.157.173-.32.242-.486.07-.166.13-.337.176-.512.05-.174.088-.353.114-.532.025-.178.037-.36.036-.54v-62.47c0-.18-.014-.36-.04-.54-.023-.18-.06-.356-.11-.53-.044-.176-.103-.347-.173-.515-.07-.165-.152-.328-.243-.483-.092-.157-.19-.307-.3-.45s-.23-.28-.36-.407c-.128-.13-.264-.25-.408-.36-.142-.11-.293-.21-.45-.3-.156-.092-.318-.173-.485-.243-.166-.07-.337-.13-.512-.175-.175-.05-.353-.087-.532-.112s-.36-.038-.54-.036h-62.47c-.18 0-.36.013-.54.037-.18.025-.358.062-.53.112-.177.045-.35.103-.515.173-.167.07-.328.152-.484.245-.157.09-.308.19-.45.3-.144.11-.28.23-.408.36-.13.127-.25.262-.36.406s-.21.294-.3.45c-.09.158-.172.32-.242.486-.07.167-.13.34-.175.513-.05.175-.087.352-.112.532-.025.18-.037.36-.036.54v62.47c0 .18.014.36.04.54.023.18.06.357.11.53.044.176.102.348.172.514.07.17.152.33.244.486.09.157.19.308.3.452s.23.278.36.406c.128.13.264.25.408.36.142.11.293.21.45.3.156.09.318.172.485.242.168.07.34.13.514.175.175.05.353.09.532.114.18.025.36.037.54.036h.033z" stroke="#231f20" stroke-miterlimit="22.926" stroke-width=".278" fill="none" transform="matrix(.8179 0 0 .81793 -256.27 -405.43)"/><path stroke-linejoin="bevel" d="M318.8 567.82h-.034c-.183 0-.367-.014-.548-.04-.183-.024-.364-.06-.54-.11-.18-.046-.353-.106-.523-.178-.17-.07-.334-.153-.492-.247-.16-.093-.313-.194-.458-.306-.146-.114-.284-.235-.414-.366-.13-.13-.25-.267-.364-.413s-.213-.3-.306-.458-.175-.323-.246-.492c-.07-.17-.13-.344-.178-.523-.05-.176-.088-.357-.113-.54-.027-.18-.04-.365-.038-.548v-62.47c0-.184.014-.368.04-.55.024-.183.06-.363.11-.54.047-.178.106-.353.178-.523.07-.17.153-.334.247-.49.093-.16.195-.314.306-.46.113-.146.234-.284.365-.414.13-.13.27-.252.414-.363.146-.113.3-.215.46-.307.157-.093.322-.176.49-.246.17-.07.346-.13.524-.18.176-.05.357-.087.54-.112.18-.027.365-.038.548-.036h62.47c.184 0 .368.012.55.036.182.025.362.063.54.113.178.045.352.104.522.176.17.07.333.154.492.248.16.09.313.193.458.306.146.11.283.234.413.364.133.13.254.267.366.413s.214.3.306.46c.093.158.175.322.247.492.07.17.13.342.176.52.05.177.09.36.115.54.026.182.04.366.037.55v62.47c0 .183-.013.366-.038.55-.026.18-.064.36-.114.538-.046.178-.105.352-.176.522-.07.17-.154.334-.247.493-.093.158-.194.312-.307.458-.112.146-.234.285-.365.414-.13.13-.266.254-.412.365-.145.11-.3.214-.458.305-.16.093-.324.175-.492.246-.17.072-.345.13-.523.18-.177.05-.357.088-.54.114-.18.025-.365.037-.55.036H318.8z" stroke="#000" stroke-miterlimit="22.926" stroke-width="2.445" fill="none" transform="matrix(.8179 0 0 .81793 -256.27 -405.43)"/><path d="M43.466 49.797l-32.79-32.79v32.79h32.79M49.314 43.95V11.157h-32.79l32.79 32.79" fill-rule="evenodd" fill="#fff"/><g><g fill-rule="evenodd"><path d="M14.39 35.7l.99 1.898c.29.03.584.05.878.067.29.016.584.013.875-.01.332-.03.662-.088.985-.172.326-.084.648-.186.963-.302.65-.232 1.287-.504 1.904-.815.617-.31 1.22-.646 1.81-1.006.5-.307 1.002-.612 1.506-.914.5-.3 1.02-.57 1.553-.806.475-.213.966-.387 1.47-.52.512-.134 1.033-.23 1.56-.284.61-.078 1.226-.09 1.837-.032.6.052 1.18.213 1.722.476.26.118.507.258.743.416.24.16 1.446 1.038 1.676 1.21 2.15-.773 4.752-1.474 7.048-2.42 1.29-.532 2.8-.817 3.765-1.824 1.85-1.93 2.55-5.727 3.183-7.366-4.762 1.44-6.532 1.916-9.38 2.78-.91.274-2.443-2.018-3.15-1.556-2.323 1.516-1.413 2.07-4.642 3.553-3.68 1.69-12.255 3.708-18.688 5.34"/><path d="M13.77 40.578c.352.127.707.245 1.065.355.354.108.716.186 1.083.236.38.045.764.054 1.146.027.386-.027.77-.077 1.15-.15.59-.106 1.17-.252 1.74-.437.566-.184 1.122-.4 1.664-.648.423-.188.84-.393 1.247-.616.407-.223.805-.463 1.192-.72.366-.246.73-.497 1.09-.75.36-.255.73-.49 1.11-.71.46-.267.944-.488 1.448-.658.513-.173 1.044-.29 1.582-.344.408-.056.822-.065 1.232-.027.396.035.783.147 1.137.33.26.132.5.296.714.488.222.197.432.403.633.62l.435.46.428.46c.374-.194.754-.377 1.137-.552.38-.174.775-.32 1.177-.437.32-.09.643-.155.972-.195.33-.038.66-.05.99-.03.314.013.626.052.934.117.307.063.61.15.906.254.393.14.78.298 1.16.472.38.175.764.338 1.153.49.457.18.927.32 1.407.42.483.103.974.163 1.468.177.54.028 1.084 0 1.618-.09.53-.086 1.046-.243 1.535-.465.17-.074.34-.154.505-.24.165-.088.328-.176.49-.268V36.15c-.263.166-.53.326-.8.48-.27.153-.55.29-.835.41-.385.158-.786.274-1.196.348-.41.074-.827.103-1.244.086-.4-.01-.796-.056-1.186-.142-.39-.085-.772-.2-1.145-.343-.398-.153-.79-.318-1.177-.495-.386-.177-.78-.338-1.18-.483-.376-.138-.764-.247-1.158-.327-.395-.08-.796-.128-1.2-.14-.415-.023-.833-.01-1.247.04-.412.05-.82.13-1.222.244-.257.07-.512.15-.763.24-.252.088-.502.18-.75.277l-.238-.242c-.078-.08-.158-.158-.24-.236-.197-.19-.406-.368-.625-.532-.218-.164-.45-.308-.692-.43-.505-.26-1.054-.423-1.62-.484-.576-.065-1.158-.06-1.733.018-.654.065-1.298.203-1.92.413-.615.206-1.204.477-1.76.81-.394.228-.777.473-1.15.736-.374.263-.75.52-1.132.774-.35.228-.706.443-1.07.644-.367.2-.74.386-1.12.556-.478.22-.968.414-1.47.578-.503.165-1.017.294-1.538.387-.293.056-.59.098-.887.12-.295.024-.59.02-.884-.013-.41-.047-.812-.14-1.2-.282-.394-.143-.783-.302-1.167-.475v1.888M31.66 22.115c0 .09-.01.182-.022.272-.014.09-.036.18-.065.264-.027.088-.06.172-.103.253-.04.08-.088.158-.143.23-.054.076-.112.145-.177.21-.064.064-.134.123-.208.177-.074.053-.15.1-.232.142-.08.042-.164.077-.252.104-.085.028-.174.05-.264.065-.09.015-.18.022-.272.02-.09.002-.18-.005-.272-.02-.09-.014-.178-.035-.265-.064-.086-.027-.17-.062-.25-.104-.08-.04-.16-.09-.232-.142-.075-.054-.144-.113-.21-.177-.063-.065-.122-.135-.175-.21-.054-.072-.103-.15-.143-.23-.042-.08-.077-.165-.104-.252-.028-.084-.05-.174-.064-.263-.014-.09-.02-.18-.02-.272 0-.09.007-.182.02-.272.015-.09.036-.18.065-.265.028-.086.063-.17.105-.25.04-.082.09-.16.143-.233.053-.074.112-.144.176-.208.065-.065.134-.123.21-.177.072-.053.15-.102.23-.143.082-.04.165-.076.25-.103.088-.03.177-.05.266-.065.09-.015.18-.022.272-.02.092-.002.182.005.272.02.09.014.18.034.264.064.088.027.17.062.252.103.08.04.158.09.232.143.074.053.144.112.208.177.065.065.123.134.177.208.055.074.102.15.143.232.042.08.076.164.103.25.03.087.05.176.065.266.014.09.02.18.02.272"/></g><path d="M27.308 23.8c2.77-.584 8.28 1.875 8.28 1.875l-.97 1.488-3.688-1.1-1.682 3.558-4.463 1.1s.245-4.336 1.38-6.075c.26-.397.68-.748 1.143-.846zM10.685 31.164l3.73-1.07.536 1.866-3.73 1.07z"/></g></svg>
