<svg xmlns="http://www.w3.org/2000/svg" xmlns:xlink="http://www.w3.org/1999/xlink" width="60" height="60"><symbol id="a"><path d="M39.36 34.2h.034c.184 0 .368-.014.55-.04.182-.023.362-.06.54-.11.177-.047.35-.106.52-.177.17-.07.335-.154.493-.248.16-.092.312-.194.458-.306.146-.113.283-.235.413-.365s.253-.267.365-.413c.112-.146.214-.3.305-.458.093-.158.175-.323.246-.492.07-.17.13-.344.178-.522.05-.177.09-.357.114-.54.026-.18.038-.365.037-.55v-.065c0-.184-.014-.367-.04-.55-.023-.182-.06-.362-.11-.54-.047-.177-.106-.35-.177-.52-.07-.17-.154-.334-.248-.493-.092-.16-.194-.312-.306-.458-.112-.146-.234-.283-.364-.413-.13-.13-.267-.25-.413-.363-.146-.112-.3-.214-.458-.306-.16-.092-.323-.174-.492-.245-.17-.07-.344-.13-.522-.178-.177-.05-.357-.09-.54-.114-.18-.026-.365-.038-.55-.037H20.62c-.185 0-.368.014-.55.04-.182.023-.363.06-.54.11-.178.047-.352.106-.52.177-.17.072-.335.154-.493.248-.16.093-.313.195-.46.307-.144.112-.282.234-.41.364-.132.13-.254.268-.366.414-.11.146-.213.3-.304.458-.094.16-.176.323-.247.493-.072.17-.13.344-.18.52-.05.178-.087.36-.113.54-.026.183-.038.366-.037.55v.066c0 .185.014.37.04.55.024.183.06.363.11.54.047.178.106.352.178.522.07.17.154.334.248.492.09.16.193.312.305.458.113.146.235.283.366.413.13.13.267.253.412.365.146.112.3.214.46.305.157.093.322.175.49.246.17.072.345.132.522.18.178.05.358.088.54.113.182.026.365.038.55.037h18.74z"/></symbol><use xlink:href="#a"/></svg>
