<svg xmlns="http://www.w3.org/2000/svg" height="60" width="60"><path stroke-linejoin="bevel" d="M4.478 59H4.45c-.15 0-.3-.01-.45-.032-.148-.02-.295-.05-.44-.092-.146-.037-.29-.086-.427-.144-.14-.058-.273-.126-.402-.203-.13-.075-.255-.16-.375-.25-.12-.092-.232-.193-.337-.3-.108-.105-.208-.218-.3-.337-.09-.12-.174-.244-.25-.375-.076-.13-.143-.264-.2-.403-.06-.14-.108-.28-.147-.427-.04-.145-.07-.292-.092-.442-.02-.148-.03-.298-.03-.45V4.454c0-.15.012-.3.03-.45.022-.15.052-.296.093-.44.04-.146.087-.29.146-.43.058-.137.125-.27.202-.4.076-.13.16-.257.25-.375.093-.12.192-.232.3-.34.105-.105.217-.206.337-.297.12-.09.245-.175.376-.25.13-.075.265-.142.403-.2.14-.06.28-.107.426-.147.145-.04.292-.072.44-.093.15-.02.3-.03.45-.03h51.095c.15 0 .3.01.45.032.148.02.295.05.44.09.146.04.29.088.428.146.138.058.274.126.402.203.13.075.256.16.376.25.12.092.233.193.338.3.108.106.207.218.3.338.09.118.174.244.25.374.076.13.143.264.2.403.06.14.108.282.147.427.04.145.07.292.093.442.02.148.03.3.03.45v51.093c-.002.15-.012.3-.032.45-.02.15-.05.296-.09.44-.04.147-.087.29-.147.428-.06.14-.126.273-.203.403-.075.13-.16.256-.25.375-.092.12-.19.232-.3.338-.104.107-.217.208-.336.3-.12.09-.244.175-.375.25-.13.075-.264.143-.403.2-.138.06-.28.107-.426.146-.146.04-.293.073-.442.093-.15.02-.3.03-.45.03H4.48z" stroke-miterlimit="22.926" stroke-width="2.00006275" stroke="#000" fill="#fff"/><path d="M3.168 3.454v53.09h53.65V3.454H3.168z" fill="#039"/><path d="M24.784 48.927c1.117-13.843 3.724-27.934 7.82-42.274 7.605 8.528 12.26 18.382 14.9 29.145-7.11 7.386-14.617 12.2-22.72 13.13M20.037 51.16l9.79.088.452-1.204c-3.85-.9-7.457-.993-10.71.093l.467 1.024" fill-rule="evenodd" fill="#fff"/><path d="M24.784 48.927c.032-.396.946-5.024-.176-6.38-1.122-1.356-2.388-2.718-4.376-4.645l-.067-3.227c-.013-.672-.515-1.228-.56-1.806 1.91.067 3.797-.098 5.673-.37l.228-.605-7.442-.904-1.754.207c-1.44 1.787.448 3.65.85 5.35l.068 2.138c.066 2.043 2.927 3.973 5.11 4.755.308 2.05.866 4.035 1.822 5.914l.624-.427" fill-rule="evenodd" fill="#fff"/><path d="M16.558 26.93c.91.06 1.52.876 1.65 2.003.13 1.128-.3 2.302-1.317 2.09s-1.682-1.04-1.84-2.064c-.16-1.027.598-2.09 1.508-2.03" fill-rule="evenodd" fill="#fff"/><path d="M28.524 30.508l-3.017 1.386-.228.604s1.33 2.263 1.423 2.272" stroke="#fff" stroke-miterlimit="22.926" stroke-width="1.05476455" fill="none"/></svg>
