<svg xmlns="http://www.w3.org/2000/svg" height="60" width="60"><path d="M4.897 57.173H4.88c-.088 0-.177-.007-.265-.02-.09-.01-.176-.03-.263-.053-.086-.022-.17-.05-.253-.085-.084-.035-.163-.075-.24-.12-.077-.045-.15-.095-.223-.15-.07-.054-.137-.113-.2-.177-.063-.062-.123-.13-.177-.2-.054-.07-.104-.145-.148-.222-.045-.077-.085-.157-.12-.24-.035-.082-.063-.167-.086-.252-.025-.087-.043-.174-.055-.263-.012-.087-.02-.176-.017-.265V4.883c0-.09.007-.18.02-.267.01-.088.028-.176.053-.262.022-.087.05-.17.085-.254.036-.082.076-.162.122-.238.044-.078.094-.152.148-.223.054-.072.114-.138.177-.202.063-.063.13-.122.2-.177.072-.053.146-.102.223-.147.077-.045.157-.085.24-.12.08-.034.166-.062.252-.086.087-.025.174-.043.263-.055.088-.013.177-.02.266-.018h50.243c.09 0 .178.007.266.018.088.012.175.03.262.055.086.023.17.05.253.086.083.034.162.074.24.12.076.045.15.094.22.148.073.056.14.115.202.178.064.064.123.13.177.2.055.072.104.146.148.224.046.076.086.156.12.238.034.083.063.168.086.254.024.086.044.174.056.262.013.088.02.177.018.267v50.242c0 .09-.006.178-.018.266-.012.09-.032.177-.056.264-.022.085-.05.17-.085.253-.034.082-.075.162-.12.24-.045.076-.094.15-.15.22-.053.072-.112.14-.176.2-.063.065-.13.125-.2.18-.07.053-.146.103-.222.147-.078.045-.157.085-.24.12-.082.034-.167.063-.253.086-.087.024-.174.043-.263.055-.09.013-.178.018-.267.018H4.897z" fill-rule="evenodd" fill="#e72512"/><path stroke-linejoin="bevel" d="M318.8 567.75h62.435c.18 0 .362-.014.54-.037.18-.025.358-.062.533-.112.175-.044.347-.103.513-.173s.33-.15.485-.243c.158-.09.31-.192.45-.302.145-.11.28-.23.41-.358.128-.128.248-.263.358-.407s.21-.293.3-.45c.092-.157.173-.32.242-.486.07-.166.13-.337.176-.512.05-.174.088-.353.114-.532.025-.178.037-.36.036-.54v-62.47c0-.18-.014-.36-.04-.54-.023-.18-.06-.356-.11-.53-.044-.176-.103-.347-.173-.515-.07-.165-.152-.328-.243-.483-.092-.157-.19-.307-.3-.45s-.23-.28-.36-.407c-.128-.13-.264-.25-.408-.36-.142-.11-.293-.21-.45-.3-.156-.092-.318-.173-.485-.243-.166-.07-.337-.13-.512-.175-.175-.05-.353-.087-.532-.112s-.36-.038-.54-.036h-62.47c-.18 0-.36.013-.54.037-.18.025-.358.062-.53.112-.177.045-.35.103-.515.173-.167.07-.328.152-.484.245-.157.09-.308.19-.45.3-.144.11-.28.23-.408.36-.13.127-.25.262-.36.406s-.21.294-.3.45c-.09.158-.172.32-.242.486-.07.167-.13.34-.175.513-.05.175-.087.352-.112.532-.025.18-.037.36-.036.54v62.47c0 .18.014.36.04.54.023.18.06.357.11.53.044.176.102.348.172.514.07.17.152.33.244.486.09.157.19.308.3.452s.23.278.36.406c.128.13.264.25.408.36.142.11.293.21.45.3.156.09.318.172.485.242.168.07.34.13.514.175.175.05.353.09.532.114.18.025.36.037.54.036h.033z" stroke="#231f20" stroke-miterlimit="22.926" stroke-width=".278" fill="none" transform="matrix(.8179 0 0 .81793 -256.27 -405.43)"/><path stroke-linejoin="bevel" d="M318.8 567.82h-.034c-.183 0-.367-.014-.548-.04-.183-.024-.364-.06-.54-.11-.18-.046-.353-.106-.523-.178-.17-.07-.334-.153-.492-.247-.16-.093-.313-.194-.458-.306-.146-.114-.284-.235-.414-.366-.13-.13-.25-.267-.364-.413s-.213-.3-.306-.458-.175-.323-.246-.492c-.07-.17-.13-.344-.178-.523-.05-.176-.088-.357-.113-.54-.027-.18-.04-.365-.038-.548v-62.47c0-.184.014-.368.04-.55.024-.183.06-.363.11-.54.047-.178.106-.353.178-.523.07-.17.153-.334.247-.49.093-.16.195-.314.306-.46.113-.146.234-.284.365-.414.13-.13.27-.252.414-.363.146-.113.3-.215.46-.307.157-.093.322-.176.49-.246.17-.07.346-.13.524-.18.176-.05.357-.087.54-.112.18-.027.365-.038.548-.036h62.47c.184 0 .368.012.55.036.182.025.362.063.54.113.178.045.352.104.522.176.17.07.333.154.492.248.16.09.313.193.458.306.146.11.283.234.413.364.133.13.254.267.366.413s.214.3.306.46c.093.158.175.322.247.492.07.17.13.342.176.52.05.177.09.36.115.54.026.182.04.366.037.55v62.47c0 .183-.013.366-.038.55-.026.18-.064.36-.114.538-.046.178-.105.352-.176.522-.07.17-.154.334-.247.493-.093.158-.194.312-.307.458-.112.146-.234.285-.365.414-.13.13-.266.254-.412.365-.145.11-.3.214-.458.305-.16.093-.324.175-.492.246-.17.072-.345.13-.523.18-.177.05-.357.088-.54.114-.18.025-.365.037-.55.036H318.8z" stroke="#000" stroke-miterlimit="22.926" stroke-width="2.445" fill="none" transform="matrix(.8179 0 0 .81793 -256.27 -405.43)"/><path d="M43.466 49.797l-32.79-32.79v32.79h32.79M49.314 43.95V11.157h-32.79l32.79 32.79" fill-rule="evenodd" fill="#fff"/></svg>
