<svg xmlns="http://www.w3.org/2000/svg" xmlns:xlink="http://www.w3.org/1999/xlink" width="60" height="60"><symbol id="a"><path d="M8.938 11.793l-.032.032L29.97 48.23l21.093-36.436H8.937zM24 16.92c.02-.007.04.002.063-.002.022-.003.04 0 .062 0h11.53c.02.003.045-.004.064 0 .02.006.04.024.06.032.023.007.044-.01.064 0 .02.01.044.02.062.03.02.013.045.05.063.064.015.013.016.015.03.03.014.016.02.046.03.063.014.017.023.013.032.032.01.017.026.042.032.06.006.02.027.044.03.064.004.02 0 .043 0 .062.002.02.003.042 0 .063 0 .018-.025.042-.03.06-.006.02.008.014 0 .032-.008.02-.02.045-.032.063l-5.75 8.687v.032c-.01.013-.02.017-.03.03l-.032.032c-.015.015-.045.02-.063.03-.017.014-.01.022-.03.033-.02.01-.043.022-.063.03-.02.008-.04.026-.063.03-.02.007-.07-.002-.093 0-.022.005-.04.03-.062.032-.023 0-.04-.03-.063-.03-.023-.003-.04.003-.062 0-.023-.006-.04.006-.063 0-.02-.007-.043-.023-.062-.032l-.063-.03c-.018-.013-.046-.018-.062-.033-.016-.013-.018-.047-.03-.062-.017-.016-.02-.014-.032-.03l-.032-.033-5.718-8.687c-.01-.015-.025-.016-.032-.03-.007-.016-.026-.048-.03-.064-.007-.017.003-.04 0-.06-.004-.02 0-.013 0-.033 0-.02-.003-.043 0-.062 0-.02-.006-.043 0-.063.004-.02.022-.043.03-.062.008-.02.02-.045.032-.063.01-.017.017-.015.03-.03.014-.017.017-.05.032-.063.015-.015.045-.02.063-.032.017-.012.042-.02.062-.03.018-.012.042-.024.063-.032.02-.008.04-.025.062-.03zm.063 11.03c.022-.003.04 0 .062 0h11.5c.018 0 .014-.002.03 0 .02.002.045.027.064.03.02.006.04-.007.06 0 .023.008.044.023.064.032.02.01.044.02.062.032.02.012.045.016.063.03.015.014.016.048.03.063.014.016.02.014.03.032.014.015.023.043.032.06.01.02.026.044.032.064.006.02.027.01.03.03.004.02 0 .044 0 .063.002.02.003.042 0 .063 0 .02-.025.043-.03.062-.006.02.008.044 0 .063-.008.018-.02.045-.032.062l-5.75 8.688c-.01.013-.02.018-.03.03-.012.013-.02.052-.032.064-.015.014-.045.017-.063.03-.017.012-.01.02-.03.03-.02.01-.043.024-.063.032-.02.008-.04-.005-.063 0-.02.006-.07.028-.093.032-.022.004-.04 0-.062 0-.023 0-.04.002-.063 0s-.04.004-.062 0c-.023-.006-.04-.025-.063-.032-.02-.006-.043-.022-.062-.03-.02-.01-.044-.02-.063-.032-.018-.012-.046-.017-.062-.032-.016-.013-.018-.015-.03-.03-.017-.016-.02-.046-.032-.063h-.032l-5.718-8.688c-.01-.014-.025-.047-.032-.062-.007-.015-.026-.015-.03-.03-.007-.02.003-.044 0-.064-.004-.018 0-.042 0-.06 0-.02-.003-.045 0-.064 0-.02-.006-.043 0-.063.004-.02.022-.043.03-.062.008-.017.02-.013.032-.03.01-.018.017-.046.03-.063.014-.016.017-.017.032-.03.015-.015.045-.05.063-.063.017-.013.042-.022.062-.032.018-.01.042-.023.063-.03.02-.01.04.005.062 0 .02-.006.04-.03.063-.032z"/></symbol><use xlink:href="#a"/></svg>
