<svg xmlns="http://www.w3.org/2000/svg" height="60" width="60"><path stroke-linejoin="bevel" d="M4.484 58.944H55.55c.15 0 .297-.01.443-.03.147-.02.292-.05.435-.092.143-.037.284-.085.42-.142s.27-.124.396-.2c.13-.073.252-.155.37-.246.117-.09.228-.188.332-.293.105-.103.203-.215.293-.33.09-.12.17-.243.245-.37.076-.128.142-.26.198-.397.058-.137.106-.277.144-.42.04-.143.07-.288.092-.435.02-.147.03-.294.028-.442V4.452c0-.148-.01-.296-.03-.442-.02-.147-.05-.293-.09-.435-.038-.143-.085-.283-.143-.42-.057-.136-.124-.27-.2-.396-.074-.13-.156-.253-.246-.37-.09-.117-.19-.23-.294-.332-.105-.107-.215-.205-.333-.295s-.24-.172-.37-.245c-.126-.075-.26-.14-.395-.2-.137-.056-.277-.104-.42-.142-.143-.04-.288-.072-.435-.092-.146-.02-.294-.03-.442-.03H4.458c-.148 0-.295.012-.443.03-.146.02-.29.05-.434.092-.143.037-.284.084-.42.14-.136.06-.27.126-.397.202-.128.073-.252.155-.368.245-.118.09-.228.188-.333.295-.105.103-.203.215-.293.33-.092.12-.174.243-.248.37-.075.13-.14.26-.198.398-.057.136-.105.276-.144.42-.04.142-.07.288-.092.434-.02.146-.03.295-.028.442V55.546c0 .147.01.295.03.442.02.146.05.29.09.435.037.143.085.283.143.42.057.136.123.268.2.396.073.127.156.25.246.368.09.117.187.23.292.333.105.105.215.203.333.295.116.09.24.17.368.245.128.075.26.14.397.2s.277.104.42.142c.143.04.288.07.435.092.147.02.294.03.442.03h.028z" stroke="#231f20" stroke-miterlimit="22.926" stroke-width=".22752632" fill="none"/><path stroke-linejoin="bevel" d="M4.484 59h-.028c-.15 0-.3-.01-.45-.03-.148-.02-.295-.052-.44-.092-.146-.038-.29-.087-.427-.145-.14-.058-.274-.126-.403-.203-.13-.074-.257-.158-.376-.25-.12-.09-.23-.19-.336-.298-.108-.106-.208-.22-.3-.337-.09-.12-.175-.245-.25-.376-.076-.13-.143-.265-.2-.404-.06-.138-.108-.28-.147-.427-.04-.146-.072-.293-.093-.443-.02-.148-.03-.298-.03-.45V4.455c0-.15.012-.3.03-.45.022-.15.052-.296.093-.44.038-.147.086-.29.145-.43.058-.137.126-.27.202-.4.076-.13.16-.257.25-.375.093-.12.192-.234.3-.34.105-.106.218-.207.337-.298.12-.092.246-.176.377-.25.13-.076.263-.144.402-.202.138-.058.28-.106.425-.145.146-.042.293-.073.442-.094.15-.02.3-.03.45-.03H55.55c.152.002.302.012.45.033.15.02.298.05.442.092.146.037.29.086.428.144.14.057.273.125.402.202.13.074.255.158.375.25.12.09.232.192.338.298.107.106.206.22.3.34.09.117.173.243.248.373.077.13.144.264.202.403.058.14.107.28.146.427.042.145.074.292.094.442.022.148.03.298.03.45v51.093c0 .15-.012.3-.032.45-.02.15-.05.296-.09.44-.04.147-.087.29-.146.428-.06.14-.126.273-.203.403-.075.13-.157.255-.25.375-.092.118-.19.23-.298.337-.106.107-.218.207-.338.3-.12.09-.244.174-.375.248-.13.076-.264.144-.403.202-.14.058-.283.106-.428.146-.144.04-.293.072-.44.093-.15.022-.3.032-.45.03H4.483z" stroke="#000" stroke-miterlimit="22.926" stroke-width="2.0002673599999996" fill="#fff"/><path d="M4.484 56.513h-.008c-.043 0-.086-.003-.128-.01-.043-.004-.085-.013-.127-.026-.04-.01-.08-.023-.12-.04-.04-.017-.078-.036-.115-.06-.038-.02-.074-.044-.108-.07-.033-.026-.066-.055-.096-.085-.03-.03-.058-.063-.085-.097-.025-.033-.05-.07-.07-.107-.023-.037-.04-.076-.06-.115-.015-.04-.03-.08-.04-.122-.012-.04-.02-.082-.026-.125-.007-.042-.01-.085-.01-.128V4.472c0-.043.003-.086.01-.13.004-.042.013-.084.025-.125.01-.042.024-.083.04-.123.018-.04.037-.078.06-.114.02-.037.045-.073.07-.108.027-.034.055-.065.086-.096.03-.03.064-.06.097-.085.034-.026.07-.05.108-.07.037-.022.075-.04.114-.06.04-.015.08-.03.12-.04.043-.012.085-.02.128-.026.042-.007.085-.01.128-.01H55.53c.044 0 .087.004.13.01.043.005.085.014.126.026.042.01.083.025.123.04.037.017.076.037.113.06.037.02.073.044.108.07.034.027.066.055.097.086.03.03.06.062.085.096.026.035.05.07.07.108.023.036.042.075.06.115.016.04.03.08.04.122.013.04.02.083.027.126.005.043.008.086.008.13v51.054c0 .043-.003.086-.01.128-.005.043-.013.085-.026.126-.01.043-.024.083-.04.123-.017.04-.036.078-.06.115-.02.038-.044.074-.07.107-.026.034-.055.067-.085.097-.03.03-.063.06-.096.085-.034.026-.07.05-.107.07-.037.024-.076.042-.116.06-.038.016-.08.03-.12.04-.042.013-.084.022-.127.027-.043.006-.086.01-.13.01H4.485" fill-rule="evenodd" fill="#003499"/><g><g fill="#fff" fill-rule="evenodd"><path d="M11.91 35.952l1.118 2.15c.332.033.664.058.998.076.33.018.66.015.99-.01.378-.035.752-.1 1.118-.196.37-.095.734-.21 1.092-.342.737-.264 1.457-.572 2.157-.925.7-.352 1.383-.732 2.05-1.14.57-.347 1.138-.693 1.71-1.036.566-.342 1.155-.647 1.76-.914.538-.242 1.095-.44 1.666-.588.58-.153 1.17-.26 1.768-.323.69-.09 1.39-.102 2.083-.037.68.06 1.34.242 1.952.54.294.134.575.292.843.47.272.184 1.64 1.178 1.9 1.374 2.436-.877 5.386-1.672 7.99-2.745 1.46-.603 3.174-.925 4.267-2.067 2.098-2.19 2.892-6.493 3.61-8.35-5.4 1.633-7.406 2.17-10.635 3.15-1.032.312-2.77-2.287-3.572-1.764-2.633 1.72-1.6 2.347-5.262 4.028-4.172 1.916-13.893 4.204-21.186 6.056"/><path d="M11.204 41.48c.4.145.803.28 1.208.403.4.123.812.212 1.228.268.432.053.866.063 1.3.032.437-.03.873-.086 1.304-.17.667-.12 1.325-.285 1.97-.495.643-.208 1.273-.453 1.887-.734.482-.213.955-.446 1.416-.698.46-.253.913-.526 1.35-.818.416-.278.828-.562 1.236-.85.407-.288.827-.556 1.26-.803.52-.303 1.07-.554 1.64-.747.582-.197 1.184-.327 1.794-.39.462-.063.932-.073 1.397-.03.45.04.89.166 1.29.374.293.15.565.336.81.554.25.223.488.457.715.702.166.173.33.348.494.522l.485.52c.424-.218.854-.426 1.29-.624.43-.197.878-.363 1.333-.496.362-.102.73-.175 1.102-.22.373-.045.747-.057 1.122-.037.357.017.71.06 1.06.135.348.072.69.168 1.027.288.446.158.885.336 1.316.534.43.198.866.383 1.307.555.517.203 1.05.362 1.594.477.55.115 1.106.183 1.665.2.613.032 1.23 0 1.834-.102.6-.098 1.186-.275 1.74-.528.195-.083.386-.174.573-.272.186-.1.37-.2.556-.303v-2.263c-.3.187-.602.368-.908.543-.306.174-.623.33-.947.466-.435.18-.89.31-1.355.395-.465.084-.937.117-1.41.097-.452-.01-.903-.064-1.345-.16-.44-.097-.875-.228-1.297-.39-.452-.172-.896-.36-1.335-.56-.438-.2-.884-.383-1.337-.547-.426-.157-.866-.28-1.312-.37-.448-.092-.903-.146-1.36-.16-.47-.026-.945-.01-1.414.046-.468.056-.932.148-1.386.278-.29.08-.58.17-.865.27-.286.102-.57.207-.852.316-.088-.092-.177-.182-.267-.273-.09-.09-.18-.18-.272-.267-.223-.215-.46-.417-.708-.602-.246-.185-.51-.348-.784-.487-.573-.293-1.196-.48-1.836-.55-.654-.072-1.313-.065-1.966.022-.74.074-1.47.23-2.177.468-.697.234-1.365.54-1.996.918-.446.26-.88.538-1.304.836-.423.297-.85.59-1.283.876-.395.258-.8.503-1.214.73-.414.226-.837.438-1.267.63-.543.25-1.1.47-1.667.656-.57.187-1.154.333-1.745.438-.332.065-.67.112-1.006.138-.336.026-.67.022-1.003-.015-.465-.054-.92-.16-1.36-.32-.447-.163-.888-.343-1.323-.54v2.14M31.484 20.55c0 .104-.008.206-.023.308-.015.103-.04.203-.072.3-.03.1-.07.193-.117.285-.046.092-.1.18-.16.263-.062.084-.13.163-.202.236-.073.073-.152.14-.236.2-.083.06-.17.115-.262.162-.093.048-.187.087-.286.117-.097.034-.198.06-.3.076-.102.016-.204.023-.308.022-.103 0-.206-.006-.308-.022-.1-.017-.203-.042-.3-.075-.1-.03-.193-.068-.285-.116-.092-.047-.18-.1-.263-.162-.084-.06-.163-.127-.236-.2-.073-.073-.14-.153-.2-.236-.06-.084-.116-.17-.162-.263-.048-.092-.087-.186-.117-.285-.034-.097-.058-.198-.075-.3-.015-.102-.023-.205-.022-.308 0-.104.007-.206.022-.308.017-.103.04-.203.075-.3.03-.1.07-.194.117-.286.046-.09.1-.178.162-.262.06-.084.127-.163.2-.236.073-.073.152-.14.236-.2.084-.06.17-.116.263-.162.092-.048.186-.087.284-.117.098-.035.2-.06.3-.076.103-.016.206-.023.31-.022.103 0 .205.007.308.022.1.017.202.04.3.075.098.03.192.068.285.116.09.046.18.1.262.162.084.06.163.127.236.2.073.073.14.152.2.236.062.083.116.17.163.262.048.093.087.187.118.285.032.1.057.2.073.302.017.1.024.204.024.308"/></g><path d="M26.552 22.46c3.14-.66 9.387 2.126 9.387 2.126l-1.1 1.687-4.18-1.247-1.908 4.033-5.06 1.246s.278-4.916 1.565-6.888c.294-.45.77-.848 1.295-.96zM7.707 30.81l4.23-1.214.606 2.115-4.23 1.213z" fill="#fff"/></g></svg>
