<svg xmlns="http://www.w3.org/2000/svg" xmlns:xlink="http://www.w3.org/1999/xlink" width="60" height="60"><symbol id="a"><path d="M49.81 24.935l-1.802-10.227-2.47 2.297c-1.233-1.376-2.637-2.543-4.32-3.607-2.848-1.797-5.964-2.813-9.098-3.106L31.8 7.3h-3.294l-.33 2.992c-5.073.49-9.91 2.85-13.46 6.816l-2.743-2.402L10.5 25.074l7.204-5.342-1.835-1.607c3.128-2.71 7.462-4.52 12.32-4.908l.65 27.412h-6.877v2.075l6.862-.076v1.725c-2.122.47-3.698 2.196-3.698 4.258 0 2.425 2.173 4.387 4.855 4.387 2.678 0 4.853-1.962 4.853-4.387 0-2.015-1.505-3.716-3.554-4.232v-1.696l7.065.024v-2.076H31.47l.663-27.412c4.823.387 9.124 2.184 12.244 4.87l-1.773 1.645 7.205 5.2zM32.3 48.613c0 1.153-1.035 2.09-2.31 2.09-1.276 0-2.31-.937-2.31-2.09 0-1.154 1.034-2.09 2.31-2.09 1.275 0 2.31.936 2.31 2.09z"/></symbol><use xlink:href="#a"/></svg>
