<svg xmlns="http://www.w3.org/2000/svg" height="60" width="60"><path stroke-linejoin="bevel" d="M4.48 58.94h51.08c.15 0 .296-.01.443-.03.147-.02.292-.05.435-.09.143-.038.284-.085.42-.143.136-.058.27-.124.396-.2.13-.074.252-.155.37-.246s.228-.188.332-.292c.106-.105.204-.216.294-.333.09-.117.172-.24.246-.37.075-.127.142-.26.198-.396.057-.137.105-.278.144-.42.04-.144.07-.29.09-.436.022-.146.032-.294.03-.442V4.435c0-.147-.01-.296-.03-.442-.02-.147-.05-.293-.09-.435-.038-.143-.085-.283-.142-.42-.057-.137-.125-.27-.2-.397-.074-.126-.156-.25-.246-.368-.09-.117-.188-.228-.294-.332-.104-.106-.215-.204-.332-.294s-.24-.172-.37-.246c-.127-.075-.26-.14-.397-.198-.136-.058-.276-.106-.42-.144-.142-.04-.287-.07-.434-.092-.147-.02-.294-.03-.442-.03H4.455c-.148.002-.296.012-.443.03-.145.022-.29.052-.434.092-.143.037-.283.084-.42.142-.136.058-.268.125-.396.2-.128.074-.252.156-.37.246-.116.09-.227.188-.33.294-.107.104-.205.215-.296.332-.09.118-.172.24-.246.37-.074.127-.14.26-.198.397-.057.135-.105.276-.143.418-.04.143-.072.29-.092.435s-.03.295-.03.442v51.107c0 .148.01.296.032.442.02.147.05.292.09.435.037.142.085.283.142.42.056.136.123.268.198.396.074.128.156.252.247.37.09.116.188.227.294.332.102.105.214.203.33.293.118.092.242.173.37.247.128.075.26.14.397.2.136.056.277.104.42.142.143.04.288.07.435.09.147.02.294.032.442.03h.027z" stroke="#231f20" stroke-miterlimit="22.926" stroke-width=".22758192000000002" fill="none"/><path stroke-linejoin="bevel" d="M4.48 58.998h-.026c-.15 0-.3-.01-.45-.032-.15-.02-.296-.05-.442-.09-.145-.04-.287-.087-.426-.146-.14-.06-.273-.126-.403-.203-.13-.075-.256-.158-.375-.25-.12-.092-.232-.192-.338-.298-.107-.108-.207-.22-.298-.34-.093-.12-.176-.244-.25-.375-.077-.13-.144-.264-.203-.403-.058-.138-.107-.28-.146-.426-.04-.146-.073-.293-.093-.442-.02-.15-.03-.3-.03-.45V4.437c0-.15.01-.3.032-.45.02-.148.05-.296.092-.44.038-.146.086-.29.144-.43.06-.137.126-.27.204-.4.075-.13.157-.257.25-.376.09-.118.19-.23.298-.337.106-.107.218-.207.338-.298.12-.092.245-.176.375-.25.13-.077.265-.144.403-.202.14-.06.28-.107.426-.146.146-.042.293-.072.443-.094.15-.02.298-.03.45-.03H55.56c.152 0 .302.012.45.032.15.02.298.05.442.092.147.037.29.086.428.145.14.058.273.125.402.202.13.075.256.16.376.25.118.092.232.192.337.3.108.105.207.218.3.337.09.12.174.246.25.376.076.13.143.264.2.403.06.138.108.28.147.426.04.145.072.293.093.442.02.148.03.3.03.45v51.106c0 .15-.012.3-.03.45-.022.15-.052.296-.093.442-.038.145-.086.288-.146.426-.058.14-.125.274-.202.403-.075.13-.16.256-.25.376-.092.12-.19.232-.3.34-.104.105-.218.205-.336.298-.12.09-.245.175-.376.25-.13.075-.264.142-.403.2-.14.06-.283.107-.428.147-.145.04-.293.072-.442.093-.148.02-.298.03-.45.03H4.483z" stroke="#000" stroke-miterlimit="22.926" stroke-width=".22758192000000002" fill="none"/><path d="M4.89 57.164H55.13c.09 0 .177-.007.266-.02.088-.01.176-.03.26-.053.088-.022.173-.05.255-.085.084-.035.163-.074.24-.12.077-.045.152-.094.222-.15.072-.053.138-.112.202-.176.063-.063.12-.13.177-.2.055-.073.104-.147.15-.224.044-.077.084-.157.12-.24.033-.082.062-.166.085-.253.024-.086.042-.173.055-.262.013-.087.02-.176.018-.265V4.86c0-.09-.006-.178-.018-.266-.013-.09-.03-.176-.055-.262-.022-.087-.05-.17-.085-.254-.035-.082-.076-.162-.12-.238-.045-.078-.095-.152-.15-.223-.055-.07-.113-.138-.176-.2-.064-.064-.13-.124-.202-.178-.07-.056-.144-.105-.222-.15-.077-.045-.156-.085-.24-.12-.08-.033-.166-.062-.252-.086-.086-.024-.174-.042-.262-.055-.09-.013-.178-.02-.267-.02H4.873c-.09.002-.178.008-.267.02-.088.012-.176.03-.26.054-.088.023-.173.052-.255.086-.083.034-.162.076-.24.12-.077.045-.15.094-.222.15-.07.054-.138.113-.2.176-.064.063-.123.13-.178.2-.054.072-.103.145-.148.224-.045.076-.085.156-.12.238-.034.083-.063.167-.086.254-.024.086-.043.173-.055.262-.013.088-.018.178-.018.267V55.115c0 .09.007.178.02.267.01.09.03.177.053.263.022.086.05.17.086.253.034.083.074.162.12.24.045.076.094.15.148.222.055.07.114.138.178.2.062.064.13.124.2.178.07.054.145.104.222.148.078.045.157.085.24.12.083.034.167.063.254.086.085.024.173.044.26.056.09.013.18.018.268.018h.016z" fill-rule="evenodd" fill="#e72512"/><path d="M44.17 48.61L11.353 15.793V48.61H44.17M48.23 42.748V9.932H15.414L48.23 42.748" fill-rule="evenodd" fill="#fff"/><g><path stroke-linejoin="bevel" d="M318.82 567.73h62.395c.182 0 .362-.014.54-.037.18-.025.358-.062.532-.112.175-.044.347-.103.513-.173s.33-.15.484-.243c.158-.09.308-.19.45-.302.145-.11.28-.23.408-.357.128-.128.248-.264.358-.406.11-.145.21-.296.3-.453.093-.156.174-.318.243-.485.07-.166.13-.337.175-.512.05-.175.087-.352.112-.53.025-.18.038-.36.037-.54v-62.43c0-.18-.014-.36-.038-.54-.025-.18-.062-.358-.112-.53-.045-.176-.103-.348-.173-.515-.07-.166-.152-.33-.245-.484-.09-.155-.19-.306-.3-.45-.11-.143-.23-.28-.358-.405-.128-.13-.263-.25-.407-.36s-.293-.21-.45-.3c-.156-.09-.318-.173-.485-.243-.167-.07-.338-.13-.513-.175-.174-.05-.352-.087-.532-.112-.178-.025-.358-.038-.54-.036h-62.428c-.18 0-.36.012-.54.036-.18.025-.357.06-.53.11-.176.046-.348.104-.515.174-.166.07-.328.152-.485.245-.156.09-.307.19-.45.3-.143.11-.278.23-.406.36-.128.126-.248.262-.358.405-.11.144-.21.295-.3.45-.092.157-.173.32-.243.486-.07.166-.13.338-.176.513-.05.174-.087.35-.113.53-.024.18-.036.36-.034.54v62.428c0 .18.013.36.037.54.024.18.062.357.11.532.046.175.104.346.174.513.07.167.152.328.244.484.09.156.192.308.302.45.11.144.23.28.36.408.126.127.26.247.405.358.143.11.294.21.45.3.156.092.32.173.485.243s.34.13.514.175c.174.05.35.088.53.113.18.025.36.038.54.036h.034z" stroke="#231f20" stroke-miterlimit="22.926" stroke-width="2.441" fill="none" transform="matrix(.82 0 0 .81864 -257.006 -405.77)"/><path d="M15.58 26.22l32.545-6.892c.586 6.523-9.668 9.22-14.74 10.72l-14.932.766-2.872-4.594M17.79 33.465l30.452-4.543.08 1.116-29.894 4.623-.638-1.195" fill-rule="evenodd"/><path d="M32.906 32.095c.887 0 1.606.66 1.606 1.474s-.72 1.473-1.606 1.473c-.886 0-1.606-.66-1.606-1.474 0-.815.72-1.475 1.606-1.475" fill-rule="evenodd"/><path d="M32.906 32.934c.383 0 .694.286.694.637s-.31.638-.694.638-.693-.286-.693-.637.31-.636.693-.636" fill-rule="evenodd" fill="#fff"/><path d="M18.19 36.982l30.053-4.226.08 7.812-30.213.08.08-3.666" fill-rule="evenodd"/><path d="M11.65 36.607c1.095 1.086 2.112 1.552 2.823-.43 1.085 1.69 2.233 1.786 3.446.287l.267.515" stroke="#000" stroke-miterlimit="22.926" stroke-width="1.0539887000000001" fill="none"/></g></svg>
