<svg xmlns="http://www.w3.org/2000/svg" height="60" width="60"><g stroke="#000" fill="#fff"><path stroke-linejoin="bevel" d="M0 0v49.916c0 .144-.01.29-.03.432-.02.144-.05.286-.088.425-.037.14-.083.278-.14.41s-.12.264-.195.388c-.072.127-.152.247-.24.362-.088.114-.184.223-.287.325-.102.103-.21.2-.325.287-.115.088-.235.17-.36.24-.126.074-.255.138-.388.194-.134.056-.27.103-.41.14-.14.04-.283.07-.426.09s-.286.03-.43.03h-49.943c-.145 0-.29-.012-.433-.03-.143-.02-.285-.05-.424-.09-.14-.036-.278-.082-.41-.138-.135-.056-.264-.122-.388-.196-.126-.07-.246-.152-.36-.24s-.225-.184-.326-.287c-.103-.102-.2-.21-.288-.325-.088-.115-.168-.235-.24-.36-.073-.126-.138-.255-.194-.388-.055-.134-.102-.27-.14-.41-.04-.14-.07-.282-.09-.426-.02-.143-.03-.288-.03-.432V-.026c.002-.145.012-.29.03-.433.02-.142.05-.284.09-.423.036-.14.083-.278.14-.41s.12-.264.194-.39c.072-.124.153-.245.24-.36.09-.114.185-.222.288-.324.1-.103.21-.2.325-.287.116-.09.236-.17.362-.24.124-.074.254-.14.387-.195.133-.054.27-.1.41-.14.14-.04.28-.07.424-.09.144-.02.288-.03.433-.027H-3.32c.144 0 .288.01.43.03.145.02.287.05.426.088.14.037.277.084.41.14.134.056.264.122.388.195.125.072.246.153.36.24.115.09.224.185.326.288.103.102.2.21.287.325.088.114.17.235.24.36.074.125.138.255.194.388.057.134.104.27.142.41.04.14.07.282.09.426.02.143.03.287.028.432V0z" stroke-miterlimit="22.926" stroke-width=".223" transform="matrix(0 1.02305 1.02306 0 4.48 58.944)"/><path stroke-linejoin="bevel" d="M0 0v-.027c0-.146-.01-.293-.03-.44-.02-.145-.05-.29-.09-.43-.038-.143-.085-.283-.142-.418s-.123-.267-.198-.393c-.073-.128-.155-.25-.245-.367-.09-.117-.187-.227-.29-.33-.105-.105-.215-.203-.33-.292-.118-.09-.24-.17-.368-.244-.127-.076-.258-.142-.394-.198-.136-.057-.275-.105-.417-.143-.142-.04-.286-.072-.432-.092-.145-.02-.292-.03-.44-.03h-49.942c-.147 0-.294.01-.44.03-.145.02-.29.05-.43.09-.143.038-.283.085-.418.142-.136.057-.267.124-.393.2-.127.072-.25.154-.366.243-.117.09-.227.187-.33.292-.105.103-.203.213-.292.33-.09.116-.17.24-.244.367-.075.126-.14.258-.198.393-.057.136-.104.275-.142.418-.04.14-.07.286-.09.43-.022.147-.032.294-.03.44v49.943c0 .147.01.294.03.44.02.145.05.29.09.43.036.144.084.283.14.418.058.136.125.267.2.394.073.128.154.25.244.367.09.116.187.227.29.33.105.105.215.202.332.292.116.09.24.17.367.244.127.076.258.142.394.198.136.057.275.105.417.143.143.04.287.07.433.092.145.02.292.03.44.03h49.942c.147 0 .294-.012.44-.032.145-.02.29-.05.43-.09.143-.036.283-.083.418-.14.136-.058.267-.124.394-.2.127-.072.25-.154.366-.243.117-.09.227-.187.33-.292.106-.103.203-.214.293-.33.09-.117.17-.24.244-.367.074-.127.14-.258.197-.394.057-.135.104-.275.143-.417.04-.14.07-.286.09-.43.022-.147.03-.294.03-.44V0z" stroke-miterlimit="22.926" stroke-width="1.955" transform="matrix(0 1.02305 1.02306 0 4.48 59)"/></g><path d="M4.48 56.514h-.01c-.042 0-.085-.003-.127-.01-.043-.005-.085-.014-.126-.025-.042-.012-.083-.026-.123-.043-.04-.016-.077-.036-.114-.057-.038-.022-.074-.045-.108-.072s-.066-.055-.096-.086c-.03-.03-.06-.062-.086-.096-.025-.034-.05-.07-.07-.108-.023-.036-.04-.074-.058-.114-.017-.04-.03-.08-.042-.122-.012-.042-.02-.084-.027-.127-.005-.042-.008-.085-.008-.128V4.472c0-.043.003-.086.01-.128.004-.043.013-.085.025-.127.01-.042.025-.082.04-.122s.037-.077.06-.115c.02-.037.045-.073.07-.107.027-.034.055-.066.086-.097.03-.03.063-.058.096-.085.034-.024.07-.05.108-.07.037-.022.075-.04.114-.058.04-.017.08-.03.123-.042.04-.01.083-.02.126-.026.042-.006.085-.008.128-.008h51.057c.043 0 .086.003.13.01.04.005.084.013.125.024.042.012.082.025.12.042.04.017.08.036.117.058s.072.046.105.07c.035.028.067.057.098.086.03.03.06.063.084.097.027.034.05.07.072.107.02.038.04.076.057.115.017.04.03.08.04.122.014.042.022.084.028.127.006.042.01.085.01.128v51.055c-.002.043-.005.086-.01.128-.006.043-.014.085-.027.127-.01.04-.024.082-.04.122-.018.04-.037.078-.06.114-.02.038-.044.074-.07.108-.026.034-.055.066-.085.096-.03.03-.063.06-.098.086-.033.027-.07.05-.106.072s-.077.04-.117.057c-.04.016-.08.03-.12.042-.042.01-.085.02-.127.025-.043.007-.086.01-.13.01H4.48" fill-rule="evenodd" fill="#039"/><path d="M26.338 33.13c-.553.214-1.103.436-1.65.667-.54.228-1.072.483-1.59.763-.717.397-1.403.847-2.052 1.346-.658.506-1.29 1.04-1.9 1.604-.624.55-1.21 1.145-1.75 1.778-.54.63-.977 1.335-1.304 2.096-.06.14-.125.28-.19.42-.063.138-.14.27-.233.39-.044.056-.09.108-.138.16-.05.05-.1.1-.152.147-.077.075-.157.144-.24.21-.082.067-.17.126-.26.18-.084.05-.17.09-.26.126-.09.035-.183.065-.276.087-.094.024-.19.042-.286.054-.095.01-.19.016-.287.014-.096 0-.192-.007-.288-.022s-.19-.033-.282-.06c-.128-.035-.253-.078-.374-.13-.12-.052-.24-.11-.356-.173-.127-.067-.252-.14-.373-.217s-.238-.158-.353-.244c-.174-.13-.34-.27-.497-.42-.16-.148-.31-.302-.457-.462-.248-.264-.482-.54-.7-.83-.22-.286-.417-.59-.594-.903-.184-.314-.342-.64-.476-.977-.134-.336-.244-.68-.327-1.033-.075-.31-.136-.623-.18-.938-.042-.317-.076-.635-.103-.952-.03-.31-.05-.62-.062-.93-.013-.31-.01-.62.01-.928.026-.44.088-.873.185-1.3.098-.43.223-.854.374-1.268.126-.363.27-.72.433-1.07.162-.347.342-.686.54-1.016.244-.415.516-.813.815-1.193.297-.378.623-.737.97-1.072.343-.338.71-.653 1.096-.942.387-.287.793-.55 1.216-.782.42-.238.855-.448 1.303-.626.447-.18.907-.327 1.375-.443.467-.122.94-.21 1.42-.27.48-.055.962-.078 1.444-.07.482.004.962.04 1.44.11s.95.17 1.413.304c.465.128.92.29 1.363.48.444.19.873.41 1.287.66.417.242.817.514 1.197.813.378.298.735.622 1.068.972.08.08.158.163.235.247.078.083.155.167.23.252l.022-.02c.006-.008.013-.016.02-.022.168-.173.35-.33.545-.474.193-.145.398-.275.61-.39.21-.118.427-.222.65-.31s.455-.165.69-.223c.233-.062.47-.11.71-.138.24-.03.48-.04.72-.03.222.006.442.028.66.06s.438.074.655.118c.09-.586.173-1.173.246-1.762.074-.584.12-1.17.134-1.76.015-.82-.032-1.638-.14-2.45-.11-.822-.256-1.64-.44-2.448-.164-.816-.386-1.62-.663-2.405-.274-.78-.667-1.513-1.162-2.175l-.27-.375c-.087-.125-.162-.258-.22-.398-.028-.065-.05-.13-.07-.198-.02-.07-.037-.138-.052-.206-.026-.104-.046-.208-.062-.312-.016-.106-.024-.21-.024-.317 0-.096.006-.192.02-.287.015-.096.035-.19.063-.283.025-.094.057-.185.096-.274.037-.087.08-.173.13-.255.05-.083.104-.163.164-.24.06-.074.124-.146.193-.214.094-.092.194-.178.3-.256.106-.08.216-.154.328-.222.122-.077.247-.15.374-.215s.255-.128.387-.183c.2-.085.403-.16.61-.22.21-.064.42-.12.632-.166.35-.083.707-.146 1.066-.192.36-.045.72-.066 1.08-.063.363 0 .725.025 1.083.077.357.05.71.13 1.057.234.307.088.608.194.902.314.295.12.587.25.875.386.284.13.562.266.837.41.274.144.54.302.8.474.365.24.71.512 1.033.81.324.3.627.62.91.957.252.29.488.595.71.91.22.314.423.64.61.975.238.42.447.854.626 1.303s.328.907.444 1.377c.12.466.21.94.268 1.42.057.478.08.96.07 1.443-.003.482-.04.964-.108 1.442-.07.476-.172.95-.306 1.412-.127.465-.288.92-.477 1.364-.19.444-.41.874-.66 1.287-.244.417-.516.815-.815 1.194-.298.38-.623.738-.97 1.07-.344.34-.71.655-1.096.943-.388.29-.793.55-1.216.784-.42.24-.855.45-1.303.63-.446.18-.907.326-1.375.44l-.333.08s-.222.05-.333.073l.006.027.007.028c.056.22.096.446.12.674s.038.456.05.684v.074c-.002.242-.02.482-.055.72-.033.24-.084.475-.153.707-.062.232-.142.46-.237.682-.096.222-.207.436-.332.643-.122.208-.257.408-.405.6-.147.19-.31.367-.487.532l-.097.092-.1.09c.455.364.914.72 1.38 1.07.463.35.94.676 1.434.98.702.42 1.435.79 2.192 1.103.767.316 1.547.597 2.34.843.79.265 1.595.474 2.414.627.813.15 1.645.18 2.466.08.153-.017.306-.032.46-.045.15-.014.303-.012.455.007.068.008.138.02.206.038.068.017.136.037.203.057.102.03.204.066.302.103.098.04.194.084.285.137.084.048.164.102.24.162s.147.125.214.195.13.143.188.22c.057.077.11.158.156.243.048.084.09.17.126.26.036.09.066.182.09.275.033.128.057.258.073.39.015.13.024.262.027.395.006.143.006.286 0 .43-.007.143-.02.286-.036.428-.025.216-.064.43-.113.64-.05.21-.107.42-.173.628-.104.347-.227.688-.367 1.022-.14.332-.303.655-.486.966-.18.314-.382.615-.607.9-.224.284-.468.55-.73.8-.23.22-.473.428-.725.624-.252.195-.51.383-.772.565-.253.18-.512.352-.773.52-.262.165-.532.316-.81.454-.39.198-.8.362-1.22.49-.42.132-.848.236-1.283.31-.378.073-.76.126-1.142.16-.382.035-.766.048-1.15.04-.483-.002-.963-.04-1.44-.108-.478-.068-.95-.17-1.414-.304-.466-.127-.922-.287-1.365-.478-.444-.19-.874-.41-1.286-.66-.416-.245-.815-.517-1.194-.815s-.736-.623-1.07-.97c-.34-.345-.655-.71-.943-1.097s-.55-.793-.784-1.215c-.238-.42-.448-.855-.627-1.303-.178-.448-.326-.907-.44-1.376-.123-.466-.212-.94-.268-1.42-.056-.478-.08-.96-.073-1.443.002-.483.037-.965.106-1.444.068-.477.172-.948.31-1.41.045-.16.094-.318.146-.475s.105-.313.16-.47c-.2-.076-.396-.155-.592-.238-.194-.083-.384-.176-.57-.28-.208-.12-.408-.254-.595-.405-.19-.15-.37-.314-.538-.488-.17-.173-.33-.356-.476-.548-.145-.192-.274-.396-.386-.61-.105-.192-.196-.393-.276-.597-.08-.207-.154-.415-.226-.624" fill-rule="evenodd" fill="#fff"/></svg>
