<svg xmlns="http://www.w3.org/2000/svg" xmlns:xlink="http://www.w3.org/1999/xlink" width="60" height="60"><symbol id="a"><path d="M39.944 38.982l-.77 1.142c-1.135 1.68-3.418 2.125-5.1.99l-16.746-11.3c-1.682-1.134-2.126-3.418-.99-5.1l.77-1.14L10.97 13.34c-3.798 3.884-4.745 9.738-2.364 14.623 5.75 11.796 17.358 19.628 30.45 20.545 5.42.38 10.494-2.69 12.674-7.666l-11.786-1.86zm-.382-1.92l13.215 2.086-1.122-3.896-9.826-1.55-2.268 3.36zM19.032 23.21l2.266-3.362-5.115-8.53-4.033.417 6.88 11.474"/></symbol><use xlink:href="#a"/></svg>
