<svg xmlns="http://www.w3.org/2000/svg" height="60" width="80"><path stroke-linejoin="bevel" d="M-272.1-135.11h64.218c.14 0 .284-.01.425-.03.14-.02.28-.048.417-.086.138-.037.273-.082.404-.138.13-.055.26-.12.38-.19.124-.072.243-.15.355-.237.113-.09.22-.183.32-.284.1-.1.195-.207.282-.32.086-.112.166-.23.236-.355.072-.12.136-.25.19-.38.056-.13.1-.266.14-.404.038-.136.068-.276.088-.417.02-.14.028-.284.027-.426v-41.382c0-.142-.01-.284-.03-.424-.02-.14-.047-.28-.086-.42-.035-.136-.08-.27-.137-.403-.055-.13-.12-.257-.192-.38-.07-.123-.15-.242-.236-.355-.087-.112-.182-.22-.283-.32-.1-.1-.207-.195-.32-.282-.113-.086-.232-.165-.356-.236-.12-.073-.25-.135-.38-.19s-.266-.102-.404-.14c-.137-.038-.277-.068-.417-.088-.14-.02-.284-.03-.425-.027h-64.244c-.14 0-.284.01-.424.03-.14.018-.28.047-.418.086-.138.036-.273.08-.404.136-.13.056-.26.12-.38.192-.124.07-.243.15-.355.236-.114.087-.22.18-.32.282-.1.1-.196.208-.283.32-.086.113-.166.232-.236.355-.072.123-.136.25-.19.38s-.1.267-.14.404c-.037.137-.068.277-.088.418-.02.14-.028.282-.027.424v41.382c0 .142.01.285.028.425.02.14.05.28.087.416.036.14.082.274.136.405.058.132.122.26.194.38.07.125.15.244.236.356.087.113.18.22.283.32.1.1.206.195.32.283.112.085.23.164.354.235.122.072.25.136.38.19.132.055.267.1.405.14.137.037.277.066.418.086.14.02.283.03.424.03h.026z" stroke="#231f20" stroke-miterlimit="22.926" stroke-width=".277" fill="none" transform="matrix(1.1007 0 0 1.2082 304.16 222.188)"/><path stroke-linejoin="bevel" d="M-272.1-135.06h-.026c-.144 0-.288-.01-.432-.03-.142-.02-.283-.05-.422-.09-.14-.035-.278-.08-.41-.138-.133-.055-.263-.12-.386-.193-.125-.074-.245-.154-.36-.24-.114-.09-.223-.185-.324-.288-.103-.1-.2-.21-.286-.323-.088-.116-.17-.236-.24-.36-.073-.125-.138-.255-.193-.388-.055-.132-.1-.27-.14-.41-.04-.138-.07-.28-.09-.423-.02-.144-.03-.288-.028-.43v-41.383c0-.144.012-.29.03-.432.02-.143.05-.285.09-.423.035-.14.082-.277.138-.41.055-.133.12-.262.194-.385.072-.125.152-.247.24-.36s.183-.223.286-.324c.1-.103.21-.2.324-.286.115-.09.235-.17.36-.24.123-.073.253-.138.386-.194.134-.055.27-.103.41-.14.14-.04.28-.07.424-.09.142-.02.286-.03.43-.028h64.244c.143 0 .287.01.43.03.143.02.285.05.423.088.14.037.28.082.41.14.134.055.264.12.388.194.125.07.245.15.36.24.113.087.222.183.323.286.104.1.2.21.288.324s.167.235.24.36c.072.123.137.252.192.385.057.133.103.27.14.41.04.138.07.28.09.423s.03.288.03.432v41.382c-.002.142-.012.286-.03.43-.02.142-.05.284-.09.422-.036.14-.082.278-.14.41-.054.134-.12.263-.192.387-.073.124-.153.244-.24.36-.088.112-.184.22-.287.322-.1.103-.21.2-.322.287-.115.087-.235.167-.36.24-.124.07-.254.136-.387.19-.13.057-.27.104-.41.14-.137.04-.28.07-.422.09-.143.02-.287.03-.43.03H-272.1z" stroke="#000" stroke-miterlimit="22.926" stroke-width="1.734" fill="#fff" transform="matrix(1.1007 0 0 1.2082 304.16 222.188)"/><path d="M3.25 56.52V5.716c.002-.1.007-.2.016-.298.008-.098.02-.196.037-.29.015-.098.033-.19.056-.282.02-.09.047-.18.076-.264.028-.085.06-.166.095-.245.036-.077.073-.15.113-.22.04-.068.08-.132.126-.19.043-.06.09-.112.138-.16.048-.048.098-.09.15-.126.05-.034.103-.064.157-.087.044-.02.087-.034.13-.045.045-.01.09-.015.134-.017H75.497c.055.003.11.012.165.03.054.014.108.036.16.065.053.027.104.06.155.103.05.04.1.086.146.14.047.05.09.11.135.17.042.064.082.132.12.205.037.072.072.15.105.23.03.08.06.165.086.253.03.088.052.178.07.27.02.094.037.19.05.287.01.08.02.157.024.237.006.08.01.162.01.242V56.52H3.25" fill-rule="evenodd" fill="#039"/></svg>
