<svg xmlns="http://www.w3.org/2000/svg" height="60" width="60"><g stroke="#000" fill="#fff"><path stroke-linejoin="bevel" d="M4.484 1.05H55.55c.15 0 .297.01.443.03.147.02.293.05.435.09.143.038.284.086.42.144s.27.123.396.2c.13.073.252.156.37.246.116.09.228.188.332.293.105.104.204.215.294.332.09.117.173.24.245.37.076.127.14.26.2.396.056.137.104.278.142.42.04.144.072.29.092.435.02.148.03.295.03.442v51.095c-.002.147-.013.295-.032.44-.02.15-.05.293-.09.436-.038.144-.085.284-.142.42-.06.137-.125.27-.2.397-.073.128-.156.25-.246.37-.09.116-.19.227-.294.33-.104.107-.216.204-.332.295-.118.09-.24.172-.37.246-.128.074-.26.14-.396.198-.137.057-.277.105-.42.143-.142.04-.288.072-.435.092-.146.02-.295.03-.442.03H4.46c-.15-.002-.296-.012-.443-.032-.146-.02-.292-.05-.434-.09-.142-.037-.283-.085-.42-.142-.137-.058-.268-.125-.395-.2-.13-.074-.253-.156-.37-.246-.117-.09-.228-.188-.332-.295-.106-.103-.204-.214-.294-.33-.09-.12-.174-.242-.247-.37-.075-.128-.14-.26-.2-.397-.055-.136-.103-.276-.142-.42-.04-.143-.07-.288-.09-.435-.022-.146-.032-.294-.03-.44V4.446c0-.147.01-.294.03-.442.02-.146.05-.29.09-.435.038-.143.086-.283.143-.42.057-.136.124-.268.2-.396.073-.128.156-.252.246-.368.09-.118.187-.23.293-.333.104-.105.215-.203.332-.294.117-.09.24-.173.37-.247.127-.075.26-.14.396-.198.138-.058.278-.106.42-.144.143-.04.29-.07.436-.09.146-.02.293-.03.442-.03h.027z" stroke-miterlimit="22.926" stroke-width=".22814015"/><path stroke-linejoin="bevel" d="M4.484.994h-.027c-.15 0-.3.012-.45.032-.15.02-.296.05-.44.09-.147.04-.29.088-.428.146-.14.06-.274.126-.403.203-.13.075-.256.16-.375.25-.12.092-.233.192-.338.298-.107.107-.208.22-.3.338-.09.12-.174.246-.248.376-.077.13-.145.264-.203.404-.057.14-.106.28-.145.426-.04.145-.073.293-.093.442-.022.148-.03.3-.03.45V55.54c0 .15.01.3.03.45.02.148.052.295.093.44.038.146.086.29.144.428.058.138.126.272.204.4.074.132.158.258.25.377.09.12.19.232.298.338.105.107.218.207.338.298.118.092.244.176.375.25.13.076.264.144.402.202.138.06.28.107.427.146.144.042.29.073.44.095.15.02.3.03.45.03H55.55c.15-.002.302-.012.45-.032.15-.02.297-.052.442-.092.146-.036.29-.085.428-.144.138-.058.273-.126.402-.202.13-.075.256-.16.375-.25.12-.092.233-.192.338-.3.107-.105.207-.218.3-.337.09-.12.174-.245.248-.376.077-.128.145-.262.202-.4.058-.14.107-.282.146-.427.042-.146.073-.293.094-.442.022-.148.03-.298.03-.448V4.447c0-.15-.01-.3-.032-.45-.02-.148-.05-.296-.09-.44-.04-.146-.087-.29-.146-.427-.058-.14-.126-.274-.203-.404-.074-.13-.158-.255-.25-.375-.09-.118-.19-.23-.298-.337-.105-.107-.22-.206-.338-.298-.12-.09-.244-.175-.375-.25-.13-.077-.264-.143-.403-.202-.14-.058-.283-.106-.428-.146s-.292-.07-.442-.093c-.148-.02-.3-.03-.45-.03H4.485z" stroke-miterlimit="22.926" stroke-width="2.00006275"/></g><path d="M4.484 3.48h-.008c-.043 0-.086.004-.128.01-.043.005-.085.014-.127.026-.04.01-.08.025-.12.04-.04.018-.078.037-.115.06-.038.02-.073.044-.107.07-.034.027-.067.055-.096.086-.03.03-.06.062-.086.096-.026.034-.05.07-.07.108-.023.036-.042.075-.06.114-.016.04-.03.08-.04.122-.012.042-.022.084-.027.127-.007.04-.01.084-.01.127v51.055c0 .043.003.086.01.13.004.04.014.084.026.125.01.042.024.083.04.122.017.038.037.077.06.114.02.037.044.073.07.107.026.035.055.067.086.098.03.03.062.06.096.085.034.026.07.05.107.07.037.023.076.042.115.06.04.016.08.03.12.04.043.012.085.02.128.027.042.006.085.01.128.008h51.056c.043 0 .086-.002.13-.008.04-.006.083-.015.124-.026.042-.01.083-.025.122-.04.04-.02.08-.038.116-.06s.072-.045.106-.07c.035-.027.067-.056.097-.086s.06-.063.085-.097c.027-.033.05-.07.072-.106s.04-.076.058-.115c.017-.04.03-.08.04-.123.013-.04.022-.084.028-.126.006-.042.01-.085.008-.128V4.467c0-.043-.002-.086-.008-.128-.006-.044-.015-.086-.027-.128-.01-.04-.024-.082-.04-.122-.017-.04-.037-.078-.06-.114-.02-.038-.044-.074-.07-.108-.026-.034-.055-.066-.086-.096-.03-.03-.062-.06-.097-.086-.034-.026-.07-.05-.106-.07-.037-.023-.076-.04-.116-.06-.04-.015-.08-.03-.122-.04-.04-.012-.084-.02-.125-.027-.042-.006-.085-.01-.128-.01H4.484" fill-rule="evenodd" fill="#039"/><path d="M26.23 57.187V2.35h8.226v54.837H26.23z" fill="#fff"/><path d="M29.39 31.242v-3.47h27.417v3.47H29.39z" fill="#fff"/></svg>
