<svg xmlns="http://www.w3.org/2000/svg" height="60" width="60"><g stroke="#000" fill="#fff"><path stroke-linejoin="bevel" d="M1.055 4.477V55.543c0 .15.01.296.03.442.02.148.05.293.09.435.038.143.086.284.144.42s.122.27.198.396c.074.13.157.252.247.37.09.116.188.228.293.332.104.106.215.204.332.294.117.09.24.173.37.245.127.076.26.142.396.2.136.056.277.104.42.142.143.04.288.07.434.09.148.022.295.032.442.03h51.095c.147 0 .295-.01.442-.03.146-.02.29-.05.433-.09.144-.038.284-.085.42-.142.137-.058.27-.125.397-.2.128-.073.25-.156.37-.246.116-.09.227-.188.33-.294.107-.104.204-.216.295-.332.09-.118.172-.24.246-.37.075-.128.142-.26.2-.396.056-.137.105-.277.142-.42.04-.142.072-.287.092-.435.02-.146.03-.294.03-.442V4.45c0-.148-.01-.296-.03-.443-.02-.146-.05-.292-.092-.434-.036-.143-.084-.284-.14-.42-.06-.137-.126-.27-.2-.396-.075-.13-.157-.253-.247-.37-.09-.117-.188-.228-.295-.332-.103-.105-.214-.204-.33-.294-.12-.09-.242-.172-.37-.245-.128-.075-.26-.14-.397-.2-.136-.055-.276-.103-.42-.142-.143-.04-.288-.07-.434-.092-.148-.02-.296-.03-.443-.028H4.45c-.147 0-.294.01-.442.03-.146.02-.29.05-.434.09-.144.038-.284.086-.42.143-.137.058-.27.124-.397.2-.13.073-.253.156-.37.246-.117.09-.228.19-.332.295-.105.104-.203.215-.294.332-.09.117-.172.24-.246.37-.075.127-.14.26-.198.396-.058.137-.106.277-.144.42-.04.142-.07.288-.092.435-.02.146-.03.294-.03.442v.027z" stroke-miterlimit="22.926" stroke-width=".22814015"/><path stroke-linejoin="bevel" d="M1 4.477V4.45c0-.15.01-.3.03-.45.02-.15.052-.297.092-.44.038-.147.087-.29.145-.43.06-.137.126-.272.203-.4.075-.132.16-.257.25-.376.092-.12.192-.233.298-.338.107-.107.22-.208.338-.3.12-.09.245-.174.375-.248.13-.077.265-.144.405-.203.14-.057.28-.106.426-.145.146-.04.294-.073.443-.093.148-.022.3-.03.45-.03h51.094c.15 0 .3.01.45.03.148.02.295.052.44.093.146.038.29.086.428.144.138.058.272.126.4.204.132.074.258.158.377.25.12.09.232.19.338.298.107.105.207.218.298.338.092.118.176.244.25.375.076.128.144.263.202.4.06.14.107.283.146.43.042.143.072.29.094.44.02.15.03.3.03.45v51.093c-.002.15-.012.3-.032.45-.02.15-.052.296-.092.44-.037.148-.086.29-.145.43-.057.137-.125.272-.2.4-.076.132-.16.257-.252.376-.09.118-.19.232-.298.337-.106.107-.22.207-.338.3-.12.09-.245.174-.376.248-.13.077-.263.145-.402.202-.14.058-.28.107-.426.146-.146.04-.293.072-.442.093-.15.022-.3.03-.45.03H4.453c-.15 0-.3-.01-.45-.032-.148-.02-.296-.05-.44-.09-.146-.04-.29-.087-.427-.146-.14-.058-.274-.126-.404-.203-.128-.074-.254-.158-.374-.25-.12-.09-.23-.19-.338-.298-.107-.105-.206-.22-.298-.338-.09-.12-.175-.245-.25-.376-.077-.13-.143-.264-.2-.403-.06-.137-.108-.28-.148-.426s-.07-.292-.093-.442c-.02-.148-.032-.298-.03-.45V4.478z" stroke-miterlimit="22.926" stroke-width="2.00006275"/></g><path d="M3.256 4.477v-.01c0-.042.003-.085.01-.127.005-.042.014-.084.026-.126.01-.04.025-.082.04-.122.017-.04.037-.078.06-.115.02-.038.044-.073.07-.107.027-.034.055-.067.086-.096.03-.03.062-.06.096-.086.034-.026.07-.05.107-.07.038-.023.077-.042.116-.06.04-.015.08-.03.122-.04.042-.012.084-.022.127-.027.042-.005.085-.008.128-.008H55.3c.043 0 .086.003.13.01.04.004.084.014.125.026.042.01.083.025.12.04.04.017.08.037.117.06.037.02.073.044.106.07.035.026.067.055.098.086.03.03.06.062.085.096.025.034.05.07.07.107.022.037.04.076.058.115.017.04.03.08.04.122.013.042.022.084.028.126.006.042.01.085.008.128v51.056c0 .043-.002.086-.008.13-.006.04-.015.084-.027.125-.01.04-.025.08-.042.12-.017.04-.036.08-.058.116s-.045.073-.07.106c-.027.035-.056.067-.086.097s-.063.06-.098.084c-.033.027-.07.05-.106.072s-.076.04-.116.058c-.038.017-.08.03-.12.04-.042.014-.085.022-.127.028-.043.006-.086.01-.13.008H4.244c-.043 0-.086-.002-.128-.008-.043-.006-.085-.014-.127-.027-.04-.01-.082-.024-.122-.04-.04-.017-.078-.037-.115-.06-.036-.02-.072-.044-.106-.07-.034-.026-.066-.055-.096-.086-.03-.03-.06-.063-.086-.098-.026-.033-.05-.07-.07-.106-.023-.037-.042-.076-.06-.116-.015-.04-.03-.08-.04-.12-.012-.042-.02-.085-.028-.127-.005-.043-.008-.086-.008-.13V4.478" fill-rule="evenodd" fill="#039"/><path d="M57.192 25.887H2.356v8.225h54.836v-8.225z" fill="#fff"/><path d="M31.51 29.382h-3.47V56.8h3.47V29.382z" fill="#fff"/></svg>
