<svg xmlns="http://www.w3.org/2000/svg" xmlns:xlink="http://www.w3.org/1999/xlink" width="60" height="60"><symbol id="a"><path d="M23.375 10.28L21.97 12.94l9.624 5.03 14.093 19.75v11.094h3V23.5l-.78-.406-14.25-7.438-.126-.187-.093.06-10.062-5.25zM37.5 21.03l8.188 4.282v7.22L37.5 21.03zM26.375 33.375c-.91-.01-1.87.012-2.813.03-3.98.084-5.986.276-6.375.657-.12.118-.72 1.267-1.343 2.532-.94 1.906-1.207 2.35-1.594 2.593-1.045.66-.997.36-.47 2.97.588 2.895.925 3.768 1.408 4.124.464.345.373.307.374 1.44v.843h.907c.76.006.55-.323.655-1.032.05-.33-.04-.678.063-.718.103-.04 1.653.09 3.187.25 4.204.437 7.742.382 11.28-.187.68-.11 1.276-.188 1.314-.188.036 0 .06.75.06 1.188 0 .877.172.688.907.688.54 0 .532-.01.532-.75 0-.8-.107-.865.436-1.376.504-.474 1.077-1.438 1.532-4.406.34-2.227.448-1.56.156-2.25-.09-.207-.358-.26-.5-.436-.69-.852-.807-.88-1.532-2.907-.737-2.062-1.06-2.448-2.03-2.656-1.033-.22-3.427-.38-6.157-.405zm-2.78 1.063c3.568-.033 7.91.13 8.75.406.478.158.484.2 1.06 2.03.32 1.016.57 1.87.532 1.907-.038.04-.826-.03-1.75-.155-3.296-.444-9.092-.467-13.218-.063-.808.08-1.682.18-1.94.22-.255.04-.512.017-.56-.032-.12-.118.23-1.275.686-2.28.2-.443.42-.96.47-1.157.116-.466.68-.627 2.81-.782.857-.06 1.968-.082 3.158-.093zm9.655 5.78c.552 0 1 .448 1 1 0 .553-.448 1-1 1s-1-.447-1-1c0-.552.448-1 1-1zm-16.53.22c.55 0 1 .447 1 1 0 .552-.45 1-1 1-.554 0-1-.448-1-1 0-.553.446-1 1-1z"/></symbol><use xlink:href="#a"/></svg>
