<svg xmlns="http://www.w3.org/2000/svg" height="60" width="60"><path stroke-linejoin="bevel" d="M318.82 567.73h62.395c.182 0 .362-.014.54-.037.18-.025.358-.062.532-.112.175-.044.347-.103.513-.173s.33-.15.484-.243c.158-.09.308-.19.45-.302.145-.11.28-.23.408-.357.128-.128.248-.264.358-.406.11-.145.21-.296.3-.453.093-.156.174-.318.243-.485.07-.166.13-.337.175-.512.05-.175.087-.352.112-.53.025-.18.038-.36.037-.54v-62.43c0-.18-.014-.36-.038-.54-.025-.18-.062-.358-.112-.53-.045-.176-.103-.348-.173-.515-.07-.166-.152-.33-.245-.484-.09-.155-.19-.306-.3-.45-.11-.143-.23-.28-.358-.405-.128-.13-.263-.25-.407-.36s-.293-.21-.45-.3c-.156-.09-.318-.173-.485-.243-.167-.07-.338-.13-.513-.175-.174-.05-.352-.087-.532-.112-.178-.025-.358-.038-.54-.036h-62.428c-.18 0-.36.012-.54.036-.18.025-.357.06-.53.11-.176.046-.348.104-.515.174-.166.07-.328.152-.485.245-.156.09-.307.19-.45.3-.143.11-.278.23-.406.36-.128.126-.248.262-.358.405-.11.144-.21.295-.3.45-.092.157-.173.32-.243.486-.07.166-.13.338-.176.513-.05.174-.087.35-.113.53-.024.18-.036.36-.034.54v62.428c0 .18.013.36.037.54.024.18.062.357.11.532.046.175.104.346.174.513.07.167.152.328.244.484.09.156.192.308.302.45.11.144.23.28.36.408.126.127.26.247.405.358.143.11.294.21.45.3.156.092.32.173.485.243s.34.13.514.175c.174.05.35.088.53.113.18.025.36.038.54.036h.034z" stroke="#231f20" stroke-miterlimit="22.926" stroke-width=".278" fill="none" transform="translate(-256.458 -405.708) scale(.81844)"/><path stroke-linejoin="bevel" d="M4.477 59.002H4.45c-.15 0-.3-.01-.45-.032-.15-.02-.296-.05-.442-.09-.145-.038-.288-.088-.426-.146-.14-.058-.273-.126-.402-.202-.13-.075-.257-.16-.376-.25-.12-.092-.232-.192-.337-.3-.108-.105-.208-.218-.3-.336-.09-.12-.175-.245-.25-.376-.075-.13-.143-.264-.2-.403-.06-.138-.108-.28-.147-.427-.04-.145-.072-.292-.093-.44-.02-.15-.03-.3-.03-.45V4.454c0-.15.012-.3.03-.45.022-.148.053-.296.093-.44.038-.146.086-.29.145-.43.058-.137.126-.27.202-.4.076-.13.16-.257.25-.375.093-.12.192-.232.3-.34.105-.105.218-.205.337-.297.12-.092.245-.176.376-.25.13-.076.263-.143.402-.202.14-.057.28-.105.426-.144.146-.042.293-.073.442-.094.15-.02.3-.03.45-.03h51.094c.15 0 .3.012.45.032.148.02.297.05.44.092.147.037.29.086.43.144.138.06.272.126.4.203.132.074.256.158.376.25s.232.192.338.298c.107.108.206.22.298.34.093.118.175.244.25.374.077.13.144.264.202.403.058.14.107.282.146.427.04.145.073.293.093.442.022.148.03.3.03.45v51.093c0 .15-.012.3-.032.45-.02.148-.05.295-.09.44-.04.146-.087.29-.146.427-.06.14-.127.273-.204.403-.075.13-.157.256-.25.376-.092.118-.19.23-.298.337-.106.107-.218.207-.338.3-.12.09-.244.174-.375.25-.13.074-.264.142-.403.2-.14.058-.282.107-.427.146-.144.04-.293.07-.44.093-.15.02-.3.03-.45.03H4.476z" stroke="#000" stroke-miterlimit="22.926" stroke-width="2.0002673599999996" fill="#fff"/><path d="M4.477 56.514H4.47c-.044 0-.087-.003-.13-.01-.042-.004-.084-.013-.126-.026-.04-.01-.082-.023-.122-.04-.04-.017-.077-.036-.114-.06-.038-.02-.074-.044-.108-.07-.033-.026-.066-.055-.096-.085-.03-.03-.06-.063-.086-.097-.025-.033-.05-.07-.07-.107-.023-.038-.04-.077-.06-.116-.015-.04-.03-.08-.04-.122-.012-.04-.02-.083-.026-.126-.006-.042-.01-.085-.01-.128V4.473c0-.043.004-.086.01-.13.005-.042.014-.084.026-.125.01-.042.024-.083.04-.123.018-.038.037-.077.06-.114.02-.036.045-.072.07-.107.027-.033.056-.065.086-.096.03-.03.063-.06.096-.085.034-.026.07-.05.108-.07.037-.023.075-.042.114-.06.04-.016.08-.03.122-.04.042-.013.084-.02.127-.027.043-.007.086-.01.13-.01h51.054c.043 0 .086.004.13.01.042.006.084.014.125.026.04.012.082.026.12.042.04.017.08.036.116.06.037.02.073.044.107.07.034.026.066.055.097.085.03.03.06.063.085.096.026.035.05.07.07.108.023.038.042.077.06.116.016.04.03.08.04.122.013.04.02.083.027.126.006.043.01.086.01.13v51.054c0 .043-.004.086-.01.128-.006.043-.014.085-.027.126-.01.042-.024.083-.04.122-.017.04-.036.078-.06.115-.02.037-.044.073-.07.106-.026.034-.055.067-.085.097-.03.03-.063.06-.097.086-.034.024-.07.048-.107.07-.037.022-.076.04-.116.057-.038.017-.08.03-.12.04-.042.014-.084.023-.127.028-.043.006-.086.01-.13.01H4.478" fill-rule="evenodd" fill="#003499"/><g><path d="M12.897 25.542l37.94-8.048C51.52 25.11 39.564 28.26 33.65 30.012l-17.407.894-3.348-5.364M15.474 34.003l35.5-5.305.093 1.303-34.85 5.4-.743-1.397" fill-rule="evenodd" fill="#fff"/><path d="M33.095 32.402c1.034 0 1.873.77 1.873 1.722 0 .95-.84 1.722-1.873 1.722s-1.872-.77-1.872-1.722c0-.95.84-1.722 1.872-1.722" fill-rule="evenodd" fill="#fff"/><path d="M33.095 33.382c.447 0 .81.334.81.744s-.363.744-.81.744-.807-.334-.807-.744.36-.744.807-.744" fill-rule="evenodd" fill="#039"/><path d="M15.94 38.108l35.034-4.934.093 9.122-35.22.093.092-4.282" fill-rule="evenodd" fill="#fff"/><path d="M0 0c1.24 1.25 1.77 2.41-.492 3.223 1.93 1.238 2.04 2.55.328 3.933l.588.306" stroke="#fff" stroke-miterlimit="22.926" stroke-width="1.031" fill="none" transform="matrix(0 1.02304 1.02133 0 8.315 37.67)"/></g></svg>
