<svg xmlns="http://www.w3.org/2000/svg" width="80" height="60"><path d="M.395.243V.23C.395.15.4.073.412-.005.422-.08.438-.157.46-.232c.02-.076.044-.15.074-.22.03-.073.065-.142.105-.21.038-.067.082-.132.13-.194.046-.06.1-.12.154-.175.054-.056.113-.108.174-.155.062-.048.127-.09.194-.13.068-.04.137-.074.21-.104.07-.03.145-.054.22-.075.075-.02.152-.037.23-.048.077-.01.154-.016.23-.016h50.5c.078.002.155.007.232.018.077.01.154.026.23.047.075.02.15.045.22.075.072.03.142.065.21.106.067.038.13.08.193.13.062.046.12.098.175.153.055.053.108.113.155.174.047.062.09.127.13.195.04.066.074.135.104.207.03.072.056.145.076.22.02.076.038.152.05.23.01.077.015.155.014.232v32.46c0 .078-.006.156-.016.233-.01.078-.027.154-.048.228-.02.077-.045.15-.074.222-.03.072-.066.142-.106.21-.038.067-.082.132-.13.193-.047.062-.1.12-.154.175-.055.056-.113.107-.175.155-.062.047-.126.09-.194.13-.067.04-.137.073-.208.104-.073.028-.147.054-.222.074-.075.02-.152.037-.23.05-.076.01-.153.015-.23.014h-50.5c-.077 0-.154-.006-.232-.016-.076-.01-.153-.027-.228-.048-.075-.02-.15-.045-.22-.074-.073-.03-.142-.066-.21-.106-.067-.038-.132-.082-.194-.13-.06-.047-.12-.098-.174-.154-.056-.055-.108-.113-.155-.175-.048-.06-.092-.126-.13-.194-.04-.066-.075-.136-.106-.208-.03-.072-.054-.146-.075-.22-.022-.075-.038-.152-.05-.23-.01-.076-.015-.154-.015-.232V.243z" fill-rule="evenodd" stroke="none" transform="matrix(-1.37583 0 0 1.51022 77.742 5.143)" fill="#e72512" stroke-width="1.025"/><g stroke="#000" stroke-width="1.025"><path d="M0 0v33.814c0 .098.007.196.02.293.014.097.034.193.06.288.025.094.056.188.094.278.038.09.083.178.133.262.048.085.103.167.163.245.06.077.124.15.194.22s.142.135.22.194c.078.06.16.114.245.163.083.05.17.094.26.13.092.04.185.07.28.097.094.026.19.047.287.06.097.014.195.02.293.02h52.12c.098 0 .195-.007.293-.02.097-.014.193-.034.287-.06.095-.025.188-.057.28-.095.09-.04.177-.083.26-.133.086-.05.168-.103.245-.163.078-.06.152-.124.22-.194.07-.07.136-.143.195-.22.06-.078.114-.16.163-.245.05-.084.094-.172.13-.262.04-.09.07-.184.096-.278.026-.095.046-.19.06-.288.014-.097.02-.195.02-.293V-.018c0-.098-.008-.196-.02-.293-.014-.098-.034-.194-.06-.288-.025-.095-.057-.188-.095-.28-.038-.09-.082-.177-.132-.26-.05-.086-.103-.168-.163-.246-.06-.077-.125-.15-.194-.22-.07-.07-.143-.135-.22-.194-.078-.06-.16-.114-.245-.163-.083-.05-.17-.095-.26-.132-.092-.038-.185-.07-.28-.095-.094-.027-.19-.048-.287-.06-.097-.015-.195-.02-.293-.02H2.25c-.098 0-.196.007-.293.02-.097.013-.193.033-.288.06-.096.024-.19.056-.28.094-.09.038-.177.082-.26.132-.086.048-.168.102-.246.162-.078.06-.15.125-.22.194-.07.07-.135.143-.195.22-.06.078-.115.16-.163.245-.05.085-.094.173-.132.264-.038.09-.07.183-.095.278-.026.094-.047.19-.06.287C.006-.215 0-.117 0-.02V0z" fill="none" stroke-width=".221" stroke-linejoin="bevel" stroke-miterlimit="22.926" transform="matrix(-1.37583 0 0 1.51022 78.95 4.48)"/><path d="M0 0v-.018c0-.1.007-.2.02-.298.014-.098.034-.196.062-.292.025-.096.057-.19.095-.283.04-.093.084-.182.135-.267.05-.087.104-.17.165-.25.06-.078.127-.152.198-.222.07-.07.144-.137.223-.197.08-.06.162-.116.25-.165.085-.05.174-.096.266-.134.092-.04.186-.07.282-.097.096-.027.194-.048.293-.06.097-.015.197-.022.296-.02h52.12c.1 0 .2.006.298.02.1.013.197.033.293.06.096.025.19.057.283.096.09.04.18.084.266.135.086.05.17.104.248.165.08.06.154.127.224.198.07.07.137.145.198.224.06.08.116.162.165.25.052.084.096.174.135.265.038.09.07.186.096.282.03.096.05.194.063.293.014.098.02.197.02.297v33.832c0 .1-.007.2-.02.298-.014.1-.034.196-.062.292-.024.097-.056.19-.095.283-.038.092-.083.18-.134.266-.048.087-.103.17-.164.25-.06.078-.127.153-.198.223-.07.07-.145.137-.224.197-.08.06-.162.117-.248.166-.086.05-.175.094-.267.132-.093.04-.187.07-.283.097-.096.026-.194.047-.293.06-.098.015-.198.02-.297.02H2.287c-.1 0-.2-.007-.3-.02-.097-.014-.195-.034-.29-.06-.097-.026-.192-.058-.284-.097-.09-.038-.18-.083-.266-.134-.087-.05-.17-.106-.248-.167-.08-.06-.155-.126-.225-.197-.07-.07-.137-.145-.198-.224-.06-.08-.116-.162-.165-.25-.05-.084-.095-.173-.134-.265-.038-.092-.07-.187-.096-.283-.028-.096-.048-.193-.062-.292-.014-.1-.02-.198-.02-.298V0z" fill="none" stroke-width="1.387" stroke-linejoin="bevel" stroke-miterlimit="22.926" transform="matrix(-1.37583 0 0 1.51022 79 4.48)"/></g><path d="M70.193 9.76H9.773V49.33h60.42V9.76z" fill="#fff"/><path d="M0 0v-.014l-.002.007L0 0z" fill="#a7a9ac" fill-rule="evenodd" stroke="#231f20" stroke-width=".221" stroke-linejoin="bevel" stroke-miterlimit="22.926" transform="matrix(-1.37583 0 0 1.51022 52.83 21.136)"/><path d="M-1.022 5.913l.79 2.946.005.016c.007.025.01.05.015.076.003.026.006.052.006.078 0 .03 0 .063-.003.095s-.008.064-.016.095c-.007.03-.016.06-.028.09-.01.03-.025.06-.04.088-.015.028-.032.055-.05.08-.02.027-.04.05-.062.074-.022.024-.046.046-.07.066-.025.02-.05.038-.08.055-.026.017-.054.032-.083.045-.03.012-.06.024-.09.032-.03.01-.06.017-.092.022-.032.005-.064.008-.096.008s-.064 0-.095-.003c-.032-.003-.064-.01-.095-.016-.03-.007-.062-.016-.09-.027-.03-.012-.06-.025-.088-.04l-.008-.005-.01-.005-9.072-5.233 9.073-5.186.016-.01c.022-.01.045-.022.07-.032.023-.01.047-.018.07-.025.032-.01.063-.017.095-.02.03-.006.063-.01.095-.01s.064 0 .096.004c.03.005.062.01.093.018.03.007.062.017.09.028.03.012.06.025.088.04.03.016.056.033.082.052.026.02.05.04.073.062.024.022.045.045.065.07.02.025.04.05.055.078.017.028.032.056.045.085.013.03.024.06.032.09.01.03.017.062.02.094.006.03.01.063.01.095s0 .064-.004.096c-.003.03-.01.063-.017.094v.01L-.235.09l-.785 2.897h27.626c.064.002.127.007.19.017.064.01.126.025.187.043.062.017.122.04.18.065.058.026.115.057.17.09.054.033.106.07.156.11.048.04.095.084.14.13.043.047.084.096.122.147.037.05.07.105.1.162.032.056.06.114.082.173.023.06.042.12.056.183.012.048.022.097.03.146.005.05.01.098.01.147V4.475c0 .064-.005.128-.014.19-.01.064-.023.127-.042.188-.017.062-.038.122-.063.18-.025.06-.054.116-.088.17-.032.055-.068.108-.108.158-.04.05-.083.097-.13.14-.045.046-.093.088-.145.126-.052.038-.106.072-.162.103-.056.03-.113.058-.173.08-.06.024-.12.044-.182.06-.053.013-.106.023-.16.03-.053.008-.107.012-.16.012H-1.023z" fill-rule="evenodd" stroke="#231f20" stroke-width=".221" stroke-linejoin="bevel" stroke-miterlimit="22.926" transform="matrix(-1.37583 0 0 1.51022 52.29 23.335)"/><path d="M0 0v-.014l.002.007L0 0z" fill="#a7a9ac" fill-rule="evenodd" stroke="#231f20" stroke-width=".221" stroke-linejoin="bevel" stroke-miterlimit="22.926" transform="matrix(-1.37583 0 0 1.51022 27.168 38.81)"/><path d="M34.94 34.73h-1.6v8.792h1.6V34.73zM51.556 34.73h-1.6v8.792h1.6V34.73zM43.248 34.73h-1.6v8.792h1.6V34.73z" fill="#fff"/></svg>
