<svg xmlns="http://www.w3.org/2000/svg" height="60" width="60"><g stroke="#000" fill="#fff"><path stroke-linejoin="bevel" d="M58.946 4.482V55.55c0 .147-.01.294-.032.44-.02.148-.05.293-.09.435-.037.144-.085.285-.142.42s-.124.27-.2.397c-.073.13-.156.25-.246.37-.09.116-.188.227-.294.332-.103.105-.215.203-.33.293-.12.09-.243.173-.37.246-.128.075-.26.14-.397.198-.137.058-.278.107-.42.144-.143.04-.288.072-.435.092-.147.02-.294.03-.442.03H4.454c-.147 0-.296-.01-.442-.03-.147-.02-.292-.05-.435-.092-.143-.036-.283-.083-.42-.14-.136-.06-.268-.126-.396-.2-.127-.074-.25-.157-.368-.247-.117-.09-.23-.188-.332-.293-.106-.105-.204-.216-.295-.333-.09-.117-.17-.24-.245-.368-.075-.128-.14-.26-.2-.396-.056-.137-.104-.277-.142-.42-.04-.143-.07-.288-.092-.435-.02-.146-.03-.294-.03-.44V4.454c0-.148.012-.295.03-.443.022-.146.05-.29.092-.433.037-.145.084-.286.14-.422.06-.137.126-.27.202-.396.074-.13.155-.253.245-.37.09-.117.19-.227.295-.332.103-.105.215-.203.332-.293.117-.09.24-.173.37-.247.127-.075.26-.14.396-.198.136-.057.276-.105.42-.144.142-.04.288-.07.434-.092.146-.02.295-.03.442-.028h51.094c.148 0 .295.01.442.03.147.02.292.05.435.09.143.037.283.085.42.143.137.058.27.124.396.2.13.074.253.157.37.247.117.09.23.188.332.293.106.105.204.215.295.333.09.116.172.24.245.37.075.126.142.26.2.395.056.137.104.277.142.42.04.143.072.288.092.435.02.147.03.294.03.442V4.48z" stroke-miterlimit="22.926" stroke-width=".22814015"/><path stroke-linejoin="bevel" d="M59 4.482v-.028c0-.15-.01-.3-.03-.45-.02-.148-.052-.296-.092-.44-.038-.146-.087-.288-.145-.427-.058-.14-.126-.274-.203-.402-.074-.13-.158-.256-.25-.376-.09-.12-.19-.233-.298-.34-.106-.106-.22-.206-.337-.297-.12-.092-.245-.175-.376-.25-.13-.077-.265-.144-.404-.202-.14-.057-.28-.106-.427-.145-.146-.04-.293-.072-.443-.093-.148-.02-.298-.03-.45-.03H4.455c-.15 0-.3.012-.45.03-.148.022-.296.052-.44.093-.146.038-.29.086-.43.145-.137.058-.27.125-.4.203-.13.075-.257.16-.375.25-.12.092-.233.19-.34.298-.106.107-.206.22-.298.34-.092.118-.176.244-.25.375-.076.128-.143.263-.202.402-.058.14-.106.28-.145.427-.042.144-.073.292-.094.44-.02.15-.03.3-.03.45V55.55c.002.15.012.3.033.45.02.147.05.294.092.44.037.146.086.288.144.427.058.138.125.273.202.402.074.13.158.255.25.375.092.118.192.232.298.337.107.108.22.207.34.3.117.09.243.174.374.25.13.076.263.143.402.2.14.06.282.108.427.147.145.04.293.07.442.092.148.02.3.03.45.03h51.093c.15-.002.3-.012.45-.032.15-.02.296-.05.44-.09.147-.04.29-.087.428-.147.14-.058.273-.125.403-.202.13-.074.255-.158.375-.25.118-.09.23-.19.337-.298.108-.105.207-.22.3-.337.09-.12.174-.245.248-.376.077-.13.144-.265.202-.404.058-.138.106-.28.146-.426s.072-.293.093-.442c.022-.15.032-.3.03-.45V4.483z" stroke-miterlimit="22.926" stroke-width="2.00006275"/></g><path d="M56.515 4.482v-.008c0-.043-.003-.086-.01-.128-.004-.043-.013-.085-.026-.127-.01-.042-.025-.083-.042-.123-.016-.04-.035-.078-.058-.114-.02-.038-.045-.074-.072-.108-.025-.034-.054-.066-.084-.096-.03-.032-.063-.06-.097-.087-.033-.025-.07-.05-.107-.07-.037-.023-.076-.04-.115-.06-.04-.015-.08-.03-.12-.04-.043-.012-.085-.02-.128-.026-.042-.006-.085-.01-.128-.01H4.472c-.043 0-.085.004-.128.01-.042.005-.085.014-.126.026-.043.01-.084.025-.123.04-.04.018-.08.037-.116.06-.035.02-.07.045-.105.07-.035.027-.067.055-.097.086-.03.03-.06.06-.085.095-.027.034-.05.07-.072.108-.02.036-.04.075-.057.114-.016.04-.03.08-.04.122-.012.04-.02.083-.028.126-.006.042-.01.085-.008.128V55.53c0 .042.002.085.008.128.007.042.016.085.027.126.01.042.025.083.04.122.018.04.038.078.06.115s.044.074.07.108c.026.034.055.066.086.097s.062.06.097.085c.034.026.07.05.106.07s.077.042.117.06c.04.016.08.03.122.04.04.013.083.02.125.027.043.006.085.01.128.008H55.53c.042 0 .085-.002.127-.008.043-.006.085-.014.127-.026.04-.01.08-.024.12-.04.04-.017.08-.036.116-.06.038-.02.074-.044.107-.07.034-.026.067-.054.097-.085.03-.03.06-.063.085-.097.025-.034.05-.07.07-.107.023-.036.04-.074.058-.114.017-.04.03-.08.04-.122.014-.04.023-.084.03-.126.004-.043.007-.086.007-.13V4.483" fill-rule="evenodd" fill="#039"/><path d="M2.81 26.228h31.245v8.225H2.81v-8.225z" fill="#fff"/><path d="M30.21 31.77V28.3h27.418v3.47H30.21z" fill="#fff"/><path d="M25.865 57.4V28.287h8.226v29.11h-8.225z" fill="#fff"/></svg>
