<svg xmlns="http://www.w3.org/2000/svg" xmlns:xlink="http://www.w3.org/1999/xlink" width="60" height="60"><symbol id="a"><path d="M30 7.75L4.312 52.25v.03l.032.032H55.78c.007-.01.026-.02.032-.03L30 7.75zm-7.688 17.063c.028-.003.035 0 .063 0h14.03c.024 0 .074-.003.095 0 .024.004.04.026.063.03.026.007.037-.008.062 0 .026.01.07.02.094.032.024.01.04.05.06.063.024.015.042.013.064.03.02.017.045.044.062.063.018.02.018.042.032.064.014.02.05.04.062.062.01.023-.007.04 0 .063.007.022.026.037.03.06.005.025 0 .07 0 .095.003.025.003.037 0 .063 0 .023.007.038 0 .062-.006.024-.02.04-.03.063-.01.022-.018.072-.03.093L29.937 36.25v.03c-.012.018-.02.016-.032.032-.013.016-.016.05-.03.063-.02.02-.042.016-.064.03-.02.016-.07.05-.093.064-.025.01-.04.02-.064.03-.025.01-.035-.006-.062 0-.027.007-.067.027-.094.03-.028.006-.066 0-.094 0-.027 0-.033.004-.062 0-.028 0-.068.006-.094 0-.027-.005-.036-.02-.063-.03-.026-.007-.07-.02-.093-.03l-.063-.032c-.02-.014-.04-.046-.06-.063-.02-.016-.048-.012-.064-.03-.018-.02-.047-.042-.062-.064v-.03l-7-10.594c-.012-.017-.023-.044-.032-.062-.008-.018-.025-.043-.03-.063-.008-.02.004-.036 0-.06-.005-.025-.03-.07-.032-.095 0-.024-.002-.04 0-.063.003-.025.025-.038.03-.062.008-.024.022-.04.032-.063.01-.022.018-.072.032-.093.012-.02.015-.012.03-.032.017-.02.045-.045.064-.062.02-.018.04-.046.062-.063.02-.015.037-.018.063-.03.022-.014.037-.022.062-.032.026-.01.068-.023.094-.03.025-.008.065-.028.093-.032zm0 13.5c.028-.004.035 0 .063 0h14.03c.024 0 .074-.004.095 0 .024.004.04.026.063.03.026.007.037-.01.062 0 .026.01.07.02.094.032.024.01.04.05.06.063.024.014.042.013.064.03.02.017.045.044.062.063.018.02.018.042.032.064.014.02.05.04.062.062.01.023-.007.04 0 .063.007.022.026.037.03.06.005.025 0 .07 0 .095.003.025.003.037 0 .063 0 .023.007.038 0 .062-.006.024-.02.04-.03.063-.01.022-.018.072-.03.093L29.937 49.75v.03c-.012.018-.02.016-.032.032-.013.016-.016.05-.03.063-.02.02-.042.016-.064.03-.02.016-.07.05-.093.064-.025.01-.04.02-.064.03-.025.01-.035-.006-.062 0-.027.007-.067.027-.094.03-.028.006-.066 0-.094 0-.027 0-.033.004-.062 0-.028 0-.068.006-.094 0-.027-.005-.036-.02-.063-.03-.026-.007-.07-.02-.093-.03l-.063-.032c-.02-.014-.04-.046-.06-.063-.02-.016-.048-.012-.064-.03-.018-.02-.047-.042-.062-.064v-.03l-7-10.594c-.012-.017-.023-.044-.032-.062-.008-.018-.025-.043-.03-.063-.008-.02.004-.036 0-.06-.005-.025-.03-.07-.032-.095 0-.024-.002-.04 0-.063.003-.024.025-.038.03-.062.008-.024.022-.04.032-.063.01-.022.018-.072.032-.093.012-.02.015-.012.03-.032.017-.02.045-.044.064-.062.02-.018.04-.048.062-.063.02-.014.037-.018.063-.03.022-.014.037-.022.062-.032.026-.01.068-.023.094-.03.025-.008.065-.028.093-.032z"/></symbol><use xlink:href="#a"/></svg>
