<svg xmlns="http://www.w3.org/2000/svg" xmlns:xlink="http://www.w3.org/1999/xlink" width="60" height="60"><symbol id="a"><path d="M25.755 39.302v.033c0 .184.014.368.04.55.023.182.06.362.11.54.047.177.106.35.177.52.07.17.154.335.248.493.092.16.194.312.306.458.112.146.234.283.364.413.13.13.267.252.413.364.146.112.3.214.458.305.16.092.324.174.493.245.17.07.344.13.522.178.177.05.357.09.54.114.18.026.365.038.55.037h.065c.184 0 .367-.014.55-.04.182-.023.362-.06.54-.11.177-.047.35-.106.52-.177.17-.07.334-.154.493-.248.16-.093.312-.195.458-.307.147-.112.284-.234.414-.364.13-.13.252-.268.364-.414.112-.146.214-.3.306-.458.093-.16.175-.323.246-.492.07-.17.13-.344.178-.522.05-.177.09-.357.114-.54.026-.18.038-.365.037-.55V20.56c-.002-.184-.015-.367-.04-.55-.024-.18-.062-.362-.112-.54-.046-.177-.105-.35-.176-.52-.072-.17-.154-.334-.248-.492-.092-.16-.194-.313-.306-.46-.112-.144-.234-.282-.364-.41-.13-.132-.267-.254-.413-.366-.145-.112-.298-.214-.457-.305-.16-.094-.323-.176-.493-.247-.17-.07-.344-.13-.52-.178-.178-.05-.36-.088-.54-.114-.183-.026-.366-.038-.55-.037h-.066c-.184.002-.368.015-.55.04-.182.025-.362.062-.54.112-.177.046-.35.105-.52.177-.17.07-.335.153-.493.247-.158.09-.31.193-.457.305-.146.112-.283.234-.413.365-.13.13-.253.267-.365.412-.112.145-.214.298-.305.458-.093.158-.175.323-.246.492-.07.17-.13.344-.178.52-.05.18-.09.36-.114.54-.026.183-.038.366-.037.55v18.742z"/></symbol><use xlink:href="#a"/></svg>
