<svg xmlns="http://www.w3.org/2000/svg" height="60" width="60"><path d="M9.716 9.71v40.575H50.29V9.71H9.715z" fill="#fff"/><path stroke-linejoin="bevel" d="M-194.06 253.46h62.435c.18 0 .362-.014.54-.037.18-.025.357-.062.532-.112.175-.044.348-.103.514-.173s.33-.15.485-.243c.157-.09.31-.192.45-.302.145-.11.28-.23.41-.358.127-.128.247-.263.357-.407s.212-.295.3-.45c.093-.157.174-.32.243-.486.07-.166.13-.338.176-.513.05-.173.088-.352.114-.53.025-.18.037-.36.036-.54v-62.47c0-.18-.014-.36-.04-.54-.023-.18-.06-.357-.11-.532-.044-.175-.103-.346-.173-.514-.07-.165-.152-.328-.245-.483-.09-.157-.19-.307-.3-.45s-.23-.28-.358-.407c-.128-.13-.264-.25-.408-.36-.142-.11-.294-.21-.45-.3-.156-.092-.32-.173-.485-.243-.166-.07-.338-.128-.513-.175-.175-.05-.352-.087-.53-.112s-.36-.038-.542-.036h-62.468c-.18 0-.363.013-.54.037-.18.025-.36.062-.532.112-.176.045-.348.103-.514.173-.167.07-.328.152-.484.245-.157.09-.308.19-.452.3-.142.11-.278.23-.406.36-.13.127-.25.262-.36.406-.11.144-.21.294-.3.45-.09.158-.172.32-.242.486-.07.167-.13.34-.175.513-.05.175-.087.352-.112.532-.025.18-.037.36-.036.54v62.47c0 .18.014.36.04.54.023.18.06.357.11.53.044.176.103.348.173.514.07.17.15.33.243.486.09.157.19.308.3.452s.232.278.36.406c.128.13.264.25.406.36.144.11.296.21.452.3.156.09.318.172.485.242.168.07.34.128.515.175.174.05.352.09.53.114s.36.037.542.036h.032z" stroke="#000" stroke-miterlimit="22.926" stroke-width=".278" fill="#fff" transform="matrix(.8179 0 0 .81793 163.205 -148.37)"/><path stroke-linejoin="bevel" d="M-194.06 253.53h-.034c-.183 0-.367-.014-.548-.04-.183-.023-.364-.06-.54-.11-.18-.046-.353-.106-.523-.177-.17-.072-.334-.154-.492-.248-.16-.092-.313-.194-.458-.306-.146-.114-.284-.235-.414-.366-.13-.13-.25-.266-.364-.413s-.213-.297-.305-.457c-.092-.16-.175-.324-.246-.493-.072-.17-.13-.344-.178-.522-.05-.177-.09-.358-.113-.54-.027-.182-.04-.365-.038-.55V186.84c0-.184.014-.368.04-.55.024-.183.06-.363.11-.54.047-.178.106-.353.177-.523.072-.168.154-.333.25-.49.09-.16.192-.313.304-.46s.234-.283.365-.413c.13-.13.27-.253.414-.364.146-.113.3-.215.458-.306.16-.094.324-.175.493-.247.17-.07.345-.13.522-.178.177-.05.358-.09.54-.115.182-.027.365-.038.55-.036h62.47c.183 0 .367.012.548.036.182.025.362.063.54.113.18.045.352.104.522.176.17.07.334.154.493.248.16.09.313.193.458.306.146.11.285.234.413.364.133.13.254.267.366.413.112.147.214.3.307.46.092.158.175.322.246.492.07.17.13.342.176.52.052.177.09.36.115.54.026.182.04.366.037.55v62.47c0 .183-.013.366-.038.55-.026.18-.064.36-.114.538-.046.178-.105.352-.176.522-.07.17-.154.334-.247.493-.093.16-.195.312-.307.458-.112.146-.233.285-.365.414-.127.13-.266.254-.412.365-.145.11-.3.214-.458.305-.16.093-.324.175-.492.246-.17.073-.345.13-.523.18-.177.05-.357.088-.54.114-.18.025-.365.037-.55.036h-62.435z" stroke="#000" stroke-miterlimit="22.926" stroke-width="2.445" fill="#fff" transform="matrix(.8179 0 0 .81793 163.205 -148.37)"/><path d="M4.9 57.168h-.016c-.09 0-.178-.008-.266-.02-.09-.012-.176-.03-.263-.054-.086-.022-.17-.05-.253-.085-.083-.035-.162-.076-.238-.122-.078-.044-.152-.094-.224-.148-.07-.055-.138-.114-.2-.178-.063-.062-.123-.13-.177-.2-.054-.07-.104-.145-.148-.222-.045-.077-.085-.157-.12-.24-.035-.082-.063-.167-.086-.252-.026-.087-.044-.174-.056-.263-.013-.088-.02-.178-.018-.266V4.876c0-.09.007-.18.02-.267.01-.088.028-.176.053-.262.02-.087.05-.17.085-.254.034-.082.074-.162.12-.24.045-.076.094-.15.148-.22.054-.072.114-.138.177-.202.062-.063.13-.122.2-.177.072-.054.146-.103.224-.148.076-.045.156-.085.238-.12.082-.034.167-.063.253-.086.087-.024.174-.042.263-.054.088-.013.177-.02.266-.018h50.242c.09 0 .178.006.266.018.09.012.176.03.263.055.086.024.17.052.253.087.083.034.162.074.24.12.076.045.15.094.22.148.072.055.138.114.202.177.063.064.123.13.177.2.054.072.103.146.148.223.045.077.085.157.12.24.034.082.063.166.086.253.025.086.044.174.056.262.013.088.02.177.018.267V55.12c0 .087-.005.177-.018.265-.012.09-.03.176-.055.263-.02.085-.05.17-.085.253-.034.083-.074.163-.12.24-.045.077-.094.152-.148.222-.054.07-.114.138-.177.2-.064.064-.13.124-.2.178-.072.054-.146.104-.223.148-.077.045-.156.085-.24.12-.08.034-.166.063-.252.086-.087.024-.174.043-.263.056-.088.013-.177.018-.266.018H4.9z" fill-rule="evenodd" fill="#e72512"/><path d="M10.675 10.668v38.668H49.34V10.668H10.676z" fill="#fff"/><path d="M11.938 30.25v10.625h47.28V30.25H11.94z" fill-rule="evenodd" transform="matrix(.8179 0 0 .81793 .91 .907)" stroke-miterlimit="22.926" stroke-width=".278" stroke="#000"/><path d="M33 11.938v47.28h4.47V11.94H33z" fill-rule="evenodd" transform="matrix(.8179 0 0 .81793 1.316 .91)" stroke-miterlimit="22.926" stroke-width=".278" stroke="#000"/></svg>
