<svg xmlns="http://www.w3.org/2000/svg" height="60" width="60"><g stroke="#000" fill="#fff"><path stroke-linejoin="bevel" d="M4.483 58.944H55.55c.148 0 .295-.01.442-.032.147-.02.292-.05.434-.09.144-.037.285-.085.42-.142s.27-.124.397-.2c.13-.073.25-.156.37-.246.116-.09.227-.188.332-.294.105-.103.203-.215.293-.33.09-.12.173-.243.246-.37.075-.128.14-.26.198-.397.058-.137.106-.278.143-.42.04-.143.072-.288.093-.435.02-.147.03-.294.03-.442V4.452c-.002-.147-.012-.296-.03-.442-.02-.147-.052-.292-.093-.435-.036-.143-.083-.283-.14-.42-.06-.136-.126-.268-.2-.396-.074-.13-.157-.253-.247-.37-.09-.117-.188-.23-.293-.332-.105-.106-.216-.204-.333-.295-.118-.09-.24-.17-.37-.245-.127-.075-.26-.14-.395-.2-.137-.056-.277-.104-.42-.142-.143-.04-.288-.07-.435-.092-.147-.02-.295-.03-.442-.03H4.456c-.148 0-.295.012-.443.03-.146.022-.29.05-.433.092-.144.037-.285.084-.42.14-.138.06-.27.126-.397.202-.13.074-.252.155-.37.245-.117.09-.227.19-.332.295-.104.103-.202.215-.292.332-.09.117-.173.24-.247.37-.073.127-.14.26-.197.396-.056.136-.105.276-.143.42-.04.142-.07.288-.093.434-.02.146-.03.295-.028.442v.013l-.002.015v51.066c0 .148.01.295.032.442.02.147.05.292.09.435.036.143.084.283.142.42.057.137.124.27.2.396.073.127.156.25.246.368.09.117.188.23.293.332.106.106.216.204.334.295.117.09.24.172.37.245.126.075.26.142.395.2.136.056.276.104.42.142.142.04.287.072.434.092.147.02.294.03.442.03h.027z" stroke-miterlimit="22.926" stroke-width=".22814015"/><path stroke-linejoin="bevel" d="M4.483 59h-.028c-.15-.002-.3-.012-.45-.033-.148-.02-.295-.05-.44-.09-.146-.04-.288-.088-.427-.146-.138-.057-.273-.125-.402-.202-.13-.074-.256-.158-.376-.25-.12-.09-.232-.19-.337-.298-.108-.106-.208-.22-.3-.337-.09-.12-.174-.245-.25-.376-.076-.13-.143-.264-.2-.403-.06-.14-.108-.28-.147-.427-.04-.145-.072-.292-.093-.442-.02-.148-.03-.298-.03-.45V4.453c0-.15.012-.3.03-.45.022-.148.052-.296.093-.44.038-.146.086-.29.145-.43.06-.137.126-.27.204-.4.075-.13.16-.257.25-.375.092-.12.19-.232.3-.34.104-.105.216-.205.336-.297.12-.092.245-.176.376-.25.13-.076.264-.143.402-.202.14-.058.28-.106.427-.145.145-.042.292-.073.44-.094.15-.022.3-.032.45-.03H55.55c.15 0 .3.01.45.03.148.02.295.052.44.093.147.037.29.086.428.144.138.06.274.126.402.203.13.074.256.158.376.25s.232.192.338.298c.107.107.206.22.298.34.092.117.175.243.25.374.077.13.144.263.2.402.06.14.11.282.148.427.04.146.07.294.093.443.02.148.03.3.03.45v51.093c-.002.15-.012.3-.032.45-.02.15-.05.296-.09.44-.038.147-.086.29-.146.428-.058.14-.125.273-.202.403-.075.13-.16.256-.25.376-.092.118-.19.23-.298.337-.106.108-.22.207-.338.3-.12.09-.245.174-.376.248-.13.077-.264.144-.403.202-.138.058-.28.106-.426.146s-.292.072-.44.093c-.15.02-.3.03-.45.03H4.483z" stroke-miterlimit="22.926" stroke-width="2.00006275"/></g><path d="M4.483 56.513h-.008c-.043 0-.086-.003-.128-.01-.043-.004-.085-.013-.127-.026-.04-.01-.082-.024-.122-.04-.04-.017-.077-.036-.114-.06-.038-.02-.074-.044-.108-.07-.033-.026-.066-.055-.096-.085-.03-.03-.06-.063-.086-.097-.025-.033-.05-.07-.07-.107-.023-.037-.04-.076-.06-.115-.015-.04-.03-.08-.04-.12-.012-.043-.02-.085-.026-.128-.006-.042-.01-.085-.01-.128V4.47c0-.042.004-.084.01-.127.005-.042.014-.085.026-.126.01-.042.025-.083.04-.122.018-.04.037-.08.06-.116.02-.037.045-.073.07-.107.027-.035.055-.067.086-.097.03-.03.063-.06.096-.085.034-.026.07-.05.108-.07.037-.022.075-.042.114-.06.04-.015.08-.03.122-.04.042-.01.084-.02.127-.027.042-.006.085-.01.128-.008H55.53c.043 0 .086.002.13.008.04.007.084.016.125.027.042.01.083.025.122.04.04.018.078.038.115.06s.073.044.107.07c.034.026.065.055.096.086s.06.062.085.097c.027.034.05.07.072.106s.04.075.06.115c.015.04.028.08.04.122.012.04.02.084.026.126.006.043.01.085.008.128v51.057c0 .043-.002.086-.008.128-.006.043-.014.085-.026.127-.01.04-.025.08-.04.12-.018.04-.037.08-.06.116-.02.038-.045.074-.07.107-.027.034-.055.067-.086.097-.03.03-.062.06-.097.085-.035.026-.07.05-.108.07-.037.024-.075.042-.115.06-.04.016-.08.03-.122.04-.04.013-.084.022-.126.028-.044.005-.087.008-.13.008H4.483" fill-rule="evenodd" fill="#039"/><path d="M25.893 2.815V57.65h8.226V2.816h-8.227z" fill="#fff"/><path d="M2.584 28.26v3.47H57.42v-3.47H2.584z" fill="#fff"/></svg>
