<svg xmlns="http://www.w3.org/2000/svg" height="60" width="60"><g stroke="#000" fill="#fff"><path stroke-linejoin="bevel" d="M55.515 58.935H4.448c-.148 0-.295-.01-.442-.032-.147-.02-.292-.05-.435-.09-.142-.036-.283-.085-.42-.142s-.268-.123-.395-.198c-.13-.074-.252-.157-.37-.247-.116-.09-.227-.188-.332-.293-.105-.104-.203-.215-.293-.332-.09-.118-.173-.24-.246-.37-.076-.127-.14-.26-.198-.396-.058-.136-.106-.277-.144-.42-.04-.143-.07-.288-.092-.434-.02-.148-.03-.295-.03-.442V4.443c.002-.147.012-.295.03-.442.02-.146.05-.29.092-.433.037-.144.084-.284.142-.42.058-.137.124-.27.2-.397.073-.128.156-.252.246-.37.09-.116.188-.227.293-.33.105-.107.216-.204.333-.295.117-.09.24-.172.37-.246.127-.075.26-.142.396-.2.136-.057.276-.105.42-.143.142-.04.287-.07.434-.092.147-.02.295-.03.442-.03h51.094c.148.002.295.012.442.03.147.022.292.052.434.092.143.037.285.084.42.142.138.057.27.123.398.2.128.073.25.155.368.245s.228.188.332.294c.106.103.204.214.294.33.09.118.173.242.247.37.074.128.14.26.198.397.056.136.104.276.143.42.04.143.07.288.092.434.02.148.03.296.03.443V55.54c0 .147-.01.294-.032.442-.02.146-.05.29-.09.434-.036.144-.085.284-.142.42-.057.137-.124.27-.2.397-.073.13-.156.252-.246.37-.09.117-.188.228-.294.332-.104.105-.214.203-.332.294-.117.09-.24.172-.368.246-.128.074-.26.14-.397.198-.138.057-.28.106-.422.143-.142.04-.287.072-.435.092-.146.02-.293.03-.44.03H55.514z" stroke-miterlimit="22.926" stroke-width=".22814015"/><path stroke-linejoin="bevel" d="M55.515 58.99h.028c.15 0 .3-.01.45-.03.148-.02.295-.052.44-.092.146-.038.29-.087.427-.146.14-.058.273-.125.402-.202.13-.075.256-.16.376-.25.12-.092.232-.192.337-.3.108-.105.208-.217.3-.336.09-.12.174-.245.25-.376.075-.13.143-.264.2-.403.06-.14.108-.28.147-.426.04-.147.072-.294.093-.443.02-.15.03-.3.03-.45V4.444c0-.15-.012-.3-.03-.45-.022-.148-.053-.295-.093-.44-.038-.146-.086-.29-.145-.428-.058-.14-.126-.273-.202-.4-.076-.132-.16-.258-.25-.377-.093-.12-.192-.232-.3-.34-.105-.105-.218-.205-.337-.296-.12-.092-.245-.176-.376-.25-.13-.077-.264-.144-.402-.202-.14-.06-.28-.107-.427-.146-.145-.042-.292-.072-.44-.094-.15-.02-.3-.03-.45-.03H4.448c-.15.002-.3.012-.45.032-.148.02-.296.05-.44.092-.147.037-.29.086-.428.145-.14.057-.274.124-.403.2-.13.076-.255.16-.375.252-.12.09-.232.19-.338.297-.107.106-.206.218-.298.338-.092.12-.175.245-.25.376-.077.128-.144.262-.202.402-.058.14-.107.28-.146.426-.04.146-.07.293-.093.442-.02.15-.03.3-.03.45v51.094c0 .15.012.3.032.45.02.148.05.295.09.44.04.146.087.29.146.427.06.14.126.273.203.403.075.13.16.256.25.376.092.12.19.23.298.337.106.11.22.208.338.3.12.09.245.175.375.25.13.077.264.143.404.2.14.06.282.108.427.148s.293.07.442.093c.147.02.298.03.448.03h51.067z" stroke-miterlimit="22.926" stroke-width="2.00006275"/></g><path d="M55.515 56.504h.008c.043 0 .086-.003.128-.01.044-.004.086-.013.128-.025.04-.012.082-.026.122-.042.038-.017.077-.036.114-.06.038-.02.074-.044.108-.07.033-.026.066-.054.096-.085.03-.03.06-.063.086-.096.025-.034.05-.07.07-.108.023-.038.04-.076.06-.115.015-.04.03-.08.04-.122.012-.042.02-.084.027-.127.006-.042.01-.085.01-.128V4.463c0-.043-.004-.086-.01-.13-.005-.04-.014-.084-.025-.125-.012-.042-.026-.083-.042-.122-.017-.04-.036-.08-.06-.115-.02-.036-.044-.072-.07-.106-.026-.035-.055-.066-.085-.097-.03-.03-.063-.06-.096-.085-.034-.026-.07-.05-.108-.07-.037-.023-.076-.042-.114-.06-.04-.016-.08-.03-.122-.04-.042-.012-.084-.02-.127-.027-.04-.006-.084-.01-.127-.008H4.468c-.043 0-.086.002-.13.008-.04.006-.084.015-.125.026-.042.012-.083.026-.122.042-.04.018-.078.037-.114.06s-.073.044-.107.07c-.036.026-.067.054-.098.085s-.06.062-.085.097c-.027.034-.05.07-.072.107s-.04.076-.058.116c-.015.04-.03.08-.04.122-.013.04-.02.084-.027.126-.007.043-.01.086-.01.13v51.054c0 .043.005.086.01.128.006.043.014.085.026.127.01.04.025.082.04.122.018.04.038.077.06.114.02.037.044.073.07.107.027.033.055.066.086.096.03.03.062.06.097.086.033.024.07.048.106.07.036.022.075.04.115.058.04.016.08.03.123.04.04.013.084.022.126.028.042.005.085.008.128.008h51.047" fill-rule="evenodd" fill="#039"/><path d="M46.843 52.085H13.12c-.05 0-.097-.006-.145-.014-.048-.006-.095-.017-.14-.03-.048-.015-.093-.03-.137-.05-.044-.02-.087-.042-.128-.068s-.08-.053-.118-.083c-.037-.03-.073-.064-.106-.1-.017-.017-.033-.037-.05-.056s-.03-.04-.046-.06l-.015-.022-4.142-6.076-.01-.012-.007-.012c-.026-.04-.05-.082-.07-.126-.02-.043-.038-.088-.053-.135-.015-.044-.027-.09-.035-.14-.01-.047-.015-.095-.017-.143s0-.096.003-.144.012-.096.023-.143c.01-.047.022-.093.04-.14.015-.044.034-.088.057-.13.02-.044.046-.086.074-.126.027-.04.057-.077.09-.113.03-.035.066-.068.103-.1.037-.03.076-.06.117-.085.04-.027.082-.05.125-.07.044-.02.09-.038.136-.054.046-.013.093-.025.14-.034.047-.01.095-.014.143-.016h42.064c.048 0 .096.004.144.012.046.008.093.018.14.032.046.013.09.03.135.05.044.02.087.042.128.068.04.024.08.052.12.083.036.03.07.063.104.098.034.035.065.072.093.11s.054.08.077.124c.022.042.043.086.06.13s.032.092.043.14c.012.045.02.093.025.14s.007.098.005.146c0 .048-.005.096-.012.144-.01.047-.02.094-.033.14-.013.047-.03.092-.05.136-.02.045-.042.087-.068.128l-.006.012-.007.013-.014.02-4.145 6.077-.016.024c-.03.04-.06.076-.092.112-.034.035-.07.068-.107.098-.035.03-.075.06-.116.084-.04.026-.084.048-.128.068-.044.02-.09.036-.135.05-.045.014-.092.025-.14.032-.025.005-.05.008-.076.01-.025.003-.05.004-.075.005h-.027M34.414 41.044H8.976c-.048 0-.097-.005-.145-.013-.046-.006-.094-.018-.14-.03s-.09-.03-.136-.05c-.044-.02-.086-.043-.127-.07-.042-.023-.08-.052-.118-.082-.038-.03-.074-.063-.107-.098-.034-.035-.064-.07-.093-.11-.028-.04-.054-.08-.077-.123s-.044-.087-.06-.132c-.017-.045-.032-.09-.043-.138-.01-.046-.02-.094-.024-.142s-.008-.096-.006-.145c0-.048.006-.096.013-.144.008-.047.018-.094.032-.14.014-.047.03-.092.05-.136s.04-.087.067-.128l.022-.034.023-.032.015-.022L33.532 5.58l.008-.012.01-.012c.03-.037.062-.073.097-.107.033-.035.07-.065.11-.094s.08-.055.12-.08c.044-.022.088-.043.133-.06.044-.018.09-.032.137-.044.047-.012.094-.02.142-.025.047-.006.095-.01.143-.008s.096.004.145.01.095.02.14.032c.048.013.093.03.137.05s.087.04.13.066c.04.024.08.052.116.082.04.03.076.062.11.097.033.034.063.07.092.11.03.04.055.08.08.122s.043.085.06.13.033.09.044.137c.012.047.02.095.026.143l.004.05c.002.016.002.032.002.048v33.75c0 .047-.005.095-.013.142-.007.048-.018.095-.032.14-.014.047-.03.093-.05.137s-.04.085-.067.126c-.026.042-.053.08-.084.12-.03.037-.062.07-.098.104-.035.034-.072.066-.11.093-.04.03-.08.054-.123.077-.04.024-.085.044-.13.06s-.09.032-.138.043c-.038.01-.077.018-.116.023-.038.005-.078.007-.116.008h-.026" fill-rule="evenodd" fill="#fff"/></svg>
