<svg xmlns="http://www.w3.org/2000/svg" xmlns:xlink="http://www.w3.org/1999/xlink" width="60" height="60"><symbol id="a"><path d="M36.727 21.515c0-1.13-.233-2.1-.697-2.91-.465-.807-1.263-1.443-2.394-1.908-.788-.323-1.707-.515-2.758-.576-1.05-.08-2.272-.12-3.666-.12H23v12.15h3.576c1.858 0 3.414-.09 4.666-.272 1.252-.182 2.303-.596 3.15-1.242.81-.626 1.395-1.313 1.76-2.06.383-.768.575-1.788.575-3.06m18.15 31.3h-14.21L28.362 36.273H23v16.545H11.425V7.697H30.94c2.666 0 4.958.152 6.878.455 1.92.303 3.716.96 5.393 1.97 1.698 1.01 3.04 2.323 4.03 3.94 1.01 1.595 1.516 3.605 1.516 6.03 0 3.332-.777 6.05-2.333 8.15-1.535 2.1-3.737 3.848-6.606 5.242l15.06 19.333"/></symbol><use xlink:href="#a"/></svg>
