<svg xmlns="http://www.w3.org/2000/svg" xmlns:xlink="http://www.w3.org/1999/xlink" width="60" height="60"><symbol id="a"><path d="M29.75 8.47c-.072.01-.15.04-.22.06-.068.02-.15.034-.218.064-.065.03-.126.055-.187.094-.05.03-.078.09-.125.124-.046.036-.114.053-.156.094-.005.005.004.026 0 .03L8.937 28.814v.03h-.03c-.05.053-.083.13-.126.188-.042.06-.09.125-.124.19-.035.062-.068.12-.094.186-.026.068-.046.148-.062.22-.017.07-.023.115-.03.186-.008.072-.004.147 0 .22 0 .07-.013.146 0 .218.01.07.04.15.06.22.022.068.034.12.064.186.028.067.056.158.094.22.03.05.09.077.124.124.036.046.053.083.094.125l.03.03 19.908 19.907.03.032c.053.05.1.082.157.125.06.04.124.09.19.124.06.036.12.068.186.093.068.026.148.047.22.063.07.016.115.024.186.03.073.01.147.003.22 0 .072 0 .146.012.218 0 .072-.01.15-.04.22-.06.068-.022.15-.034.218-.064.065-.03.126-.087.187-.125.05-.03.078-.057.125-.093.046-.035.114-.052.156-.093.005-.005-.004-.026 0-.032.005-.004.026.006.032 0l19.875-19.906.03-.03c.05-.053.083-.1.126-.157.042-.06.09-.125.124-.19.035-.062.068-.12.093-.186.027-.068.047-.148.063-.22.017-.07.024-.146.03-.218.01-.072.004-.116 0-.187 0-.074.012-.15 0-.22-.01-.072-.04-.15-.06-.22-.02-.068-.034-.15-.064-.218-.028-.066-.056-.126-.093-.187-.03-.05-.09-.08-.126-.125-.034-.046-.052-.114-.093-.156h-.032v-.032L31.189 8.938h-.032v-.03c-.052-.05-.13-.084-.187-.126-.06-.042-.124-.09-.19-.124-.062-.036-.12-.067-.186-.094-.068-.025-.148-.046-.22-.062-.07-.017-.115-.024-.186-.03-.073-.008-.147-.003-.22 0-.072 0-.146-.013-.218 0zM24 20.31c.024-.004.04 0 .063 0h12.186c.02 0 .043-.002.063 0 .02.004.012-.005.03 0 .024.007.072.024.094.032.023.008.042.02.063.03.02.012.043.02.063.032.02.015.045.045.062.063.017.015.016.01.03.03.017.018.02.04.032.063.014.02.053.04.063.062.01.02-.007.07 0 .094.006.022.027.038.03.06.004.026 0 .04 0 .064.002.023.003.04 0 .062 0 .025.007.07 0 .094-.004.024-.022.04-.03.063l-.03.062-6.095 10.5v.03c-.01.018-.02.017-.03.032-.014.016-.02.05-.032.063-.018.017-.045.016-.063.03-.018.017-.042.02-.063.032-.02.013-.04.053-.062.063-.023.01-.04-.006-.063 0-.023.007-.038.027-.062.03-.025.005-.07 0-.094 0-.023.002-.04.003-.062 0-.025-.002-.04.007-.063 0-.022-.005-.04-.02-.06-.03-.024-.008-.043-.02-.064-.03-.02-.012-.043-.018-.062-.032-.02-.015-.046-.047-.063-.063s-.046-.013-.06-.03c-.017-.02-.02-.043-.032-.064v-.03l-6.094-10.5c-.01-.017-.024-.045-.032-.064-.008-.018.006-.01 0-.03-.007-.023-.027-.07-.03-.095-.005-.023 0-.037 0-.062-.002-.024-.003-.04 0-.063.002-.024-.006-.07 0-.093.005-.025.022-.04.03-.064l.032-.062c.01-.02.017-.043.03-.063.015-.018.046-.044.064-.06.016-.02.012-.017.03-.032.02-.016.043-.05.063-.063.022-.013.04-.022.064-.03.02-.01.04.006.062 0 .023-.007.07-.03.094-.032zm-.094 12.157c.023-.008.07.002.094 0 .024-.005.04 0 .063 0h12.186c.02 0 .043-.003.063 0 .02.002.012-.005.03 0 .024.005.072.022.094.03l.063.03c.02.012.043.018.063.032.02.015.045.014.062.032.017.016.016.044.03.062.017.02.02.04.032.063.014.018.053.04.063.06.01.023-.007.04 0 .064.006.023.027.04.03.062.004.024 0 .07 0 .094.002.025.003.04 0 .063 0 .023.007.038 0 .062-.004.024-.022.07-.03.094l-.03.06-6.095 10.5c-.01.018-.02.048-.03.064-.014.015-.02.017-.032.03-.018.018-.045.048-.063.063-.018.016-.042.018-.063.032l-.062.03c-.023.01-.04.024-.063.03-.023.008-.038.028-.062.032-.025.005-.07 0-.094 0-.023.002-.04.003-.062 0-.025-.003-.04-.026-.063-.03-.022-.007-.04.007-.06 0-.024-.01-.043-.02-.064-.032-.02-.01-.043-.048-.062-.063-.02-.014-.046-.014-.063-.03-.017-.018-.046-.045-.06-.063-.017-.02-.02-.042-.032-.063l-6.094-10.5c-.01-.015-.024-.044-.032-.06-.008-.02.006-.044 0-.064-.007-.022-.027-.04-.03-.062-.005-.025 0-.038 0-.063-.002-.022-.003-.07 0-.093.002-.024-.006-.038 0-.062.005-.024.022-.04.03-.063.01-.022.02-.04.032-.062.01-.02.017-.043.03-.063.015-.02.046-.045.064-.062.016-.017.012-.047.03-.063.02-.015.043-.018.063-.03.022-.014.04-.022.064-.032.02-.01.04-.024.062-.03z"/></symbol><use xlink:href="#a"/></svg>
