<svg xmlns="http://www.w3.org/2000/svg" xmlns:xlink="http://www.w3.org/1999/xlink" width="60" height="60"><symbol id="a"><path d="M54 35.705l-2.2 11.19-3.018-2.514c-1.504 1.506-3.218 2.783-5.275 3.947-3.476 1.966-7.28 3.078-11.107 3.4L32.01 55h-4.024l-.402-3.274c-6.195-.536-12.103-3.118-16.435-7.458l-3.352 2.628L6 35.553l8.797 5.844-2.24 1.76c3.82 2.963 9.112 4.945 15.044 5.368l.794-29.99h-8.397v-2.272l8.38.083v-1.888c-2.593-.514-4.517-2.403-4.517-4.658 0-2.653 2.653-4.8 5.93-4.8 3.27 0 5.925 2.147 5.925 4.8 0 2.204-1.84 4.066-4.34 4.63v1.857L40 16.26v2.272h-8.395l.81 29.99c5.89-.424 11.14-2.39 14.95-5.328l-2.164-1.8L54 35.704zM32.62 9.8c0-1.262-1.264-2.286-2.822-2.286-1.557 0-2.82 1.025-2.82 2.286 0 1.263 1.263 2.286 2.82 2.286 1.558 0 2.82-1.024 2.82-2.286z"/><path d="M4.688 3.5a1.5 1.5 0 0 0-.75 2.563l50 50a1.503 1.503 0 1 0 2.124-2.126l-50-50A1.5 1.5 0 0 0 4.688 3.5z"/></symbol><use xlink:href="#a"/></svg>
