<svg xmlns="http://www.w3.org/2000/svg" xmlns:xlink="http://www.w3.org/1999/xlink" width="60" height="60"><symbol id="a"><path d="M24.707 19.376c-.213.003-.405.026-.61.077-.154.034-.314.056-.46.114-.143.058-.284.152-.42.23-.134.076-.257.135-.38.23-.126.09-.234.195-.345.304-.087.085-.188.176-.267.268-.078.093-.16.207-.23.306-.088.128-.152.245-.228.382-.078.136-.157.28-.23.42-.176.334-.34.684-.496 1.03-.154.345-.272.707-.38 1.07-.113.362-.213.732-.268 1.107-.054.376-.08.727-.076 1.107.004.236.018.49.038.726s.05.45.076.687h-6.987c-.037 0-.077.032-.114.038-.04.007-.08-.01-.116 0-.036.012-.08.023-.114.04-.036.014-.044.056-.077.076-.03.02-.084.014-.114.038-.03.023-.053.05-.078.076-.026.028-.054.083-.076.115-.023.03-.06.042-.076.076-.02.034-.026.08-.04.116-.012.035-.028.078-.037.114-.01.038.004.076 0 .115-.004.037 0 .077 0 .114 0 .038-.006.076 0 .114.007.037.028.078.038.114.013.037.023.042.04.077.015.035.018.083.038.114.014.022.022.054.038.076.015.02.02.02.038.038l.038.038 6.49 6.95h.04c.026.027.047.053.076.075.03.024.044.058.076.077.033.02.08.023.115.038.034.015.077.028.113.038.035.01.08.033.115.038.035.005.04 0 .076 0h7.827l-2.022 2.597h-1.642l-4.2 5.345-.038.04c-.02.022-.022.05-.038.075-.017.027-.026.05-.04.076-.015.036-.026.078-.037.116-.01.035-.032.077-.038.114-.007.038 0 .077 0 .115 0 .037-.004.077 0 .114.004.037-.01.076 0 .114.007.036.024.04.038.076.013.035.02.08.038.115.02.034.055.083.078.114.022.03.05.047.076.076.026.027.046.052.076.076h.04l2.022 1.604.038.038c.026.02.05.023.077.038.026.016.05.026.076.038.035.017.078.027.115.04.036.01.077.03.114.037.038.006.04-.002.077 0 .037 0 .076.004.113 0 .038-.004.077.01.115 0 .036-.008.078-.025.114-.038.035-.014.08-.022.115-.04.034-.017.045-.054.076-.076.03-.02.086-.05.115-.076.027-.027.052-.048.076-.077v-.037l4.047-5.155v-2.1l2.636-3.36h14.318c.04 0 .077.006.115 0 .036-.006.077-.027.113-.038.036-.01.08-.023.115-.038s.082-.055.114-.076c.03-.02.047-.013.077-.038.027-.024.05-.048.075-.077.026-.025.054-.083.076-.113.024-.032.06-.044.078-.077l.038-.076c.01-.023-.008-.053 0-.077l2.176-6.95v-.037c.01-.036.033-.077.038-.114.005-.038 0-.077 0-.115 0-.038.005-.076 0-.114-.003-.037.01-.038 0-.076-.01-.036-.024-.08-.038-.114-.014-.035-.057-.082-.076-.115-.02-.033-.016-.044-.038-.075-.023-.03-.05-.087-.077-.115-.024-.026-.045-.052-.075-.076s-.08-.02-.115-.038c-.032-.02-.042-.062-.076-.077-.035-.016-.078-.03-.114-.04-.035-.01-.08.006-.115 0-.036-.004-.078-.037-.115-.037h-9.698l1.337-1.718h.075c.066.002.125.01.19 0 .067-.008.128-.02.192-.04.065-.015.128-.05.19-.075.062-.025.134-.043.192-.076.056-.03.098-.075.15-.115.054-.04.108-.07.154-.115.048-.047.112-.102.153-.153.04-.053.08-.133.114-.19.035-.057.05-.092.078-.154.026-.06.06-.127.076-.19.02-.064.03-.125.038-.192.01-.065 0-.124 0-.19v-.04c-.005-.062.007-.127 0-.19-.006-.062-.023-.13-.038-.19-.014-.065-.013-.13-.038-.19-.025-.063-.082-.097-.115-.154-.03-.06-.073-.137-.113-.19-.04-.053-.07-.107-.115-.154-.046-.048-.1-.073-.153-.114-.053-.04-.097-.08-.153-.115-.058-.035-.13-.09-.19-.115-.062-.025-.128-.02-.192-.04-.064-.017-.125-.027-.19-.037-.066-.01-.126-.037-.192-.038-.066 0-.125.03-.19.038-.067.008-.128.02-.192.038-.064.015-.127.014-.19.04-.06.024-.133.043-.19.075-.06.032-.1.076-.153.116-.053.04-.107.105-.153.152-.01.008-.03-.007-.038 0-.01.01.007.03 0 .038L26.12 19.682c-.125-.05-.255-.11-.382-.153-.128-.045-.25-.088-.382-.115-.206-.048-.438-.04-.65-.04zm1.87 3.55h.46l8.704.956.04.038c.002.013-.004.026 0 .038.002.013-.004.026 0 .038v.04l-2.177 2.786h-7.827c.06-.17.134-.326.19-.496.056-.17.104-.362.154-.535.12-.403.23-.807.305-1.22.074-.416.126-.84.153-1.26.003-.067-.004-.124 0-.192.003-.066-.002-.124 0-.19zM29.744 15.94v.04c-.003.133-.012.265-.03.396-.02.132-.047.262-.084.39-.035.127-.078.253-.13.374-.053.123-.115.24-.183.354-.068.115-.143.224-.224.33-.083.102-.17.2-.268.292-.093.094-.195.18-.3.26-.107.08-.218.152-.335.215-.116.068-.236.125-.358.174-.124.05-.25.09-.38.12-.128.035-.258.06-.39.075s-.264.02-.397.02c-.132-.002-.265-.012-.396-.03-.132-.02-.262-.05-.39-.085s-.253-.08-.375-.13c-.122-.054-.24-.115-.353-.184-.115-.065-.225-.14-.33-.222-.103-.083-.202-.172-.294-.268-.093-.094-.18-.195-.26-.3-.08-.107-.15-.22-.214-.335-.066-.115-.124-.235-.172-.36-.05-.122-.09-.25-.123-.377-.033-.128-.058-.26-.075-.39-.015-.133-.02-.265-.018-.398 0-.132.01-.265.028-.396.02-.13.048-.26.085-.39.035-.126.08-.253.132-.374.052-.122.113-.24.18-.354.068-.115.143-.223.226-.328.08-.104.17-.203.266-.295.095-.093.195-.18.3-.26.108-.08.22-.15.336-.214.115-.067.235-.125.36-.174.122-.05.248-.09.377-.12.128-.035.258-.06.39-.075s.266-.02.397-.02c.134.002.266.013.398.03.13.02.26.05.388.085s.253.08.375.13c.122.054.24.115.354.184.113.065.223.14.327.223.105.082.203.17.295.266.093.094.18.195.26.3.078.108.15.22.215.335.065.115.122.235.172.36.048.12.09.248.12.376.033.124.057.248.073.373.015.125.022.25.02.377"/></symbol><use xlink:href="#a"/></svg>
