<svg xmlns="http://www.w3.org/2000/svg" height="60" width="60"><path stroke-linejoin="bevel" d="M4.432 59.06h-.028c-.15 0-.3-.01-.45-.03-.15-.02-.297-.052-.442-.093-.146-.037-.29-.086-.428-.145-.14-.058-.274-.126-.403-.203-.13-.075-.255-.16-.375-.25-.12-.093-.233-.193-.338-.3-.108-.107-.208-.22-.3-.338-.092-.12-.175-.245-.25-.376-.077-.13-.144-.265-.203-.404-.057-.14-.106-.282-.145-.428-.042-.145-.074-.293-.094-.442-.022-.15-.03-.3-.03-.45V4.41c0-.15.01-.302.03-.45.02-.15.052-.298.093-.443.037-.146.085-.29.143-.428.06-.14.126-.274.203-.404.076-.13.16-.257.25-.376.094-.12.193-.232.3-.34.106-.105.22-.206.34-.297.118-.092.244-.176.375-.25.13-.077.266-.145.404-.203.14-.06.282-.107.428-.146.145-.042.293-.073.442-.094.15-.02.3-.03.45-.03h51.192c.15 0 .3.012.45.032.15.02.297.05.443.092.145.038.288.086.427.145.14.057.274.125.403.202.13.075.256.16.376.25.12.092.233.193.34.3.106.106.206.22.298.338.092.12.175.245.25.376.077.13.144.264.202.403.058.14.108.28.146.427.04.145.072.293.094.443.02.15.03.3.03.45v51.192c0 .15-.012.3-.032.45-.02.15-.05.297-.092.442-.037.146-.086.29-.145.428-.06.14-.126.273-.203.404-.075.13-.16.256-.25.376-.092.12-.192.23-.3.338-.105.107-.22.207-.338.3-.12.09-.245.175-.376.25-.13.075-.264.143-.404.2-.138.06-.282.108-.427.147-.147.042-.294.073-.444.094-.15.022-.3.032-.45.03H4.432z" stroke="#000" stroke-miterlimit="22.926" stroke-width=".22796" fill="#fff"/><path d="M4.85 57.224h-.016c-.09 0-.18-.007-.267-.018-.09-.012-.177-.03-.262-.056-.087-.022-.172-.05-.255-.085-.082-.035-.162-.075-.24-.12-.076-.045-.152-.095-.222-.15-.07-.054-.14-.113-.2-.177-.065-.062-.124-.13-.18-.2-.053-.07-.102-.146-.147-.223-.044-.078-.084-.158-.12-.24-.033-.083-.062-.167-.085-.254-.025-.085-.044-.173-.056-.262-.013-.087-.02-.177-.02-.267V4.835c.002-.09.008-.18.02-.267.012-.088.03-.176.054-.263.023-.087.052-.17.086-.254.034-.082.075-.162.12-.24.046-.077.095-.15.15-.222.054-.07.113-.138.177-.2.062-.064.13-.124.2-.178.07-.054.147-.105.223-.148.078-.046.158-.086.24-.12.083-.035.168-.064.254-.087.086-.024.174-.043.263-.055.088-.013.177-.02.267-.02h50.338c.09.002.18.01.267.02.088.013.176.03.26.055.088.022.173.05.256.086.082.035.162.075.24.122.076.043.15.094.22.148.073.054.14.114.203.178.063.062.12.13.177.2.054.07.103.145.148.223.045.078.084.158.12.24.034.083.063.167.086.254.026.087.044.175.057.263.012.088.018.178.017.267V55.17c0 .09-.007.18-.02.268-.01.09-.028.177-.053.263-.022.088-.05.173-.084.256-.036.08-.076.162-.12.24-.046.076-.096.15-.15.22-.055.072-.113.14-.177.202-.064.065-.13.123-.203.178-.07.055-.145.104-.222.15-.077.043-.157.083-.24.118-.082.035-.167.063-.254.086-.084.026-.172.044-.26.056-.09.013-.18.02-.268.018H4.85z" fill-rule="evenodd" fill="#e72512"/><path d="M43.505 49.368L10.63 16.495v32.873h32.875M49.368 43.505V10.632H16.494l32.874 32.873" fill-rule="evenodd" fill="#fff"/><path stroke-linejoin="bevel" d="M4.432 59.004h51.164c.15 0 .296-.012.443-.03.147-.022.292-.05.435-.092.143-.037.285-.086.42-.143s.27-.125.398-.2c.13-.075.252-.157.37-.247.116-.09.228-.19.333-.294.105-.106.204-.217.294-.334.09-.118.172-.242.246-.37.076-.128.14-.26.2-.398.056-.136.104-.277.142-.42.04-.144.072-.29.092-.436s.03-.295.03-.443V4.407c0-.148-.01-.297-.03-.443-.02-.147-.05-.292-.092-.436-.037-.144-.084-.285-.14-.42-.06-.138-.126-.27-.202-.4-.074-.127-.156-.25-.246-.368s-.19-.23-.294-.333c-.105-.107-.217-.205-.334-.296-.117-.09-.24-.172-.37-.246-.128-.075-.26-.142-.397-.2-.137-.056-.277-.104-.42-.142-.143-.04-.29-.072-.436-.093-.148-.02-.296-.03-.444-.03H4.406c-.15 0-.297.012-.445.03-.145.022-.29.052-.433.093-.145.036-.285.085-.422.142-.137.057-.27.124-.397.2-.13.074-.253.156-.37.246-.117.09-.228.19-.333.295-.105.103-.204.214-.294.332-.09.117-.172.24-.246.37-.075.127-.14.26-.2.397-.055.136-.103.277-.142.42-.04.143-.07.288-.092.435-.02.146-.03.295-.03.443V55.6c0 .147.01.295.032.442.02.147.05.292.09.436.037.143.085.284.142.42.058.137.124.27.2.398.074.128.157.252.247.37.09.116.19.228.295.333.105.103.216.202.334.293.115.09.24.172.368.246.128.074.26.14.397.198.138.057.278.105.422.143.142.042.288.073.435.094.147.02.294.03.443.03h.027z" stroke="#231f20" stroke-miterlimit="22.926" stroke-width="1.9999799999999999" fill="none"/><path stroke-linejoin="bevel" d="M13.452 32.878v.73l.002.035v.035c.01.133.037.264.08.39.042.128.106.248.186.355.06.09.133.17.216.242.083.07.174.127.274.17.107.052.223.087.34.104.12.016.242.018.363.004.122-.01.243-.036.358-.077.116-.04.224-.1.32-.174.102-.076.19-.17.26-.274.072-.106.13-.22.17-.342l.037-.12c.01-.04.02-.08.025-.12l.008-.052.006-.052V32.09c0-.02 0-.038-.002-.058-.004-.078-.02-.155-.042-.23-.02-.074-.05-.148-.084-.22-.032-.073-.07-.143-.115-.21-.044-.067-.096-.13-.153-.184-.036-.036-.075-.07-.115-.1-.04-.03-.084-.058-.128-.083l-.052-.03c-.02-.008-.036-.017-.054-.026l-1.68-.715-.04-.016c-.014-.006-.027-.01-.04-.017-.105-.045-.206-.097-.302-.156s-.19-.125-.28-.196c-.166-.127-.32-.27-.46-.43-.14-.155-.264-.328-.37-.51-.125-.21-.226-.432-.298-.664-.073-.23-.118-.47-.135-.712 0-.02-.003-.038-.005-.058l-.004-.058v-1.16-.094c0-.032.003-.063.004-.095.01-.172.035-.342.077-.508.042-.167.1-.33.167-.488.1-.243.225-.475.376-.69.15-.212.33-.406.528-.573.206-.182.436-.333.685-.45.248-.12.513-.2.784-.242.226-.04.456-.055.686-.04.23.016.455.06.673.13.284.087.554.216.8.385.245.17.466.37.655.603.16.184.297.386.41.602.113.214.2.44.26.674.027.098.05.196.068.294.017.1.03.198.038.3 0 .02.004.043.005.064l.006.066v.88h-1.84v-.73l-.005-.04-.003-.038c-.01-.08-.022-.157-.037-.235-.017-.077-.04-.153-.07-.226-.045-.11-.107-.214-.185-.306s-.17-.172-.27-.24c-.092-.066-.194-.12-.3-.158-.107-.038-.22-.06-.332-.065-.16-.012-.32.01-.472.062-.153.05-.295.133-.416.24-.1.083-.188.18-.258.29-.067.108-.117.226-.146.35-.012.044-.02.088-.028.133-.006.045-.012.09-.016.135l-.004.04-.004.042v.907l.004.035c.01.088.024.177.047.263s.05.17.09.25c.033.076.073.147.12.216.046.07.1.13.16.19.03.03.064.062.1.09.036.03.073.054.112.077l.04.023.042.022 1.395.59.044.02.044.023c.1.047.2.093.3.137.102.044.2.092.297.145.13.07.253.154.368.248.115.094.223.198.322.31.128.134.242.28.344.432.1.153.187.316.26.485.077.173.138.354.183.54.044.184.073.37.09.56l.003.045.004.045v1.72l-.003.038-.004.037c-.012.127-.026.254-.046.38-.018.127-.044.252-.077.376-.063.258-.16.506-.29.737-.13.233-.29.448-.476.64-.16.175-.342.33-.538.464-.197.133-.408.24-.63.322-.23.09-.47.15-.716.18-.245.03-.494.03-.74 0-.33-.034-.65-.122-.95-.26-.304-.136-.58-.322-.82-.55-.21-.186-.392-.4-.542-.637-.148-.235-.263-.49-.34-.756-.044-.137-.08-.278-.103-.42s-.042-.283-.054-.427l-.002-.044-.003-.045v-.86h1.845zM19.56 36.765V23.207h3.13l.068.005.067.007c.167.015.33.046.49.09.162.045.32.104.47.178.227.105.44.24.63.402.19.16.36.347.506.55.11.148.206.303.287.467.08.162.145.332.194.506.033.105.06.21.08.317s.036.214.05.322l.008.075.01.073v2.29c-.004.188-.03.374-.08.556-.05.184-.115.364-.196.536-.103.238-.233.463-.388.67-.154.208-.334.392-.54.548-.182.145-.382.268-.595.363-.214.097-.438.17-.667.218-.05.013-.104.023-.156.032-.052.01-.104.016-.158.02l-.083.004h-1.292v5.33H19.56zM26.95 26.244l.003-.055c0-.02.002-.04.004-.057.02-.24.062-.48.128-.713.066-.233.16-.46.277-.67.126-.247.286-.474.475-.676s.404-.377.64-.52c.182-.116.376-.212.578-.287.203-.074.415-.125.63-.15.26-.04.525-.04.786-.004.263.034.518.105.76.212.28.115.54.274.77.47.232.2.437.43.606.683.17.237.307.495.407.768.1.268.156.55.166.837 0 .02 0 .038.002.057l.002.056v7.53l-.005.06-.006.06c-.018.194-.05.387-.097.577-.046.19-.11.377-.19.556-.132.323-.32.62-.55.882-.233.262-.51.48-.817.644-.22.13-.454.226-.7.29-.243.063-.495.094-.75.092-.255.004-.51-.027-.76-.09-.246-.062-.485-.158-.706-.284-.207-.112-.4-.25-.57-.407-.176-.16-.33-.34-.466-.532-.15-.207-.277-.43-.377-.668-.097-.233-.164-.48-.197-.73-.01-.062-.016-.123-.022-.185l-.014-.184-.004-.05-.003-.05v-7.464zM35.01 36.765V23.207H38.475c.03 0 .06.003.087.003.257.015.508.073.742.175.24.102.465.237.668.4.224.17.424.365.594.587.168.22.305.46.406.716.062.143.112.29.152.44.04.148.07.3.093.452l.01.065.01.063v1.856l-.01.08-.01.08c-.023.186-.058.37-.106.55-.046.18-.11.357-.19.527-.07.162-.158.315-.258.46-.102.145-.215.28-.34.405-.077.08-.158.152-.242.223-.084.07-.172.134-.263.195-.022.014-.043.03-.066.043l-.064.042 2.005 6.197h-1.964L38 30.967h-1.144v5.798H35.01zM44.366 36.765v-11.75h-2.193v-1.81h6.222v1.81H46.21v11.75h-1.842z" fill-rule="evenodd" stroke="#000" stroke-miterlimit="22.926" stroke-width=".22796"/><path stroke-linejoin="bevel" d="M36.855 25.04v4.224h1.405l.048-.002c.017 0 .033-.002.05-.003.143-.012.282-.05.412-.115.13-.062.246-.15.343-.256.065-.065.123-.138.17-.217.05-.08.09-.162.124-.248.024-.058.044-.117.062-.178.015-.06.027-.12.033-.182l.005-.05c0-.016.002-.032.004-.047v-1.62l-.004-.045c0-.015-.004-.03-.005-.045-.007-.075-.02-.15-.036-.224-.018-.075-.04-.148-.07-.218-.037-.09-.083-.177-.14-.257-.057-.08-.124-.153-.197-.217-.063-.056-.13-.106-.203-.147-.072-.042-.15-.076-.228-.1-.05-.017-.1-.03-.15-.038-.05-.01-.1-.016-.15-.018h-1.475zM21.39 25.04v4.577h1.214c.018 0 .036-.002.053-.003.106-.007.21-.028.31-.065s.195-.088.28-.152c.085-.055.16-.122.228-.197.067-.074.125-.157.173-.245.048-.084.087-.174.115-.266s.048-.188.054-.284c0-.013 0-.026.003-.038l.002-.037V26.28c0-.023-.004-.045-.005-.068-.002-.024-.005-.046-.01-.07-.014-.112-.045-.223-.09-.33-.046-.104-.106-.204-.18-.293-.073-.096-.16-.18-.26-.25-.098-.072-.206-.126-.32-.164-.046-.016-.094-.03-.142-.04-.048-.01-.096-.017-.145-.02-.02 0-.038-.003-.057-.003H21.39z" fill-rule="evenodd" stroke="#000" stroke-miterlimit="22.926" stroke-width=".22796" fill="#fff"/><path stroke-linejoin="bevel" d="M28.794 26.35v7.257l.004.047c0 .017.002.033.004.048.013.128.038.254.078.375.04.122.098.237.17.342.076.114.17.214.28.296.11.083.233.146.364.185.13.044.265.063.4.058.134-.004.268-.032.393-.082.116-.04.225-.1.322-.176.097-.075.183-.163.254-.263.058-.075.106-.155.146-.24.04-.086.07-.174.092-.265.01-.04.018-.08.025-.12.006-.04.01-.08.012-.12v-.044l.002-.044v-7.272l-.004-.05c0-.017-.002-.034-.005-.05-.01-.105-.03-.21-.064-.31s-.08-.196-.136-.285c-.07-.12-.162-.226-.27-.313-.107-.09-.23-.158-.36-.205-.13-.053-.27-.08-.413-.084-.14-.003-.282.02-.415.067-.12.038-.236.096-.34.17-.102.075-.19.165-.265.267-.054.072-.1.15-.138.23-.037.082-.067.167-.09.254-.01.04-.02.08-.027.122-.007.04-.013.082-.016.123l-.005.04v.04z" fill-rule="evenodd" stroke="#000" stroke-miterlimit="22.926" stroke-width=".22796" fill="#c00"/><path d="M23.407 29.155l-1.94-2.49-.006-1.55 1.244.004c.624.064 1.063.66 1.047 1.15l-.045 2.312c-.056.206-.138.423-.298.574" fill-rule="evenodd" fill="#c00"/></svg>
