<svg xmlns="http://www.w3.org/2000/svg" height="60" width="60"><path d="M9.718 9.71v40.575h40.574V9.71H9.718z" fill="#fff"/><path stroke-linejoin="bevel" d="M4.48 58.946h51.065c.148 0 .297-.01.443-.03.146-.02.29-.05.434-.09.144-.038.285-.086.42-.143.137-.058.27-.124.396-.2.13-.073.253-.156.37-.246.117-.09.228-.188.333-.294.106-.104.204-.214.294-.332.09-.116.173-.24.245-.368.075-.128.142-.26.198-.397.058-.137.105-.277.144-.42.04-.142.07-.288.092-.434.02-.146.03-.294.03-.44V4.453c0-.148-.012-.295-.032-.44-.02-.15-.05-.294-.09-.437-.037-.143-.085-.283-.142-.42-.057-.136-.125-.27-.2-.396-.074-.128-.156-.25-.246-.368s-.188-.228-.293-.332c-.104-.106-.215-.204-.333-.295-.116-.09-.24-.17-.37-.245-.125-.075-.258-.14-.394-.198-.137-.058-.277-.106-.42-.144-.144-.04-.29-.07-.435-.092s-.295-.03-.443-.03H4.452c-.148 0-.296.012-.442.032-.148.02-.293.05-.435.09-.143.037-.284.084-.42.142-.137.058-.27.124-.397.2-.127.074-.25.155-.37.245-.115.09-.227.19-.33.295-.106.104-.205.215-.294.332-.092.118-.173.24-.247.37-.075.127-.14.26-.198.396-.058.136-.107.277-.144.42-.04.142-.072.287-.092.435-.02.146-.03.293-.03.44V55.55c0 .146.01.295.032.44.02.148.05.293.09.435.036.143.085.285.142.42.057.137.123.27.2.397.073.128.156.252.246.37.09.117.188.227.293.332.104.105.216.203.332.293.117.09.24.173.368.246.128.075.26.14.397.2.137.056.277.103.42.142.143.04.288.07.435.092.146.02.294.03.442.03h.027z" stroke="#000" stroke-miterlimit="22.926" stroke-width=".22803225" fill="#fff"/><path stroke-linejoin="bevel" d="M4.48 58.995h-.03c-.15 0-.3-.01-.448-.032-.15-.02-.297-.05-.44-.09-.148-.038-.29-.088-.43-.146-.138-.058-.272-.126-.402-.202-.13-.076-.255-.16-.374-.25-.12-.093-.232-.192-.338-.3-.108-.105-.207-.217-.3-.337-.09-.12-.174-.244-.248-.375-.077-.13-.144-.265-.203-.403-.058-.14-.106-.28-.145-.427-.04-.144-.073-.293-.093-.442-.022-.147-.033-.297-.032-.448V4.448c0-.15.012-.3.032-.45.02-.15.05-.297.092-.44.038-.147.086-.29.144-.43.06-.137.126-.272.204-.4.074-.132.157-.257.25-.376.09-.12.19-.232.298-.34.105-.105.218-.205.337-.296.12-.092.245-.176.375-.25.13-.077.265-.144.403-.202.14-.058.282-.106.427-.146.145-.04.293-.073.442-.093.148-.022.3-.03.45-.03h51.094c.15 0 .3.01.45.03.148.02.295.052.44.093.146.037.288.086.428.145.14.058.273.126.402.202.13.075.256.16.375.25.12.092.234.192.34.298.106.107.205.22.298.34.09.118.174.243.25.374.076.13.143.264.2.403.06.14.108.28.147.427.042.144.072.293.094.44.02.15.03.3.028.45v51.095c0 .15-.01.3-.03.45-.022.148-.053.297-.093.44-.038.147-.086.29-.145.428-.058.14-.125.273-.202.403-.076.13-.16.256-.25.375-.092.12-.192.232-.3.338-.104.107-.218.207-.337.298-.118.092-.244.176-.374.25-.13.076-.264.144-.402.202-.14.058-.283.106-.428.146-.145.04-.292.072-.44.093-.15.02-.3.03-.45.03H4.478z" stroke="#000" stroke-miterlimit="22.926" stroke-width="1.99989135" fill="#fff"/><path d="M4.896 57.17H4.88c-.09 0-.178-.007-.267-.018-.088-.013-.176-.03-.262-.055-.086-.022-.17-.05-.253-.085-.082-.034-.162-.075-.238-.12-.08-.045-.153-.095-.224-.15-.07-.054-.138-.112-.2-.177-.064-.062-.123-.13-.178-.2-.054-.07-.103-.145-.147-.222-.045-.077-.085-.157-.12-.24-.034-.082-.062-.167-.086-.252-.025-.086-.043-.173-.055-.262-.014-.088-.02-.178-.02-.266V4.88c0-.09.01-.18.02-.266.01-.09.03-.176.055-.263.022-.085.05-.17.085-.252.034-.083.074-.162.12-.24.045-.076.094-.15.15-.222.053-.07.112-.137.176-.2.062-.064.13-.123.2-.177.07-.056.146-.105.223-.15.075-.044.156-.085.237-.12.083-.034.167-.062.254-.085.087-.025.175-.044.263-.056.09-.014.177-.02.267-.02h50.242c.09 0 .178.007.266.02.09.01.176.03.263.055.087.022.172.05.254.085.083.034.162.075.24.12.076.045.15.095.22.15.072.053.14.112.202.176.063.063.123.13.177.2.054.07.104.146.148.222.046.078.086.157.12.24.035.082.064.167.087.253.024.088.043.175.055.264.013.087.02.177.018.266v50.242c0 .088-.005.178-.018.266-.012.09-.03.176-.055.263-.022.086-.05.172-.086.254-.033.082-.073.162-.12.24-.043.076-.093.15-.147.22-.054.07-.114.14-.177.2-.063.065-.13.125-.2.18-.072.054-.146.103-.223.147-.077.046-.156.087-.24.12-.08.035-.166.064-.252.087-.086.024-.173.043-.262.056-.088.013-.177.018-.266.018H4.896z" fill-rule="evenodd" fill="#e72512"/><path d="M10.67 10.662V49.33h38.666V10.66H10.67z" fill="#fff"/></svg>
