<svg xmlns="http://www.w3.org/2000/svg" height="60" width="60"><g stroke="#000" fill="#fff"><path stroke-linejoin="bevel" d="M0 0v49.948c0 .145-.01.29-.03.433-.02.144-.05.286-.09.426-.035.14-.082.278-.138.41s-.12.264-.195.388c-.072.126-.153.247-.24.36-.09.116-.185.225-.288.327-.103.104-.21.2-.326.288s-.236.17-.36.24c-.126.074-.256.14-.39.194-.133.057-.27.103-.41.14-.14.04-.282.07-.425.09-.144.02-.29.03-.433.03h-49.975c-.145 0-.29-.01-.432-.03-.144-.02-.286-.05-.426-.09-.14-.035-.277-.082-.41-.138-.134-.056-.264-.122-.388-.196-.126-.072-.246-.152-.36-.24s-.224-.184-.326-.287c-.103-.1-.2-.21-.288-.325-.088-.114-.168-.235-.24-.36-.073-.125-.138-.255-.194-.388-.056-.134-.103-.27-.14-.41-.04-.14-.07-.283-.09-.426s-.03-.287-.03-.432V-.026c0-.145.012-.29.03-.433.02-.143.05-.285.09-.424.036-.14.082-.278.138-.41.057-.135.122-.264.196-.39.072-.124.152-.245.24-.36.09-.114.185-.223.288-.325.102-.102.21-.198.325-.286.115-.09.235-.17.36-.24.126-.074.255-.14.39-.195.132-.057.27-.104.41-.14.14-.04.28-.07.425-.09.143-.02.287-.03.432-.03h49.975c.144 0 .29.01.432.03.143.02.285.05.424.09.14.035.278.082.41.138.135.056.264.12.39.195.124.072.245.153.36.24s.223.185.325.288c.102.103.198.212.286.326.088.115.17.236.24.36.074.126.14.256.195.39.057.133.103.27.14.41.04.14.07.282.09.425S0-.17 0-.025V0z" stroke-miterlimit="22.926" stroke-width=".223" transform="matrix(0 1.0224 1.0224 0 4.478 58.945)"/><path stroke-linejoin="bevel" d="M0 0v-.027c0-.147-.01-.294-.03-.44-.02-.145-.05-.29-.09-.43-.037-.144-.085-.283-.142-.42s-.123-.266-.198-.393c-.074-.127-.155-.25-.245-.366-.09-.117-.187-.227-.292-.33-.103-.106-.213-.203-.33-.293s-.24-.17-.367-.243c-.127-.075-.26-.14-.394-.198-.136-.058-.275-.105-.418-.143-.14-.04-.286-.07-.432-.09-.145-.022-.292-.032-.44-.03H-53.35c-.147 0-.294.01-.44.03s-.29.05-.43.09c-.144.037-.284.084-.42.14-.135.058-.267.124-.393.2-.128.073-.25.154-.367.244s-.227.188-.33.293c-.105.103-.203.214-.292.33-.09.117-.172.24-.245.367-.074.127-.14.26-.196.394-.057.136-.104.276-.143.418-.04.14-.07.286-.09.432-.02.145-.03.292-.03.44v49.975c.002.146.012.293.03.438.02.146.05.29.09.432.038.143.085.282.143.418.057.136.123.267.198.394.074.127.156.25.246.366.09.117.187.228.29.33.105.106.215.203.332.293.117.09.24.172.367.246.127.074.258.14.394.197s.274.104.417.142c.14.04.286.07.43.092.147.02.294.03.44.03h49.976c.147-.002.294-.012.44-.032.145-.02.29-.05.43-.09.144-.037.283-.084.42-.14s.266-.124.393-.2c.128-.073.25-.155.367-.244.116-.09.227-.186.33-.29.105-.104.203-.215.292-.332.09-.116.172-.24.245-.366.074-.127.14-.26.197-.394.057-.136.104-.276.143-.418.04-.142.07-.286.09-.432.02-.145.03-.292.03-.44V0z" stroke-miterlimit="22.926" stroke-width="1.956" transform="matrix(0 1.0224 1.0224 0 4.478 59)"/></g><path d="M-.44.406V.39c0-.087-.006-.174-.018-.26C-.47.042-.488-.044-.51-.128c-.023-.085-.05-.168-.085-.248-.033-.08-.072-.16-.118-.233-.043-.076-.09-.15-.144-.22-.054-.068-.11-.134-.174-.195-.062-.062-.127-.12-.197-.173-.07-.053-.142-.1-.217-.144-.075-.045-.154-.084-.235-.117-.08-.035-.162-.062-.246-.085-.084-.025-.17-.042-.256-.054-.087-.013-.174-.02-.26-.018h-49.142c-.088 0-.175.007-.26.02-.087.01-.173.027-.257.052-.086.022-.17.05-.25.084-.08.033-.158.072-.233.118-.075.043-.148.09-.218.144-.07.053-.135.11-.197.173-.062.06-.12.127-.173.196-.053.07-.1.143-.145.22-.044.073-.083.152-.116.232-.036.08-.063.163-.086.248-.025.084-.042.17-.054.256-.013.086-.02.173-.018.26v49.142c0 .088.006.174.018.26s.03.173.054.258c.022.084.05.167.084.247.033.08.072.16.117.235.044.074.092.147.145.216.053.07.11.135.173.197.062.062.127.12.196.173.07.053.142.1.217.145.075.044.153.083.234.117.08.033.164.062.25.084.083.024.17.042.255.054.086.013.173.02.26.018h49.142c.087 0 .174-.006.26-.018.087-.012.173-.03.257-.054.084-.02.168-.05.248-.083.08-.033.16-.072.234-.117.075-.044.148-.092.217-.145.07-.053.135-.11.196-.173.062-.062.12-.127.173-.197.053-.07.1-.142.144-.216.045-.076.084-.154.117-.235.034-.08.062-.163.085-.247.023-.085.04-.17.053-.257.013-.087.018-.173.018-.26V.405z" fill-rule="evenodd" transform="matrix(0 1.0224 1.0224 0 4.478 57.62)" stroke="#000" stroke-width="1.031" fill="#e72512"/><path d="M10.67 10.67V49.34h38.667V10.67H10.67z" fill="#fff"/></svg>
