<svg xmlns="http://www.w3.org/2000/svg" xmlns:xlink="http://www.w3.org/1999/xlink" width="60" height="60"><symbol id="a"><path d="M7.396 36.33v6.838c.396-.004.793-.01 1.19-.02.398-.008.795-.022 1.19-.042 1.663-.08 3.313-.31 4.934-.68 1.617-.367 3.185-.916 4.68-1.635.827-.383 1.645-.79 2.45-1.224.805-.43 1.634-.82 2.48-1.163.94-.382 1.914-.666 2.91-.844.995-.182 2.007-.248 3.016-.2 1.192.044 2.374.228 3.524.55 1.16.326 2.297.726 3.405 1.198 1.556.663 3.11 1.334 4.66 2.013 1.53.67 3.127 1.183 4.762 1.53.71.16 1.428.28 2.15.356.727.078 1.457.125 2.187.142.265.007.53.012.795.015.264.003.528.005.793.005V36.33c-.4-.005-.8-.013-1.198-.025-.4-.01-.8-.03-1.197-.058-.742-.052-1.48-.144-2.213-.277-.73-.134-1.45-.317-2.153-.55-1.252-.42-2.47-.938-3.645-1.544-1.177-.61-2.38-1.166-3.605-1.672-.432-.18-.87-.346-1.313-.495-.444-.152-.89-.287-1.343-.407-1.016-.275-2.05-.48-3.092-.61-1.05-.13-2.103-.187-3.16-.17-.822-.002-1.644.044-2.46.14-.812.097-1.615.252-2.404.467-1.66.48-3.272 1.116-4.813 1.9-1.553.792-3.153 1.484-4.793 2.078-1.02.378-2.068.67-3.136.87-1.068.202-2.15.313-3.234.336-.227.007-.455.013-.683.015h-.684zM7.396 22.66v6.84c.396-.006.793-.012 1.19-.02.398-.01.795-.024 1.19-.044 1.663-.08 3.313-.31 4.934-.68 1.617-.367 3.185-.915 4.68-1.635.827-.383 1.645-.79 2.45-1.222.805-.433 1.634-.822 2.48-1.165.94-.382 1.914-.665 2.91-.844.995-.18 2.007-.248 3.016-.2 1.192.044 2.374.228 3.524.55 1.16.326 2.297.726 3.405 1.198 1.556.663 3.11 1.336 4.66 2.013 1.53.67 3.127 1.183 4.762 1.53.71.16 1.428.28 2.15.356.727.078 1.457.125 2.187.142.265.007.53.012.795.015.264.002.528.005.793.006v-6.84c-.4-.006-.8-.014-1.198-.025-.4-.01-.8-.03-1.197-.058-.742-.05-1.48-.144-2.213-.277-.73-.135-1.45-.317-2.153-.55-1.252-.42-2.47-.938-3.645-1.544-1.177-.61-2.38-1.166-3.605-1.672-.432-.18-.87-.346-1.313-.495-.444-.152-.89-.286-1.343-.408-1.015-.274-2.05-.478-3.092-.61-1.05-.13-2.103-.186-3.16-.17-.822-.002-1.644.045-2.46.142-.812.095-1.615.252-2.404.466-1.66.48-3.272 1.115-4.813 1.902-1.553.79-3.153 1.483-4.793 2.076-1.02.378-2.068.67-3.136.87-1.068.202-2.15.314-3.234.337-.227.008-.455.012-.683.014h-.684z" fill-rule="evenodd" stroke="#000" stroke-width=".282"/></symbol><use xlink:href="#a"/></svg>
