<svg xmlns="http://www.w3.org/2000/svg" height="60" width="60"><g fill-rule="evenodd"><path stroke-linejoin="bevel" d="M4.48 58.945h51.066c.148 0 .295-.012.442-.03.147-.022.292-.05.434-.092.144-.037.285-.084.42-.142.137-.057.27-.123.397-.2.128-.072.25-.154.368-.244s.228-.19.333-.294c.106-.104.204-.216.294-.332.09-.118.172-.242.246-.37.076-.128.142-.26.198-.397.058-.136.106-.276.145-.42.04-.142.07-.288.09-.434.02-.148.03-.296.03-.443V4.453c0-.148-.01-.296-.03-.442-.02-.147-.05-.292-.09-.434-.038-.143-.085-.284-.143-.42-.057-.137-.125-.27-.2-.397-.074-.128-.156-.252-.246-.37-.09-.117-.188-.228-.293-.332-.104-.106-.214-.204-.332-.294s-.24-.172-.37-.246c-.126-.074-.26-.14-.396-.198-.136-.057-.276-.105-.42-.143-.142-.04-.287-.072-.434-.092-.147-.02-.294-.03-.442-.03H4.452c-.148 0-.297.01-.443.03-.147.02-.293.05-.436.092-.143.037-.283.084-.42.14-.136.06-.268.126-.396.2-.128.075-.252.157-.368.247-.118.09-.23.188-.333.294-.105.104-.204.215-.295.332-.09.118-.17.24-.245.37-.075.127-.14.26-.2.396-.056.136-.104.278-.142.42-.04.143-.07.288-.092.435s-.03.295-.03.443v51.094c0 .147.012.296.032.442.02.145.05.29.09.434.037.143.085.283.142.42.058.136.124.268.2.396.074.128.155.252.246.37.09.116.19.228.294.332.103.105.215.203.333.294.116.09.24.172.368.245.128.076.26.142.397.2.136.057.277.105.42.143.142.04.288.07.435.092.146.02.294.03.442.03h.027z" stroke="#231f20" stroke-miterlimit="22.926" stroke-width=".27008519999999997" fill="#fff"/><path stroke-linejoin="bevel" d="M4.48 59h-.03c-.15 0-.298-.01-.448-.03-.15-.02-.296-.053-.442-.093-.145-.037-.287-.085-.426-.145-.14-.058-.273-.126-.403-.202-.13-.075-.255-.16-.374-.25-.12-.092-.232-.19-.337-.3-.11-.105-.21-.218-.3-.336-.092-.12-.176-.245-.25-.376-.076-.13-.144-.264-.202-.403-.058-.138-.107-.28-.146-.426-.04-.147-.072-.294-.093-.443-.022-.15-.032-.3-.03-.45V4.453c0-.15.01-.3.03-.45.02-.15.05-.296.092-.44.038-.146.086-.29.145-.43.058-.137.125-.27.203-.4.075-.13.158-.257.25-.375.09-.12.19-.232.3-.34.104-.105.217-.206.336-.297.12-.09.245-.175.375-.25.13-.075.266-.142.404-.2.14-.06.28-.107.426-.146.146-.042.293-.073.442-.094.15-.02.3-.03.45-.03h51.094c.15 0 .3.01.45.032.148.02.297.05.44.092.147.037.29.086.43.144s.272.126.4.203c.132.075.256.16.376.25.12.092.232.193.338.3.107.106.206.218.298.338.092.118.175.244.25.374.077.13.144.264.203.403.058.14.107.282.146.427.04.145.073.292.093.442.02.148.03.3.03.45v51.093c-.002.15-.013.3-.032.45-.02.15-.05.296-.092.442-.038.144-.086.287-.145.425-.058.14-.125.273-.202.403-.075.13-.16.256-.25.376-.092.118-.19.23-.298.337-.106.11-.22.208-.338.3-.12.09-.244.175-.375.25-.13.076-.264.143-.403.2-.14.06-.282.108-.427.147-.145.04-.293.072-.442.094-.148.02-.298.03-.45.03H4.48z" stroke="#000" stroke-miterlimit="22.926" stroke-width="2.0002673599999996" fill="#fff"/><path d="M4.872 57.19h-.016c-.09 0-.178-.006-.267-.017-.09-.013-.177-.03-.263-.056-.086-.022-.172-.05-.253-.085-.083-.035-.162-.075-.24-.12-.077-.044-.15-.095-.222-.15-.07-.053-.138-.113-.2-.176-.064-.063-.123-.13-.178-.2-.054-.07-.103-.145-.15-.223-.043-.076-.083-.157-.117-.24-.035-.08-.064-.165-.087-.252-.025-.086-.043-.173-.055-.262-.013-.087-.02-.177-.018-.266V4.9c0-.09.007-.18.02-.267.01-.09.028-.177.053-.262.022-.086.052-.17.086-.253.034-.082.074-.162.12-.238.045-.08.094-.153.15-.224.053-.07.112-.138.176-.2.062-.063.13-.123.2-.177.07-.056.145-.106.222-.15.078-.045.157-.085.24-.12.082-.034.167-.062.253-.085.086-.025.174-.044.262-.056s.176-.02.266-.02h50.242c.09.002.178.008.267.02.09.01.176.03.262.055.086.022.17.05.253.084.083.034.162.075.24.12.076.044.15.094.22.15.073.053.14.113.203.176.063.062.12.13.177.2.054.07.103.145.148.223.045.075.085.155.12.237.034.083.063.168.086.254.024.087.042.175.055.263.01.088.017.178.017.266V55.14c0 .09-.008.18-.02.266-.01.09-.03.176-.053.263-.022.088-.05.172-.085.255-.037.08-.077.162-.122.238-.044.078-.094.152-.148.223-.055.07-.114.137-.177.2-.064.064-.13.123-.202.177-.07.054-.142.105-.22.15-.078.044-.157.083-.24.12-.082.033-.167.06-.253.084-.086.025-.173.043-.262.056-.088.013-.178.02-.266.018H4.87z" fill="#e72512"/><path d="M43.478 49.333L10.666 16.52v32.813h32.812M49.33 43.48V10.666H16.518L49.33 43.48" fill="#fff"/><path stroke-linejoin="bevel" d="M46.57 49.34v-3.868H39.3c-.208-.56-.412-1.117-.61-1.68-.2-.558-.386-1.124-.56-1.693-.133-.445-.256-.89-.37-1.34-.113-.45-.217-.9-.314-1.355-.155-.71-.29-1.427-.4-2.146-.113-.72-.2-1.44-.26-2.167-.024-.263-.044-.527-.062-.79l-.052-.792-13.307-1.837c-.008.404-.017.808-.028 1.213-.012.403-.03.807-.052 1.21-.052.874-.14 1.744-.26 2.61-.12.868-.273 1.73-.458 2.587-.135.66-.29 1.318-.462 1.97-.174.65-.368 1.294-.584 1.932-.13.383-.264.764-.404 1.143-.14.378-.284.757-.43 1.134h-10.03v3.868H46.57zM23.017 26.605L36.76 28.5c.04-.4.08-.8.126-1.2.044-.4.097-.8.158-1.197.03-.198.064-.398.1-.596l.102-.596c.05-.304.105-.608.166-.91.062-.304.15-.6.264-.89.076-.202.17-.397.28-.583.112-.185.242-.356.39-.512.158-.16.324-.312.502-.45.18-.14.35-.288.51-.447.175-.17.327-.362.452-.572.127-.21.225-.434.292-.67.06-.196.1-.4.112-.607.014-.207.005-.414-.028-.618-.027-.204-.078-.405-.15-.598-.075-.192-.17-.376-.283-.548-.1-.16-.218-.308-.35-.443-.13-.134-.274-.255-.43-.36-.143-.098-.293-.185-.45-.26-.156-.075-.314-.147-.475-.212-.546-.23-1.1-.445-1.66-.64-.558-.195-1.126-.362-1.7-.5-.43-.11-.866-.202-1.304-.277s-.88-.133-1.322-.177c-.342-.036-.687-.062-1.032-.08-.345-.02-.69-.028-1.036-.03-.79-.005-1.582.037-2.368.128-.784.09-1.56.236-2.324.435-.526.13-1.045.282-1.558.456-.516.176-1.026.365-1.53.567-.21.08-.418.167-.62.26-.203.093-.396.204-.578.33-.124.085-.24.18-.35.283-.11.103-.21.216-.3.335-.14.18-.257.373-.35.58-.092.204-.16.42-.196.643-.026.13-.042.26-.047.39-.007.132-.004.264.01.394.013.15.038.297.073.443.037.145.085.288.145.426.064.157.143.307.235.45.09.14.196.273.315.392l.12.12.126.112c.048.036.095.07.142.107s.094.07.14.107c.05.04.1.08.15.123s.098.085.146.13c.125.116.244.24.354.374s.208.276.295.424c.11.184.206.377.283.578.076.2.143.407.197.616.08.293.146.592.2.892.054.3.104.6.148.9l.084.542.083.543zM49.338 34.42l-28.132-3.883-.127-.023c-.042-.008-.084-.02-.125-.03-.055-.016-.11-.035-.16-.057-.053-.023-.105-.047-.154-.075-.063-.034-.123-.072-.18-.113-.06-.043-.113-.088-.165-.137-.052-.05-.1-.1-.146-.156-.046-.055-.087-.113-.124-.174-.038-.06-.073-.122-.103-.187-.028-.065-.054-.13-.074-.2-.027-.08-.046-.164-.06-.25-.012-.084-.017-.17-.016-.255 0-.098.01-.2.028-.297.018-.098.046-.193.083-.286.03-.08.067-.157.11-.23.043-.074.09-.145.145-.21.072-.09.152-.172.24-.245.09-.072.184-.135.285-.187.062-.034.128-.062.194-.087.066-.024.134-.045.204-.06.055-.012.112-.023.168-.03.057-.006.113-.01.17-.01.043 0 .086.002.13.005l.126.01 27.68 3.82v3.348z" stroke="#000" stroke-miterlimit="22.926" stroke-width=".27008519999999997"/></g></svg>
