<svg xmlns="http://www.w3.org/2000/svg" xmlns:xlink="http://www.w3.org/1999/xlink" width="60" height="60"><symbol id="a"><path d="M25.997 26.77c-.25-.42-.51-.838-.774-1.25-.262-.41-.544-.808-.845-1.19-.424-.53-.888-1.027-1.386-1.486-.504-.466-1.03-.907-1.574-1.325-.537-.432-1.104-.826-1.696-1.18-.588-.35-1.225-.61-1.892-.768-.124-.03-.247-.063-.37-.097-.12-.032-.24-.077-.35-.135-.052-.028-.1-.058-.15-.09-.047-.033-.095-.067-.14-.103-.072-.052-.14-.108-.206-.166-.065-.057-.126-.12-.182-.187-.052-.06-.098-.126-.14-.193-.04-.07-.078-.14-.11-.213-.032-.074-.06-.15-.083-.226-.023-.075-.04-.152-.053-.23-.013-.08-.02-.16-.022-.24-.002-.08 0-.16.01-.238.01-.11.028-.217.053-.324.026-.106.057-.21.09-.314.04-.113.08-.225.126-.334.046-.11.096-.217.15-.323.082-.16.173-.314.272-.464.1-.15.204-.296.314-.437.18-.24.373-.47.578-.688.204-.218.423-.422.654-.61.23-.194.474-.37.73-.525.255-.157.522-.294.797-.41.24-.106.488-.2.74-.28.25-.078.506-.15.76-.217.25-.067.5-.127.75-.18.25-.055.504-.096.76-.123.36-.04.724-.05 1.086-.03.365.02.728.06 1.086.127.314.05.625.12.933.203.306.083.608.182.905.297.373.14.736.307 1.087.498.35.19.69.405 1.01.64.325.234.633.488.923.763.29.275.56.57.808.882.253.308.486.634.694.975.208.34.394.694.554 1.06.164.363.303.738.417 1.12.113.383.2.774.26 1.168.065.394.103.79.113 1.19.01.4-.006.8-.05 1.195-.04.397-.107.79-.2 1.18-.093.388-.213.77-.358 1.14-.14.375-.306.74-.497 1.09-.19.35-.403.688-.642 1.008-.056.077-.11.153-.17.227-.056.075-.114.15-.173.224l.02.013c.007.004.013.01.02.013.164.113.32.24.463.378.145.137.28.286.402.443.127.155.242.317.346.487.104.17.197.348.278.53.083.182.155.37.213.56.057.192.1.387.126.584.025.18.038.364.04.547.004.183.003.366-.002.55.492-.008.982-.023 1.472-.046.487-.024.972-.07 1.455-.14.67-.102 1.332-.255 1.98-.457.654-.204 1.3-.438 1.934-.7.644-.25 1.268-.543 1.87-.88.597-.333 1.14-.756 1.61-1.253l.27-.272c.09-.09.187-.168.293-.236.05-.03.1-.06.152-.084.053-.025.106-.05.16-.07.08-.037.163-.068.246-.096.085-.027.17-.05.256-.063.078-.016.157-.023.237-.025.08-.002.16.002.24.01.08.01.158.022.236.04.076.02.152.043.227.072.074.028.147.062.217.1.07.04.138.08.203.128.09.063.173.133.252.208.08.076.154.155.226.237.08.088.156.18.228.274.072.094.14.192.203.292.098.15.186.306.266.467.08.16.155.324.223.49.117.277.22.558.306.845.087.285.155.577.203.872.05.295.08.594.09.893.007.3-.008.6-.044.896-.028.262-.072.522-.13.78-.056.257-.12.513-.19.767-.067.25-.14.495-.22.74-.078.244-.17.484-.273.718-.146.332-.318.652-.516.957-.198.305-.416.598-.652.876-.203.246-.417.48-.643.706-.226.224-.463.435-.71.634-.31.253-.634.484-.975.693-.34.21-.694.395-1.06.555-.365.165-.738.305-1.122.418-.382.114-.772.2-1.168.26-.393.065-.79.102-1.19.113-.4.01-.8-.007-1.196-.05-.397-.04-.79-.107-1.18-.2-.387-.093-.77-.212-1.14-.358-.375-.14-.738-.307-1.09-.498-.35-.19-.687-.404-1.008-.64-.325-.233-.632-.488-.922-.762-.29-.276-.56-.57-.81-.882-.253-.308-.486-.634-.695-.974-.21-.34-.394-.695-.553-1.06-.037-.087-.075-.173-.11-.26-.038-.088-.073-.175-.108-.262l-.023.01-.02.01c-.173.076-.35.14-.534.19-.183.05-.368.097-.552.14l-.03.004-.03.005c-.196.03-.394.05-.594.055-.2.006-.4-.003-.598-.026-.198-.02-.395-.052-.59-.1-.193-.046-.384-.106-.57-.18-.188-.07-.37-.15-.547-.245-.174-.095-.342-.203-.5-.324-.03-.02-.06-.043-.09-.065l-.087-.07c-.234.423-.46.848-.68 1.276-.22.428-.42.863-.598 1.308-.245.63-.444 1.28-.593 1.942-.15.67-.27 1.346-.36 2.026-.106.68-.164 1.368-.174 2.057-.01.684.085 1.366.28 2.023.036.12.07.244.102.368.032.12.05.246.058.372 0 .057 0 .116-.003.173-.005.057-.01.115-.018.173-.01.088-.025.175-.042.26-.018.086-.042.17-.072.253-.027.075-.06.147-.1.218-.037.07-.08.137-.128.2-.046.066-.098.127-.153.186-.055.057-.113.112-.176.16-.062.05-.127.098-.195.14-.067.04-.138.08-.21.11-.1.046-.203.084-.307.115-.105.032-.21.058-.32.08-.115.023-.232.043-.35.06-.118.013-.236.024-.355.03-.18.008-.358.006-.537-.004-.18-.01-.358-.027-.536-.052-.297-.036-.592-.09-.884-.156-.29-.068-.577-.155-.857-.26-.28-.104-.555-.227-.818-.37-.264-.144-.516-.306-.755-.485-.212-.157-.416-.325-.61-.503-.196-.178-.385-.36-.57-.55-.182-.18-.36-.368-.532-.558-.172-.19-.333-.39-.485-.596-.215-.292-.405-.602-.57-.926-.166-.325-.31-.66-.433-1.004-.11-.298-.208-.6-.29-.91-.08-.306-.146-.617-.194-.93-.064-.395-.102-.792-.113-1.19-.01-.4.007-.8.05-1.196.04-.398.105-.792.2-1.18.093-.388.213-.77.36-1.14.14-.375.305-.738.496-1.09.19-.35.404-.687.64-1.008.234-.324.487-.633.762-.922.275-.29.57-.56.882-.81.31-.253.634-.485.975-.693.34-.207.693-.393 1.06-.552.363-.164.737-.303 1.12-.416.383-.113.773-.2 1.168-.262.395-.066.793-.105 1.193-.116.4-.012.798.006 1.194.054.137.015.273.032.41.053.134.02.27.043.405.065.033-.172.07-.345.11-.516.04-.17.09-.34.148-.504.07-.187.15-.37.248-.543.097-.175.204-.344.322-.506.117-.163.244-.318.38-.465.137-.145.285-.28.443-.4.144-.113.295-.215.45-.31.158-.093.317-.183.478-.27"/></symbol><use xlink:href="#a"/></svg>
