<svg xmlns="http://www.w3.org/2000/svg" height="60" width="60"><g stroke="#000" fill="#fff"><path stroke-linejoin="bevel" d="M4.48 58.946h51.067c.148 0 .295-.01.442-.032.146-.02.29-.05.433-.09.144-.037.285-.085.42-.142s.27-.124.397-.2c.13-.073.252-.156.37-.246.116-.09.227-.188.332-.294.105-.103.203-.214.293-.33.09-.12.173-.242.246-.37.077-.128.142-.26.2-.397.057-.136.105-.278.143-.42.04-.143.07-.288.092-.435.02-.147.03-.294.03-.442V4.454c-.002-.147-.012-.295-.03-.442-.02-.147-.052-.29-.092-.435-.037-.143-.084-.283-.142-.42-.057-.136-.123-.268-.2-.396-.072-.127-.155-.25-.245-.368-.09-.117-.188-.228-.293-.332-.105-.106-.216-.203-.333-.294-.118-.09-.24-.172-.37-.246-.128-.075-.26-.14-.396-.198-.137-.058-.277-.106-.42-.144-.143-.04-.288-.07-.435-.092-.148-.02-.296-.03-.443-.03H4.453c-.148.002-.295.012-.443.03-.146.022-.29.05-.433.092-.144.037-.285.084-.42.142-.138.058-.27.124-.397.2-.13.074-.252.156-.37.246-.117.09-.227.188-.33.294-.107.104-.205.215-.295.332-.09.117-.173.24-.247.37-.074.127-.14.26-.198.396-.056.136-.104.276-.143.42-.04.143-.07.288-.092.434-.02.147-.03.295-.03.442v51.094c0 .148.01.295.032.442.02.147.05.292.09.435.036.143.085.284.142.42.056.137.123.27.198.397.074.128.157.25.247.368s.188.23.294.332c.103.106.213.204.33.295.118.09.24.172.37.246.127.074.26.14.396.198.137.058.277.106.42.144.143.04.288.072.436.092.146.02.293.03.44.03H4.48z" stroke-miterlimit="22.926" stroke-width=".22814015"/><path stroke-linejoin="bevel" d="M4.48 59h-.028c-.15 0-.3-.01-.45-.03-.148-.02-.295-.052-.44-.09-.146-.04-.288-.088-.427-.147-.138-.058-.273-.126-.402-.202-.13-.074-.256-.158-.376-.25-.12-.09-.232-.19-.337-.298-.108-.106-.208-.22-.3-.337-.09-.12-.174-.245-.25-.376-.075-.13-.143-.265-.2-.404-.06-.14-.108-.28-.147-.426-.04-.146-.072-.293-.093-.442-.02-.15-.03-.3-.03-.45V4.454c0-.15.012-.3.03-.45.022-.148.053-.296.093-.44.038-.146.086-.29.145-.43.058-.137.126-.27.203-.4.076-.13.16-.256.25-.375.093-.12.192-.233.3-.34.105-.106.218-.206.337-.297.12-.092.245-.176.376-.25.13-.077.264-.144.402-.203.14-.058.28-.106.427-.145.145-.042.292-.072.44-.094.15-.02.3-.03.45-.03h51.095c.15.002.3.013.45.033.148.02.296.05.44.092.147.037.29.086.428.144.14.058.274.125.403.202.13.075.255.16.375.25.12.092.232.192.338.298.108.107.207.22.3.34.09.118.174.243.25.374.076.13.143.263.2.403.06.14.108.28.147.426.04.145.07.293.093.442.02.148.03.3.03.45v51.093c0 .15-.012.3-.032.45-.02.15-.05.296-.09.442-.04.145-.087.288-.147.426-.057.14-.124.273-.2.403-.076.13-.16.255-.25.375-.093.118-.192.23-.3.337-.105.108-.218.207-.337.3-.12.09-.245.174-.375.25-.13.075-.264.142-.404.2-.138.06-.28.107-.426.147s-.293.07-.442.092c-.148.02-.3.03-.45.03H4.48z" stroke-miterlimit="22.926" stroke-width="2.00006275"/></g><path d="M4.48 56.515h-.008c-.043 0-.086-.003-.128-.01-.043-.004-.085-.013-.127-.026-.04-.01-.082-.025-.122-.04-.038-.018-.077-.037-.114-.06-.037-.02-.073-.045-.107-.07-.033-.027-.066-.056-.096-.086-.03-.03-.06-.063-.086-.096-.024-.034-.048-.07-.07-.108-.022-.037-.04-.076-.058-.114-.016-.04-.03-.08-.04-.122-.013-.042-.022-.084-.027-.127-.006-.042-.01-.085-.01-.128V4.473c0-.043.004-.086.01-.13.005-.04.014-.084.026-.125.012-.043.026-.084.042-.123.017-.04.036-.08.06-.115.02-.037.044-.073.07-.107.026-.035.055-.066.085-.097.03-.03.063-.06.096-.085.034-.027.07-.05.108-.072.038-.02.077-.04.115-.057.04-.016.08-.03.122-.04.042-.012.084-.02.127-.027.042-.007.085-.01.128-.01h51.055c.043 0 .086.003.13.01.04.006.084.015.125.026.042.01.083.025.122.04.04.02.08.038.115.06s.072.044.106.07c.035.027.066.055.097.086s.06.062.085.097c.026.034.05.07.072.107s.04.075.058.115c.016.04.03.08.04.122.013.04.02.083.027.125.006.043.01.086.01.13v51.054c0 .042-.004.085-.01.127-.006.043-.014.085-.026.127-.01.04-.026.082-.042.122-.017.038-.036.077-.058.114-.022.038-.046.074-.072.108-.026.033-.054.066-.085.096-.03.03-.062.06-.097.086-.034.025-.07.05-.107.07-.037.023-.076.04-.116.06-.04.015-.08.03-.122.04-.04.012-.084.02-.126.027-.043.005-.086.008-.13.008H4.48" fill-rule="evenodd" fill="#039"/><path d="M26.226 2.81v31.245h8.225V2.81h-8.224z" fill="#fff"/><path d="M31.767 30.21h-3.47V57.63h3.47V30.21z" fill="#fff"/><path d="M57.398 25.866h-29.11v8.225h29.11v-8.224z" fill="#fff"/></svg>
