<svg xmlns="http://www.w3.org/2000/svg" height="60" width="60"><path stroke-linejoin="bevel" d="M12.148 150.58h61.454c.2 0 .403-.015.6-.043.2-.027.4-.067.593-.122.195-.05.385-.115.57-.194.187-.076.367-.167.54-.27.175-.1.342-.212.502-.335.16-.122.31-.256.45-.4.145-.14.28-.29.4-.45.124-.16.236-.33.336-.502.102-.174.192-.354.27-.54.077-.185.142-.377.194-.572.055-.192.098-.39.125-.59.03-.2.04-.4.04-.6V84.47c0-.202-.015-.402-.042-.602-.027-.2-.068-.396-.123-.59-.05-.195-.115-.386-.192-.57-.08-.188-.17-.368-.272-.54-.1-.176-.212-.344-.335-.503-.122-.16-.256-.31-.4-.452-.14-.143-.292-.276-.45-.4-.16-.123-.328-.234-.503-.334-.173-.103-.354-.193-.54-.27-.185-.078-.376-.143-.57-.196-.194-.055-.392-.096-.592-.125-.198-.028-.4-.042-.6-.04h-61.49c-.202 0-.403.014-.602.042-.2.027-.397.067-.59.122-.195.05-.387.115-.572.194-.186.077-.366.17-.538.27-.175.1-.343.212-.503.336-.16.123-.31.256-.45.4-.145.14-.28.29-.4.45-.124.16-.236.328-.335.503-.102.173-.192.353-.27.54-.077.185-.144.376-.196.57-.054.195-.096.392-.124.59-.03.2-.04.4-.04.602v61.491c0 .2.015.4.04.6.03.2.07.397.124.59.05.196.116.387.194.574.078.185.168.365.272.54.1.172.21.34.334.5s.256.31.4.452c.14.143.292.276.45.4.16.12.33.234.504.334.172.102.353.193.538.27.187.077.377.142.572.195.193.055.39.096.59.125.2.028.4.04.602.04H12.148z" stroke="#231f20" stroke-miterlimit="22.926" stroke-width=".278" fill="none" transform="matrix(.81845 0 0 .81844 -5.076 -64.3)"/><path stroke-linejoin="bevel" d="M12.148 150.65h-.036c-.205 0-.41-.015-.612-.043s-.402-.07-.598-.124c-.198-.052-.392-.117-.58-.197-.19-.08-.372-.17-.547-.275-.177-.1-.347-.214-.51-.34-.16-.122-.315-.26-.458-.404-.145-.143-.28-.296-.405-.458-.125-.162-.238-.332-.34-.51-.103-.175-.194-.358-.273-.547s-.146-.38-.198-.578c-.057-.197-.1-.397-.128-.6s-.042-.406-.04-.61v-61.49c0-.204.015-.408.043-.61s.068-.403.125-.6c.05-.198.116-.392.195-.58.08-.188.17-.37.276-.547.1-.176.215-.346.34-.51.124-.16.26-.314.404-.457.143-.145.297-.282.458-.407.163-.122.333-.235.51-.337.175-.104.358-.195.547-.274s.382-.146.58-.2c.196-.055.396-.096.6-.125.2-.03.405-.042.61-.04h61.49c.204 0 .408.015.61.043.202.027.403.068.6.123.197.053.39.12.58.198s.37.17.546.275c.177.102.347.216.508.34.163.125.317.26.46.405.145.143.28.297.405.458.126.163.24.332.34.51.104.175.195.358.274.547s.145.38.198.578c.056.2.098.4.127.6.027.204.04.408.04.61v61.492c-.002.204-.016.408-.043.61s-.07.403-.125.6c-.052.198-.117.392-.197.58-.078.188-.17.37-.275.547-.1.176-.215.346-.34.507-.124.163-.26.315-.404.46-.143.144-.297.28-.46.404-.16.126-.33.24-.508.34-.177.104-.358.196-.547.275-.187.08-.38.145-.58.198-.195.056-.396.097-.6.126-.2.028-.403.04-.607.04H12.148z" fill-rule="evenodd" stroke="#000" stroke-miterlimit="22.926" stroke-width="2.444" fill="#fff" transform="matrix(.81845 0 0 .81844 -5.076 -64.3)"/><path d="M5.214 57.173h49.59c.105 0 .207-.008.31-.022.102-.012.203-.034.3-.062.1-.025.2-.058.294-.1.095-.038.187-.084.276-.137.09-.05.175-.108.257-.17.083-.064.16-.132.233-.205.072-.073.14-.15.204-.23.062-.083.12-.17.17-.26.053-.087.1-.18.14-.274.04-.094.072-.192.098-.292.03-.1.05-.2.064-.302.014-.102.02-.205.02-.308V5.198c0-.104-.008-.205-.02-.308-.015-.102-.036-.203-.065-.302-.025-.1-.058-.198-.1-.293s-.084-.187-.138-.275c-.05-.09-.108-.176-.17-.257s-.132-.16-.204-.232c-.073-.072-.15-.14-.232-.203s-.167-.12-.256-.172c-.09-.05-.18-.098-.276-.138-.095-.04-.193-.073-.293-.1-.098-.027-.2-.048-.302-.063-.102-.014-.204-.022-.308-.02H5.195c-.102 0-.205.008-.307.02-.103.015-.204.036-.303.063-.1.026-.198.06-.292.1-.095.04-.187.086-.276.138-.09.052-.175.11-.257.172s-.16.13-.23.204c-.075.073-.143.15-.206.233-.063.08-.12.167-.172.257-.05.09-.097.18-.137.275-.04.095-.073.193-.1.293-.028.1-.05.2-.064.303-.013.103-.02.204-.02.307v49.61c0 .104.01.207.022.31.014.102.035.202.062.3.027.1.06.2.1.294.04.096.086.188.138.276.052.09.11.176.172.258.064.08.13.158.205.23.07.074.148.143.23.206.082.062.167.12.257.17.09.052.18.1.276.138.094.04.192.074.292.1.1.028.2.05.303.065.102.014.205.02.308.02h.018z" fill-rule="evenodd" fill="#e72512"/><path d="M43.475 49.332L10.668 16.525v32.807h32.807M49.333 43.472V10.665H16.525l32.808 32.807" fill-rule="evenodd" fill="#fff"/><path d="M22.755 42.98l-4.922-.658c-.062 0-.125-.01-.185-.028-.093-.024-.184-.05-.275-.077-.18-.052-.357-.11-.532-.177-.152-.06-.3-.13-.443-.213-.153-.085-.3-.18-.44-.285-.142-.106-.276-.22-.402-.343l-.095-.095-.096-.103c-.102-.11-.2-.224-.294-.34-.072-.08-.13-.17-.175-.268-.008-.016-.018-.03-.03-.043l-.04-.04c-.02-.015-.037-.032-.057-.047-.018-.014-.037-.03-.057-.04s-.04-.025-.062-.034c-.023-.01-.045-.018-.07-.024-.02-.007-.045-.012-.07-.016-.023-.003-.047-.005-.07-.005-.025 0-.048 0-.073.004-.023.002-.047.006-.07.012-.023.006-.046.013-.068.023-.022.008-.044.02-.065.03-.02.013-.04.025-.06.04-.02.013-.038.03-.055.046s-.033.036-.048.054c-.015.02-.03.04-.042.06s-.022.042-.033.064c-.01.022-.017.044-.023.068l-.016.07c-.003.024-.005.047-.005.072 0 .022.002.046.005.07.003.024.008.048.013.07.007.033.015.063.027.093.01.03.027.053.048.075l.022.028.02.03c.11.144.217.288.328.43s.227.278.352.408c.15.165.316.316.492.453.177.138.363.264.557.376.193.114.392.216.598.305.205.088.416.162.63.222.106.03.213.058.32.082.108.025.214.05.32.072L34.1 45.634v-1.097l-6.954-.915 3.74-5.65c.014-.024.03-.047.046-.07l.07-.09c.036-.045.072-.087.11-.128.033-.036.067-.07.102-.105.07-.073.146-.14.227-.2.1-.074.202-.142.31-.2.066-.04.135-.077.204-.112.04-.024.085-.04.132-.05l4.958-1.374c.015-.003.03-.008.045-.013.016-.005.033-.01.05-.018.07-.028.142-.057.212-.087.066-.03.13-.062.194-.098.097-.052.19-.11.28-.178.09-.068.176-.142.255-.223.083-.077.16-.16.23-.25.067-.087.13-.18.186-.274.015-.025.03-.05.043-.075l.042-.08.02-.04.015-.035 4.3-9.66c.026-.026.05-.054.067-.084.02-.034.04-.068.057-.103.032-.057.06-.115.087-.174.026-.058.047-.117.065-.177.018-.06.032-.123.042-.186.008-.063.013-.127.013-.192 0-.064-.002-.128-.01-.19-.008-.065-.02-.128-.035-.19-.015-.062-.035-.122-.058-.182s-.052-.117-.083-.172c-.03-.057-.065-.11-.104-.16-.038-.052-.08-.1-.124-.146-.044-.046-.092-.09-.142-.13-.05-.04-.103-.075-.158-.107-.055-.032-.112-.06-.17-.087-.06-.025-.12-.047-.18-.063-.063-.017-.125-.03-.188-.04-.064-.008-.127-.013-.192-.014-.063-.002-.128 0-.19.006-.064.008-.128.02-.19.04-.006 0-.014.003-.02.005-.008 0-.014.004-.02.007L28.26 25.51h-14.29v.73H26.86l.652 2.927 9.148-1.83-1.61 3.8c-.01.025-.02.05-.033.073-.015.03-.03.06-.046.087-.077.15-.162.296-.252.438-.084.133-.184.255-.296.366-.077.08-.16.153-.25.22s-.186.127-.286.18c-.098.055-.198.102-.302.142-.104.04-.21.076-.318.106l-.015.004-.012.003-3.238.933c-.02.006-.043.012-.064.02l-.078.033c-.054.023-.11.047-.16.07-.05.025-.098.05-.145.076-.096.054-.19.115-.277.182-.09.068-.176.14-.258.218-.056.05-.11.105-.16.162-.052.058-.098.12-.14.187l-.01.018-.01.02-5.943 8.31M43.247 18.92v.033c0 .11-.01.223-.026.333-.015.11-.038.22-.07.328-.028.108-.065.214-.11.317-.044.103-.095.203-.153.298-.056.097-.12.19-.19.278-.068.087-.144.17-.225.247-.078.08-.164.152-.253.22-.09.066-.185.127-.283.18-.097.057-.198.105-.302.146-.104.04-.21.074-.32.102-.107.027-.218.05-.328.06-.112.015-.223.02-.336.02-.11-.002-.222-.01-.332-.027-.112-.016-.22-.04-.33-.07-.106-.03-.21-.067-.315-.112-.102-.044-.2-.095-.297-.152-.097-.056-.19-.12-.278-.19s-.17-.143-.247-.224c-.078-.08-.152-.165-.218-.254-.067-.09-.127-.184-.18-.282-.056-.097-.106-.197-.147-.302-.04-.103-.075-.21-.103-.32s-.048-.217-.06-.328c-.014-.11-.02-.222-.018-.335 0-.11.01-.223.025-.333.015-.112.04-.22.07-.33.03-.106.067-.212.11-.315.045-.102.096-.202.154-.298.057-.098.12-.19.19-.278s.143-.17.224-.248c.08-.078.165-.152.254-.218.09-.068.184-.128.282-.182.097-.056.197-.104.302-.146.104-.04.21-.075.32-.102.107-.028.217-.05.328-.062.11-.013.223-.02.335-.017.11 0 .222.01.333.026.11.016.22.04.328.07.108.03.215.067.317.112.103.044.203.095.298.152.097.058.19.12.277.19s.17.144.25.225c.076.078.15.163.216.253.068.09.128.184.183.283.056.097.104.197.146.302.04.103.076.21.102.318.027.103.047.207.06.314.014.105.02.21.02.317" fill-rule="evenodd"/></svg>
