<svg xmlns="http://www.w3.org/2000/svg" height="60" width="60"><g stroke="#000" fill="#fff"><path stroke-linejoin="bevel" d="M0 0v49.916c0 .144-.01.29-.03.432-.02.144-.05.286-.088.425-.037.14-.083.278-.14.41s-.12.264-.195.388c-.072.127-.152.247-.24.362-.088.114-.184.223-.287.325-.102.103-.21.2-.325.287-.115.088-.235.17-.36.24-.126.074-.255.138-.39.194-.132.056-.27.103-.41.14-.14.04-.28.07-.424.09s-.287.03-.43.03h-49.943c-.145-.002-.29-.012-.433-.03-.143-.02-.285-.05-.424-.09-.14-.036-.278-.082-.41-.138-.135-.057-.264-.122-.388-.196-.126-.072-.246-.152-.36-.24s-.224-.184-.326-.287c-.103-.102-.2-.21-.287-.325-.09-.115-.17-.235-.242-.36-.073-.126-.138-.255-.194-.39-.055-.132-.102-.27-.14-.41-.04-.138-.07-.28-.09-.424-.02-.143-.03-.288-.03-.432V-.026c.002-.145.012-.29.032-.432.02-.144.05-.286.088-.425.036-.14.083-.278.14-.41s.12-.264.194-.388c.072-.127.153-.247.24-.362s.185-.223.288-.325c.102-.103.21-.2.325-.287.116-.09.236-.17.362-.24.124-.074.254-.14.387-.195.133-.054.27-.1.41-.14.14-.038.28-.068.424-.088.144-.02.288-.03.433-.03H-3.32c.143 0 .288.012.43.03.145.02.287.05.426.09.14.035.277.082.41.138.134.056.263.122.388.195.125.072.246.153.36.24.115.09.224.185.326.288.103.102.2.21.287.325.088.114.168.235.24.36.074.125.138.255.194.388.057.134.104.27.142.41.04.14.07.282.09.426.02.143.03.287.028.432V0z" stroke-miterlimit="22.926" stroke-width=".223" transform="matrix(0 1.02304 1.02306 0 4.48 58.944)"/><path stroke-linejoin="bevel" d="M0 0v-.027c0-.146-.01-.293-.03-.44-.02-.145-.05-.29-.09-.43-.038-.143-.085-.283-.142-.418s-.123-.267-.198-.393c-.074-.128-.155-.25-.245-.367-.09-.117-.187-.227-.29-.33-.105-.105-.215-.203-.33-.292-.118-.09-.24-.17-.368-.244-.127-.076-.258-.142-.394-.198-.136-.057-.275-.105-.417-.143-.142-.04-.286-.072-.432-.092-.145-.02-.292-.03-.44-.03h-49.942c-.147 0-.294.012-.44.03-.145.02-.29.05-.43.09-.143.038-.283.085-.42.142-.134.057-.265.124-.39.2-.13.072-.252.154-.368.243-.117.09-.227.187-.33.292-.105.103-.203.213-.292.33-.09.116-.172.24-.245.367-.074.126-.14.258-.197.393-.057.136-.104.275-.142.418-.04.14-.07.286-.092.43-.02.147-.03.294-.03.44v49.943c.002.147.012.294.032.44.02.145.05.29.09.43.037.144.084.283.14.42.058.134.124.266.2.392.073.128.154.25.244.367.09.116.187.227.29.33.105.105.215.202.332.292.116.09.24.17.367.244.127.076.258.142.394.198.136.057.275.105.418.143.14.04.285.07.43.092.146.02.293.03.44.03h49.943c.147 0 .294-.012.44-.032.145-.02.29-.05.43-.09.143-.036.283-.084.418-.14.136-.058.267-.124.394-.2.127-.072.25-.154.366-.243.117-.09.227-.187.33-.292.106-.103.203-.214.293-.33.09-.117.17-.24.244-.367.074-.127.14-.258.197-.394.057-.135.104-.275.142-.417.04-.14.07-.286.09-.43.02-.147.03-.294.03-.44V0z" stroke-miterlimit="22.926" stroke-width="1.955" transform="matrix(0 1.02304 1.02306 0 4.48 59)"/></g><path d="M4.48 56.514h-.008c-.043 0-.086-.003-.128-.01-.043-.005-.085-.014-.126-.025-.042-.012-.083-.026-.123-.043-.04-.016-.077-.036-.114-.057s-.073-.045-.107-.072-.066-.055-.096-.086c-.03-.03-.06-.062-.085-.096-.026-.034-.05-.07-.07-.107-.024-.038-.042-.076-.06-.116-.016-.04-.03-.08-.04-.122-.013-.042-.022-.084-.028-.127-.005-.042-.008-.085-.008-.128V4.473c0-.043.003-.086.01-.128.005-.043.013-.085.025-.127.012-.042.026-.082.042-.122s.036-.078.06-.116c.02-.036.044-.072.07-.106.026-.035.054-.066.085-.097.03-.03.062-.058.096-.085.034-.026.07-.05.108-.07.038-.023.076-.043.115-.06.04-.015.08-.03.123-.04.04-.012.083-.02.126-.028.042-.006.085-.008.128-.008h51.056c.043 0 .086.003.13.008.04.007.084.016.125.027.04.012.082.026.12.042.04.017.08.037.117.06.037.02.072.044.106.07.035.027.067.055.097.085.03.03.06.062.085.097.027.034.05.07.072.106.02.038.04.076.057.116.018.04.03.08.042.122.01.042.02.084.026.127.006.042.01.085.01.128v51.054c0 .043-.005.086-.01.128-.006.043-.015.085-.027.127-.01.04-.025.082-.042.122s-.036.078-.058.115c-.022.036-.045.072-.072.106s-.054.066-.085.096c-.03.03-.062.06-.097.086-.034.027-.07.05-.106.072s-.076.04-.116.057c-.04.016-.08.03-.12.042-.042.01-.085.02-.127.025-.043.006-.086.01-.13.01H4.48" fill-rule="evenodd" fill="#039"/><path d="M38.703 48.09l7.43-.995c.094 0 .188-.015.28-.043.14-.036.277-.075.415-.116.27-.078.54-.168.803-.267.232-.09.456-.198.67-.322.23-.13.454-.273.666-.43.214-.16.415-.333.606-.52.048-.045.096-.093.143-.14.05-.052.098-.105.146-.157.155-.165.302-.336.444-.512.108-.12.197-.257.264-.403.01-.025.027-.046.046-.066.02-.02.04-.042.062-.06.027-.026.055-.05.083-.073.026-.022.056-.043.086-.062.03-.02.062-.036.096-.05.033-.014.067-.026.103-.035.035-.01.07-.018.105-.023.036-.005.073-.008.11-.01.035 0 .07.003.107.007s.072.01.107.02.07.02.103.033.065.03.097.047c.032.018.062.037.09.06.03.02.057.044.084.07.026.025.05.052.073.08s.044.06.062.09c.018.03.035.063.05.095.013.033.026.067.035.103.01.035.018.07.023.106s.008.07.008.107c0 .035 0 .07-.007.106-.003.037-.01.073-.017.108-.01.048-.023.094-.04.138-.017.042-.042.08-.073.112l-.033.044-.033.045c-.162.217-.325.433-.492.648-.167.213-.344.42-.53.615-.23.247-.48.475-.745.683-.267.21-.548.398-.84.567-.29.174-.593.328-.903.46-.31.135-.628.247-.954.337-.158.046-.32.088-.48.125s-.324.075-.486.11l-24.885 3.37v-1.658l10.494-1.38-5.645-8.53c-.023-.036-.045-.07-.072-.105-.033-.046-.07-.092-.106-.137-.052-.066-.107-.13-.165-.193-.05-.054-.1-.106-.153-.158-.108-.108-.22-.208-.343-.3-.147-.112-.303-.214-.464-.304-.102-.06-.205-.114-.31-.168-.06-.035-.13-.06-.2-.076l-7.484-2.072c-.023-.005-.045-.012-.067-.02l-.076-.03c-.11-.04-.217-.085-.322-.132-.1-.044-.198-.092-.293-.145-.146-.08-.287-.17-.42-.27-.137-.102-.267-.213-.388-.334-.124-.12-.238-.245-.344-.38-.102-.13-.196-.27-.28-.413-.024-.037-.046-.074-.066-.112-.023-.04-.044-.08-.065-.12l-.03-.06c-.01-.018-.017-.036-.025-.055L8.267 20.36c-.04-.037-.072-.08-.1-.125-.03-.05-.06-.1-.087-.153-.046-.086-.09-.175-.13-.264-.04-.086-.07-.175-.098-.266-.027-.092-.048-.186-.06-.28-.015-.097-.022-.194-.023-.29-.002-.097.002-.194.015-.29.01-.096.028-.19.053-.284.022-.093.052-.185.088-.275.036-.09.078-.177.125-.26.048-.085.1-.167.158-.244.057-.078.12-.15.188-.22.067-.07.14-.135.214-.194s.157-.114.24-.163c.08-.05.167-.094.256-.133.088-.037.18-.07.274-.095.092-.026.187-.046.282-.06.095-.013.192-.02.288-.023.097-.003.193 0 .29.012s.19.03.282.056l.033.01.032.01 19.802 4.883h21.57v1.105H32.505l-.983 4.42-13.81-2.762 2.43 5.733c.015.038.032.074.05.11l.07.132c.118.226.244.447.382.662.127.2.277.384.447.55.117.12.243.23.378.33.137.102.28.193.432.274.147.08.3.153.455.214.158.06.318.115.482.16l.02.006.02.006 4.89 1.406c.03.008.064.02.095.03l.12.05c.08.033.162.07.24.107.075.035.147.07.218.112.146.08.286.172.42.273.135.103.265.213.39.33.083.077.164.158.24.244.078.088.147.182.21.283l.017.028.015.027 8.97 12.545M7.766 11.77v.052c.003.17.015.336.04.503.022.168.058.333.105.495.045.163.1.324.167.478.068.156.145.306.232.45.085.146.18.285.285.418s.22.257.34.374c.12.12.248.23.383.33s.277.193.426.275c.146.083.298.156.456.22.156.06.317.113.48.154.164.04.33.073.498.092.168.02.337.03.505.025.17 0 .338-.014.505-.038.167-.025.332-.06.495-.107.163-.045.322-.102.477-.168.155-.067.306-.143.45-.23.146-.086.285-.182.418-.286.132-.106.258-.22.375-.342.118-.12.23-.247.33-.383.1-.135.192-.277.273-.425.084-.147.158-.298.22-.456.063-.157.114-.317.155-.482.044-.163.074-.33.095-.496.02-.168.027-.337.024-.505-.002-.168-.015-.337-.038-.505-.025-.167-.06-.33-.108-.494-.045-.162-.1-.32-.167-.476-.066-.155-.144-.306-.23-.45-.087-.146-.182-.285-.286-.418-.104-.132-.217-.258-.34-.375-.12-.117-.248-.228-.383-.33-.135-.1-.277-.19-.425-.273-.147-.083-.3-.157-.455-.22s-.32-.114-.482-.154c-.164-.043-.33-.073-.498-.094-.167-.02-.336-.028-.505-.025-.17 0-.338.013-.504.037s-.333.06-.494.108c-.163.044-.323.1-.478.167-.155.066-.305.144-.45.23-.146.086-.286.182-.418.286-.133.105-.258.218-.375.34-.12.12-.228.25-.33.384s-.192.277-.274.425c-.084.146-.157.3-.22.455s-.114.318-.154.482c-.04.155-.072.312-.092.472-.02.158-.03.32-.028.48" fill-rule="evenodd" fill="#fff"/></svg>
