<svg xmlns="http://www.w3.org/2000/svg" height="60" width="60"><g stroke="#000" fill="#fff"><path stroke-linejoin="bevel" d="M0 0v49.916c0 .145-.01.29-.03.432-.02.144-.05.286-.09.425-.035.14-.082.278-.138.41s-.12.264-.195.388c-.072.127-.153.247-.24.362-.09.114-.185.223-.288.325-.102.103-.21.2-.325.287-.115.088-.236.17-.36.24-.126.074-.255.138-.39.194-.132.056-.27.103-.41.14-.14.04-.28.07-.424.09-.143.02-.287.03-.43.03h-49.944c-.144-.002-.29-.012-.432-.03-.144-.02-.285-.05-.425-.09-.14-.036-.278-.082-.41-.138-.135-.057-.264-.122-.39-.196-.124-.07-.245-.152-.36-.24-.114-.088-.223-.184-.324-.287-.104-.102-.2-.21-.288-.325-.088-.115-.168-.235-.24-.36-.073-.126-.138-.255-.194-.388-.056-.134-.103-.27-.14-.41-.04-.14-.07-.282-.09-.426-.02-.143-.03-.288-.03-.432V-.026c.002-.145.012-.29.03-.433.02-.142.05-.284.09-.423.036-.14.082-.278.138-.41.057-.134.122-.264.196-.39.072-.124.152-.245.24-.36.09-.114.184-.222.288-.324.1-.103.21-.2.324-.287.115-.09.236-.17.36-.24.126-.074.256-.14.39-.195.132-.054.27-.1.41-.14.14-.038.28-.068.424-.088.143-.02.288-.03.432-.03H-3.322c.143 0 .287.01.43.03.144.02.286.05.426.09.14.035.277.082.41.138.134.056.263.12.388.195.125.072.246.153.36.24.115.09.224.185.325.288.102.102.2.21.287.325.088.114.168.235.24.36.073.125.138.255.194.388.057.134.104.27.14.41.04.14.07.282.09.426.02.143.03.287.03.432V0z" stroke-miterlimit="22.926" stroke-width=".223" transform="matrix(0 1.02304 1.02306 0 4.48 58.942)"/><path stroke-linejoin="bevel" d="M0 0v-.027c0-.147-.01-.293-.03-.44-.02-.145-.05-.29-.09-.43-.037-.143-.085-.283-.142-.418s-.123-.267-.198-.393c-.073-.128-.155-.25-.245-.367-.09-.117-.187-.227-.29-.33-.105-.105-.215-.203-.33-.292-.118-.09-.24-.17-.368-.244-.127-.076-.258-.142-.394-.198-.136-.057-.275-.105-.417-.143-.142-.04-.286-.072-.432-.092-.145-.02-.292-.03-.44-.03h-49.942c-.147 0-.294.012-.44.03-.145.02-.29.05-.43.09-.143.038-.283.085-.42.142-.134.057-.265.123-.39.2-.13.072-.252.154-.368.243-.117.09-.227.187-.33.292-.105.103-.203.213-.292.33-.09.116-.172.24-.245.367-.074.126-.14.258-.197.393-.057.136-.104.275-.142.418-.04.14-.07.285-.092.43-.02.147-.03.294-.03.44v49.943c.002.147.012.294.032.44.02.145.05.29.09.43.036.144.084.283.14.42.058.134.124.266.2.392.072.128.154.25.244.367.09.116.187.227.29.33.105.105.215.202.332.292.116.09.24.17.367.244.127.076.258.142.394.198.136.057.275.105.418.143.14.04.285.07.43.092.146.02.293.03.44.03h49.943c.147 0 .294-.012.44-.032.145-.02.29-.05.43-.09.143-.036.283-.083.418-.14.136-.058.267-.124.394-.2.127-.072.25-.154.367-.243.116-.09.226-.187.33-.292.105-.103.202-.214.292-.33.09-.117.17-.24.244-.367.075-.127.14-.258.197-.394.057-.135.104-.275.143-.417.04-.14.07-.286.09-.43.02-.147.03-.294.03-.44V0z" stroke-miterlimit="22.926" stroke-width="1.955" transform="matrix(0 1.02304 1.02306 0 4.48 58.997)"/></g><path d="M4.48 56.52h-.008c-.043 0-.086-.004-.128-.01-.043-.005-.085-.014-.126-.026-.042-.01-.083-.025-.123-.04-.04-.018-.078-.037-.114-.06-.037-.02-.073-.045-.107-.07-.034-.027-.066-.055-.096-.086-.03-.03-.06-.063-.086-.096-.025-.034-.048-.07-.07-.108-.022-.037-.04-.075-.057-.114-.017-.04-.032-.08-.042-.122-.01-.042-.02-.084-.026-.127-.006-.04-.01-.084-.01-.127V4.478c0-.043.004-.086.01-.13.006-.04.015-.084.027-.125.01-.04.026-.082.042-.12.017-.04.036-.08.058-.117.022-.037.045-.072.072-.106.026-.035.054-.067.085-.097.03-.03.062-.06.096-.085.034-.027.07-.05.108-.072.037-.02.076-.04.115-.058.04-.017.08-.03.123-.04.04-.013.083-.022.126-.028.042-.006.085-.01.128-.008h51.056c.043 0 .086.002.13.008.04.006.083.015.124.027.042.01.083.024.122.04.04.018.08.037.116.06.037.02.072.044.106.07.035.026.067.055.097.086s.06.062.085.097c.027.034.05.07.072.106s.04.076.058.116c.017.04.03.08.04.12.013.042.022.085.028.127.006.042.01.085.01.128v51.055c0 .043-.004.086-.01.128-.006.044-.015.086-.027.128-.01.04-.025.082-.042.122-.016.04-.036.077-.058.114-.022.038-.045.074-.072.108-.025.033-.054.066-.085.096-.03.03-.062.06-.097.086-.034.025-.07.05-.106.07-.037.023-.076.04-.116.06-.04.015-.08.03-.122.04-.04.012-.083.02-.125.027-.043.006-.086.01-.13.01H4.482" fill-rule="evenodd" fill="#039"/><path d="M12.615 32.875v.728l.002.035c0 .01 0 .024.002.035.01.134.037.266.083.392.045.126.11.245.195.353.064.09.14.17.228.24s.183.127.285.17c.116.052.238.087.36.103.127.02.254.02.38.007.13-.01.255-.034.376-.075.12-.04.235-.1.337-.175.104-.076.196-.167.272-.272.076-.105.136-.22.178-.342.015-.04.03-.08.04-.12.01-.04.02-.08.027-.12l.008-.052.007-.05V32.087c0-.02 0-.04-.003-.057-.005-.077-.02-.155-.043-.23s-.054-.148-.09-.218c-.035-.074-.076-.145-.123-.212-.046-.067-.1-.128-.16-.182-.037-.037-.077-.07-.12-.1s-.088-.058-.134-.082l-.055-.03-.057-.027-1.766-.713-.042-.016c-.014-.004-.027-.01-.04-.015-.11-.044-.215-.095-.317-.156-.102-.06-.2-.126-.293-.196-.175-.126-.337-.27-.484-.426-.147-.157-.278-.33-.39-.514-.13-.207-.235-.428-.312-.66-.077-.23-.125-.47-.142-.712l-.006-.06-.004-.057V26.27v-.096l.004-.095c.01-.173.037-.342.08-.508.046-.167.105-.33.177-.487.104-.245.238-.476.396-.69.16-.213.346-.405.555-.57.218-.184.46-.337.722-.453s.537-.197.82-.24c.237-.04.48-.053.72-.037.24.014.478.058.708.13.296.084.577.212.835.38.26.167.493.37.693.605.166.18.31.38.428.597.12.214.212.44.276.676.03.097.052.195.072.294.018.098.032.197.04.298l.005.065.005.066v.88h-1.935v-.733l-.004-.038-.005-.038c-.01-.08-.02-.156-.04-.234s-.04-.152-.072-.225c-.047-.113-.113-.217-.195-.308-.083-.092-.177-.172-.282-.237-.098-.068-.205-.12-.317-.16-.114-.038-.23-.06-.348-.064-.167-.014-.336.007-.494.06-.162.05-.31.134-.44.242-.105.08-.196.177-.268.287-.073.105-.126.225-.157.35-.012.044-.022.088-.028.133-.008.045-.014.09-.02.135l-.003.04-.004.042v.87l.002.035.003.035c.008.09.025.176.05.262.023.086.054.17.094.25.035.075.078.148.127.215s.105.13.166.187c.035.033.07.064.107.09.037.03.077.056.118.078.014.008.028.017.043.024l.043.02 1.467.59.046.02.047.023.316.136c.106.042.21.092.31.145.136.07.265.153.386.247s.235.198.342.31c.13.132.25.277.36.43.105.152.197.315.274.486.08.172.144.352.19.536s.08.37.095.56l.006.046.003.045V33.7l-.004.036-.005.037c-.012.13-.027.256-.048.382-.02.126-.046.25-.08.375-.068.26-.17.51-.308.74-.14.23-.306.445-.5.633-.17.178-.36.335-.567.466-.208.132-.43.24-.66.32-.243.09-.495.15-.752.18s-.518.03-.776 0c-.343-.035-.678-.12-.995-.257-.317-.136-.61-.322-.867-.553-.217-.184-.407-.395-.564-.632-.158-.234-.28-.49-.363-.76-.046-.135-.08-.274-.107-.416-.027-.142-.045-.285-.056-.428l-.003-.045-.003-.044v-.858h1.938M19.04 36.754V23.222h3.287l.072.006.07.006c.173.016.346.047.515.09.17.046.335.105.493.18.235.102.457.235.658.397.2.16.38.348.534.554.115.144.216.3.3.463.086.16.154.332.206.507.033.104.06.21.082.316s.04.214.052.32l.01.075.01.075V28.493c-.004.19-.032.376-.084.558-.05.183-.12.362-.206.533-.11.24-.248.465-.412.673-.16.206-.35.39-.563.54-.192.15-.404.272-.628.367s-.457.168-.696.215c-.054.012-.11.024-.163.032-.055.01-.11.015-.166.02l-.085.003h-1.361v5.32H19.04M26.79 26.254l.005-.056c0-.02.003-.037.004-.056.02-.24.066-.48.135-.713.07-.234.167-.46.29-.67.135-.248.303-.476.503-.676.198-.2.423-.375.67-.514.19-.118.395-.215.61-.29.212-.072.432-.123.656-.15.274-.036.552-.037.826-.003.274.034.542.106.798.213.29.114.56.27.804.466.245.197.462.428.642.686.176.233.32.49.426.762.106.268.165.552.176.84l.003.055.002.056v7.514l-.006.06-.006.06c-.02.196-.053.388-.1.58-.05.19-.117.374-.2.553-.143.326-.34.626-.586.886-.244.26-.533.476-.852.636-.23.13-.48.228-.736.29-.256.063-.52.094-.784.09-.27.005-.537-.025-.798-.087-.26-.063-.51-.16-.745-.286-.216-.11-.416-.246-.597-.405-.184-.16-.348-.338-.493-.534-.157-.204-.29-.426-.394-.662-.104-.234-.174-.48-.21-.733-.008-.06-.017-.122-.023-.183s-.01-.123-.015-.184l-.007-.1v-7.45" fill-rule="evenodd" fill="#fff"/><path d="M28.73 26.352v7.24l.005.05c0 .015.003.032.004.047.012.127.04.253.082.375s.102.236.18.34c.078.116.18.217.293.298.116.082.245.143.382.182.135.043.276.063.418.058s.283-.032.415-.082c.12-.04.233-.1.335-.174.104-.074.195-.163.27-.263.06-.075.112-.155.153-.24.042-.085.074-.174.097-.266.01-.04.02-.077.027-.117.006-.04.01-.08.013-.12l.002-.045v-7.302l-.003-.05c0-.017-.003-.033-.005-.05-.012-.105-.035-.208-.07-.31-.034-.1-.082-.195-.14-.283-.077-.122-.173-.228-.285-.315-.114-.088-.24-.157-.377-.203-.14-.052-.286-.08-.435-.084s-.295.02-.437.068c-.125.038-.244.094-.354.17-.107.072-.202.162-.28.267-.057.07-.105.147-.145.23-.04.08-.07.165-.094.252-.012.04-.022.08-.03.12-.007.042-.013.083-.016.125l-.004.04-.002.042" fill-rule="evenodd" fill="#039"/><path d="M35.262 36.754V23.222H38.902c.032 0 .062 0 .093.003.266.014.53.072.776.172.253.102.49.238.705.403.233.164.44.36.62.58.178.218.324.46.43.72.065.14.12.287.16.437.042.148.074.3.098.453l.01.063.01.065v1.852l-.01.08-.01.08c-.025.185-.062.37-.11.55-.05.18-.118.356-.2.524-.077.162-.17.316-.275.46-.106.145-.224.28-.355.403-.08.078-.165.153-.254.223s-.182.135-.277.194c-.023.014-.046.03-.07.043-.022.013-.045.028-.068.04l2.106 6.187h-2.064l-1.812-5.787h-1.202v5.787h-1.94" fill-rule="evenodd" fill="#fff"/><path d="M37.202 25.05v4.217h1.526l.052-.005c.15-.01.296-.05.43-.11.138-.063.26-.15.364-.26.07-.063.128-.135.18-.214.05-.078.093-.162.13-.248.025-.058.046-.117.063-.177.018-.06.03-.12.037-.183l.005-.048.002-.05v-1.616l-.003-.045c-.003-.013-.004-.028-.006-.043-.008-.076-.02-.15-.04-.225-.017-.074-.042-.146-.072-.216-.038-.092-.088-.178-.148-.258-.06-.08-.13-.15-.206-.215-.066-.056-.137-.106-.214-.147-.076-.042-.156-.075-.238-.1-.052-.015-.104-.028-.156-.037-.053-.01-.106-.016-.16-.018h-1.548" fill-rule="evenodd" fill="#039"/><path d="M45.09 36.754V25.027H42.79V23.22h6.537l.002 1.807h-2.3v11.727H45.09" fill-rule="evenodd" fill="#fff"/><path d="M20.955 25.05v4.57h1.22l.056-.002.057-.002c.11-.006.22-.028.325-.065.105-.036.204-.086.296-.15.087-.055.166-.12.238-.195.07-.074.13-.157.182-.246.05-.085.09-.174.12-.266.03-.092.05-.188.058-.284 0-.013.002-.025.003-.038V26.285c0-.02-.002-.044-.005-.067-.002-.023-.004-.045-.008-.068-.017-.114-.05-.226-.098-.33-.05-.106-.11-.205-.188-.293-.078-.098-.17-.183-.274-.252-.104-.07-.217-.124-.336-.16-.05-.018-.1-.032-.15-.042-.05-.01-.1-.017-.15-.02h-.06c-.02-.002-.04-.002-.06-.002h-1.227" fill-rule="evenodd" fill="#039"/></svg>
