<svg xmlns="http://www.w3.org/2000/svg" xmlns:xlink="http://www.w3.org/1999/xlink" width="60" height="60"><symbol id="a"><path d="M49.735 51.786V47.06h-8.888c-.253-.683-.502-1.365-.746-2.052-.24-.683-.47-1.375-.68-2.07-.164-.542-.314-1.087-.453-1.636-.138-.55-.266-1.1-.385-1.655-.188-.87-.352-1.744-.49-2.622-.136-.878-.242-1.76-.316-2.647-.03-.32-.054-.643-.076-.966l-.063-.967-16.26-2.245c-.01.493-.02.987-.034 1.48-.014.493-.035.987-.063 1.48-.063 1.067-.17 2.13-.318 3.19-.147 1.06-.334 2.114-.56 3.16-.164.807-.352 1.61-.564 2.406-.212.795-.45 1.582-.713 2.36-.157.47-.322.935-.493 1.397-.172.463-.346.925-.524 1.387H5.85v4.726h43.884zM20.955 24.007l16.79 2.317c.05-.49.1-.978.156-1.47.055-.486.12-.974.193-1.46.04-.242.08-.486.122-.728.042-.243.085-.485.126-.73.06-.372.128-.743.203-1.113.077-.37.184-.733.323-1.085.092-.248.207-.486.344-.714.135-.226.293-.435.475-.625.192-.198.396-.382.613-.552.22-.17.427-.35.624-.545.213-.21.4-.443.55-.7.156-.254.276-.53.358-.816.075-.242.12-.49.137-.743.018-.252.006-.505-.034-.754-.033-.25-.096-.495-.185-.73-.09-.236-.205-.46-.345-.67-.122-.196-.266-.377-.427-.542-.16-.164-.335-.31-.525-.44-.174-.12-.358-.225-.548-.316-.19-.093-.385-.18-.58-.26-.67-.284-1.345-.545-2.03-.784-.68-.238-1.375-.44-2.077-.61-.527-.135-1.058-.248-1.593-.34-.535-.09-1.074-.16-1.615-.215-.42-.044-.84-.076-1.26-.1-.422-.02-.845-.032-1.267-.034-.967-.007-1.933.044-2.893.156-.96.11-1.907.287-2.84.53-.642.16-1.277.346-1.904.56-.63.215-1.253.445-1.87.692-.257.098-.51.204-.758.318-.247.113-.483.248-.705.403-.152.103-.294.218-.427.344-.133.127-.256.264-.368.41-.17.218-.313.454-.427.707-.112.25-.193.516-.24.787-.03.157-.05.317-.057.477-.007.16-.003.322.013.48.017.183.047.364.09.542.045.177.104.352.177.52.077.192.173.376.286.55.11.172.24.333.385.48l.148.145.153.14c.06.043.117.086.175.13.057.043.115.086.17.13.063.05.125.1.185.15.06.052.118.104.177.158.154.143.3.296.433.46.133.16.255.334.36.515.136.225.252.46.346.706.094.246.175.497.24.752.1.36.18.724.246 1.09.065.366.126.734.18 1.1l.1.662.103.663zM53.115 33.557l-34.372-4.745-.155-.03c-.05-.01-.103-.022-.153-.035-.066-.02-.132-.043-.196-.07-.065-.028-.128-.058-.188-.092-.078-.04-.152-.088-.222-.138-.07-.052-.137-.107-.2-.167-.065-.06-.123-.122-.18-.19-.055-.067-.105-.137-.15-.212-.046-.073-.088-.15-.125-.23-.035-.078-.066-.16-.09-.243-.032-.1-.056-.2-.07-.305-.017-.103-.023-.207-.022-.312 0-.12.01-.244.033-.364s.057-.236.103-.35c.035-.097.08-.19.133-.28.052-.09.11-.177.177-.257.088-.11.185-.21.293-.3.108-.088.225-.164.348-.228.078-.042.158-.077.24-.107.08-.03.164-.055.25-.074.066-.016.135-.028.204-.037.07-.007.14-.01.21-.01.05 0 .102 0 .155.004l.155.01 33.82 4.67v4.09z"/></symbol><use xlink:href="#a"/></svg>
