<svg xmlns="http://www.w3.org/2000/svg" height="60" width="60"><g stroke="#000" fill="#fff"><path stroke-linejoin="bevel" d="M55.518 58.946H4.45c-.147 0-.294-.01-.44-.032-.148-.02-.293-.05-.435-.09-.144-.037-.285-.085-.42-.142s-.27-.124-.397-.2c-.13-.073-.25-.156-.37-.246-.116-.09-.227-.188-.332-.294-.105-.103-.203-.215-.293-.33-.09-.12-.173-.243-.246-.37-.075-.128-.14-.26-.198-.397-.058-.137-.107-.278-.144-.42-.04-.143-.072-.288-.092-.435-.02-.147-.03-.294-.03-.442V4.454c0-.147.01-.296.03-.442.02-.147.05-.292.092-.435.036-.143.083-.283.14-.42.06-.136.126-.268.2-.396.074-.127.157-.25.247-.368.09-.117.188-.23.293-.332.105-.106.216-.204.333-.295.117-.09.24-.17.368-.245.128-.075.26-.14.396-.2.137-.056.277-.104.42-.142.143-.04.288-.07.435-.092.146-.02.294-.03.44-.03h51.095c.148 0 .295.012.443.03.146.022.29.05.433.092.145.037.286.084.422.14.137.06.27.126.396.202.13.074.253.155.37.245.117.09.227.19.332.295.105.103.203.215.293.332.09.117.173.24.247.37.075.127.14.26.198.396.057.136.105.276.144.42.04.142.07.288.092.434.02.146.03.295.028.442v51.094c0 .148-.01.295-.03.442-.02.147-.05.292-.09.435-.037.143-.085.283-.143.42-.058.137-.124.27-.2.396-.074.13-.157.253-.247.37-.09.117-.188.23-.293.332-.105.106-.215.204-.333.295-.116.09-.24.172-.37.245-.126.075-.26.142-.395.2-.137.056-.277.104-.42.142-.143.04-.288.072-.435.092-.147.02-.294.03-.442.03H55.52z" stroke-miterlimit="22.926" stroke-width=".22814015"/><path stroke-linejoin="bevel" d="M55.518 59h.028c.15 0 .3-.01.45-.03.148-.02.296-.052.44-.092.146-.038.288-.087.427-.145.14-.058.274-.126.402-.203.13-.074.256-.158.376-.25.12-.09.233-.19.34-.298.106-.106.206-.22.297-.337.092-.12.175-.245.25-.376.077-.13.144-.265.202-.404.057-.14.106-.28.145-.427.04-.146.072-.293.093-.443.02-.148.03-.298.03-.45V4.455c0-.15-.012-.3-.03-.45-.022-.148-.052-.296-.093-.44-.038-.146-.086-.29-.145-.43-.058-.137-.125-.27-.203-.4-.075-.13-.16-.257-.25-.375-.092-.12-.19-.233-.298-.34-.107-.106-.22-.206-.34-.298-.118-.092-.244-.176-.375-.25-.128-.076-.263-.143-.402-.202-.14-.058-.28-.106-.427-.145-.144-.042-.292-.073-.44-.094-.15-.02-.3-.03-.45-.03H4.45c-.15.002-.3.012-.45.033-.147.02-.294.05-.44.092-.146.037-.288.086-.427.144-.138.058-.273.125-.402.202-.13.074-.255.158-.375.25-.118.092-.232.192-.337.298-.108.107-.207.22-.3.34-.09.117-.174.243-.25.374-.076.13-.143.263-.2.402-.06.14-.108.282-.147.427-.04.145-.07.293-.092.442-.02.148-.03.3-.03.45v51.093c.002.15.012.3.032.45.02.15.05.296.09.44.04.147.087.29.147.428.058.14.125.273.202.403.074.13.158.255.25.375.09.118.19.23.298.337.105.108.22.207.337.3.12.09.245.174.376.248.13.077.265.144.404.202.138.058.28.106.426.146s.293.072.442.093c.15.022.3.032.45.03h51.066z" stroke-miterlimit="22.926" stroke-width="2.00006275"/></g><path d="M55.518 56.515h.008c.043 0 .086-.003.128-.01.043-.004.085-.013.127-.026.042-.01.083-.025.123-.042.04-.016.078-.035.114-.058.038-.02.074-.045.108-.072.034-.025.066-.054.096-.084.032-.03.06-.063.087-.097.025-.033.05-.07.07-.107.023-.037.04-.076.06-.115.015-.04.03-.08.04-.12.012-.043.02-.085.026-.128.006-.042.01-.085.01-.128V4.472c0-.043-.004-.085-.01-.128-.005-.042-.014-.085-.026-.126-.01-.043-.025-.084-.04-.123-.018-.04-.037-.08-.06-.116-.02-.035-.045-.07-.07-.105-.027-.035-.055-.067-.086-.097-.03-.03-.06-.06-.095-.085-.034-.027-.07-.05-.108-.072-.036-.02-.075-.04-.114-.057-.04-.016-.08-.03-.122-.04-.04-.012-.083-.02-.126-.028-.042-.006-.085-.01-.128-.008H4.47c-.042 0-.085.002-.128.008-.042.007-.085.016-.126.027-.042.01-.083.025-.122.04-.04.018-.078.038-.115.06s-.074.044-.108.07c-.034.026-.066.055-.097.086s-.06.062-.085.097c-.026.034-.05.07-.07.106s-.042.077-.06.117c-.016.04-.03.08-.04.122-.013.04-.02.083-.027.125-.006.043-.01.085-.008.128V55.53c0 .042.002.085.008.127.006.043.014.085.026.127.01.04.024.08.04.12.017.04.036.08.06.116.02.038.044.074.07.107.026.034.054.067.085.097.03.03.063.06.097.085.034.025.07.05.107.07.036.023.074.04.114.058.04.017.08.03.122.04.04.014.084.023.126.03.043.004.086.007.13.007h51.046" fill-rule="evenodd" fill="#039"/><path d="M33.772 2.81v31.245h-8.225V2.81h8.225z" fill="#fff"/><path d="M28.23 30.21h3.47v27.418h-3.47V30.21z" fill="#fff"/><path d="M2.6 25.865h29.112v8.226H2.602v-8.225z" fill="#fff"/><path d="M30.4 31.755v-3.47h27.418v3.47H30.4z" fill="#fff"/></svg>
