<svg xmlns="http://www.w3.org/2000/svg" height="60" width="60"><g stroke="#000" fill="#fff"><path stroke-linejoin="bevel" d="M4.483 58.944H55.55c.148 0 .295-.01.442-.032.147-.02.292-.05.434-.09.144-.037.285-.085.42-.142s.27-.124.397-.2c.13-.073.25-.156.37-.246.116-.09.227-.188.332-.294.105-.103.203-.215.293-.33.09-.12.173-.243.246-.37.075-.128.14-.26.198-.397.058-.137.106-.278.143-.42.04-.143.072-.288.093-.435.02-.147.03-.294.03-.442V4.452c-.002-.147-.012-.296-.03-.442-.02-.147-.052-.292-.093-.435-.036-.143-.083-.283-.14-.42-.06-.136-.126-.268-.2-.396-.074-.13-.157-.253-.247-.37-.09-.117-.188-.23-.293-.332-.105-.106-.216-.204-.333-.295-.118-.09-.24-.17-.37-.245-.127-.075-.26-.14-.395-.2-.137-.056-.277-.104-.42-.142-.143-.04-.288-.07-.435-.092-.147-.02-.295-.03-.442-.03H4.456c-.148 0-.295.012-.443.03-.146.022-.29.05-.433.092-.144.037-.285.084-.42.14-.138.06-.27.126-.397.202-.13.074-.252.155-.37.245-.117.09-.227.19-.332.295-.104.103-.202.215-.292.332-.09.117-.173.24-.247.37-.073.127-.14.26-.197.396-.056.136-.105.276-.143.42-.04.142-.07.288-.093.434-.02.146-.03.295-.028.442v.013l-.002.015v51.066c0 .148.01.295.032.442.02.147.05.292.09.435.036.143.084.283.142.42.057.137.124.27.2.396.073.127.156.25.246.368.09.117.188.23.293.332.106.106.216.204.334.295.117.09.24.172.37.245.126.075.26.142.395.2.136.056.276.104.42.142.142.04.287.072.434.092.147.02.294.03.442.03h.027z" stroke-miterlimit="22.926" stroke-width=".22814015"/><path stroke-linejoin="bevel" d="M4.483 59h-.028c-.15-.002-.3-.012-.45-.033-.148-.02-.295-.05-.44-.09-.146-.04-.288-.088-.427-.146-.138-.057-.273-.125-.402-.202-.13-.074-.256-.158-.376-.25-.12-.09-.232-.19-.337-.298-.108-.106-.208-.22-.3-.337-.09-.12-.174-.245-.25-.376-.076-.13-.143-.264-.2-.403-.06-.14-.108-.28-.147-.427-.04-.145-.072-.292-.093-.442-.02-.148-.03-.298-.03-.45V4.453c0-.15.012-.3.03-.45.022-.148.052-.296.093-.44.038-.146.086-.29.145-.43.06-.137.126-.27.204-.4.075-.13.16-.257.25-.375.092-.12.19-.232.3-.34.104-.105.216-.205.336-.297.12-.092.245-.176.376-.25.13-.076.264-.143.402-.202.14-.058.28-.106.427-.145.145-.042.292-.073.44-.094.15-.022.3-.032.45-.03H55.55c.15 0 .3.01.45.03.148.02.295.052.44.093.147.037.29.086.428.144.138.06.274.126.402.203.13.074.256.158.376.25s.232.192.338.298c.107.107.206.22.298.34.092.117.175.243.25.374.077.13.144.263.2.402.06.14.11.282.148.427.04.146.07.294.093.443.02.148.03.3.03.45v51.093c-.002.15-.012.3-.032.45-.02.15-.05.296-.09.44-.038.147-.086.29-.146.428-.058.14-.125.273-.202.403-.075.13-.16.256-.25.376-.092.118-.19.23-.298.337-.106.108-.22.207-.338.3-.12.09-.245.174-.376.248-.13.077-.264.144-.403.202-.138.058-.28.106-.426.146s-.292.072-.44.093c-.15.02-.3.03-.45.03H4.483z" stroke-miterlimit="22.926" stroke-width="2.00006275"/></g><path d="M4.483 56.513h-.008c-.043 0-.086-.003-.128-.01-.043-.004-.085-.013-.127-.026-.04-.01-.082-.024-.122-.04-.04-.017-.077-.036-.114-.06-.038-.02-.074-.044-.108-.07-.033-.026-.066-.055-.096-.085-.03-.03-.06-.063-.086-.097-.025-.033-.05-.07-.07-.107-.023-.037-.04-.076-.06-.115-.015-.04-.03-.08-.04-.12-.012-.043-.02-.085-.026-.128-.006-.042-.01-.085-.01-.128V4.47c0-.042.004-.084.01-.127.005-.042.014-.085.026-.126.01-.042.025-.083.04-.122.018-.04.037-.08.06-.116.02-.037.045-.073.07-.107.027-.035.055-.067.086-.097.03-.03.063-.06.096-.085.034-.026.07-.05.108-.07.037-.022.075-.042.114-.06.04-.015.08-.03.122-.04.042-.01.084-.02.127-.027.042-.006.085-.01.128-.008H55.53c.043 0 .086.002.13.008.04.007.084.016.125.027.042.01.083.025.122.04.04.018.078.038.115.06s.073.044.107.07c.034.026.065.055.096.086s.06.062.085.097c.027.034.05.07.072.106s.04.075.06.115c.015.04.028.08.04.122.012.04.02.084.026.126.006.043.01.085.008.128v51.057c0 .043-.002.086-.008.128-.006.043-.014.085-.026.127-.01.04-.025.08-.04.12-.018.04-.037.08-.06.116-.02.038-.045.074-.07.107-.027.034-.055.067-.086.097-.03.03-.062.06-.097.085-.035.026-.07.05-.108.07-.037.024-.075.042-.115.06-.04.016-.08.03-.122.04-.04.013-.084.022-.126.028-.044.005-.087.008-.13.008H4.483" fill-rule="evenodd" fill="#039"/><path d="M43.195 18.218l-.025-.026-.026-.028c-.132-.14-.265-.28-.4-.42-.132-.14-.268-.275-.406-.41-.547-.543-1.133-1.047-1.75-1.51-.618-.462-1.27-.88-1.947-1.25-.668-.386-1.364-.722-2.082-1.007-.717-.285-1.453-.52-2.203-.703-.747-.196-1.506-.34-2.272-.43-.766-.09-1.54-.13-2.31-.114-.772.005-1.543.064-2.306.174-.764.11-1.52.274-2.26.488-.745.206-1.474.46-2.183.765s-1.397.658-2.058 1.057c-.666.39-1.304.826-1.91 1.304s-1.178.997-1.713 1.554c-.542.548-1.046 1.134-1.508 1.753-.462.618-.88 1.268-1.253 1.943-.382.67-.717 1.368-1.003 2.084-.286.717-.523 1.453-.708 2.203-.194.746-.338 1.505-.43 2.272s-.128 1.537-.112 2.31c.005.77.063 1.542.174 2.306s.273 1.52.488 2.26c.204.744.46 1.474.765 2.183s.658 1.396 1.057 2.057c.39.666.825 1.304 1.303 1.91.478.606.997 1.18 1.553 1.714.55.542 1.135 1.045 1.754 1.508.618.46 1.267.88 1.943 1.252.672.382 1.367.717 2.084 1.003s1.454.522 2.203.708c.747.195 1.507.338 2.273.43.767.09 1.538.128 2.31.112.77-.007 1.54-.067 2.303-.18.763-.112 1.52-.273 2.262-.482.56-.15 1.113-.327 1.654-.535.54-.207 1.066-.448 1.576-.723.135-.07.27-.145.402-.22l.397-.23 1.935 3.354-.117.07-.118.067c-.815.468-1.663.877-2.535 1.226-.875.35-1.773.637-2.688.86-.91.242-1.835.417-2.77.527-.934.11-1.874.154-2.814.133-.94-.006-1.88-.078-2.812-.213-.93-.134-1.85-.332-2.754-.594-.906-.25-1.795-.56-2.66-.932-.863-.372-1.7-.802-2.506-1.288-.812-.476-1.59-1.007-2.33-1.59-.737-.582-1.435-1.214-2.087-1.893-.66-.67-1.274-1.383-1.837-2.137-.564-.753-1.073-1.545-1.527-2.368-.467-.82-.875-1.667-1.223-2.54-.35-.874-.637-1.77-.862-2.684-.238-.91-.413-1.835-.523-2.77s-.157-1.875-.138-2.815c.006-.94.076-1.88.21-2.81s.335-1.852.596-2.755c.25-.908.562-1.796.933-2.66s.8-1.702 1.287-2.508c.476-.81 1.007-1.588 1.59-2.327.582-.74 1.214-1.436 1.892-2.09.67-.66 1.384-1.274 2.138-1.837.752-.562 1.544-1.073 2.368-1.527.818-.465 1.666-.874 2.54-1.222s1.77-.637 2.684-.863c.91-.237 1.835-.412 2.77-.523s1.874-.156 2.814-.138c.94.006 1.88.077 2.812.212s1.85.333 2.754.595c.906.25 1.794.562 2.657.934s1.702.802 2.51 1.287c.814.476 1.594 1.006 2.337 1.587.74.58 1.433 1.213 2.08 1.896.082.086.165.173.245.26.082.088.163.177.242.267l1.683-3.042.007-.01c.01-.022.024-.04.04-.06.013-.02.028-.036.046-.053.016-.017.035-.033.054-.048.018-.014.04-.027.06-.04.02-.012.042-.022.065-.03s.044-.02.067-.025.047-.01.07-.014c.026-.003.05-.004.074-.004.024 0 .05 0 .072.004s.048.008.07.014c.024.006.047.015.07.024s.043.02.065.03l.06.04c.02.017.037.032.053.05.018.016.034.034.048.054s.028.04.04.06c.013.02.024.042.033.064s.017.045.024.07l.004.013 2.763 11.51-11.016-3.26-.013-.005-.054-.02c-.017-.01-.035-.018-.05-.028-.022-.01-.043-.025-.062-.04-.02-.014-.037-.03-.055-.047-.017-.017-.033-.036-.048-.054-.015-.02-.028-.04-.04-.06-.012-.02-.023-.042-.032-.065s-.017-.045-.023-.07c-.007-.022-.01-.046-.015-.07-.002-.024-.004-.047-.004-.072 0-.023 0-.048.004-.07.004-.026.008-.05.014-.073.006-.022.015-.046.024-.07l.03-.063.04-.06c.017-.02.032-.037.05-.055s.034-.032.054-.048l.06-.04.012-.007 2.93-1.602" fill-rule="evenodd" fill="#fff"/><path d="M24.64 26.1l.024-.034.02-.034c.083-.12.17-.234.267-.342s.197-.214.3-.316c.206-.204.42-.398.648-.58s.464-.343.712-.49c.246-.152.504-.285.77-.4s.54-.207.82-.284c.28-.08.56-.14.85-.182.284-.042.573-.065.863-.067.29-.004.578.01.866.044s.57.088.85.16c.282.07.557.16.826.267.27.107.53.233.782.376.254.14.497.297.73.47.23.174.45.362.656.566.21.2.404.415.582.642.18.227.344.467.49.717.15.25.282.507.396.773.115.265.21.54.287.817.08.278.14.562.182.848.042.287.063.575.065.865.006.29-.008.58-.043.866-.033.287-.087.57-.16.85-.07.283-.158.558-.265.827s-.235.53-.378.782c-.14.252-.296.496-.47.727-.172.232-.36.452-.565.658-.2.21-.415.404-.643.583s-.466.343-.716.488c-.247.15-.505.28-.77.396s-.54.21-.82.287c-.278.08-.56.143-.848.186-.286.042-.575.063-.864.062H30v3.867l.274-.003c.09-.002.183-.004.274-.008.344-.014.686-.048 1.025-.1.34-.054.677-.124 1.01-.212.444-.11.88-.252 1.307-.42.426-.17.84-.37 1.238-.595.4-.22.787-.47 1.154-.744.367-.274.715-.573 1.04-.895.33-.318.64-.658.923-1.018s.542-.74.774-1.134c.236-.392.445-.8.626-1.222.18-.42.333-.853.455-1.295.127-.44.225-.89.29-1.343s.1-.912.103-1.37c.01-.458-.013-.916-.067-1.37-.053-.456-.138-.908-.255-1.35-.108-.446-.248-.882-.418-1.308s-.37-.84-.596-1.238c-.22-.402-.47-.787-.743-1.155-.275-.366-.574-.714-.896-1.04-.318-.33-.657-.64-1.018-.923-.36-.284-.74-.542-1.134-.774-.393-.237-.8-.447-1.222-.628-.42-.18-.854-.332-1.296-.453-.44-.13-.89-.226-1.342-.29s-.91-.102-1.37-.105c-.457-.008-.916.015-1.37.068-.456.054-.906.14-1.35.254-.445.11-.882.25-1.308.42s-.84.368-1.237.595c-.4.222-.785.472-1.153.747-.366.273-.714.572-1.04.892-.084.08-.166.16-.246.242s-.157.165-.233.25l-.133.154-.13.154-1.527-2.784-.007-.013-.04-.06s-.03-.037-.048-.054c-.017-.017-.035-.032-.055-.047-.02-.015-.038-.028-.06-.04-.02-.013-.042-.023-.064-.032s-.045-.015-.07-.022-.046-.01-.07-.014c-.024-.003-.048-.005-.072-.005-.023 0-.047 0-.07.004-.025.003-.05.008-.072.014-.023.007-.046.014-.07.023-.02.01-.042.02-.063.034-.02.01-.04.025-.06.04-.02.014-.038.03-.054.048-.016.016-.033.034-.047.054-.014.018-.028.04-.04.06l-.027.05c-.008.02-.015.038-.02.057l-.004.012-3.262 11.017 11.51-2.763.014-.005c.024-.005.047-.013.07-.023.02-.01.043-.02.064-.032.02-.012.04-.025.06-.04.02-.015.037-.03.054-.048.017-.017.033-.035.048-.055.015-.018.028-.038.04-.06.012-.02.023-.042.032-.064.01-.022.017-.045.023-.07.006-.02.01-.045.014-.07.002-.023.004-.048.003-.07 0-.026 0-.05-.004-.074-.004-.024-.01-.048-.015-.07s-.013-.047-.023-.07-.02-.044-.032-.064c-.012-.022-.025-.04-.04-.06-.015-.02-.03-.038-.048-.055-.017-.016-.034-.032-.052-.046s-.038-.028-.06-.04l-.01-.006-3.14-1.738" fill-rule="evenodd" fill="#fff"/></svg>
