<svg xmlns="http://www.w3.org/2000/svg" height="60" width="60"><path stroke-linejoin="bevel" d="M319.29 567.73h61.454c.202 0 .403-.015.602-.043.2-.027.397-.067.59-.122.196-.05.386-.115.572-.194.186-.076.366-.167.54-.27.174-.1.34-.212.5-.335.16-.122.31-.256.453-.4.144-.14.278-.29.4-.45.123-.16.236-.33.336-.502.1-.174.19-.354.268-.54.078-.185.143-.377.195-.57.054-.195.097-.393.124-.593.03-.2.04-.4.04-.6v-61.49c0-.2-.015-.402-.042-.602-.027-.2-.068-.396-.123-.59-.05-.195-.116-.386-.193-.57-.08-.188-.17-.368-.27-.54-.103-.175-.214-.344-.336-.503-.122-.16-.256-.31-.4-.452-.14-.143-.292-.276-.45-.4-.16-.123-.328-.234-.503-.334-.173-.103-.354-.193-.54-.27-.185-.078-.376-.143-.57-.196-.194-.055-.39-.096-.59-.125-.2-.028-.4-.042-.603-.04h-61.49c-.2 0-.402.014-.6.042-.2.027-.398.068-.592.122-.195.05-.386.115-.57.194-.188.077-.368.17-.54.27-.175.1-.343.212-.503.336-.16.123-.31.256-.452.4-.144.14-.277.29-.4.45-.122.16-.235.33-.334.503-.102.173-.192.353-.27.54-.077.185-.143.376-.196.57-.054.195-.096.392-.124.59-.028.2-.04.402-.04.602v61.491c0 .2.015.4.04.6.03.2.07.398.124.593.05.193.116.385.194.57.08.186.17.366.272.54.1.173.21.34.334.5s.256.312.4.453c.14.143.292.277.45.4.16.122.33.234.504.334.172.103.354.193.54.27.185.078.375.143.57.195.194.055.39.096.59.125.2.028.4.04.602.04H319.29z" stroke="#231f20" stroke-miterlimit="22.926" stroke-width=".278" fill="none" transform="matrix(.81845 0 0 .81844 -256.46 -405.706)"/><path stroke-linejoin="bevel" d="M319.29 567.8h-.036c-.205 0-.41-.015-.61-.043s-.404-.07-.6-.125c-.198-.05-.39-.116-.58-.196-.19-.08-.37-.17-.546-.275-.178-.1-.348-.214-.51-.34-.162-.123-.315-.26-.46-.404-.144-.144-.28-.296-.404-.46-.125-.16-.238-.33-.34-.507-.103-.178-.194-.36-.273-.55-.077-.187-.144-.38-.196-.577-.056-.198-.1-.398-.128-.6s-.042-.407-.04-.61V501.62c0-.202.015-.406.043-.61s.068-.4.124-.6c.05-.196.116-.39.195-.58.08-.186.17-.37.275-.545.1-.176.215-.346.34-.51.124-.16.26-.314.404-.457.143-.147.296-.282.458-.407.162-.122.332-.235.51-.337.175-.104.357-.195.546-.274.19-.08.382-.146.58-.2.196-.055.396-.096.6-.125.2-.03.405-.042.61-.04h61.49c.205 0 .408.015.61.043.202.026.403.07.6.123.197.053.39.12.58.198.188.08.37.17.546.275.177.102.347.215.51.34.16.125.315.26.46.405.144.143.28.297.404.458.125.163.237.332.338.51.104.175.195.358.274.545.08.19.145.384.198.58.056.2.098.4.127.6.03.204.042.408.04.61v61.492c0 .204-.014.408-.04.61s-.07.403-.126.6c-.052.198-.117.392-.197.58-.078.188-.17.37-.275.547-.1.176-.215.346-.338.507-.125.163-.26.315-.405.46-.145.144-.3.28-.46.404-.163.126-.333.24-.51.34-.176.104-.358.196-.546.275-.19.08-.383.145-.58.197-.197.057-.398.098-.6.127-.202.028-.405.04-.61.04H319.29z" fill-rule="evenodd" stroke="#000" stroke-miterlimit="22.926" stroke-width="2.444" fill="#fff" transform="matrix(.81845 0 0 .81844 -256.46 -405.706)"/><path d="M5.215 57.17h49.59c.104 0 .206-.007.308-.02.103-.014.204-.036.303-.064.1-.025.198-.058.293-.1.093-.038.185-.084.274-.137.09-.052.176-.11.257-.172.083-.064.16-.132.233-.205.073-.073.142-.15.204-.23.063-.083.12-.17.17-.26.053-.087.1-.18.14-.274.04-.096.073-.194.1-.294.027-.098.048-.2.062-.302.014-.102.02-.205.02-.308V5.196c0-.103-.008-.205-.02-.308-.015-.102-.036-.203-.064-.302-.025-.1-.06-.198-.1-.293-.04-.094-.085-.187-.138-.275-.05-.09-.108-.176-.17-.257-.063-.08-.132-.16-.205-.23-.072-.074-.15-.143-.232-.205-.08-.063-.166-.12-.256-.17-.09-.053-.18-.1-.275-.14-.096-.04-.194-.073-.294-.1-.1-.027-.2-.048-.303-.063-.102-.014-.204-.022-.307-.02H5.196c-.103 0-.206.008-.308.02-.103.015-.204.036-.302.063-.1.026-.198.06-.293.1-.095.04-.187.086-.275.14-.09.05-.176.107-.258.17-.08.062-.16.13-.23.204-.074.07-.143.15-.206.23-.062.082-.12.168-.17.258-.053.09-.1.18-.138.275-.04.095-.074.193-.1.293-.028.1-.05.2-.065.303-.013.1-.02.202-.02.305v49.61c0 .104.01.207.022.31.014.102.035.202.063.3.026.1.06.2.1.294.04.094.085.186.138.274.05.09.11.176.17.258.065.08.133.158.206.23.07.074.148.143.23.206.082.062.168.12.257.17.09.053.18.1.276.138.095.04.193.074.293.1.098.028.2.05.302.065.102.015.205.022.308.02h.018z" fill-rule="evenodd" fill="#e72512"/><path d="M43.47 49.338L10.66 16.53V49.34H43.47M49.33 43.478V10.67H16.52L49.33 43.48" fill-rule="evenodd" fill="#fff"/><path d="M22.476 45.336c.878-10.872 2.925-21.938 6.143-33.2 5.97 6.697 9.628 14.437 11.7 22.89-5.585 5.8-11.48 9.58-17.844 10.31M18.744 47.088l7.69.068.354-.946c-3.022-.706-5.855-.778-8.41.074l.366.804" fill-rule="evenodd"/><path d="M22.476 45.336c.025-.31.744-3.945-.138-5.01-.88-1.065-1.875-2.135-3.437-3.648l-.05-2.535c-.01-.528-.406-.965-.44-1.418 1.5.054 2.98-.076 4.455-.29l.18-.475-5.846-.71-1.38.163c-1.13 1.403.353 2.867.67 4.2l.053 1.68c.05 1.604 2.298 3.12 4.013 3.734.242 1.61.68 3.17 1.43 4.645l.49-.336" fill-rule="evenodd"/><path d="M16.01 28.06c.715.047 1.194.687 1.296 1.57s-.236 1.81-1.035 1.644c-.797-.165-1.32-.817-1.445-1.622-.125-.806.47-1.64 1.185-1.593" fill-rule="evenodd"/><path d="M344.61 533.45l-3.068 1.363-.23.594s1.352 2.225 1.448 2.234" stroke="#000" stroke-miterlimit="22.926" stroke-width="1.342" fill="none" transform="matrix(.81845 0 0 .81844 -256.46 -405.706)"/></svg>
