<svg xmlns="http://www.w3.org/2000/svg" xmlns:xlink="http://www.w3.org/1999/xlink" width="60" height="60"><symbol id="a"><path d="M8.938 11.793l-.032.032L29.97 48.23l21.093-36.436H8.937zm16.718 4.282h8.688c.014 0 .018.03.03.03.015.003.05-.002.063 0 .018.004.015-.004.032 0 .014.006.046.024.06.032.017.007.018.022.032.032.015.008.018.02.032.03.012.01.02.02.03.03.01.012.023.02.032.032.01.014.025.018.032.032.007.014.026.016.03.03.005.015-.002.048 0 .063.004.015 0 .016 0 .032.002.014.002.046 0 .06 0 .016.006.018 0 .032-.002.016-.024.048-.03.063-.007.014.01.018 0 .03l-4.344 6.564c-.007.01-.023.02-.032.03-.008.01-.02.022-.03.03-.012.012-.02.023-.032.032-.013.01-.047.023-.063.032-.014.007-.015.026-.03.03-.017.007-.047-.002-.063 0-.017.006-.014.03-.032.032-.016.003-.045 0-.062 0h-.03c-.02 0-.047-.027-.064-.03-.016-.004-.047.004-.062 0-.017-.007-.016-.025-.032-.032-.015-.008-.048.008-.062 0-.013-.01-.02-.022-.03-.032-.015-.01-.02-.02-.032-.03-.01-.013-.023-.02-.032-.032v-.03l-4.343-6.564c-.008-.01-.027-.02-.032-.03-.004-.012.004-.02 0-.032-.005-.015.004-.048 0-.063v-.03-.063c.003-.015-.003-.016 0-.03.005-.015-.005-.018 0-.032.007-.015.024-.05.032-.063.01-.013.022-.02.032-.03.01-.013.02-.022.03-.032.012-.01.02-.022.032-.03.014-.012.047-.025.063-.033.013-.008.015-.025.03-.03.016-.007.045.003.063 0 .016-.005.013.002.03 0 .017-.003.046-.03.063-.032zm-.062 7.875c.016-.002.045 0 .062 0h8.718c.015.002.05.028.063.03.018.004.015-.004.032 0 .014.006.046.025.06.032.017.008.018-.01.032 0 .015.01.018.02.032.032.012.01.02.018.03.03.01.012.023.02.032.032.01.013.025.05.032.063.007.013.026.015.03.03.005.014-.002.047 0 .062.004.015 0 .016 0 .032.002.015.002.015 0 .03 0 .016.006.05 0 .063-.002.016-.024.017-.03.032-.007.012.01.048 0 .06l-4.344 6.564c-.007.01-.023.022-.032.03-.008.01-.02.023-.03.032-.012.01-.02.022-.032.03-.013.01-.047.025-.063.033-.014.007-.015-.008-.03-.002-.017.007-.047.03-.063.032-.017.005-.014-.002-.032 0-.016.003-.045 0-.062 0h-.03c-.02 0-.047.004-.064 0-.016-.003-.047.005-.062 0-.017-.006-.016-.024-.032-.03-.015-.01-.048-.025-.062-.033-.013-.01-.02-.02-.03-.03-.015-.01-.02-.02-.032-.032-.01-.013-.023-.02-.032-.03l-4.343-6.564c-.008-.01-.027-.02-.032-.03-.004-.01.004-.05 0-.063-.005-.014.004-.016 0-.03v-.032-.063c.003-.015-.003-.016 0-.03.005-.015-.005-.05 0-.063.007-.016.024-.02.032-.033.01-.013.022-.02.032-.03.01-.013.02-.022.03-.032l.032-.03c.014-.01.047-.025.063-.033.013-.008.015-.025.03-.03.016-.007.045.003.063 0 .016-.005.013-.03.03-.032zm-.032 7.875c.017-.004.014.003.032 0 .016-.002.045 0 .062 0h8.718c.015.002.05-.003.063 0 .018.003.015-.005.032 0 .014.005.046.023.06.03.017.008.018.023.032.032.015.01.018.02.032.032.012.01.02.017.03.03.01.01.023.02.032.03.01.014.025.02.032.032.007.015.026.048.03.063.005.014-.002.016 0 .03.004.015 0 .017 0 .032.002.016.002.047 0 .063 0 .015.006.017 0 .03-.002.016-.024.05-.03.064-.007.013.01.017 0 .03l-4.344 6.563v.032c-.007.01-.023.02-.032.03-.008.01-.02-.01-.03 0-.012.01-.02.022-.032.03-.013.01-.047.025-.063.032-.014.008-.015.026-.03.032-.017.006-.047-.004-.063 0-.017.005-.014.03-.032.03-.016.004-.045 0-.062 0-.017.002-.015.002-.03 0-.02 0-.047.005-.064 0-.016-.002-.047-.025-.062-.03-.017-.007-.016.007-.032 0l-.062-.032c-.013-.01-.02-.02-.03-.03-.015-.01-.02-.02-.032-.032-.01-.013-.023-.02-.032-.032v-.03l-4.343-6.563c-.008-.01-.027-.02-.032-.032-.004-.01.004-.018 0-.03-.005-.015.004-.048 0-.063v-.032-.03c.003-.016-.003-.048 0-.063.005-.015-.005-.017 0-.032.007-.014.024-.05.032-.062.01-.012.022-.018.032-.03.01-.013.02-.02.03-.03.012-.013.02-.024.032-.033.014-.01.047-.023.063-.03.013-.01.015.005.03 0 .016-.007.045-.028.063-.032z"/></symbol><use xlink:href="#a"/></svg>
