<svg xmlns="http://www.w3.org/2000/svg" height="30" width="60"><path stroke-linejoin="bevel" d="M-606.16 25.976h65.126c.124 0 .246-.01.367-.026.122-.016.242-.04.36-.075.12-.03.235-.07.348-.118s.223-.102.328-.165c.107-.06.21-.13.307-.204.096-.075.188-.155.275-.242.087-.086.168-.18.242-.275.075-.097.144-.2.204-.305.062-.105.117-.215.164-.328.047-.114.087-.23.12-.347.032-.12.06-.24.075-.36.017-.122.026-.244.025-.367v-42.29c0-.12-.01-.244-.025-.365-.018-.12-.043-.24-.075-.36-.03-.12-.07-.235-.12-.347-.047-.113-.102-.222-.164-.327-.06-.106-.13-.21-.204-.306-.074-.098-.155-.19-.242-.275-.087-.088-.18-.17-.275-.244-.098-.073-.2-.142-.307-.204-.105-.06-.215-.116-.327-.163-.113-.047-.23-.086-.347-.118-.118-.034-.238-.06-.36-.076-.12-.017-.243-.025-.366-.024h-65.15c-.122 0-.244.01-.366.025-.12.016-.24.04-.358.075-.12.03-.235.07-.35.117-.11.047-.22.103-.326.164-.106.062-.21.13-.305.204-.097.075-.19.156-.275.244-.087.086-.17.177-.243.275-.075.097-.142.2-.204.306-.062.105-.117.215-.163.328-.048.114-.088.23-.12.348-.033.12-.06.24-.075.36-.018.12-.025.244-.025.366v42.29c0 .122.01.244.026.366.017.12.042.24.076.36.03.118.07.235.117.347s.103.223.165.328c.062.106.13.208.204.306.075.097.156.19.243.276.086.087.178.167.276.242.097.075.2.144.306.204.105.063.215.118.33.165.11.046.227.086.346.118.118.033.238.06.36.076.12.018.243.027.365.026h.023z" stroke="#231f20" stroke-miterlimit="22.926" stroke-width=".258" fill="none" transform="matrix(.81845 0 0 .58325 499.47 13.823)"/><path d="M1.885 27.297v.016c.002.024.003.047.008.07.004.024.01.048.018.07.012.03.024.06.04.086.014.026.032.053.052.08.02.025.042.05.066.073.026.025.053.048.08.068.03.023.06.044.094.062.033.018.067.035.103.05.036.016.073.03.11.042.04.012.08.023.12.03.04.01.08.016.123.02.04.005.083.007.125.008h54.355c.035 0 .07-.002.103-.005s.068-.008.1-.014c.042-.006.082-.015.122-.026.04-.01.077-.022.113-.037.037-.013.073-.03.107-.047.035-.017.067-.036.097-.057.03-.02.06-.04.085-.065.026-.02.05-.045.073-.07.022-.025.04-.052.06-.08.016-.025.03-.053.04-.08.013-.03.023-.06.03-.088.006-.03.01-.058.01-.088V2.688c0-.025-.003-.048-.007-.072-.003-.024-.01-.047-.018-.07-.01-.03-.02-.057-.037-.085-.015-.026-.033-.053-.053-.08-.02-.025-.042-.05-.067-.073-.024-.025-.052-.047-.08-.068-.03-.023-.06-.043-.093-.06-.032-.02-.067-.038-.103-.052-.037-.016-.074-.03-.112-.042-.038-.012-.078-.023-.118-.03-.04-.01-.082-.016-.124-.02-.04-.004-.083-.007-.125-.008H2.85m-.963 25.27V2.684c0-.028.004-.058.012-.087.006-.03.016-.058.027-.086.012-.03.027-.056.043-.083.017-.028.037-.054.06-.08.022-.025.046-.05.072-.07.025-.024.054-.047.086-.067.03-.02.062-.04.095-.056.036-.017.072-.033.11-.047.036-.014.074-.027.113-.038.04-.01.08-.02.12-.025.033-.006.067-.01.1-.014.034-.003.068-.004.102-.005h.023" fill-rule="evenodd" fill="#039"/><path stroke-linejoin="bevel" d="M-606.16 26.02h-.022c-.125 0-.25-.01-.372-.025-.123-.017-.246-.043-.366-.077-.12-.03-.24-.07-.354-.118-.115-.05-.226-.105-.332-.17-.11-.06-.213-.13-.31-.205-.1-.077-.193-.16-.28-.248-.09-.087-.17-.18-.248-.28-.076-.1-.145-.2-.206-.31-.064-.107-.12-.22-.167-.334-.05-.115-.09-.232-.122-.352-.032-.12-.06-.242-.075-.365-.017-.123-.026-.248-.025-.372v-42.29c0-.125.01-.248.026-.372.017-.122.042-.244.075-.364.033-.12.073-.24.12-.354.05-.115.105-.226.17-.332.062-.11.13-.213.206-.312.077-.098.16-.192.248-.28.087-.088.18-.17.28-.246.097-.076.2-.145.31-.207.106-.063.22-.12.332-.167.115-.048.234-.088.354-.12.12-.035.243-.06.366-.078.123-.018.247-.025.372-.024h65.15c.125 0 .248.01.372.025.124.018.245.043.365.077.12.03.24.07.354.12s.225.104.33.168c.11.062.214.13.313.207.098.076.192.158.28.246.088.088.17.182.246.28.075.1.144.203.206.312.064.106.12.217.167.332.048.115.088.234.12.354.035.12.06.242.078.365.02.125.026.248.026.373v42.29c0 .124-.01.25-.026.372-.017.123-.042.246-.076.366-.03.12-.07.24-.12.353-.048.115-.104.227-.168.334-.062.108-.13.21-.207.31-.076.1-.16.193-.247.28-.088.09-.182.17-.28.248-.1.076-.203.145-.312.206-.105.065-.216.12-.33.168-.116.048-.235.088-.355.12-.12.035-.24.06-.365.078s-.247.026-.372.025H-606.16z" stroke="#000" stroke-miterlimit="22.926" stroke-width="2.895" fill="none" transform="matrix(.81845 0 0 .58325 499.47 13.823)"/><path d="M33.004 17.62l-1.6 4.857-.004.013-.004.013c-.013.044-.023.09-.03.135-.006.046-.007.09-.006.138 0 .045.007.09.014.137.01.044.022.09.04.132.015.045.033.088.056.13.023.04.05.08.08.12.028.04.06.077.095.113.036.035.074.07.115.1.04.032.083.06.13.088.044.028.092.052.14.074.05.022.1.04.154.057.052.016.106.03.16.04.055.012.11.02.165.025.056.004.11.005.168.004.056 0 .11-.004.167-.01.055-.01.11-.02.164-.033.042-.01.084-.022.125-.035.04-.014.08-.03.12-.047.005 0 .008-.003.013-.005l.013-.005L51.845 15 33.28 6.343l-.013-.008-.014-.007c-.05-.02-.1-.04-.153-.056-.053-.017-.107-.03-.16-.04-.056-.012-.11-.02-.166-.024-.057-.004-.113-.005-.17-.004-.055 0-.11.005-.166.013-.055.008-.11.018-.164.03-.054.014-.106.03-.158.05-.05.018-.1.04-.148.063-.048.024-.093.05-.137.08-.042.03-.083.06-.12.093-.04.033-.076.07-.108.106-.033.036-.063.075-.09.115-.026.04-.05.083-.07.125-.02.043-.035.087-.048.132-.013.044-.023.09-.03.135-.004.046-.006.09-.004.137 0 .037.005.073.01.11.008.034.015.07.026.106l.004.012.005.012 1.6 4.855H11.298c-.142.002-.28.012-.42.03-.138.017-.275.044-.41.077-.134.03-.266.07-.395.117-.127.047-.252.1-.37.16-.12.06-.235.127-.344.198-.11.073-.213.15-.31.234-.096.082-.186.17-.268.262-.083.094-.157.19-.224.29-.067.1-.126.205-.177.313-.048.107-.09.217-.122.33-.026.084-.046.17-.06.26-.016.087-.025.175-.027.263v.13c0 .114.013.23.033.34.02.115.05.226.09.336.037.11.085.22.14.324.057.104.12.206.194.305.07.096.152.19.24.28.086.09.18.175.282.254.1.08.206.155.318.223.113.067.23.13.354.184.122.057.25.107.38.15.13.04.264.075.4.102.114.025.23.044.35.057.117.012.234.02.353.02h21.7" fill-rule="evenodd" fill="#fff"/></svg>
