<svg xmlns="http://www.w3.org/2000/svg" xmlns:xlink="http://www.w3.org/1999/xlink" width="60" height="60"><symbol id="a"><path d="M31.263 15.662H26.72c-.034 0-.07-.003-.103-.007-.035-.005-.07-.012-.103-.022-.034-.008-.067-.02-.1-.033-.032-.014-.063-.03-.093-.047-.03-.018-.06-.037-.086-.06-.028-.02-.054-.043-.08-.068-.024-.025-.047-.05-.068-.08-.022-.027-.04-.056-.06-.086-.016-.03-.032-.063-.046-.095-.013-.032-.025-.065-.034-.1-.01-.033-.017-.067-.022-.102-.004-.035-.007-.07-.006-.105v-.012c0-.035.002-.07.007-.105.005-.034.012-.068.02-.102.01-.034.02-.067.035-.1.014-.03.03-.063.047-.093.018-.03.037-.06.06-.087.02-.028.043-.054.068-.078.024-.025.05-.05.08-.07.026-.02.055-.04.086-.058.03-.018.062-.034.095-.047.032-.014.065-.025.1-.034.033-.01.067-.016.102-.02.034-.005.07-.008.104-.008h11.352c.036 0 .07.003.105.008.035.004.07.012.103.02.034.01.067.02.1.035.032.013.063.03.093.047s.06.037.087.058c.028.02.054.045.08.07.024.024.047.05.068.078.022.028.04.057.06.087.016.03.032.062.046.094.013.032.024.065.033.098.01.034.017.068.022.103.003.036.006.07.006.106v.012c0 .036-.003.07-.008.105-.004.035-.01.07-.02.103-.01.034-.02.067-.034.1-.014.03-.03.063-.047.093-.018.03-.038.058-.06.086-.02.028-.043.054-.068.08-.026.024-.052.047-.08.068-.028.022-.056.04-.087.06-.03.016-.062.032-.094.045-.033.013-.066.024-.1.033-.034.01-.068.017-.103.022-.035.005-.07.007-.105.007h-4.54v7.56h1.565v8.098h2.7v.81h-1.08v2.97h10.528v-1.08h.81v-2.7h1.08v14.038h-1.08v-2.7h-.81V40.5H37.38l-.054.1-.057.1c-.126.214-.265.42-.418.613-.153.195-.32.38-.5.55-.175.175-.363.337-.56.484-.2.15-.408.283-.625.402-.215.122-.44.23-.67.32-.228.093-.465.17-.705.228-.24.063-.483.11-.73.138-.244.03-.492.04-.74.036-.247-.002-.494-.02-.74-.056-.244-.035-.486-.088-.724-.156-.24-.066-.473-.148-.7-.245-.228-.097-.45-.21-.66-.34-.213-.124-.417-.264-.61-.418-.194-.154-.38-.32-.552-.497-.177-.174-.342-.36-.494-.558-.15-.196-.28-.406-.392-.627l-.018-.036-.018-.035h-5.816c-.077 0-.153 0-.23.002-.076.002-.152.005-.23.01-.17.012-.34.035-.507.067-.167.032-.333.073-.497.122-.228.064-.45.143-.667.235-.217.092-.427.2-.63.32-.202.12-.397.252-.582.398-.185.147-.36.306-.524.476-.165.17-.32.347-.46.536-.143.19-.27.387-.383.594-.115.205-.215.418-.3.638-.087.22-.16.444-.222.67-.036.126-.067.252-.094.38-.025.126-.044.254-.055.383-.01.095-.014.19-.015.284-.002.095-.002.19 0 .284h-5.4v-.14c.003-.472.037-.943.104-1.41.067-.466.168-.928.3-1.38.124-.457.28-.902.466-1.336.186-.433.403-.852.648-1.255.238-.407.505-.797.796-1.167.292-.37.61-.72.95-1.047.334-.33.692-.638 1.07-.92.378-.282.775-.538 1.188-.767.41-.234.835-.44 1.273-.615.437-.175.887-.318 1.345-.428.375-.095.755-.17 1.14-.22.382-.052.767-.085 1.154-.1l.182-.006.183-.006h6.477v-2.97h-1.08v-.81h2.7v-8.1h1.566v-7.558"/></symbol><use xlink:href="#a"/></svg>
