<svg xmlns="http://www.w3.org/2000/svg" height="60" width="60"><g stroke="#000" fill="#fff"><path stroke-linejoin="bevel" d="M4.48 58.944H55.546c.15 0 .296-.01.442-.03.148-.02.293-.05.435-.09.143-.038.284-.086.42-.144s.27-.123.396-.2c.128-.073.25-.155.37-.246.115-.09.227-.188.33-.292.107-.105.205-.216.295-.333.09-.118.172-.242.245-.37.076-.128.142-.26.2-.397s.104-.277.142-.42c.04-.143.072-.288.092-.434s.03-.296.03-.443V4.453c0-.148-.01-.296-.03-.442-.02-.147-.05-.29-.092-.434-.037-.143-.084-.284-.14-.42-.06-.137-.126-.27-.202-.397-.073-.13-.155-.252-.245-.37-.09-.117-.188-.228-.294-.33-.103-.108-.215-.205-.33-.296-.12-.09-.242-.172-.37-.246-.128-.074-.26-.14-.397-.198-.137-.057-.277-.105-.42-.143-.142-.04-.287-.072-.435-.092-.146-.02-.294-.03-.442-.03H4.453c-.148 0-.296.01-.443.03-.146.02-.29.05-.434.092-.144.037-.284.084-.42.14-.137.06-.27.126-.397.2-.13.075-.253.157-.37.247-.117.09-.23.188-.332.295-.105.102-.203.213-.294.33-.09.118-.172.24-.246.37-.075.127-.14.26-.2.396s-.103.278-.142.42c-.04.143-.07.288-.092.435-.02.147-.03.295-.028.443v.013l-.002.013v51.04l.002.012v.015c0 .147.01.295.03.442.02.145.05.29.09.434.037.143.085.283.142.42.058.136.124.268.2.396.074.128.156.252.246.368.09.118.19.23.294.334.103.104.215.202.333.293.117.09.24.172.37.246.127.076.26.142.396.2.137.057.277.105.42.143.143.04.288.07.435.092.147.02.295.03.443.03h.027z" stroke-miterlimit="22.926" stroke-width=".22814015"/><path stroke-linejoin="bevel" d="M4.48 59h-.028c-.15 0-.3-.012-.45-.032s-.296-.05-.44-.092c-.146-.037-.29-.086-.428-.144-.14-.06-.273-.126-.402-.203-.13-.076-.255-.16-.375-.252-.12-.09-.232-.19-.338-.297-.108-.106-.208-.218-.3-.337-.092-.12-.174-.244-.25-.375-.076-.13-.143-.264-.202-.404-.057-.14-.106-.28-.145-.426-.04-.145-.073-.293-.093-.442-.022-.148-.03-.3-.03-.45V4.454c0-.15.012-.3.03-.45.02-.15.052-.296.093-.442.038-.144.086-.287.144-.426.06-.138.126-.272.203-.402.076-.13.16-.256.25-.375.093-.12.192-.232.3-.338.105-.108.217-.208.337-.3.12-.09.244-.175.375-.25.13-.075.264-.143.402-.2.14-.06.282-.108.427-.147.146-.04.294-.072.443-.094.15-.02.3-.03.45-.03h51.093c.15 0 .3.01.45.03.15.022.296.053.44.093.147.037.29.086.43.145.137.058.272.126.4.202.13.075.257.16.377.25.118.092.232.192.337.3.108.105.207.218.3.337.09.12.174.245.25.375.075.13.143.264.2.403.058.14.107.28.146.426.04.147.072.294.093.443.02.15.03.3.03.45v51.094c-.002.15-.012.3-.033.45-.02.148-.05.296-.09.44-.038.146-.087.29-.146.427-.057.14-.125.274-.2.404-.076.13-.16.255-.25.375-.093.12-.192.23-.3.338-.105.108-.22.207-.337.3-.12.09-.245.174-.376.25-.13.075-.264.142-.403.2-.138.06-.28.107-.427.146-.145.04-.292.072-.442.093-.148.02-.298.03-.45.03H4.48z" stroke-miterlimit="22.926" stroke-width="2.00006275"/></g><path d="M4.48 56.514h-.01c-.04 0-.084-.003-.126-.01-.043-.005-.085-.014-.127-.026-.04-.01-.082-.025-.122-.04-.04-.018-.078-.037-.115-.06-.037-.02-.073-.044-.107-.07-.034-.027-.067-.055-.096-.086-.03-.03-.06-.062-.086-.096-.025-.035-.05-.07-.07-.108-.022-.036-.04-.075-.058-.114-.016-.04-.03-.08-.04-.123-.013-.04-.022-.082-.03-.125-.004-.042-.007-.085-.007-.128V4.47c0-.043.003-.086.01-.13.005-.04.014-.084.026-.125.01-.042.026-.083.042-.122.016-.04.036-.078.058-.115.02-.037.045-.073.07-.108.027-.033.056-.065.087-.096.03-.03.062-.06.096-.085.034-.025.07-.05.107-.07.037-.022.076-.04.115-.06.04-.015.08-.028.122-.04.042-.012.084-.02.127-.026.042-.006.085-.01.127-.008h51.057c.043 0 .086.002.13.008.04.006.084.014.125.027.042.01.083.025.12.04.04.018.08.037.117.06.036.02.072.045.105.07.035.027.067.056.098.086s.06.063.084.096c.027.035.05.07.072.108s.04.076.057.115c.017.04.03.08.04.122.014.04.022.084.028.126.006.043.01.086.008.13v51.054c0 .043-.002.086-.008.128-.006.043-.014.085-.027.126-.01.043-.024.084-.04.124-.018.04-.037.078-.06.114-.02.038-.044.073-.07.108-.026.034-.055.066-.085.096-.03.03-.063.06-.098.086-.033.026-.07.05-.106.07-.038.023-.077.04-.117.06-.038.015-.08.03-.12.04-.042.012-.085.02-.127.026-.043.007-.086.01-.13.01H4.48" fill-rule="evenodd" fill="#039"/><path d="M39.092 21.492l.03-.03.03-.03c.06-.06.123-.117.19-.167.07-.05.14-.096.214-.136.074-.044.15-.08.228-.11.078-.032.16-.058.24-.078.082-.02.165-.038.25-.047.083-.01.168-.014.252-.012.085 0 .17.006.253.018.08.013.164.032.245.054.082.023.162.05.24.084.076.034.152.072.224.116.072.043.142.09.208.143.067.052.13.11.188.17.06.06.113.124.164.19.05.07.096.14.137.214.042.075.08.15.112.23.03.077.056.158.075.24.018.077.03.156.04.236s.014.16.02.24v.025c-.002.086-.008.17-.02.253-.012.083-.03.166-.054.247-.02.082-.048.162-.082.24s-.072.152-.116.224c-.042.073-.09.143-.142.21s-.11.128-.17.186c-.06.06-.125.115-.193.165-.067.05-.138.096-.21.137-.075.042-.15.078-.23.11-.078.03-.16.057-.24.078-.082.02-.166.037-.25.048s-.167.014-.252.01h-.04l-.04-.002-1.73 2.213h12.357c.046 0 .093.004.14.01.046.007.09.017.136.03.047.013.092.03.137.05.044.017.087.04.128.065.042.025.08.05.118.08.04.032.075.063.11.1.032.033.064.07.093.11s.055.078.078.12c.025.042.046.085.063.13.018.045.033.09.044.138.012.046.02.095.027.142.005.05.008.097.007.145 0 .048-.003.096-.01.144-.007.048-.018.094-.03.14l-.005.015-2.767 8.85-.008.026c-.01.03-.02.06-.034.088s-.026.057-.042.085c-.022.04-.048.08-.076.12-.028.04-.06.077-.092.112s-.07.068-.107.098c-.038.03-.077.058-.118.083-.04.025-.084.048-.128.067-.044.02-.09.037-.136.05-.046.015-.093.025-.142.033-.047.008-.095.012-.143.013H30.036l-3.345 4.28v2.68l-5.152 6.578-.01.01-.008.012c-.03.037-.064.073-.1.105-.034.034-.07.065-.11.093-.04.028-.082.053-.124.076-.043.022-.087.04-.132.058-.045.017-.092.03-.14.042-.046.01-.093.018-.14.022-.05.005-.097.006-.145.004-.05 0-.098-.006-.146-.014-.047-.008-.094-.02-.14-.033-.046-.015-.09-.033-.135-.053-.037-.016-.072-.034-.105-.053-.033-.02-.066-.042-.096-.066l-.022-.016-2.61-2.04-.01-.01-.012-.01c-.037-.03-.073-.062-.106-.098-.032-.035-.063-.072-.09-.11-.03-.04-.055-.082-.077-.124-.023-.043-.042-.087-.06-.133-.016-.044-.03-.09-.04-.138-.012-.048-.02-.095-.023-.143-.005-.048-.007-.097-.005-.145 0-.048.006-.097.015-.144.007-.047.02-.094.033-.14.013-.047.03-.092.05-.136.017-.036.035-.07.055-.104s.042-.067.067-.1l.015-.02 5.36-6.818h2.084l2.59-3.314h-9.948c-.045 0-.09-.005-.135-.01-.044-.008-.088-.017-.13-.03-.048-.012-.094-.027-.138-.046-.045-.02-.088-.04-.13-.066-.04-.023-.082-.05-.12-.08s-.073-.062-.107-.097l-.01-.01-.01-.01L8.21 28.82l-.02-.02c-.02-.025-.042-.05-.06-.078s-.04-.053-.056-.08c-.027-.042-.05-.085-.07-.13s-.035-.088-.048-.135c-.014-.046-.025-.094-.033-.14-.007-.05-.01-.097-.012-.145 0-.048 0-.096.006-.144s.013-.096.025-.143c.012-.046.026-.092.044-.137.016-.046.037-.09.06-.132.022-.042.05-.083.077-.122.03-.04.06-.077.094-.112.033-.034.068-.067.106-.098.037-.03.077-.058.118-.083.04-.024.084-.047.128-.066s.09-.037.136-.05c.046-.015.093-.025.14-.033.048-.006.096-.01.144-.01h8.888c-.03-.3-.06-.6-.085-.9-.026-.3-.04-.602-.044-.903-.006-.483.026-.966.096-1.443.067-.48.174-.95.317-1.41.138-.463.307-.914.504-1.353s.41-.87.636-1.297c.09-.178.186-.354.283-.53.097-.173.204-.342.317-.505.087-.127.18-.25.28-.368.1-.116.204-.23.315-.336.142-.138.292-.267.45-.385.16-.12.325-.227.498-.323.17-.1.35-.186.532-.26.184-.075.373-.135.566-.18.262-.062.53-.096.8-.1.27-.003.537.025.8.087.166.034.332.082.495.138s.324.115.484.18l13.975 4.42M29.73 12.326V12.377c-.003.17-.017.338-.04.504-.024.168-.06.333-.107.496-.044.162-.1.322-.165.477-.068.155-.146.305-.233.45-.086.146-.18.285-.285.418-.104.133-.218.26-.34.375-.12.12-.248.23-.383.33s-.278.193-.426.275c-.145.083-.298.156-.455.22-.157.06-.317.113-.48.153-.165.043-.33.075-.498.094s-.337.03-.506.025c-.167 0-.336-.013-.503-.038-.168-.024-.333-.06-.495-.106-.163-.045-.32-.1-.477-.168s-.306-.143-.45-.23c-.145-.086-.286-.18-.42-.287-.13-.104-.256-.218-.373-.34-.12-.12-.228-.248-.33-.383s-.193-.277-.274-.425c-.083-.147-.156-.3-.22-.456-.062-.157-.113-.318-.154-.483-.043-.163-.074-.33-.094-.497-.02-.167-.028-.336-.025-.505 0-.17.015-.337.038-.505.025-.166.06-.33.108-.494.046-.162.1-.322.167-.477.067-.156.145-.306.232-.452.085-.145.18-.284.284-.417.104-.13.218-.257.34-.373.12-.12.248-.23.383-.33s.278-.193.426-.275c.146-.083.3-.157.455-.22.158-.06.318-.114.482-.154.164-.042.33-.073.497-.094.168-.02.337-.028.506-.024.168 0 .337.013.504.038s.332.06.494.106c.164.045.323.1.48.168s.305.143.45.23c.144.086.284.18.416.285.133.106.258.22.376.34.12.12.228.25.33.385.1.135.193.277.273.424.084.148.157.3.22.457.062.156.114.318.155.48.04.156.072.315.09.473.02.16.03.32.03.48" fill-rule="evenodd" fill="#fff"/><path d="M38.6 23.195L27.516 21.99h-.585l-.012.254-.013.256c-.034.535-.098 1.068-.19 1.596-.095.528-.22 1.05-.374 1.562-.062.22-.13.437-.2.654-.07.217-.142.433-.216.648h9.933l2.793-3.573-.015-.047-.012-.047-.012-.05-.01-.048" fill-rule="evenodd" fill="#039"/></svg>
