<svg xmlns="http://www.w3.org/2000/svg" xmlns:xlink="http://www.w3.org/1999/xlink" width="60" height="60"><symbol id="a"><path d="M49.642 42.8H10.48c-.03.002-.06.005-.088.01-.03.004-.06.01-.086.02-.03.008-.056.017-.083.03-.027.01-.053.025-.078.04-.025.016-.05.032-.073.05l-.064.06c-.02.022-.04.046-.057.07-.017.024-.032.05-.045.074-.015.026-.027.053-.038.08-.01.028-.02.056-.026.085-.005.027-.012.056-.014.086-.003.03-.004.06-.003.088 0 .03.003.058.008.087.005.03.012.06.02.087l.016.05.02.047.007.013 3.375 6.75.008.015.046.076c.018.024.037.047.057.068.02.023.04.043.064.06.022.02.046.036.07.053l.078.04c.028.012.055.022.084.03.028.01.056.016.085.02.03.006.06.008.09.01H42.91c.03 0 .06-.004.09-.007.03-.005.058-.01.085-.02.03-.008.056-.02.084-.03.025-.012.05-.026.076-.042.02-.01.04-.024.06-.04.02-.013.037-.03.054-.046l.01-.01 6.75-6.75.013-.012c.02-.022.038-.044.056-.068.016-.024.03-.05.045-.075.015-.027.028-.053.04-.08.01-.03.018-.057.024-.086.006-.03.01-.057.014-.087.004-.03.005-.06.004-.088-.002-.03-.004-.06-.01-.088-.003-.03-.01-.06-.018-.087-.008-.028-.02-.056-.03-.083-.012-.027-.026-.053-.042-.078-.015-.025-.032-.05-.05-.072-.02-.023-.04-.045-.06-.065-.022-.02-.045-.04-.068-.057-.025-.017-.05-.032-.075-.047-.026-.014-.052-.026-.08-.036-.027-.01-.056-.02-.085-.027-.024-.006-.046-.01-.07-.013-.024-.002-.047-.005-.07-.005h-.017zM34.097 38.75V9.713c0-.03-.004-.06-.007-.09-.005-.028-.012-.057-.02-.085l-.03-.083c-.013-.026-.027-.052-.042-.077-.016-.025-.032-.05-.05-.073-.02-.022-.04-.045-.06-.065-.022-.02-.045-.04-.068-.057-.025-.018-.05-.033-.075-.048-.027-.013-.053-.026-.08-.036-.028-.012-.057-.02-.085-.027-.03-.007-.058-.013-.087-.015-.03-.004-.058-.005-.088-.004-.03 0-.06.004-.088.007-.03.006-.06.012-.086.02l-.082.03c-.027.013-.053.027-.078.043-.025.015-.05.032-.073.05l-.064.06-.016.018c-.005.006-.01.01-.014.017l-.01.013L9.945 38.33l-.01.014c-.02.024-.035.05-.048.074-.015.026-.028.053-.04.08-.01.028-.02.055-.027.084-.007.03-.012.058-.015.088-.004.028-.006.058-.005.087 0 .03.002.06.006.09.004.028.01.056.018.085.01.028.018.056.03.083.01.027.025.053.04.078.015.027.03.05.05.074.02.023.037.045.06.065.02.02.042.04.066.058.024.017.048.033.074.048.025.014.052.027.08.038.027.01.055.02.084.027.028.007.057.013.086.017.01 0 .02.002.032.004H33.44c.03 0 .058-.003.086-.007.03-.005.06-.013.087-.02l.083-.03c.027-.013.053-.027.078-.043.025-.015.05-.03.072-.05.023-.02.045-.04.065-.06.02-.02.04-.045.058-.067.017-.025.032-.05.047-.077.014-.025.026-.052.036-.08.013-.026.02-.055.028-.083.006-.024.01-.047.013-.07.004-.024.006-.048.006-.072v-.016z"/></symbol><use xlink:href="#a"/></svg>
