<svg xmlns="http://www.w3.org/2000/svg" xmlns:xlink="http://www.w3.org/1999/xlink" width="60" height="60"><symbol id="a"><path d="M29.97 8.406c-.074.002-.148.02-.22.03-.072.013-.15.044-.22.064-.068.02-.15.033-.218.063-.065.03-.126.054-.187.093-.05.03-.078.058-.125.094-.046.036-.114.084-.156.125-.005.004-.026.027-.032.03L8.907 28.813l-.03.032c-.05.052-.114.128-.157.187-.044.06-.06.125-.095.19-.035.062-.068.12-.094.186-.025.068-.045.148-.06.22-.02.07-.024.146-.033.218-.007.07-.034.114-.03.187 0 .073.02.148.03.22.012.072.01.15.032.22.02.068.063.152.092.218.03.066.056.124.094.187.03.05.06.078.094.125.036.046.084.114.125.156l.03.032 19.907 19.906.032.03c.052.05.13.114.187.157.06.043.124.06.19.095.06.036.12.068.186.094.068.024.148.045.22.06.07.018.115.025.186.032.073.01.146.034.22.032.072 0 .146-.02.218-.032.072-.01.15-.01.22-.03.068-.02.15-.065.218-.094.065-.03.126-.056.187-.094.05-.03.078-.058.125-.094.046-.036.114-.084.156-.125.005-.004.026-.026.032-.03l19.906-19.907c.005-.007.026-.027.03-.032.05-.052.083-.13.126-.187.043-.06.09-.125.125-.19.035-.062.068-.12.094-.186.025-.068.045-.148.06-.22.02-.07.025-.115.032-.186.01-.073.035-.147.032-.22 0-.072-.02-.147-.032-.218-.01-.072-.04-.15-.062-.22-.02-.068-.033-.15-.063-.218-.028-.066-.055-.126-.093-.187-.03-.05-.058-.08-.094-.125-.035-.046-.084-.114-.125-.156l-.03-.032L31.187 8.907l-.032-.03h-.03c-.053-.05-.1-.084-.157-.126-.06-.043-.124-.09-.19-.125-.062-.036-.12-.068-.186-.094-.068-.025-.148-.045-.22-.06-.07-.02-.146-.024-.218-.033-.073-.007-.114-.033-.187-.03zm-6.657 17.938c.023-.004.07 0 .093 0h12.188c.02 0 .043-.002.062 0 .02.003.044-.005.063 0 .022.006.04.023.06.03.024.01.042.02.064.032.02.012.043.018.062.032.02.014.045.045.063.062.016.016.015.012.03.03.015.02.05.042.063.064.013.02.02.04.03.062.01.022.025.07.032.094.006.024-.004.04 0 .063.003.024 0 .037 0 .062 0 .024.002.04 0 .063-.002.024.006.07 0 .093-.005.025-.023.04-.03.064-.01.022-.02.042-.032.062l-6.094 10.532c-.01.016-.02.047-.032.062-.013.015-.018.017-.032.03-.017.02-.044.048-.062.064-.02.015-.042.018-.063.03-.02.013-.04.022-.06.032-.024.01-.04.025-.064.032-.023.007-.04.027-.062.03-.025.005-.07 0-.094 0-.024.002-.04.003-.063 0-.024-.002-.038-.025-.062-.03-.024-.007-.04.01-.063 0-.022-.01-.072-.02-.093-.032-.022-.01-.044-.048-.064-.062-.02-.015-.015-.015-.03-.032-.02-.016-.048-.044-.064-.062-.015-.018-.018-.042-.03-.063l-6.095-10.53c-.01-.017-.024-.045-.03-.063-.01-.02-.027-.012-.032-.032-.007-.022.004-.07 0-.093-.004-.025-.03-.04-.03-.064-.002-.023-.003-.04 0-.062.002-.025.025-.07.03-.094.006-.024.023-.04.03-.063.01-.02-.01-.04 0-.062.013-.02.05-.042.064-.063.013-.02.013-.045.03-.062.016-.017.044-.016.063-.03.02-.017.042-.05.062-.064.02-.013.04-.02.063-.03.022-.01.038.006.062 0 .024-.007.038-.03.063-.032z"/></symbol><use xlink:href="#a"/></svg>
