<svg xmlns="http://www.w3.org/2000/svg" height="60" width="60"><text transform="translate(-4.51 -4.51) scale(.97035)" font-size="40" y="29.392" x="27.83" font-family="Bitstream Vera Sans" fill="#000"/><g stroke="#000" fill="#fff"><path stroke-linejoin="bevel" d="M4.485 58.945H55.55c.148 0 .296-.012.442-.032.147-.02.292-.05.435-.09.142-.037.283-.085.42-.142s.268-.123.395-.2c.13-.072.252-.154.37-.245.116-.09.228-.19.332-.293.105-.104.203-.216.293-.332.09-.118.172-.242.246-.37.076-.128.14-.26.198-.397.058-.136.106-.277.144-.42.04-.142.07-.288.092-.434.02-.148.03-.296.03-.443V4.453c-.002-.148-.012-.296-.03-.442-.02-.147-.05-.29-.092-.434-.037-.143-.084-.283-.14-.42-.06-.137-.126-.27-.202-.396-.074-.128-.155-.252-.246-.37-.09-.116-.188-.228-.293-.33-.104-.108-.216-.205-.333-.296-.117-.09-.24-.172-.37-.245-.127-.076-.26-.143-.396-.2-.136-.057-.276-.105-.42-.143-.142-.04-.287-.072-.434-.092-.146-.02-.295-.03-.442-.03H4.46c-.15 0-.297.01-.444.03-.147.02-.292.05-.434.092-.144.037-.285.084-.42.14-.138.06-.27.126-.398.202-.127.072-.25.154-.368.244-.117.09-.23.188-.332.295-.106.102-.204.214-.294.33-.09.118-.173.242-.246.37-.075.127-.142.26-.2.397s-.103.277-.142.42c-.04.142-.07.288-.092.434-.02.147-.03.295-.03.443v51.094c0 .147.01.295.032.442.02.145.05.29.09.434.037.143.085.283.142.42.057.136.124.268.2.396.073.128.156.252.246.37.09.116.188.228.294.332.103.104.215.203.332.294.117.09.24.172.368.245.128.076.26.142.397.2.14.057.28.105.422.143.142.04.287.07.435.092.146.02.293.03.442.03h.025z" stroke-miterlimit="22.926" stroke-width=".22814015"/><path stroke-linejoin="bevel" d="M4.485 59h-.027c-.15 0-.3-.01-.45-.032-.15-.02-.296-.05-.44-.092-.147-.037-.29-.086-.428-.144-.14-.058-.273-.126-.402-.203-.13-.075-.256-.16-.376-.25-.12-.092-.232-.193-.337-.3-.108-.105-.208-.218-.3-.337-.09-.12-.174-.244-.25-.375-.075-.13-.143-.264-.2-.403-.058-.14-.108-.282-.146-.427-.042-.145-.074-.292-.094-.442-.022-.148-.03-.3-.03-.45V4.454c0-.15.01-.3.03-.45.02-.15.052-.296.093-.44.036-.147.085-.29.143-.43.058-.137.126-.27.202-.4.076-.13.16-.257.25-.375.093-.12.192-.233.3-.34.105-.105.218-.206.337-.297.12-.09.245-.175.376-.25.13-.075.264-.143.402-.2.14-.06.28-.107.427-.146.145-.042.292-.073.442-.094.148-.02.297-.03.448-.03h51.094c.15 0 .3.01.45.032.148.02.296.05.44.092.146.037.29.086.43.144.137.058.272.126.4.203.13.075.256.16.376.25.12.092.232.193.338.3.107.105.206.218.298.338.092.118.175.244.25.374.077.13.144.264.202.403.058.14.107.28.146.427.04.145.072.292.093.442.022.148.03.298.03.45v51.093c0 .15-.012.3-.032.45-.02.15-.05.296-.09.44-.04.146-.087.29-.146.428-.06.14-.126.273-.203.403-.075.13-.158.256-.25.375-.092.12-.19.232-.298.338-.106.107-.22.208-.338.3-.12.09-.244.175-.375.25-.13.075-.264.142-.403.2-.14.06-.282.107-.427.146-.145.04-.293.073-.442.094-.147.02-.298.03-.448.03H4.485z" stroke-miterlimit="22.926" stroke-width="2.00006275"/></g><path d="M4.485 56.514h-.008c-.043 0-.086-.003-.128-.01-.044-.004-.086-.014-.128-.026-.04-.01-.082-.025-.12-.04-.04-.017-.08-.037-.116-.06-.038-.02-.074-.044-.107-.07-.035-.026-.068-.055-.098-.086-.03-.03-.06-.062-.086-.096-.025-.034-.05-.07-.07-.107-.023-.038-.04-.077-.058-.116-.017-.04-.03-.08-.04-.122-.014-.042-.023-.084-.03-.127-.004-.042-.007-.084-.007-.127V4.472c0-.043.004-.086.01-.13.005-.04.014-.083.027-.124.01-.042.024-.083.04-.122.017-.04.036-.08.06-.116.02-.037.044-.072.07-.107.026-.034.055-.066.085-.096.03-.03.063-.06.097-.085.032-.027.068-.05.106-.072.037-.02.076-.04.115-.058.04-.017.08-.03.122-.04.042-.013.084-.022.127-.028.04-.006.084-.01.127-.008h51.055c.043 0 .086.002.13.008.04.006.084.015.125.027.042.01.083.025.122.042.04.017.078.037.114.058.037.022.073.045.107.072.036.025.067.054.098.085.03.03.06.062.085.096.026.035.05.07.07.107.023.037.042.076.06.116.016.04.03.08.04.122.013.04.02.083.027.125.006.043.01.086.008.13v51.055c0 .043-.002.085-.008.127-.006.043-.014.085-.026.127-.01.04-.025.082-.04.122-.02.04-.038.078-.06.115-.02.036-.045.072-.07.106-.027.034-.055.067-.086.096-.03.03-.062.06-.097.086-.033.026-.07.05-.106.07-.036.023-.075.042-.115.06-.04.015-.08.03-.123.04-.04.012-.084.022-.126.028-.042.005-.085.008-.128.008H4.485" fill-rule="evenodd" fill="#039"/><text font-weight="bold" font-size="10" y="276.87" x="-135.354" font-family="Nimbus Sans L" fill="#fff" transform="translate(121.203 -197.588) scale(.81844)"><tspan font-weight="normal" font-size="24" y="276.87" x="-135.354">VHF</tspan></text></svg>
