<svg xmlns="http://www.w3.org/2000/svg" height="60" width="60"><g stroke="#000" fill="#fff"><path stroke-linejoin="bevel" d="M55.52 1.05H4.453c-.148 0-.296.01-.442.03-.146.02-.292.05-.434.09-.143.038-.284.086-.42.144s-.27.123-.396.2c-.13.073-.252.156-.37.246-.116.09-.228.188-.332.293-.105.104-.204.215-.294.332-.09.117-.173.24-.245.37-.077.127-.142.26-.2.396-.057.137-.105.278-.143.42-.04.144-.07.29-.092.435-.02.148-.03.295-.03.442v51.095c0 .147.012.295.03.44.02.15.05.293.092.436.037.144.084.284.14.42.06.137.126.27.202.397.07.128.154.25.244.37.09.116.19.227.294.33.104.107.216.204.332.295.118.09.24.172.37.246.128.074.26.14.396.198.137.057.277.105.42.143.142.04.288.072.435.092.147.02.296.03.443.03h51.093c.15-.002.296-.012.443-.032.145-.02.29-.05.433-.09.143-.037.284-.085.42-.142.138-.058.27-.125.396-.2.128-.074.252-.156.37-.246.116-.09.227-.188.33-.295.107-.103.205-.214.295-.33.09-.12.173-.242.246-.37.076-.128.143-.26.2-.397.056-.136.104-.276.143-.42.04-.143.07-.288.092-.435.02-.146.03-.294.03-.44V4.446c0-.147-.01-.294-.032-.442-.02-.146-.05-.29-.09-.435-.037-.143-.085-.283-.142-.42-.056-.136-.123-.268-.2-.396-.072-.128-.155-.252-.245-.368-.09-.118-.188-.23-.294-.333-.103-.105-.214-.203-.33-.294-.118-.09-.242-.173-.37-.247-.127-.075-.26-.14-.397-.198-.137-.058-.277-.106-.42-.144-.142-.04-.288-.07-.435-.09-.146-.02-.293-.03-.442-.03h-.026z" stroke-miterlimit="22.926" stroke-width=".22814015"/><path stroke-linejoin="bevel" d="M55.52.994h.027c.15 0 .3.012.45.032.15.02.296.05.44.09.147.04.29.088.428.146.138.06.273.126.402.203.13.075.256.16.375.25.12.092.233.192.338.298.107.107.208.22.3.338.09.12.174.246.248.376.077.13.145.264.203.404.058.14.107.28.146.426.04.145.073.293.093.442.02.148.03.3.03.45V55.54c0 .15-.012.3-.032.45-.02.148-.05.295-.092.44-.038.146-.086.29-.144.428-.058.138-.126.272-.204.4-.074.132-.158.258-.25.377-.09.12-.19.232-.298.338-.105.107-.218.207-.338.298-.118.092-.244.176-.375.25-.13.076-.264.144-.402.202-.14.06-.28.107-.428.146-.144.042-.29.073-.44.095-.15.02-.3.03-.45.03H4.453c-.15-.002-.3-.012-.45-.032-.15-.02-.296-.052-.44-.092-.147-.036-.29-.085-.43-.144-.137-.058-.272-.126-.4-.202-.132-.075-.257-.16-.376-.25-.12-.092-.233-.192-.338-.3-.108-.105-.208-.218-.3-.337-.092-.12-.175-.245-.25-.376-.076-.128-.144-.262-.2-.4-.06-.14-.108-.282-.147-.427-.04-.146-.072-.293-.093-.442-.022-.148-.03-.298-.03-.448V4.447c0-.15.01-.3.032-.45.02-.148.05-.296.09-.44.04-.146.087-.29.146-.427.058-.14.126-.274.203-.404.075-.13.16-.255.25-.375.092-.118.192-.23.3-.337.104-.107.218-.206.337-.298.12-.09.244-.175.375-.25.13-.077.264-.143.403-.202.138-.058.282-.106.427-.146s.292-.07.442-.093c.148-.02.3-.03.45-.03H55.52z" stroke-miterlimit="22.926" stroke-width="2.00006275"/></g><path d="M55.52 3.48h.008c.043 0 .086.004.128.01.043.005.085.014.127.026.04.01.08.025.12.04.04.018.08.037.116.06.037.02.073.044.106.07.034.027.067.055.096.086.03.03.06.062.086.096.026.034.05.07.07.108.023.036.042.075.06.114.016.04.03.08.04.122.012.042.022.084.027.127.006.04.01.084.01.127v51.055c0 .043-.004.086-.01.13-.005.04-.015.084-.027.125-.01.042-.024.083-.04.122-.017.038-.037.077-.06.114-.02.037-.044.073-.07.107-.026.035-.055.067-.086.098-.03.03-.062.06-.096.085-.033.026-.07.05-.107.07-.038.023-.077.042-.116.06-.04.016-.08.03-.12.04-.043.012-.085.02-.128.027-.042.006-.085.01-.128.008H4.472c-.043 0-.086-.002-.13-.008-.04-.006-.083-.015-.124-.026-.042-.01-.083-.025-.122-.04-.04-.02-.08-.038-.116-.06s-.072-.045-.106-.07c-.035-.027-.067-.056-.097-.086s-.06-.063-.085-.097c-.027-.033-.05-.07-.072-.106s-.04-.076-.058-.115c-.017-.04-.03-.08-.04-.123-.013-.04-.022-.084-.028-.126-.006-.042-.01-.085-.008-.128V4.467c0-.043.002-.086.008-.128.006-.044.015-.086.027-.128.01-.04.025-.082.042-.122.016-.04.036-.078.058-.114.022-.038.045-.074.072-.108.025-.034.054-.066.085-.096.03-.03.062-.06.097-.086.034-.026.07-.05.106-.07.037-.023.076-.04.116-.06.04-.015.08-.03.122-.04.04-.012.084-.02.125-.027.043-.006.086-.01.13-.01H55.52" fill-rule="evenodd" fill="#039"/><path d="M33.774 57.187V2.35h-8.226v54.837h8.226z" fill="#fff"/><path d="M30.614 31.242v-3.47H3.197v3.47h27.417z" fill="#fff"/></svg>
