<svg xmlns="http://www.w3.org/2000/svg" height="60" width="60"><path d="M4.896 57.17H4.88c-.09 0-.178-.008-.267-.018-.088-.012-.176-.03-.262-.056-.085-.022-.17-.05-.252-.085-.083-.033-.162-.074-.24-.12-.077-.043-.152-.094-.222-.148s-.138-.114-.2-.177c-.064-.062-.123-.13-.177-.2-.056-.07-.105-.145-.15-.223-.045-.076-.085-.157-.12-.24-.034-.082-.062-.165-.086-.252-.025-.086-.043-.174-.055-.262-.014-.088-.02-.178-.02-.267V4.88c0-.09.008-.178.02-.266.012-.09.03-.177.054-.262.022-.087.052-.17.086-.254.034-.082.074-.162.12-.238.045-.078.094-.152.15-.223.053-.07.112-.138.176-.2.062-.064.13-.123.2-.177.07-.055.145-.105.222-.15.078-.044.157-.084.24-.118.082-.035.167-.063.253-.087.087-.024.175-.043.263-.055s.177-.018.267-.018h50.242c.088 0 .178.008.266.02.09.01.177.03.262.053.087.023.17.05.254.085.082.035.162.075.238.12.078.045.152.095.223.15.07.054.138.113.2.177.064.062.123.13.178.2.054.07.104.145.148.223.046.076.087.156.12.238.035.083.064.167.087.254.024.086.043.174.056.262.012.088.018.178.017.266V55.12c0 .09-.007.18-.018.268-.012.088-.03.176-.055.262-.023.087-.05.17-.085.254-.035.08-.076.162-.12.238-.045.078-.095.152-.15.223-.054.07-.113.138-.176.2-.063.065-.13.123-.2.177-.072.056-.146.105-.224.15-.076.044-.156.084-.238.12-.083.033-.167.06-.254.084-.085.026-.173.044-.262.056-.088.013-.178.02-.266.018H4.895z" fill-rule="evenodd" fill="#e72512"/><path d="M43.478 49.33l-32.81-32.812v32.81h32.81M49.333 43.478v-32.81h-32.81l32.81 32.81" fill-rule="evenodd" fill="#fff"/><path stroke-linejoin="bevel" d="M4.48 58.946h51.067c.15 0 .296-.012.442-.03.147-.022.292-.05.434-.092.143-.037.285-.084.42-.142.137-.058.27-.124.397-.2.13-.073.252-.155.37-.245.117-.09.228-.19.332-.295.106-.103.204-.214.294-.33.09-.12.172-.243.245-.37.077-.13.144-.26.2-.398.057-.136.105-.276.144-.42.04-.142.07-.288.09-.434.022-.146.032-.295.03-.442V4.453c0-.147-.01-.295-.03-.442-.02-.146-.05-.29-.09-.433-.038-.144-.085-.284-.142-.42-.057-.137-.125-.27-.2-.397-.074-.128-.156-.252-.246-.37-.09-.116-.188-.227-.294-.332-.104-.105-.215-.203-.332-.293-.118-.09-.24-.172-.37-.246-.126-.075-.26-.142-.396-.2-.136-.057-.277-.105-.42-.143-.142-.04-.287-.07-.435-.092-.147-.02-.294-.03-.443-.03H4.455c-.15.002-.297.012-.443.03-.147.022-.292.052-.435.092-.143.037-.284.084-.42.142-.137.057-.27.123-.397.2-.127.073-.25.155-.368.245s-.23.188-.332.293c-.106.105-.204.216-.295.333-.09.118-.172.24-.246.37-.075.128-.142.26-.2.397-.056.136-.104.277-.142.42-.04.143-.072.288-.092.434-.02.148-.03.296-.03.443v51.095c0 .147.01.296.032.442.02.146.05.292.09.435.037.143.085.283.142.42.057.136.124.268.2.396.073.13.155.253.246.37.09.117.188.23.294.332.103.106.214.205.332.295.117.09.24.172.368.245.128.075.26.14.397.2.136.056.278.104.42.142.143.04.288.07.436.092.146.02.293.03.442.03h.026z" stroke="#231f20" stroke-miterlimit="22.926" stroke-width=".22803225" fill="none"/><path stroke-linejoin="bevel" d="M4.48 59.004h-.027c-.15 0-.3-.01-.45-.032-.148-.02-.296-.05-.44-.09-.146-.04-.29-.087-.428-.146-.14-.058-.273-.126-.403-.203-.13-.074-.255-.158-.374-.25-.12-.09-.232-.19-.34-.298-.105-.106-.205-.22-.297-.338-.09-.12-.174-.244-.25-.375-.075-.13-.142-.264-.2-.403-.058-.14-.107-.283-.146-.428-.04-.145-.073-.292-.093-.442-.02-.148-.03-.3-.03-.45V4.457c0-.15.012-.3.032-.45.02-.148.05-.295.092-.44.038-.146.086-.29.144-.428.06-.14.126-.273.203-.402.077-.13.16-.256.252-.375.09-.12.19-.23.297-.338.106-.106.218-.206.338-.297.12-.092.244-.176.374-.25.13-.077.264-.144.403-.202s.282-.107.427-.146c.145-.042.293-.072.442-.094.15-.02.3-.03.45-.03h51.094c.15 0 .3.012.45.032.148.02.297.05.44.092.147.037.29.086.43.145.138.058.272.125.4.202.132.075.256.16.376.25.12.092.232.192.338.298.107.107.206.22.298.34.092.118.175.244.25.374.077.13.144.263.203.403.057.138.106.28.145.425.04.146.073.293.093.442.022.15.032.3.03.45V55.55c0 .15-.01.302-.03.45-.02.15-.05.297-.092.442-.038.145-.086.29-.145.427-.06.138-.126.272-.203.402-.075.13-.158.256-.25.375-.092.12-.19.232-.298.338-.106.107-.22.207-.338.3-.12.09-.244.174-.375.248-.13.077-.265.143-.404.202-.14.058-.282.106-.427.146-.146.042-.294.073-.443.094-.148.02-.3.03-.45.03H4.482z" stroke="#000" stroke-miterlimit="22.926" stroke-width="1.99989135" fill="none"/><path stroke-linejoin="bevel" d="M16.743 36.627v-20.99h16.02l.136.002h.137c.457.01.914.05 1.367.12.453.072.9.175 1.34.31.44.124.87.28 1.29.468.418.187.822.403 1.21.645.394.238.77.502 1.126.79.356.288.69.6 1.005.935.317.33.612.682.882 1.053.27.37.513.76.728 1.164.22.402.415.818.578 1.245.164.428.3.866.404 1.312.09.36.16.725.208 1.094.048.367.075.736.08 1.107v.124l.002.125v.137l-.004.137c-.01.458-.05.915-.12 1.367-.07.453-.174.9-.308 1.34-.125.44-.282.872-.47 1.29-.185.42-.4.824-.645 1.212-.237.393-.5.768-.788 1.124s-.6.692-.936 1.006c-.33.318-.682.613-1.052.882-.372.27-.76.512-1.164.728-.402.22-.818.414-1.246.578s-.866.3-1.312.404c-.36.09-.725.16-1.093.208-.368.048-.738.075-1.11.08h-9.638v7.735h-6.63v-7.733z" fill-rule="evenodd" stroke="#000" stroke-miterlimit="22.926" stroke-width=".22803225"/><path stroke-linejoin="bevel" d="M23.373 22.266V30H32.863c.17-.005.338-.02.505-.046.166-.026.33-.064.493-.113.163-.046.322-.103.477-.172.154-.07.303-.148.447-.238.144-.087.282-.184.413-.29.132-.107.255-.222.37-.345.118-.122.226-.25.326-.388.1-.136.19-.28.268-.43.082-.146.154-.3.214-.457.06-.158.11-.32.15-.484.032-.133.057-.267.074-.403.02-.135.028-.27.03-.407v-.112-.05c-.002-.17-.015-.337-.04-.503-.024-.168-.06-.333-.11-.495-.044-.163-.1-.323-.168-.477-.068-.155-.146-.305-.234-.448-.086-.145-.182-.285-.288-.416s-.22-.257-.34-.374c-.122-.118-.25-.227-.386-.328-.136-.1-.278-.19-.427-.27-.147-.084-.3-.157-.457-.218-.158-.062-.318-.113-.483-.153-.137-.035-.276-.062-.417-.082-.14-.018-.282-.028-.424-.03H23.372z" fill-rule="evenodd" stroke="#000" stroke-miterlimit="22.926" stroke-width=".22803225" fill="#fff"/><path d="M34.783 29.427l-6.717-7.163h-4.694v7.733h9.492c.66-.052 1.3-.24 1.92-.57" fill-rule="evenodd" fill="#e72512"/></svg>
