<svg xmlns="http://www.w3.org/2000/svg" height="60" width="60"><path stroke-linejoin="bevel" d="M4.868 58.946h50.296c.165 0 .33-.013.492-.035.164-.02.326-.054.484-.1.16-.04.315-.094.468-.158.15-.063.3-.138.44-.222.144-.082.28-.173.41-.273.132-.1.256-.21.37-.328.12-.116.228-.24.33-.37.1-.13.19-.268.273-.41.084-.143.157-.29.22-.443.064-.152.117-.308.16-.467.045-.16.08-.32.103-.484.022-.163.033-.327.032-.492V4.838c0-.165-.012-.33-.034-.493-.02-.163-.055-.324-.1-.483-.04-.16-.094-.316-.158-.467-.064-.153-.137-.3-.22-.442-.084-.143-.175-.28-.275-.41-.102-.132-.21-.254-.328-.37-.116-.118-.24-.227-.37-.327-.13-.102-.268-.193-.41-.274-.144-.084-.29-.157-.442-.22-.153-.065-.31-.118-.468-.16-.16-.045-.32-.08-.484-.103-.162-.024-.327-.035-.492-.034H4.838c-.165 0-.33.013-.493.035-.163.023-.325.057-.483.102-.16.04-.316.093-.468.158-.152.063-.3.138-.44.222-.144.08-.28.173-.412.274-.13.1-.254.21-.37.327-.117.116-.226.238-.327.37-.1.13-.192.267-.274.41-.082.142-.156.29-.22.442-.063.152-.116.308-.16.467-.043.16-.078.32-.1.484-.024.163-.035.327-.034.492v50.326c.003.165.013.33.034.492.023.164.057.325.1.484.043.16.096.315.16.468.063.15.137.3.22.44.084.143.175.28.275.41.1.132.21.256.327.37.116.12.24.228.37.33.13.1.268.19.41.272.143.084.29.158.442.22.152.064.308.118.468.16.158.046.32.08.484.103.162.022.327.034.492.033h.03z" stroke="#231f20" stroke-miterlimit="22.926" stroke-width=".22803225" fill="none"/><path stroke-linejoin="bevel" d="M4.868 59.004h-.031c-.167 0-.333-.013-.5-.035s-.33-.058-.49-.103c-.162-.042-.32-.095-.474-.16-.154-.065-.304-.14-.447-.226-.145-.083-.284-.175-.417-.277-.133-.103-.26-.213-.377-.332-.118-.116-.23-.24-.33-.374-.104-.132-.196-.272-.278-.417-.085-.145-.16-.294-.225-.45-.064-.153-.118-.312-.162-.472-.045-.162-.08-.326-.104-.49-.023-.167-.034-.334-.032-.5V4.84c0-.168.012-.335.035-.5.022-.165.056-.33.1-.49.043-.162.097-.32.16-.474.067-.155.142-.304.228-.45.082-.144.175-.283.277-.415.102-.132.213-.257.33-.374.12-.12.245-.23.377-.333.132-.1.27-.194.416-.277.143-.085.294-.16.447-.224.155-.065.313-.12.474-.162.16-.046.325-.08.49-.103.167-.024.333-.035.5-.034h50.328c.167 0 .334.014.5.036.164.02.33.054.49.1.16.042.32.095.474.16.153.065.302.14.446.226.146.083.285.176.417.278.133.102.258.213.376.332.118.117.228.242.33.375.102.133.195.272.278.417.085.145.16.294.224.45.065.152.12.31.162.472.046.16.08.325.103.49.023.165.035.333.034.5v50.327c0 .167-.012.333-.034.5-.022.165-.056.328-.102.49-.042.162-.095.32-.16.475-.065.153-.14.303-.226.447-.083.143-.176.282-.278.415-.102.133-.213.258-.33.376-.12.12-.244.23-.377.332-.132.102-.27.196-.417.278-.144.084-.293.16-.447.224-.155.065-.314.118-.475.162-.16.045-.326.08-.49.103-.166.023-.334.034-.5.033H4.868z" fill-rule="evenodd" stroke="#000" stroke-miterlimit="22.926" stroke-width="1.99989135" fill="#fff"/><path d="M5.217 57.17H54.81c.102 0 .204-.008.306-.022.103-.014.204-.035.303-.063.1-.025.197-.06.292-.1.094-.038.186-.086.275-.138.09-.05.176-.108.257-.172.082-.062.16-.13.23-.203.075-.073.144-.15.206-.23.063-.083.12-.17.17-.26.053-.088.1-.18.14-.274.04-.095.073-.193.1-.293.027-.1.048-.2.062-.302.016-.102.023-.205.022-.308V5.195c0-.103-.008-.206-.022-.308-.014-.102-.035-.203-.063-.303-.027-.1-.06-.196-.1-.29-.04-.096-.087-.19-.14-.277-.05-.09-.107-.175-.17-.257-.062-.082-.13-.16-.205-.232-.072-.073-.15-.14-.23-.204-.082-.062-.168-.12-.258-.17-.09-.054-.18-.1-.275-.14-.096-.04-.193-.072-.293-.1-.1-.027-.202-.05-.304-.063-.1-.013-.204-.02-.307-.02H5.2c-.104 0-.207.008-.31.022-.1.014-.202.035-.3.062-.1.027-.2.06-.293.1-.095.04-.188.086-.277.14-.09.05-.174.108-.256.17-.082.063-.16.13-.23.204-.075.073-.143.15-.206.232-.064.082-.12.167-.17.257-.054.088-.1.18-.14.276-.04.094-.072.192-.1.29-.028.1-.05.202-.063.304-.014.102-.02.205-.02.308V54.805c0 .103.007.206.02.308.015.102.036.204.063.303.027.1.06.197.1.292.04.095.086.187.14.276.05.09.107.175.17.257.063.083.13.16.205.232.072.074.15.14.23.205.083.062.168.12.257.17.09.053.182.1.277.14.094.04.192.072.292.098.098.03.2.05.302.065.1.014.205.02.307.02h.018z" fill-rule="evenodd" fill="#e72512"/><path d="M43.478 49.34L10.67 16.53v32.81h32.808M48.28 44.42V11.61H15.475L48.28 44.42" fill-rule="evenodd" fill="#fff"/><path d="M11.136 41.46l1.418 1.955c.302.03.604.052.907.068.3.017.602.014.902-.01.343-.03.682-.09 1.016-.177.336-.087.667-.19.992-.31.67-.24 1.325-.52 1.962-.842.635-.32 1.257-.666 1.864-1.037.516-.315 1.034-.63 1.553-.94.514-.31 1.05-.588 1.6-.83.49-.22.995-.4 1.514-.536.528-.138 1.065-.236 1.608-.293.628-.08 1.263-.092 1.894-.033.617.054 1.217.22 1.774.49.267.123.522.267.766.43.247.165.49.336.727.514.7-.102 1.398-.213 2.094-.33.696-.12 1.387-.264 2.07-.434.765-.194 1.517-.428 2.255-.704.74-.276 1.463-.594 2.166-.953.655-.323 1.29-.685 1.9-1.084.61-.4 1.19-.844 1.733-1.33.268-.233.524-.478.77-.735.245-.254.475-.523.69-.805.287-.373.55-.767.783-1.177.234-.41.45-.833.644-1.265.182-.395.353-.795.514-1.2.162-.404.318-.81.473-1.215-.556.326-1.112.65-1.67.97-.56.32-1.123.63-1.693.932-.74.39-1.492.76-2.255 1.107-.762.348-1.533.677-2.312.987-.41.166-.82.326-1.234.484-.413.157-.826.313-1.24.468L11.137 41.46" fill-rule="evenodd"/><path d="M47.398 28.108l-17.283-.19-5.047-4.5-.278-.224-.28-.227c-.108-.09-.22-.174-.333-.255-.112-.078-.234-.144-.36-.192-.132-.05-.27-.084-.412-.098-.144-.016-.29-.025-.435-.028l-5.1-.45c-.142-.03-.284-.05-.428-.068-.144-.015-.292-.01-.435.013-.114.017-.223.053-.326.103-.1.047-.187.118-.254.205-.043.053-.078.113-.104.177-.028.065-.054.132-.075.198l-1.016 5.883c-.03.14-.06.28-.086.42-.028.144-.047.29-.06.434-.017.177-.015.356.007.532.022.172.076.338.163.488.07.126.16.237.268.33.11.1.23.182.36.252.273.15.566.258.87.324l.91.2c.383.087.76.2 1.127.342.367.14.73.29 1.087.454.156.068.31.138.467.21l.465.21.322 1.088-7.194 2c-.108.017-.217.038-.323.062-.11.025-.217.057-.32.098-.173.068-.333.164-.474.284-.136.113-.243.26-.31.422-.057.14-.087.288-.085.438.002.16.012.317.033.476-.104.004-.206.013-.308.027-.1.014-.197.043-.288.083-.14.072-.262.177-.353.306-.095.13-.163.28-.2.437-.034.125-.05.253-.05.382.002.128.01.255.022.383l.76 1.434 24.705-7.58c.394-.133.786-.268 1.178-.404.392-.136.782-.276 1.17-.42.908-.338 1.804-.706 2.688-1.1.884-.398 1.753-.824 2.61-1.28.508-.266 1.013-.54 1.514-.824.5-.283 1-.57 1.498-.856" fill-rule="evenodd"/><path d="M23.906 32.93l7.48-2.03-6.428-6.393-1.146 1.81c-.05.087-.102.17-.16.25-.055.075-.123.14-.202.19-.075.043-.158.072-.243.085-.088.015-.178.018-.267.008-.06-.005-.12-.013-.177-.026l-.172-.04-3.014-1.133-.487 2.958c0 .05 0 .098.005.147.002.048.01.097.024.144.015.053.04.107.07.155.03.047.068.09.113.122.05.037.107.065.167.082.062.017.126.03.19.04l2.855.98.224.106c.073.037.147.075.218.12.084.05.162.11.234.175.07.066.133.14.182.223.037.063.067.128.09.197.024.068.047.14.066.21l.376 1.62" fill-rule="evenodd" fill="#e72512"/><path d="M20.035 23.44l-.157.707 2.6 1.288c.04.014.078.027.118.038.042.013.084.023.127.03.04.007.08.008.118.007.038 0 .074-.012.106-.03.03-.015.055-.038.075-.065.022-.03.043-.06.06-.09l.922-1.343c.008-.058.01-.117.01-.176 0-.055-.012-.11-.037-.16-.022-.042-.054-.08-.093-.11-.038-.03-.082-.053-.13-.068-.04-.013-.08-.02-.12-.022-.043-.002-.084-.002-.126 0l-3.47-.005" fill-rule="evenodd" fill="#e72512"/><path d="M10.894 46.486c.363.13.73.253 1.098.365.365.113.738.194 1.116.245.393.047.788.056 1.18.03.4-.03.795-.08 1.187-.156.607-.11 1.205-.26 1.79-.45.586-.19 1.16-.413 1.717-.67.437-.192.867-.404 1.286-.633.42-.23.83-.478 1.228-.744.377-.253.752-.51 1.123-.773.37-.26.75-.505 1.144-.73.474-.275.973-.503 1.492-.678.528-.18 1.076-.298 1.63-.355.42-.058.847-.067 1.27-.028.41.035.808.15 1.173.34.265.135.513.304.735.502.227.203.444.416.65.64.15.156.3.315.45.473.147.158.294.315.44.474.386-.2.777-.39 1.172-.57.393-.18.8-.33 1.213-.45.33-.093.663-.16 1.002-.2.34-.042.68-.053 1.02-.034.324.014.646.055.963.12.317.067.63.155.934.263.404.144.803.305 1.195.485.39.18.786.348 1.188.505.47.184.955.33 1.45.433.497.106 1.004.167 1.512.183.558.03 1.117 0 1.668-.093.546-.09 1.078-.25 1.583-.48.175-.075.35-.158.52-.247.17-.09.338-.18.506-.275v-2.057c-.272.17-.548.335-.826.494-.278.158-.566.3-.86.423-.397.163-.81.283-1.233.358-.423.077-.852.107-1.282.09-.41-.01-.82-.06-1.222-.147-.4-.087-.796-.206-1.18-.353-.41-.157-.813-.326-1.212-.51-.398-.182-.805-.347-1.216-.497-.39-.142-.79-.254-1.194-.336-.407-.083-.82-.132-1.236-.147-.428-.022-.86-.007-1.286.043-.425.05-.847.134-1.26.252-.264.073-.527.155-.786.247-.26.09-.517.186-.774.285-.08-.084-.162-.166-.244-.25-.08-.08-.163-.162-.247-.242-.204-.195-.42-.38-.645-.547-.224-.17-.462-.318-.713-.443-.52-.267-1.086-.436-1.668-.5-.595-.066-1.194-.06-1.788.02-.674.066-1.338.21-1.98.424-.633.213-1.24.492-1.813.835-.406.236-.8.488-1.186.76-.384.27-.772.535-1.165.795-.36.236-.728.458-1.104.664-.376.207-.76.4-1.15.574-.494.228-1 .427-1.516.597-.52.17-1.05.303-1.586.4-.302.058-.608.1-.915.124-.303.024-.608.02-.91-.014-.423-.048-.837-.145-1.236-.29-.407-.148-.808-.312-1.203-.49v1.946M20.258 19.258c0 .094-.008.187-.022.28-.014.094-.037.185-.066.273-.028.09-.064.177-.107.26-.042.083-.09.163-.147.24-.055.076-.116.147-.182.214-.067.066-.138.127-.215.182-.077.055-.156.104-.24.147-.083.043-.17.08-.26.107-.087.03-.18.052-.27.067-.094.014-.188.022-.282.02-.094 0-.187-.005-.28-.02-.092-.015-.184-.038-.273-.067-.09-.028-.175-.064-.26-.107-.082-.043-.162-.092-.237-.147-.077-.055-.15-.116-.215-.182-.067-.067-.127-.14-.182-.215-.055-.077-.105-.157-.147-.24-.043-.083-.078-.17-.106-.26-.03-.087-.052-.18-.068-.27-.015-.095-.022-.188-.02-.282-.002-.094.006-.187.02-.28.015-.093.036-.184.067-.273.028-.09.063-.176.106-.26.042-.082.092-.162.148-.237.056-.077.116-.15.183-.215.066-.067.138-.127.215-.182.075-.055.155-.105.238-.147.084-.043.17-.078.26-.106.088-.03.18-.052.272-.068.093-.015.186-.022.28-.02.094-.002.188.006.28.02.093.015.185.036.273.067.09.027.177.063.26.106.084.042.163.092.24.148.076.055.147.116.214.183.066.066.127.138.182.215.056.075.105.155.147.238.043.084.08.17.107.26.03.088.052.18.066.272.015.092.022.186.022.28" fill-rule="evenodd"/></svg>
