<svg xmlns="http://www.w3.org/2000/svg" xmlns:xlink="http://www.w3.org/1999/xlink" width="60" height="60"><symbol id="a"><path d="M22.843 44.758l-6.014-.805c-.077 0-.155-.012-.227-.035-.114-.03-.225-.06-.337-.094-.22-.063-.436-.135-.65-.216-.187-.072-.368-.16-.542-.26-.188-.104-.368-.22-.54-.35-.17-.127-.335-.267-.49-.417-.04-.037-.076-.075-.115-.114l-.12-.127c-.122-.136-.242-.274-.357-.416-.088-.097-.16-.208-.214-.327-.01-.02-.024-.036-.04-.053-.014-.016-.03-.032-.05-.048-.02-.02-.042-.04-.066-.06-.023-.017-.045-.034-.07-.05-.025-.014-.05-.028-.078-.04-.027-.01-.055-.02-.083-.028-.028-.008-.057-.014-.087-.02-.028-.003-.057-.005-.086-.005-.03 0-.06 0-.09.004-.027.004-.056.01-.085.017-.027.007-.056.016-.082.027-.028.01-.054.025-.08.04-.025.014-.05.03-.074.046-.024.018-.046.038-.067.058-.022.02-.04.042-.06.065-.017.022-.034.046-.05.07l-.04.08c-.01.026-.02.054-.028.082l-.02.087c-.003.027-.005.056-.005.086 0 .028 0 .057.005.085l.015.09c.01.037.02.075.034.11.012.035.032.065.058.09l.027.036.025.037c.13.176.264.35.4.525.134.173.276.34.43.498.184.2.385.385.6.553.216.168.444.32.68.458.236.14.48.265.73.373.252.11.51.2.772.273.13.037.26.07.39.1.132.032.262.062.393.09L36.702 48v-1.34l-8.495-1.12 4.57-6.902c.016-.03.035-.058.056-.085.028-.038.057-.075.087-.112.042-.053.087-.104.133-.154.04-.044.082-.086.124-.128.087-.088.18-.17.278-.244.12-.09.246-.173.377-.245.08-.05.165-.094.25-.136.05-.03.104-.05.16-.063l6.06-1.676c.018-.004.036-.01.054-.016l.06-.024c.09-.034.176-.07.26-.106.082-.037.16-.075.238-.12.118-.063.232-.135.34-.217.112-.08.217-.17.314-.27.1-.095.193-.197.278-.306.084-.106.16-.22.23-.335.017-.03.035-.06.05-.092.02-.032.036-.064.054-.097.008-.015.016-.03.023-.047.008-.015.014-.03.02-.045l5.254-11.804c.03-.03.06-.064.08-.102.026-.04.05-.08.07-.123.04-.07.074-.143.106-.215.032-.07.058-.143.08-.216.022-.075.04-.15.05-.228.01-.077.017-.156.017-.235 0-.078-.003-.156-.012-.233-.01-.078-.023-.155-.043-.23-.02-.077-.043-.15-.072-.223-.028-.07-.062-.143-.1-.21-.038-.07-.08-.134-.128-.196-.047-.063-.098-.123-.153-.178-.054-.056-.11-.11-.172-.157-.063-.05-.127-.094-.194-.133-.068-.04-.136-.076-.21-.107-.07-.03-.144-.058-.22-.078-.074-.02-.15-.037-.228-.048-.077-.01-.155-.016-.233-.018-.078-.002-.157 0-.234.008-.077.01-.154.024-.23.048-.008 0-.017.005-.025.007-.01 0-.017.004-.025.008L29.57 23.41H12.113v.894h15.746l.796 3.576 11.178-2.235-1.968 4.64c-.01.033-.025.063-.04.09-.018.036-.036.073-.056.108-.095.182-.2.36-.31.535-.102.162-.224.31-.36.446-.095.097-.197.186-.306.267-.11.084-.228.158-.35.223-.12.066-.24.123-.37.172-.126.05-.256.094-.388.13l-.017.005-.016.004-3.956 1.14c-.026.007-.052.014-.078.025-.032.012-.064.024-.095.038-.066.027-.132.056-.196.086-.06.03-.118.06-.176.092-.117.066-.23.14-.34.222-.11.083-.214.17-.314.266-.068.063-.133.13-.195.198-.064.07-.12.147-.17.23l-.014.02c-.005.008-.01.016-.013.024l-7.26 10.154M47.88 15.358v.04c-.002.138-.013.274-.032.41-.02.134-.047.268-.086.4-.035.13-.08.26-.135.386-.054.125-.116.248-.187.364-.07.118-.147.23-.232.34-.083.105-.176.206-.275.3-.096.098-.2.186-.31.27-.11.08-.225.155-.343.22-.12.07-.243.128-.37.178-.127.05-.257.092-.39.126-.132.034-.267.06-.402.075-.136.016-.272.024-.41.02-.136 0-.272-.01-.407-.03-.135-.02-.268-.05-.4-.086-.132-.036-.26-.08-.387-.136-.125-.054-.246-.116-.363-.186-.118-.07-.232-.146-.34-.23-.107-.086-.208-.177-.302-.276-.096-.098-.186-.2-.267-.31-.08-.11-.154-.225-.22-.345-.068-.12-.128-.24-.18-.37-.05-.125-.09-.256-.124-.39-.034-.13-.06-.265-.075-.4-.015-.136-.023-.273-.02-.41 0-.136.012-.273.03-.408.02-.137.05-.27.087-.402.036-.13.083-.26.136-.386.054-.125.117-.248.187-.364.07-.12.146-.23.23-.34.086-.106.177-.207.276-.302.097-.095.2-.185.31-.267.11-.083.225-.157.345-.223.12-.068.242-.126.37-.178.127-.05.257-.093.39-.126.132-.033.266-.06.402-.076.135-.015.273-.022.41-.02.135 0 .27.01.408.03.135.02.268.05.4.088.13.036.26.08.386.136.126.054.247.116.364.186.118.07.23.146.338.23.108.086.21.178.304.276.095.097.185.2.266.31.083.11.157.225.223.345.068.118.127.24.178.368.05.126.093.256.125.39.033.125.058.253.074.383.016.13.024.258.023.388"/></symbol><use xlink:href="#a"/></svg>
