<svg xmlns="http://www.w3.org/2000/svg" height="60" width="60"><path stroke-linejoin="bevel" d="M-130.71-152.27h61.453c.2 0 .403-.015.6-.043.2-.027.4-.067.593-.122.195-.05.385-.115.57-.194.187-.076.367-.168.54-.27.175-.1.342-.212.502-.335.16-.122.31-.256.45-.4.145-.14.28-.29.4-.45.124-.16.236-.33.336-.502.102-.174.192-.354.27-.54.077-.185.142-.377.194-.57.055-.195.098-.393.125-.593.03-.2.04-.4.04-.6v-61.49c0-.202-.015-.402-.042-.602-.026-.2-.067-.396-.122-.59-.05-.195-.115-.386-.192-.57-.08-.188-.17-.368-.272-.54-.1-.175-.212-.344-.335-.503-.123-.16-.257-.31-.4-.452-.142-.143-.293-.276-.452-.4-.16-.123-.327-.234-.502-.334-.173-.103-.354-.193-.54-.27-.185-.078-.377-.143-.57-.196-.194-.055-.392-.096-.592-.125-.198-.028-.4-.042-.6-.04h-61.49c-.202 0-.403.014-.602.042-.2.027-.398.068-.59.122-.196.05-.388.115-.573.194-.187.077-.367.17-.54.27-.174.1-.342.212-.502.336-.16.123-.31.256-.45.4-.145.14-.278.29-.4.45-.124.16-.236.33-.335.503-.102.173-.192.353-.27.54-.077.185-.144.376-.196.57-.054.195-.096.392-.124.59-.03.2-.04.4-.04.602v61.491c0 .2.015.4.04.6.03.2.07.397.124.592.05.194.116.386.194.572.08.185.17.365.273.54.1.172.21.34.334.5s.256.31.4.452c.14.143.292.276.45.4.16.123.33.234.504.334.173.102.354.193.54.27.186.077.376.142.57.195.194.055.392.096.592.125.2.028.4.04.6.04h.038z" stroke="#231f20" stroke-miterlimit="22.926" stroke-width=".278" fill="none" transform="matrix(.81845 0 0 .81844 111.845 183.572)"/><path stroke-linejoin="bevel" d="M-130.71-152.2h-.036c-.205 0-.41-.016-.61-.043-.204-.027-.404-.07-.6-.124-.198-.052-.39-.117-.58-.197-.19-.078-.37-.17-.546-.275-.178-.1-.348-.214-.51-.34-.162-.122-.315-.26-.46-.404-.144-.143-.28-.296-.404-.458-.125-.162-.238-.332-.34-.51-.103-.175-.194-.358-.273-.547-.078-.188-.144-.38-.196-.578-.057-.197-.1-.397-.128-.6s-.042-.406-.04-.61v-61.49c0-.204.015-.408.043-.61s.067-.403.124-.6c.05-.198.116-.392.195-.58.08-.188.17-.37.275-.547.1-.176.215-.346.34-.51.124-.16.26-.314.404-.457.143-.145.296-.282.458-.407.162-.122.332-.235.51-.337.175-.104.357-.195.546-.274.19-.08.382-.146.58-.2.196-.055.396-.096.6-.125.2-.03.405-.042.61-.04h61.49c.205 0 .408.015.61.043.202.026.403.068.6.123.197.053.39.12.58.198.188.078.37.17.546.275.177.102.347.215.51.34.16.125.315.26.46.405.144.143.28.297.404.458.125.163.237.332.338.51.104.175.195.358.274.547s.145.38.198.578c.056.2.098.4.127.6.03.204.042.408.04.61v61.492c0 .204-.014.408-.04.61s-.07.403-.126.6c-.052.198-.117.392-.197.58-.078.188-.17.37-.275.547-.1.176-.215.346-.338.507-.125.163-.26.315-.405.46-.145.144-.3.28-.46.404-.163.126-.333.24-.51.34-.176.104-.358.196-.546.275-.19.08-.383.145-.58.197-.197.057-.398.098-.6.127-.202.028-.405.04-.61.04h-61.454z" fill-rule="evenodd" stroke="#000" stroke-miterlimit="22.926" stroke-width="2.444" fill="#fff" transform="matrix(.81845 0 0 .81844 111.845 183.572)"/><path d="M5.217 57.172h49.59c.105 0 .207-.008.31-.022.102-.013.203-.034.3-.063.1-.025.2-.058.294-.098.096-.04.188-.087.276-.14.09-.052.176-.11.258-.17.08-.065.16-.132.232-.206.072-.073.14-.15.204-.23.062-.083.12-.17.17-.258.053-.09.1-.18.14-.276.04-.096.072-.192.098-.292.028-.1.05-.2.064-.303.015-.102.022-.205.02-.308V5.197c0-.103-.007-.205-.02-.308-.014-.103-.036-.204-.064-.303-.025-.1-.058-.197-.1-.292s-.084-.188-.138-.276c-.05-.09-.108-.176-.17-.258-.063-.082-.132-.16-.204-.232-.073-.073-.15-.14-.232-.204-.082-.062-.168-.12-.258-.17-.088-.053-.18-.1-.275-.14-.094-.04-.192-.072-.292-.1-.098-.027-.2-.048-.302-.063-.102-.014-.204-.02-.308-.02H5.198c-.102 0-.205.008-.307.02-.102.015-.203.036-.302.063-.1.027-.198.06-.292.1-.095.04-.187.086-.276.14-.09.05-.175.108-.257.17-.082.063-.16.13-.23.204-.075.073-.144.15-.206.232-.063.082-.12.167-.172.257-.05.088-.097.18-.137.275-.04.095-.073.192-.1.292-.028.1-.05.2-.064.303-.014.102-.02.204-.02.307v49.61c0 .103.008.206.02.308.015.103.036.204.063.303.026.1.06.197.1.292.04.095.086.187.138.276.052.09.11.175.172.257.063.082.13.158.205.23.07.075.15.143.23.206.082.06.168.12.258.17.09.052.18.098.275.138.095.04.193.073.293.1.1.028.2.05.303.064.103.014.206.02.308.02h.02z" fill-rule="evenodd" fill="#e72512"/><path d="M43.475 49.33L10.667 16.525V49.33h32.808M49.333 43.48V10.672H16.525L49.333 43.48" fill-rule="evenodd" fill="#fff"/><path d="M34.423 25.932l.02-.02.02-.02c.037-.04.08-.073.122-.106.044-.033.09-.062.137-.088.047-.027.096-.05.146-.07.05-.02.102-.038.155-.05.053-.014.106-.024.16-.03.054-.006.108-.01.163-.01.054.002.108.005.16.014.056.008.11.02.16.034.053.015.104.033.154.054.05.02.1.047.146.074.046.028.09.06.134.092s.083.07.12.11c.038.038.074.08.106.123.033.043.062.088.09.136.025.047.05.096.07.146.02.05.037.102.05.155.01.05.02.1.024.152.005.05.01.1.013.153v.017c0 .054-.005.108-.013.16-.007.056-.018.11-.034.16-.014.053-.03.104-.053.154-.02.05-.047.1-.075.145-.027.046-.058.09-.092.134-.033.042-.07.083-.11.12-.037.038-.08.074-.122.106-.044.033-.09.062-.137.088-.047.027-.096.05-.146.07-.05.02-.102.037-.155.05-.052.015-.105.025-.16.03-.054.01-.108.01-.162.01-.008 0-.017 0-.026-.002h-.025l-1.112 1.423h7.948c.03 0 .06.002.09.006s.058.012.087.02c.03.008.06.018.088.03.027.013.055.027.082.043.027.015.053.032.076.052.026.02.05.04.07.062.022.022.043.046.06.07.02.026.036.052.05.08.017.026.03.055.04.083s.022.06.03.088c.007.03.013.062.016.092.004.03.006.062.006.093 0 .03-.004.062-.008.092s-.01.062-.02.092l-.002.01-.003.007-1.778 5.686-.005.016c-.006.02-.014.038-.022.057s-.017.035-.026.054l-.05.08-.06.07c-.02.023-.045.043-.068.063-.025.02-.05.038-.076.053-.027.017-.054.032-.083.044-.03.012-.057.023-.087.032-.03.01-.06.016-.09.02-.032.006-.062.008-.094.01H28.597l-2.15 2.753v1.722l-3.316 4.23-.004.01-.006.006c-.02.024-.04.046-.064.068-.023.02-.047.04-.072.058-.026.018-.05.035-.08.05-.027.013-.055.027-.084.037-.03.012-.06.02-.09.028-.03.007-.06.012-.09.015-.032.003-.063.004-.094.003-.03 0-.062-.005-.092-.01s-.062-.012-.09-.022c-.03-.01-.06-.02-.088-.032-.023-.01-.045-.022-.067-.035-.022-.012-.043-.027-.063-.042l-.013-.01-1.678-1.313-.008-.006-.007-.005c-.024-.02-.046-.04-.068-.063-.02-.023-.04-.047-.058-.072s-.035-.052-.05-.08c-.013-.027-.027-.055-.037-.084-.01-.03-.02-.058-.027-.088-.007-.03-.012-.062-.015-.092-.003-.03-.004-.063-.003-.093 0-.03.005-.062.01-.092s.012-.062.02-.09c.01-.03.02-.06.034-.088.01-.023.022-.045.035-.068.014-.022.03-.044.044-.063l.01-.014 3.447-4.386h1.342l1.667-2.132h-6.402c-.03 0-.058-.003-.086-.007-.03-.004-.057-.01-.085-.018-.03-.01-.06-.018-.088-.03-.03-.012-.058-.027-.084-.042-.027-.015-.053-.033-.078-.052-.024-.018-.047-.04-.07-.062l-.004-.007-.008-.007-5.33-5.685-.01-.013c-.015-.015-.03-.03-.04-.05-.014-.016-.025-.034-.037-.052-.017-.026-.03-.053-.044-.082-.013-.028-.023-.057-.032-.087-.01-.028-.016-.06-.02-.09-.006-.03-.008-.06-.01-.093 0-.03 0-.06.004-.092.003-.032.01-.06.017-.092.007-.03.016-.06.027-.09.01-.028.024-.056.04-.083.013-.028.03-.054.048-.08l.06-.07c.02-.023.044-.044.068-.064.025-.02.05-.037.076-.053.026-.016.054-.03.083-.043.027-.013.057-.023.087-.033.03-.01.06-.015.09-.02.03-.005.062-.008.093-.008h.01l.008-.002h5.7c-.022-.193-.04-.385-.057-.578s-.025-.387-.028-.58c-.004-.31.017-.62.06-.93.046-.306.114-.61.206-.907.09-.297.197-.586.324-.868.128-.284.264-.562.408-.836.06-.116.12-.23.183-.34.064-.112.132-.222.205-.327.056-.08.117-.16.18-.235.064-.076.132-.15.204-.217.09-.088.186-.17.288-.247.1-.077.21-.145.32-.208.11-.063.224-.12.342-.166.12-.05.24-.088.364-.116.17-.042.34-.063.515-.065.172-.003.344.015.512.054.11.022.215.053.32.09.104.035.208.074.31.114l8.99 2.845M28.404 20.03v.034c-.002.11-.01.217-.025.324-.016.108-.04.214-.07.32-.028.103-.064.206-.107.305-.043.1-.093.197-.15.29-.054.094-.116.183-.182.27-.067.084-.14.165-.218.24-.077.076-.16.147-.247.212-.086.065-.178.124-.273.176-.095.055-.193.102-.293.142-.103.04-.206.074-.31.1-.107.027-.213.048-.32.06-.11.013-.217.018-.326.016-.108 0-.217-.01-.324-.024-.108-.016-.214-.04-.318-.07-.106-.027-.208-.063-.307-.106-.1-.043-.198-.093-.29-.15-.094-.054-.184-.115-.27-.183s-.165-.14-.24-.22c-.076-.075-.148-.158-.212-.245-.066-.087-.124-.178-.176-.273-.054-.094-.1-.193-.14-.294-.042-.1-.075-.205-.1-.31-.028-.104-.05-.212-.062-.32-.012-.108-.017-.216-.015-.325 0-.108.008-.216.023-.324.017-.107.04-.214.07-.318.03-.104.064-.208.107-.307.043-.1.094-.197.15-.29.054-.095.115-.184.183-.27.066-.084.14-.165.218-.24s.16-.147.247-.213.18-.123.275-.176c.094-.053.192-.1.293-.14.1-.04.204-.073.31-.1.105-.027.21-.047.32-.06.107-.013.216-.018.324-.016.108 0 .217.01.324.025s.214.038.318.067c.105.03.207.065.307.108.098.043.196.093.29.15.092.053.182.115.267.182.086.068.166.14.24.218.078.078.148.16.214.248.065.087.125.178.177.273.053.094.1.192.14.294.04.1.075.203.1.31.027.1.046.2.06.302.012.103.018.206.017.31" fill-rule="evenodd"/><path d="M33.324 26.522l-7.13-.776h-.378c0 .054-.004.11-.007.164l-.01.164c-.022.345-.063.688-.123 1.028-.06.338-.14.674-.24 1.004-.04.14-.083.282-.128.42l-.14.417h6.39l1.795-2.298-.01-.03-.007-.03-.007-.032-.006-.03" fill-rule="evenodd" fill="#c00"/></svg>
