<svg xmlns="http://www.w3.org/2000/svg" xmlns:xlink="http://www.w3.org/1999/xlink" width="60" height="60"><symbol id="a"><path d="M11.25 39.347l1.46 2.015c.312.03.623.054.935.07.31.018.62.014.93-.01.352-.03.703-.093 1.046-.182.347-.09.69-.197 1.024-.32.69-.248 1.365-.537 2.02-.867.656-.33 1.297-.687 1.922-1.07.532-.324 1.066-.648 1.6-.97.532-.32 1.083-.605 1.65-.854.504-.228 1.026-.413 1.56-.553.545-.143 1.098-.244 1.658-.302.648-.084 1.302-.095 1.952-.035.635.056 1.254.227 1.828.506.275.125.54.274.79.442.255.17.505.347.75.53.72-.105 1.44-.22 2.157-.342.718-.122 1.43-.27 2.135-.446.788-.2 1.563-.44 2.323-.725.762-.285 1.508-.613 2.232-.982.675-.333 1.33-.706 1.96-1.117.628-.41 1.225-.87 1.784-1.372.275-.24.54-.49.792-.756.253-.262.49-.54.71-.83.298-.384.567-.79.81-1.213.24-.424.462-.858.662-1.303.188-.408.364-.82.53-1.238.166-.416.327-.834.486-1.252-.572.336-1.146.67-1.72 1-.577.33-1.158.65-1.745.96-.764.402-1.54.782-2.325 1.14-.785.36-1.58.698-2.383 1.018-.42.17-.845.335-1.27.497-.426.163-.852.323-1.28.483L11.25 39.347"/><path d="M17.293 19.164c-.117.02-.216.077-.322.13-.102.047-.187.102-.257.192-.044.055-.1.128-.13.193-.027.067-.04.124-.063.192l-1.063 6.087c-.032.144-.037.272-.064.418-.03.147-.05.3-.065.45-.017.183-.023.367 0 .548.02.177.072.36.16.515.073.13.18.227.29.324.114.1.224.185.355.257.283.155.59.287.902.355.312.07.62.126.934.194.393.09.78.208 1.158.353.38.144.76.283 1.128.45.16.07.322.153.483.226.158.072.322.15.482.225l.322 1.127-7.407 2.06c-.112.02-.213.04-.322.065-.113.026-.248.055-.355.097-.178.07-.337.166-.483.29-.14.117-.254.25-.322.418-.06.144-.098.296-.096.45 0 .165.01.353.03.517-.106.003-.184.016-.29.03-.1.015-.227.023-.32.065-.147.074-.26.19-.355.322-.098.135-.155.29-.194.45-.032.13-.064.255-.063.388 0 .13.018.254.032.386l.772 1.482 25.474-7.793c.405-.138.788-.28 1.192-.42.404-.14.823-.302 1.224-.45.935-.35 1.858-.72 2.77-1.128.91-.41 1.79-.85 2.672-1.32.525-.275 1.062-.547 1.578-.838.517-.292 1.033-.605 1.546-.9l-17.81-.195-5.216-4.638-.29-.225-.29-.226c-.11-.09-.204-.173-.322-.257-.115-.08-.256-.143-.387-.193-.136-.052-.273-.114-.418-.13-.15-.014-.3.005-.45 0l-5.25-.482c-.147-.03-.303-.047-.45-.064-.15-.016-.305-.024-.452 0zm3.124 1.61h3.574c.045-.002.087-.002.13 0 .042.002.09.02.13.032.05.016.088.033.128.065.04.03.073.085.096.13.026.05.033.104.033.16 0 .06.008.102 0 .162l-.934 1.384c-.02.032-.042.068-.065.097-.02.028-.066.048-.096.064-.033.018-.06.032-.097.033-.04 0-.09.008-.13 0-.043-.007-.084-.02-.128-.033-.04-.01-.087-.018-.128-.032l-2.674-1.32.16-.74zm5.088 1.095l6.602 6.6-7.697 2.094-.386-1.674c-.02-.074-.04-.155-.065-.226-.025-.07-.06-.13-.097-.193-.05-.084-.12-.158-.194-.224-.074-.07-.14-.14-.226-.194-.073-.045-.15-.09-.226-.128-.075-.037-.18-.062-.257-.097l-2.93-.998c-.066-.012-.13-.048-.193-.066-.062-.018-.11-.025-.16-.064-.047-.034-.1-.08-.13-.13-.03-.048-.047-.104-.064-.16-.014-.048-.03-.11-.033-.16-.004-.052 0-.11 0-.162l.484-3.027 3.123 1.16c.06.016.102.02.16.032.062.014.133.028.195.033.09.01.2.014.29 0 .088-.014.148-.052.225-.097.08-.052.17-.115.225-.193.06-.083.11-.17.16-.258l1.193-1.868zM11 44.527c.374.135.752.26 1.13.377.378.115.763.198 1.152.25.404.05.81.06 1.217.03.41-.028.817-.08 1.22-.16.627-.112 1.243-.267 1.847-.463.602-.194 1.193-.424 1.768-.688.45-.2.894-.417 1.326-.653.433-.238.856-.494 1.266-.768.39-.26.775-.526 1.158-.796.38-.27.775-.52 1.18-.752.488-.284 1.002-.52 1.537-.7.546-.184 1.11-.306 1.68-.365.435-.06.874-.07 1.31-.03.42.037.833.156 1.21.35.273.14.528.314.757.52.234.208.458.427.67.657.155.162.31.326.463.49.152.16.304.324.455.487.397-.205.8-.4 1.207-.586.405-.184.823-.34 1.25-.464.34-.096.684-.164 1.033-.206.35-.043.7-.054 1.05-.035.335.015.666.057.993.125.327.068.648.158.962.27.418.15.83.315 1.233.5.403.186.81.36 1.224.52.485.19.985.34 1.494.448.515.108 1.036.172 1.56.187.575.03 1.152 0 1.72-.095.562-.09 1.11-.258 1.63-.494.18-.078.36-.163.535-.255.175-.094.35-.188.522-.285v-2.12c-.28.175-.564.345-.85.508-.287.164-.584.31-.887.437-.41.167-.835.29-1.27.37-.436.078-.88.108-1.322.09-.424-.01-.845-.06-1.26-.15-.413-.09-.82-.213-1.215-.365-.423-.16-.84-.336-1.25-.525-.41-.188-.83-.36-1.253-.513-.4-.146-.813-.262-1.23-.346-.42-.085-.846-.135-1.274-.15-.442-.023-.886-.008-1.325.044-.438.052-.872.138-1.297.26-.273.074-.544.16-.81.254-.27.094-.535.192-.8.295-.082-.087-.166-.17-.25-.256-.083-.086-.17-.17-.255-.25-.21-.203-.43-.39-.664-.565-.23-.174-.477-.327-.735-.457-.538-.275-1.12-.45-1.72-.514-.613-.068-1.23-.062-1.843.02-.694.07-1.378.216-2.04.438-.65.22-1.278.507-1.868.86-.42.243-.827.503-1.223.783-.397.28-.797.553-1.202.82-.37.243-.75.472-1.138.685-.388.212-.784.41-1.187.59-.508.236-1.03.44-1.56.615-.536.175-1.082.312-1.636.41-.31.062-.626.106-.942.13-.313.024-.627.02-.938-.015-.436-.05-.863-.15-1.274-.3-.42-.15-.833-.32-1.24-.503v2.005M20.65 16.467c0 .097-.008.193-.022.29-.015.095-.038.19-.07.28-.027.092-.064.18-.108.267-.044.086-.094.168-.152.246-.057.08-.12.153-.188.22-.068.07-.142.132-.22.19-.08.056-.162.107-.247.15-.086.045-.175.082-.268.11-.09.03-.185.054-.28.07-.096.015-.192.022-.29.02-.096.002-.192-.005-.288-.02-.095-.016-.19-.04-.28-.07-.093-.028-.182-.065-.268-.11-.087-.043-.17-.094-.247-.15-.08-.058-.153-.12-.22-.19-.07-.067-.132-.142-.19-.22-.056-.078-.107-.16-.15-.246-.045-.086-.082-.175-.11-.267-.032-.09-.054-.186-.07-.28-.015-.097-.022-.193-.02-.29-.002-.097.006-.193.02-.29.016-.095.038-.188.07-.28.028-.092.065-.182.11-.267.042-.085.094-.168.15-.246.058-.08.12-.152.19-.22.067-.07.14-.132.22-.19.078-.056.16-.107.246-.15.085-.045.174-.082.266-.11.09-.032.186-.054.28-.07.097-.015.193-.022.29-.02.097-.002.193.006.29.02.094.016.19.038.28.07.092.028.18.065.267.11.085.043.168.094.246.15.078.057.152.12.22.19.07.068.13.14.188.22.058.078.108.16.152.246.044.087.08.175.11.267.03.092.053.185.068.28.015.096.022.193.022.29"/></symbol><use xlink:href="#a"/></svg>
