<svg xmlns="http://www.w3.org/2000/svg" xmlns:xlink="http://www.w3.org/1999/xlink" width="60" height="60"><symbol id="a"><path d="M17.11 30.782l11.316-2.99-3.224-1.865c.048-.06.096-.116.148-.17.052-.058.103-.113.156-.168l.21-.226c.067-.076.137-.15.21-.222.206-.21.43-.403.665-.58.238-.175.487-.334.747-.474.256-.146.523-.274.796-.384.274-.108.554-.198.84-.27.285-.073.575-.128.868-.163.293-.034.588-.048.883-.042.295 0 .59.024.882.067.29.04.58.103.862.186.284.078.563.176.834.293.27.115.533.25.786.403.254.15.497.315.73.497.23.183.45.382.654.594.206.21.398.434.575.67.176.235.336.484.478.74.147.258.274.524.383.798.11.273.2.553.27.84.075.285.13.575.165.867.035.294.05.588.043.883-.002.295-.023.588-.066.88-.042.292-.105.58-.186.863-.078.284-.175.563-.292.834-.116.27-.25.533-.402.785-.15.255-.316.5-.5.73-.18.23-.38.45-.59.654-.21.207-.435.398-.67.575-.238.176-.486.336-.744.48-.255.148-.52.278-.795.39-.272.11-.554.198-.84.263-.19.044-.382.08-.575.107-.194.026-.387.048-.58.067-.085.01-.17.016-.254.023-.083.006-.168.01-.253.01v4.758c.118.002.236 0 .353-.006.12-.007.238-.016.355-.027.358-.033.713-.077 1.067-.134.352-.058.703-.13 1.05-.22.486-.12.963-.27 1.427-.456.466-.187.92-.404 1.354-.653.44-.24.862-.514 1.263-.814.402-.298.782-.626 1.138-.978.362-.348.698-.72 1.01-1.11.31-.395.592-.81.846-1.243.26-.427.487-.873.685-1.335.198-.46.365-.933.497-1.416.14-.48.246-.97.318-1.466.07-.497.11-.997.112-1.497.01-.5-.015-1.002-.074-1.5-.058-.497-.15-.99-.277-1.475-.12-.486-.274-.963-.46-1.428-.185-.467-.403-.918-.65-1.354-.243-.438-.514-.86-.814-1.26-.3-.403-.626-.783-.98-1.14-.346-.36-.717-.698-1.11-1.008-.394-.31-.81-.592-1.24-.846-.43-.26-.876-.487-1.336-.686-.46-.198-.934-.363-1.416-.496-.482-.14-.972-.245-1.468-.317-.495-.072-.996-.11-1.497-.113-.5-.01-1 .015-1.5.073-.497.06-.99.152-1.474.28-.485.12-.962.273-1.427.46-.466.185-.918.402-1.355.65-.44.24-.863.51-1.266.81-.402.298-.78.625-1.134.98-.126.124-.247.252-.365.383-.118.132-.23.27-.335.412l-1.78-3.063-3.037 11.293z"/><path d="M51.824 23.132l-2.98-11.318-1.8 3.102c-.074-.082-.15-.165-.225-.245-.076-.08-.154-.16-.23-.237-.68-.695-1.402-1.348-2.164-1.953-.76-.605-1.564-1.156-2.404-1.647-.828-.51-1.693-.957-2.587-1.338-.895-.382-1.815-.702-2.754-.957-.934-.27-1.885-.475-2.848-.615-.962-.14-1.933-.213-2.905-.22-.972-.02-1.945.03-2.91.142-.966.115-1.923.295-2.863.54-.945.235-1.872.533-2.775.893-.905.36-1.783.782-2.628 1.264-.85.468-1.67.996-2.448 1.578-.78.582-1.518 1.217-2.21 1.9-.702.674-1.355 1.395-1.957 2.16-.602.763-1.15 1.568-1.642 2.407-.504.832-.95 1.697-1.333 2.59-.383.895-.705 1.813-.962 2.75-.27.936-.476 1.887-.616 2.85-.14.962-.213 1.933-.22 2.905-.018.972.03 1.945.143 2.91.115.966.295 1.923.542 2.863.23.945.53 1.872.89 2.775.36.904.782 1.782 1.264 2.627.47.85.996 1.67 1.58 2.448.58.78 1.215 1.518 1.897 2.21.676.702 1.397 1.355 2.16 1.957.765.602 1.57 1.15 2.407 1.642.833.503 1.7.948 2.593 1.33.894.385 1.812.707 2.75.965.934.27 1.885.478 2.847.618.963.14 1.934.212 2.907.216.973.016 1.946-.034 2.912-.15.965-.118 1.92-.295 2.86-.534.365-.086.726-.184 1.084-.29.36-.11.714-.235 1.062-.375l-1.62-4.437c-.272.113-.55.212-.832.296-.283.085-.568.16-.855.227-.745.18-1.5.32-2.26.414-.76.095-1.524.136-2.29.126-.765 0-1.53-.055-2.288-.167-.758-.112-1.51-.275-2.245-.49-.738-.205-1.462-.46-2.167-.762-.704-.3-1.387-.65-2.042-1.046-.66-.386-1.295-.82-1.896-1.294-.602-.474-1.17-.99-1.7-1.542-.54-.545-1.04-1.127-1.498-1.74-.46-.615-.875-1.26-1.245-1.93-.38-.667-.71-1.358-.995-2.07-.284-.71-.52-1.442-.703-2.185-.193-.742-.336-1.495-.426-2.257-.09-.76-.126-1.526-.11-2.292.004-.766.06-1.53.172-2.29.11-.758.272-1.508.484-2.244.204-.74.458-1.462.76-2.166.303-.705.653-1.386 1.05-2.043.386-.66.82-1.294 1.293-1.895.474-.602.99-1.17 1.54-1.7.546-.54 1.127-1.04 1.74-1.497.615-.46 1.26-.875 1.93-1.245.667-.38 1.36-.71 2.07-.995.71-.284 1.442-.52 2.186-.703.74-.192 1.495-.335 2.255-.425.762-.09 1.53-.127 2.295-.112.766.004 1.532.06 2.29.17.76.11 1.51.272 2.244.486.736.205 1.46.46 2.16.763.706.303 1.39.653 2.047 1.046.665.385 1.304.815 1.91 1.286.604.47 1.168.988 1.688 1.55.084.087.165.175.246.265.082.09.16.183.24.275l-3.158 1.815 11.29 3.046z"/></symbol><use xlink:href="#a"/></svg>
