<svg xmlns="http://www.w3.org/2000/svg" height="60" width="60"><path stroke-linejoin="bevel" d="M-133.57-163.7H-72.115c.2 0 .4-.015.6-.043.2-.027.398-.067.59-.122.196-.05.386-.115.572-.194.187-.076.367-.167.54-.27.174-.1.342-.212.5-.335.16-.122.312-.256.453-.4.144-.14.278-.29.4-.45.122-.16.235-.33.335-.502.1-.174.19-.354.27-.54.076-.185.14-.377.194-.57.054-.195.095-.393.124-.593.027-.2.04-.4.04-.6v-61.49c0-.202-.015-.402-.043-.602-.025-.2-.066-.396-.12-.59-.05-.195-.116-.386-.194-.57-.08-.188-.17-.368-.27-.54-.102-.175-.214-.343-.336-.503s-.256-.31-.4-.452c-.14-.143-.292-.276-.453-.4-.158-.123-.326-.234-.5-.334-.173-.103-.354-.193-.54-.27-.186-.078-.377-.143-.57-.196-.194-.055-.392-.096-.592-.125-.2-.028-.4-.042-.6-.04h-61.49c-.202 0-.404.015-.602.042-.2.027-.398.068-.592.122-.194.05-.385.115-.57.194-.186.077-.366.17-.54.27-.174.1-.34.212-.5.336-.16.123-.31.256-.452.4-.144.14-.278.29-.4.45-.123.16-.235.33-.335.503-.102.173-.192.353-.27.54-.077.185-.143.376-.195.57-.054.195-.097.392-.124.59-.03.2-.04.4-.04.602v61.49c0 .202.015.402.04.602.028.2.07.396.123.59.052.195.117.386.194.572.08.185.17.365.272.54.102.173.213.34.335.5s.257.31.4.453c.142.142.293.276.452.398.16.124.326.235.5.335.174.103.354.193.54.27s.376.143.57.195c.195.055.392.097.592.125.2.028.4.042.602.04h.036z" stroke="#231f20" stroke-miterlimit="22.926" stroke-width=".278" fill="none" transform="matrix(.81845 0 0 .81844 114.187 192.928)"/><path stroke-linejoin="bevel" d="M-133.57-163.63h-.037c-.204 0-.408-.016-.61-.043-.203-.027-.403-.068-.6-.124-.197-.052-.39-.117-.58-.197-.188-.08-.37-.17-.546-.275-.177-.1-.347-.214-.51-.34-.16-.122-.314-.26-.458-.404-.146-.143-.28-.296-.406-.458-.125-.162-.238-.332-.34-.51-.103-.175-.194-.358-.273-.547-.077-.188-.144-.38-.198-.578-.055-.197-.097-.397-.126-.6-.03-.202-.042-.406-.04-.61v-61.49c0-.204.015-.408.043-.61s.067-.403.123-.6c.05-.198.117-.392.196-.58.08-.188.17-.37.275-.547.1-.176.215-.346.34-.51.124-.16.26-.314.404-.457.143-.145.296-.282.458-.407.162-.122.332-.235.51-.337.175-.103.357-.195.546-.274.188-.08.382-.146.58-.2.196-.054.396-.096.6-.125.2-.03.405-.042.61-.04h61.49c.205 0 .41.015.61.043.203.026.404.068.6.123.198.053.39.12.58.198.19.08.37.17.546.275.178.102.348.215.51.34.162.125.315.26.46.405.144.143.28.297.404.458.125.163.238.333.34.51.103.175.194.358.273.545.078.19.145.384.197.58.056.2.1.4.126.6.03.204.043.408.042.61v61.492c0 .205-.015.41-.043.61-.028.203-.07.403-.126.6-.05.198-.116.392-.196.58-.08.188-.17.37-.275.547-.1.176-.215.346-.34.507-.124.163-.26.315-.404.46-.145.145-.298.28-.46.404-.162.126-.332.24-.51.34-.176.105-.357.196-.546.275-.19.08-.382.145-.58.197-.196.057-.397.098-.6.127-.2.028-.405.04-.61.04h-61.454z" stroke="#000" stroke-miterlimit="22.926" stroke-width="2.444" fill="none" transform="matrix(.81845 0 0 .81844 114.187 192.928)"/><path d="M5.22 57.173H5.2c-.103 0-.206-.008-.307-.02-.103-.015-.204-.036-.303-.064-.1-.027-.198-.06-.293-.1-.094-.04-.187-.086-.275-.14-.09-.05-.176-.107-.257-.17-.082-.064-.16-.13-.23-.205-.075-.073-.144-.15-.206-.23-.064-.083-.12-.168-.173-.258-.05-.09-.098-.18-.138-.276-.04-.094-.074-.19-.1-.29-.028-.1-.05-.2-.064-.304-.015-.102-.022-.205-.02-.308V5.198c0-.103.008-.205.02-.308.015-.102.036-.203.063-.302.025-.1.06-.197.1-.292.038-.095.085-.187.137-.276.052-.09.11-.175.172-.257.062-.082.13-.16.204-.232.07-.072.15-.14.23-.203.082-.062.168-.12.258-.17.09-.053.18-.1.275-.14.095-.04.193-.072.293-.098.1-.03.2-.05.303-.066.1-.014.204-.02.307-.02h49.61c.104 0 .206.008.308.022.103.013.203.034.302.063.1.024.198.057.293.097.095.04.187.086.275.14.09.05.176.108.258.17.08.063.158.13.232.204.072.074.14.15.203.233.064.082.122.168.172.257.052.09.1.18.14.276.04.095.072.192.098.292.028.1.05.2.064.303.015.103.022.205.02.308v49.61c0 .103-.007.206-.02.308-.014.103-.036.204-.064.303-.025.1-.058.196-.1.29s-.085.19-.138.277c-.05.09-.108.175-.17.257-.063.082-.132.158-.204.23-.074.075-.15.143-.232.206-.082.062-.168.12-.258.17-.088.053-.18.1-.275.14-.095.04-.193.072-.293.098-.1.03-.2.05-.302.065-.102.014-.204.02-.308.02H5.22z" fill-rule="evenodd" fill="#e72512"/><path d="M43.48 49.34L10.67 16.535V49.34h32.81M49.336 43.48V10.675H16.53L49.335 43.48" fill-rule="evenodd" fill="#fff"/><path stroke-linejoin="bevel" d="M-83.263-186.92H-122.426c-.028 0-.058.004-.087.01-.03.003-.06.01-.086.018-.028.01-.056.018-.082.03-.027.012-.054.026-.08.042-.024.015-.05.03-.07.05-.024.02-.045.04-.065.06-.02.022-.04.045-.057.07-.018.023-.033.048-.047.073-.016.026-.027.054-.038.08-.01.028-.02.056-.026.085-.006.03-.013.057-.015.087-.002.03-.003.06-.002.088 0 .03.003.06.008.087.004.03.01.06.02.086.004.018.01.033.015.05l.022.047.006.013 3.375 6.75.008.015c.016.028.03.053.047.078.018.024.037.046.057.067.02.023.04.043.065.062.02.017.045.035.07.05.025.016.05.03.077.042.028.012.055.022.084.03.03.01.057.015.086.02s.06.007.09.01H-89.994l.088-.008c.03-.005.06-.01.086-.02.03-.008.056-.02.084-.03.026-.012.052-.026.077-.042.02-.01.04-.025.06-.04.02-.014.038-.03.055-.047l.01-.01 6.75-6.75.013-.012c.02-.02.038-.043.056-.067.017-.023.032-.05.046-.075.015-.026.028-.052.04-.08.01-.028.018-.056.024-.085.007-.028.012-.057.015-.087.003-.03.004-.06.003-.088-.002-.03-.004-.058-.01-.087-.003-.03-.01-.058-.018-.085l-.03-.084c-.012-.025-.026-.052-.042-.077-.015-.025-.032-.05-.05-.072s-.04-.044-.06-.064-.045-.04-.068-.056c-.025-.018-.05-.033-.075-.048-.026-.014-.052-.026-.08-.036-.027-.01-.056-.02-.085-.026-.024-.006-.046-.01-.07-.014-.024-.002-.047-.005-.07-.005h-.017zM-98.808-190.97v-29.04c0-.03-.004-.058-.007-.088-.006-.028-.012-.057-.02-.086l-.03-.083c-.013-.026-.027-.052-.042-.077-.016-.025-.032-.05-.05-.072s-.04-.045-.06-.065-.045-.04-.07-.058c-.023-.017-.047-.032-.073-.047-.027-.014-.053-.027-.08-.036-.028-.013-.057-.02-.086-.028-.028-.007-.057-.012-.086-.015-.03-.004-.058-.005-.088-.004-.03 0-.06.004-.088.007-.03.005-.06.01-.086.02l-.083.03c-.027.013-.054.027-.08.043-.024.015-.047.03-.07.05-.024.018-.045.038-.065.06l-.016.017c-.005.005-.01.01-.014.017l-.01.012-22.948 29.02-.01.014c-.02.024-.035.05-.048.074-.015.026-.028.052-.04.08s-.02.055-.027.083c-.007.03-.012.06-.015.09-.004.028-.006.058-.005.086 0 .03.002.06.006.09.005.028.01.057.02.085.008.03.017.058.03.084.01.027.024.054.04.08.014.025.03.05.05.072.018.023.036.045.058.065.02.023.043.04.067.06.024.016.048.033.074.048.024.013.05.026.08.037.026.01.054.02.083.028.028.007.057.012.086.016.01 0 .02 0 .03.003h23.014c.03 0 .06-.003.087-.007.03-.005.06-.013.088-.02l.083-.03c.028-.013.054-.026.08-.043.024-.015.05-.03.07-.05s.046-.038.066-.06.04-.045.057-.067c.017-.025.032-.05.047-.076.014-.025.026-.053.036-.08.012-.027.02-.055.027-.084.006-.024.01-.046.013-.07.003-.024.005-.048.005-.07v-.018z" fill-rule="evenodd" stroke="#000" stroke-miterlimit="22.926" stroke-width=".278" transform="matrix(.81845 0 0 .81844 114.187 192.928)"/></svg>
