<svg xmlns="http://www.w3.org/2000/svg" height="400" version="1" width="300"><path d="M181.54 98.57l-6.53-2.095-30.47 68.063-29.78 32.594h-7.782l-.125 5.656h31.062c1.287 5.533 6.233 9.657 12.156 9.657 5.926 0 10.872-4.12 12.157-9.657h24.125v-5.656h-7.782l-2.468-22.344 16.625-72.625-7.157-2.28-4.03-1.313zm-2.28 6.405l4.968 1.78-15.22 68.032 2.47 22.344h-9.25c-1.283-5.538-6.23-9.686-12.157-9.686-5.924 0-10.87 4.15-12.155 9.687H124.32l26.25-28.374 28.69-63.78zm-21.7 94.98c0 4.14-3.36 7.5-7.5 7.5s-7.5-3.36-7.5-7.5 3.36-7.5 7.5-7.5 7.5 3.36 7.5 7.5z" fill="#000407" fill-rule="evenodd" /><path d="M125.31 196.5c.155-.26 5.93-6.562 12.834-14.003l12.55-13.53 14.257-31.69c7.842-17.428 14.315-31.746 14.386-31.817.07-.07 1.155.213 2.408.63l2.28.758-.335 1.488c-.186.818-3.603 16.045-7.595 33.838l-7.26 32.35 1.107 10.43c.608 5.736 1.183 10.788 1.278 11.225.17.792.155.794-4.375.794h-4.547l-.398-1.325c-.943-3.145-4.008-6.234-7.492-7.553-2.655-1.005-7.15-.816-9.723.408-2.488 1.183-5.163 3.968-6.184 6.436l-.84 2.034h-6.316c-5.182 0-6.266-.085-6.034-.473z" fill="#ffd400" /><rect fill="#333" height="300" opacity="0" width="100" x="100" y="50" /></svg>
