<svg xmlns="http://www.w3.org/2000/svg" xmlns:ns1="http://www.w3.org/1999/xlink" height="400" version="1" width="300"><symbol id="a"><path d="M181.54 98.57l-6.53-2.095-30.47 68.063-29.78 32.594h-7.782l-.125 5.656h31.062c1.287 5.533 6.233 9.657 12.156 9.657 5.926 0 10.872-4.12 12.157-9.657h24.125v-5.656h-7.782l-2.468-22.344 16.625-72.625-7.157-2.28-4.03-1.313zm-2.28 6.405l4.968 1.78-15.22 68.032 2.47 22.344h-9.25c-1.283-5.538-6.23-9.686-12.157-9.686-5.924 0-10.87 4.15-12.155 9.687H124.32l26.25-28.374 28.69-63.78zm-21.7 94.98c0 4.14-3.36 7.5-7.5 7.5-4.14 0-7.5-3.36-7.5-7.5 0-4.14 3.36-7.5 7.5-7.5 4.14 0 7.5 3.36 7.5 7.5z" /></symbol><use ns1:href="#a" /><rect fill="#333" height="300" opacity="0" width="100" x="100" y="50" /></svg>
