<svg xmlns="http://www.w3.org/2000/svg" height="400" version="1" width="300"><path d="M181.54 98.625l-6.53-2.094-30.47 68.064-29.78 32.594h-7.782l-.125 5.656h31.062c1.287 5.533 6.233 9.657 12.156 9.657 5.926 0 10.872-4.12 12.157-9.656h24.125v-5.656h-7.782l-2.468-22.344 16.625-72.625-7.157-2.282-4.03-1.313zm-2.28 6.406l4.968 1.782-15.22 68.03 2.47 22.345h-9.25c-1.283-5.54-6.23-9.687-12.157-9.687-5.924 0-10.87 4.15-12.155 9.687H124.32l26.25-28.375 28.69-63.78zm-21.7 94.982c0 4.14-3.36 7.5-7.5 7.5s-7.5-3.36-7.5-7.5 3.36-7.5 7.5-7.5 7.5 3.36 7.5 7.5z" fill="#000407" fill-rule="evenodd" /><path d="M125.62 196.24c.288-.357 6.094-6.686 12.904-14.064l12.38-13.414 14.056-31.365c7.73-17.25 14.194-31.52 14.363-31.71.293-.326 3.58.672 4.277 1.3.173.156-3.04 15.288-7.143 33.626-4.1 18.338-7.457 33.952-7.457 34.696 0 1.223 1.56 15.996 2.11 19.96l.222 1.618H162.263l-.45-1.5c-.716-2.392-3.064-5.027-5.803-6.51-2.27-1.232-2.675-1.323-5.867-1.32-2.704 0-3.805.175-5.21.822-2.648 1.22-5.01 3.596-6.19 6.224l-1.024 2.284h-6.312c-5.898 0-6.277-.042-5.788-.65z" fill="#d40000" /><rect fill="#333" height="300" opacity="0" width="100" x="100" y="50" /></svg>
