<svg xmlns="http://www.w3.org/2000/svg" height="400" version="1" width="300"><path d="M181.52 98.62l-6.53-2.094-30.47 68.063-29.78 32.593h-7.782l-.125 5.656h31.062c1.287 5.532 6.233 9.656 12.156 9.656 5.926 0 10.872-4.12 12.157-9.657h24.125v-5.657h-7.782l-2.468-22.344 16.625-72.626-7.157-2.28-4.03-1.313zm-2.28 6.406l4.968 1.78-15.22 68.032 2.47 22.344h-9.25c-1.283-5.54-6.23-9.687-12.157-9.687-5.924 0-10.87 4.15-12.155 9.687H124.3l26.25-28.375 28.69-63.78zm-21.7 94.98c0 4.14-3.36 7.5-7.5 7.5s-7.5-3.36-7.5-7.5 3.36-7.5 7.5-7.5 7.5 3.36 7.5 7.5z" fill="#000204" fill-rule="evenodd" /><path d="M150.64 168.626l18.41 6.22.124-.53-18.348-6.25-.186.56z" /><path d="M165.25 136.034l11.6 3.887c-.14.3-.162.367-.155.592l-11.693-3.918.248-.56z" fill="#000204" /><path d="M160.43 171.125c-4.596-1.54-8.522-2.965-8.724-3.168-.36-.36 12.82-30.294 13.53-30.734.176-.11 2.767.61 5.756 1.6l5.436 1.796-3.698 16.548c-2.034 9.102-3.753 16.596-3.82 16.653-.07.058-3.885-1.155-8.48-2.695z" fill="#00d400" /><path d="M170.63 137.597l-5.02-1.712 1.063-2.358c.585-1.296 3.597-8.015 6.692-14.93 3.096-6.913 5.764-12.72 5.93-12.904.348-.387 4.188.898 4.406 1.474.08.21-1.448 7.498-3.397 16.192-2.61 11.64-3.69 15.826-4.098 15.878-.305.04-2.813-.7-5.575-1.64zM125.6 196.23c2.344-2.922 24.99-26.985 25.452-27.045.327-.043 4.452 1.243 9.166 2.857l8.572 2.935 1.007 8.952c.554 4.923 1.112 9.852 1.24 10.95l.235 2h-9.029l-.45-1.498c-.716-2.393-3.064-5.027-5.804-6.512-2.27-1.23-2.675-1.322-5.867-1.32-2.704.002-3.805.176-5.21.823-2.648 1.22-5.01 3.596-6.19 6.224l-1.024 2.285h-6.312c-5.905 0-6.277-.042-5.788-.652z" fill="#d40000" /><rect fill="#333" height="300" opacity="0" width="100" x="100" y="50" /></svg>
