<svg xmlns="http://www.w3.org/2000/svg" height="400" version="1" width="300"><path d="M181.51 98.597l-6.53-2.094-30.47 68.063-29.78 32.594h-7.782l-.125 5.656h31.062c1.287 5.533 6.233 9.657 12.156 9.657 5.926 0 10.872-4.12 12.157-9.657h24.125v-5.656h-7.782l-2.468-22.344 16.625-72.625-7.157-2.28-4.03-1.312zm-2.28 6.406l4.968 1.78-15.22 68.032 2.47 22.344h-9.25c-1.283-5.54-6.23-9.688-12.157-9.688-5.924 0-10.87 4.15-12.155 9.687H124.29l26.25-28.376 28.69-63.78zm-21.7 94.98c0 4.14-3.36 7.5-7.5 7.5s-7.5-3.36-7.5-7.5 3.36-7.5 7.5-7.5 7.5 3.36 7.5 7.5z" fill="#000204" fill-rule="evenodd" /><path d="M150.62 168.603l18.41 6.22.124-.53-18.348-6.25-.186.56z" /><path d="M165.24 136.012l11.6 3.887c-.14.298-.162.365-.155.59l-11.693-3.918.248-.56z" fill="#000204" /><path d="M170.61 137.575l-5.02-1.712 1.063-2.358c.585-1.297 3.597-8.015 6.693-14.93 3.095-6.913 5.763-12.72 5.93-12.904.347-.386 4.187.9 4.405 1.475.08.21-1.448 7.498-3.397 16.192-2.61 11.64-3.69 15.827-4.098 15.88-.305.038-2.813-.7-5.575-1.64zM125.59 196.21c2.344-2.922 24.99-26.985 25.452-27.045.327-.043 4.452 1.243 9.166 2.857l8.572 2.935 1.007 8.952c.554 4.923 1.112 9.852 1.24 10.95l.235 2h-9.029l-.45-1.5c-.716-2.39-3.064-5.026-5.804-6.51-2.27-1.23-2.675-1.322-5.867-1.32-2.704.002-3.805.176-5.21.823-2.648 1.22-5.01 3.596-6.19 6.224l-1.024 2.284h-6.312c-5.905 0-6.277-.04-5.788-.65z" fill="#00d400" /><path d="M160.42 171.103c-4.596-1.54-8.522-2.965-8.724-3.168-.36-.36 12.82-30.294 13.53-30.734.176-.108 2.767.61 5.756 1.6l5.436 1.797-3.698 16.55c-2.034 9.1-3.753 16.595-3.82 16.652-.07.056-3.885-1.157-8.48-2.697z" fill="red" /><rect fill="#333" height="300" opacity="0" width="100" x="100" y="50" /></svg>
