<svg xmlns="http://www.w3.org/2000/svg" height="400" version="1" width="300"><path d="M181.54 98.603l-6.53-2.094-30.47 68.062-29.78 32.594h-7.782l-.125 5.656h31.062c1.287 5.533 6.233 9.657 12.156 9.657 5.926 0 10.872-4.122 12.157-9.658h24.125v-5.656h-7.782l-2.468-22.344 16.625-72.625-7.157-2.28-4.03-1.313zm-2.28 6.406l4.968 1.78-15.22 68.03 2.47 22.345h-9.25c-1.283-5.54-6.23-9.687-12.157-9.687-5.924 0-10.87 4.15-12.155 9.687H124.32l26.25-28.375 28.69-63.78zm-21.7 94.98c0 4.14-3.36 7.5-7.5 7.5s-7.5-3.36-7.5-7.5 3.36-7.5 7.5-7.5 7.5 3.36 7.5 7.5z" fill="#000407" fill-rule="evenodd" /><path d="M158.85 150.32l14.508 5.09-.06.54-14.696-5.12.248-.51zM166.09 152.747c-3.778-1.337-6.9-2.454-6.936-2.483-.037-.03 4.49-10.183 10.062-22.564l10.13-22.512 2.396.85c1.32.466 2.353.97 2.3 1.118-.056.148-2.506 11.028-5.446 24.176-2.94 13.15-5.41 23.893-5.492 23.876-.08-.017-3.237-1.125-7.015-2.462z" /><path d="M124.98 196.77c.077-.125 5.897-6.453 12.933-14.062l12.793-13.834 3.968-8.835c2.182-4.86 4.097-8.837 4.255-8.838.368-.002 13.695 4.61 13.937 4.824.1.09-.757 4.343-1.905 9.454l-2.087 9.294 1.152 10.37c.633 5.705 1.157 10.705 1.164 11.113l.014.74h-8.848l-.327-.99c-1.435-4.344-5.49-7.732-10.104-8.44-6.17-.948-11.863 2.708-13.95 8.96-.144.43-.706.47-6.647.47-3.57 0-6.427-.102-6.35-.227z" fill="#ffd400" /><rect fill="#333" height="300" opacity="0" width="100" x="100" y="50" /></svg>
