<svg xmlns="http://www.w3.org/2000/svg" height="400" version="1" width="300"><path d="M181.54 98.57l-6.53-2.095-30.47 68.063-29.78 32.594h-7.782l-.125 5.656h31.062c1.287 5.533 6.233 9.657 12.156 9.657 5.926 0 10.872-4.12 12.157-9.657h24.125v-5.656h-7.782l-2.468-22.344 16.625-72.625-7.157-2.28-4.03-1.313zm-2.28 6.405l4.968 1.78-15.22 68.032 2.47 22.344h-9.25c-1.283-5.538-6.23-9.686-12.157-9.686-5.924 0-10.87 4.15-12.155 9.687H124.32l26.25-28.374 28.69-63.78zm-21.7 94.98c0 4.14-3.36 7.5-7.5 7.5s-7.5-3.36-7.5-7.5 3.36-7.5 7.5-7.5 7.5 3.36 7.5 7.5z" fill="#000407" fill-rule="evenodd" /><path d="M181.66 105.81l-27.913 82.17.606.256 27.76-82.265-.453-.16z" fill="#000204" /><path d="M162.02 196.19c-.325-1.04-1.058-2.56-1.656-3.427-1.123-1.633-3.16-3.342-5.008-4.203-.47-.22-.852-.433-.852-.476 0-.104 27.594-81.874 27.647-81.927.023-.022.482.11 1.02.293.912.312.97.354.91.646-.034.172-3.44 15.408-7.57 33.86-4.128 18.45-7.506 33.75-7.506 34s.535 5.262 1.188 11.14c.653 5.878 1.187 10.757 1.187 10.844 0 .123-.982.157-4.54.157h-4.537l-.283-.906z" fill="#d40000" /><path d="M125.21 196.29c.4-.44 6.287-6.812 13.08-14.156l12.35-13.354 14.3-31.797c7.865-17.488 14.32-31.817 14.345-31.843.055-.055 1.829.535 2.075.69.14.088-2.58 8.215-13.75 41.096l-13.923 40.987-.625-.163c-2.178-.57-4.878-.435-7.143.358-3.712 1.3-6.59 4.28-7.805 8.077l-.29.907H124.48l.73-.803z" fill="#fff" /><rect fill="#333" height="300" opacity="0" width="100" x="100" y="50" /></svg>
