<svg xmlns="http://www.w3.org/2000/svg" height="400" version="1" width="300"><path d="M181.54 98.603l-6.53-2.094-30.47 68.062-29.78 32.594h-7.782l-.125 5.656h31.062c1.287 5.533 6.233 9.657 12.156 9.657 5.926 0 10.872-4.122 12.157-9.658h24.125v-5.656h-7.782l-2.468-22.344 16.625-72.625-7.157-2.28-4.03-1.313zm-2.28 6.406l4.968 1.78-15.22 68.03 2.47 22.345h-9.25c-1.283-5.54-6.23-9.687-12.157-9.687-5.924 0-10.87 4.15-12.155 9.687H124.32l26.25-28.375 28.69-63.78zm-21.7 94.98c0 4.14-3.36 7.5-7.5 7.5s-7.5-3.36-7.5-7.5 3.36-7.5 7.5-7.5 7.5 3.36 7.5 7.5z" fill="#000204" fill-rule="evenodd" /><path d="M150.65 168.61l18.41 6.22.124-.53-18.348-6.25-.186.56z" /><path d="M165.27 136.018l11.6 3.887c-.14.3-.162.366-.155.59l-11.69-3.917.25-.56z" fill="#000204" /><path d="M125.5 196.03c.777-.8 24.207-26.134 25.106-27.146.107-.12 18.02 5.81 18.254 6.042.05.05 2.353 20.353 2.513 22.152.002.026-2.037.047-4.533.047h-4.536l-.343-1.095c-.74-2.366-2.66-4.963-4.687-6.34-7.06-4.794-16.485-1.623-19.123 6.435l-.327 1h-13.386l1.063-1.095zM171.15 137.903c-3.01-1.015-5.513-1.89-5.566-1.94-.066-.067 13.314-30.124 13.705-30.79.028-.048 4.69 1.624 4.767 1.71.068.076-7.128 32.192-7.294 32.554-.124.272-.84.077-5.613-1.534z" /><path d="M159.86 171.032c-4.82-1.654-8.75-3.064-8.738-3.134.046-.24 13.836-30.868 13.96-31.01.123-.137 11.006 3.386 11.31 3.66.11.1-6.106 28.556-7.23 33.1-.058.237-.204.42-.324.41-.12-.01-4.16-1.37-8.98-3.025z" fill="#ffd400" /><rect fill="#333" height="300" opacity="0" width="100" x="100" y="50" /></svg>
