<svg xmlns="http://www.w3.org/2000/svg" height="400" version="1" width="300"><path d="M181.54 98.57l-6.53-2.095-30.47 68.063-29.78 32.594h-7.782l-.125 5.656h31.062c1.287 5.533 6.233 9.657 12.156 9.657 5.926 0 10.872-4.12 12.157-9.657h24.125v-5.656h-7.782l-2.468-22.344 16.625-72.625-7.157-2.28-4.03-1.313zm-2.28 6.405l4.968 1.78-15.22 68.032 2.47 22.344h-9.25c-1.283-5.538-6.23-9.686-12.157-9.686-5.924 0-10.87 4.15-12.155 9.687H124.32l26.25-28.374 28.69-63.78zm-21.7 94.98c0 4.14-3.36 7.5-7.5 7.5s-7.5-3.36-7.5-7.5 3.36-7.5 7.5-7.5 7.5 3.36 7.5 7.5z" fill="#000204" fill-rule="evenodd" /><path d="M144.48 174.46l25.76 8.68.106-.535-25.68-8.704-.186.56z" /><path d="M167.52 128.234l11.6 3.887c-.14.3-.162.367-.155.592l-11.693-3.918.248-.56zM157.4 151.857l15.833 5.304c-.155.295-.175.362-.142.596l-15.96-5.346.27-.553z" fill="#000204" /><path d="M173.64 130.23c-2.598-.88-4.758-1.636-4.8-1.677-.07-.072 10.255-23.168 10.447-23.365.154-.158 4.83 1.592 4.8 1.796-.03.206-4.932 22.17-5.303 23.768-.14.6-.29 1.09-.337 1.086-.046-.004-2.21-.728-4.807-1.61zM157.74 178.27c-6.53-2.224-11.916-4.06-11.967-4.08-.05-.02 1.022-1.24 2.382-2.712l2.474-2.677 3.616-8.043c1.99-4.424 3.674-8.023 3.743-7.998.068.024 3.418 1.154 7.442 2.51l7.318 2.464-1.906 8.522-1.907 8.523.366 3.312c.2 1.822.396 3.523.434 3.78.038.26.025.463-.027.456-.052-.008-5.44-1.834-11.97-4.058z" fill="#00d400" /><path d="M165.49 154.51c-3.987-1.347-7.264-2.46-7.28-2.473-.018-.013 2.194-4.97 4.915-11.014 2.72-6.044 5.022-11.167 5.114-11.384l.165-.395 4.918 1.66c3.016 1.02 4.93 1.728 4.95 1.833.025.122-4.5 20.632-5.284 23.952-.037.155-.108.278-.158.275-.05-.004-3.354-1.11-7.342-2.455zM124.58 197.03c0-.164 20.548-22.245 20.672-22.214.997.25 24.428 8.234 24.53 8.357.075.094.176.58.223 1.077.047.498.38 3.592.742 6.876l.657 5.97-4.55-.032-4.55-.033-.34-1c-1.642-4.83-5.642-8.04-10.666-8.56-2.335-.24-4.616.18-6.78 1.248-3.08 1.518-5.343 4.155-6.387 7.438l-.277.875-6.637.033c-3.65.018-6.637.003-6.637-.033z" fill="#fff" /><rect fill="#333" height="300" opacity="0" width="100" x="100" y="50" /></svg>
