<svg xmlns="http://www.w3.org/2000/svg" height="400" version="1" width="300"><path d="M181.56 98.588l-6.53-2.094-30.47 68.063-29.78 32.594h-7.782l-.125 5.657h31.062c1.287 5.533 6.233 9.657 12.156 9.657 5.926 0 10.872-4.12 12.157-9.657h24.125v-5.656h-7.782l-2.468-22.343 16.625-72.625-7.157-2.28-4.03-1.314zm-2.28 6.406l4.968 1.78-15.22 68.032 2.47 22.344h-9.25c-1.283-5.54-6.23-9.687-12.157-9.687-5.924 0-10.87 4.15-12.155 9.687H124.34l26.25-28.375 28.69-63.78zm-21.7 94.98c0 4.14-3.36 7.5-7.5 7.5s-7.5-3.36-7.5-7.5 3.36-7.5 7.5-7.5 7.5 3.36 7.5 7.5z" fill="#000204" fill-rule="evenodd" /><path d="M150.67 168.594l18.41 6.22.124-.53-18.348-6.25-.186.56z" /><path d="M165.28 136.002l11.6 3.887c-.14.298-.162.365-.155.59l-11.693-3.918.248-.56z" fill="#000204" /><path d="M160.24 170.94c-4.53-1.563-8.355-2.962-8.5-3.107-.146-.146 2.838-7.167 6.63-15.603l6.897-15.338 5.32 1.783c2.924.98 5.41 1.877 5.525 1.99.27.27-6.87 32.302-7.305 32.765-.182.194-4.037-.926-8.567-2.49z" fill="#d40000" /><path d="M171.04 137.628c-2.74-.925-4.983-1.857-4.983-2.07 0-.58 12.925-29.218 13.405-29.703.226-.23 1.328-.033 2.448.434 1.688.705 1.982 1.052 1.72 2.032-.173.65-1.814 7.91-3.647 16.132-1.832 8.223-3.472 14.93-3.645 14.903-.173-.026-2.557-.804-5.298-1.73zM126.79 195.03c1.043-1.11 6.466-6.99 12.05-13.065 5.586-6.074 10.565-11.488 11.066-12.03.878-.948 1.23-.875 9.72 2.042 4.843 1.664 8.892 3.11 8.997 3.216.105.105.736 5.065 1.403 11.024l1.212 10.833-4.34-.002-4.343-.002-1-2.428c-3.255-7.918-14.61-9.8-20.658-3.425-.948 1-2.102 2.725-2.566 3.837l-.842 2.02h-12.594l1.896-2.02z" /><rect fill="#333" height="300" opacity="0" width="100" x="100" y="50" /></svg>
