<svg xmlns="http://www.w3.org/2000/svg" height="400" version="1" width="300"><path d="M181.55 98.62l-6.53-2.095-30.47 68.063-29.78 32.594h-7.782l-.125 5.656h31.062c1.287 5.533 6.233 9.657 12.156 9.657 5.926 0 10.872-4.12 12.157-9.657h24.125v-5.656h-7.782l-2.468-22.344 16.625-72.625-7.157-2.28-4.03-1.314zm-2.28 6.405l4.968 1.78-15.22 68.032 2.47 22.344h-9.25c-1.283-5.538-6.23-9.686-12.157-9.686-5.924 0-10.87 4.15-12.155 9.687H124.33l26.25-28.374 28.69-63.78zm-21.7 94.98c0 4.14-3.36 7.5-7.5 7.5s-7.5-3.36-7.5-7.5 3.36-7.5 7.5-7.5 7.5 3.36 7.5 7.5z" fill="#000204" fill-rule="evenodd" /><path d="M150.67 168.625l18.41 6.22.124-.53-18.348-6.25-.186.56z" /><path d="M165.28 136.033l11.6 3.887c-.14.3-.162.366-.155.59l-11.693-3.917.248-.56z" fill="#000204" /><path d="M160.04 171.086l-8.976-3.056.814-1.83c4.486-10.065 13.1-29.1 13.228-29.23.125-.126 11.09 3.34 11.404 3.605.06.05-7.368 33.455-7.456 33.534-.02.017-4.077-1.343-9.014-3.024z" /><path d="M171.01 137.855c-2.986-1-5.453-1.84-5.482-1.863-.05-.04 13.644-30.588 13.78-30.736.083-.09 4.65 1.52 4.73 1.67.118.22-7.237 32.66-7.417 32.704-.1.024-2.624-.774-5.61-1.775zM125.32 196.33c1.947-2.222 25.403-27.476 25.52-27.476.273 0 17.8 5.942 17.953 6.086.085.08.66 4.722 1.28 10.316.618 5.593 1.176 10.534 1.238 10.98l.114.808H162.272l-.284-.956c-.667-2.24-2.488-4.73-4.61-6.296-3.463-2.56-8.287-3.056-12.36-1.272-3.08 1.348-5.808 4.347-6.846 7.524l-.327 1h-13.151l.626-.714z" fill="#ffd400" /><rect fill="#333" height="300" opacity="0" width="100" x="100" y="50" /></svg>
