<svg xmlns="http://www.w3.org/2000/svg" xmlns:xlink="http://www.w3.org/1999/xlink" version="1" width="200" height="200"><symbol id="a"><path d="M110 30.063c-15.86 0-31.55 6.487-42.688 17.625C56.182 58.818 49.826 74.358 49.94 90c-.113 15.64 6.243 31.18 17.374 42.313C78.45 143.45 94.142 149.938 110 149.938c15.86 0 31.52-6.488 42.656-17.625 11.13-11.132 17.52-26.672 17.406-42.313.113-15.64-6.275-31.18-17.406-42.313C141.52 36.55 125.86 30.064 110 30.064zm-.125 3.875L95 90l14.875 56.063c-14.614-.035-29.202-6.077-39.53-16.407-10.36-10.36-16.394-25.02-16.282-39.656-.112-14.637 5.922-29.297 16.28-39.656 10.33-10.33 24.918-16.372 39.532-16.407zm.25 0c14.614.034 29.202 6.076 39.53 16.406 10.36 10.36 16.394 25.02 16.282 39.656.112 14.637-5.922 29.297-16.28 39.656-10.33 10.33-24.918 16.372-39.532 16.406L125 90l-14.875-56.063z" fill="#d400d4"/></symbol><use xlink:href="#a"/></svg>
