<svg xmlns="http://www.w3.org/2000/svg" xmlns:xlink="http://www.w3.org/1999/xlink" width="60" height="60"><symbol id="a"><rect width="58" height="58" rx="10" ry="10" x="1" y="1" fill="#fff" fill-opacity=".5" stroke="#a30075" stroke-width="2"/><path d="M27.578 13.746l9.29-.013a1.778 2.133 0 0 1 1.804 2.146l-.01 5.795 5.358.01-.01-2.342 9.09 4.484-9.087 4.47-.01-2.34h-7.12a1.778 2.133 0 0 1-1.774-2.145l-.022-5.833-5.73.03-.004 7.06 4.49.013a1.19 1.427 0 0 1 .01 2.824l-4.49.024.004 9.18.558-.004.013-4.793 9.753-.016-.01 5.65-1.322 2.42-3.59.02a1.78 2.137 0 0 1-1.515.975l-5.667-.007a1.778 2.133 0 0 1-1.773-2.11l-.01-11.332-2.757.015-4.253 5.3-.37.41-.496.003-8.423.01 9.016 9.723 26.352.007 5.96-3.934-.017-4.904h-7.215a1.192 1.43 0 0 1-.01-2.86l8.422.03 1.177-.007.005 1.412-.004 7.17.003.856-.618.375-6.857 4.533-.246.188-.31.002-27.095-.003-.465.002-.342-.37L5.635 33.26l-2.3-2.44 3.095-.016 10.993.015 4.254-5.3.37-.448.495-.003 3.283.02-.004-9.217a1.778 2.133 0 0 1 1.758-2.127z" fill="#a30075"/></symbol><use xlink:href="#a"/></svg>
