<svg xmlns="http://www.w3.org/2000/svg" version="1" width="60" height="30"><path d="M29.125 7.188v8.03c-3.88.138-7.658 1.19-11.063 3.063l-4-6.936-1.718 1 4.03 6.97c-2.928 1.932-5.484 4.518-7.468 7.717l-7.094-4.093-1 1.75 8.657 4.97.03.03c6.097-11.17 20.474-15.503 31.875-9.28 3.89 2.122 7.1 5.332 9.22 9.124l.5-.56 8.186-4.72-1-1.75-7.155 4.156c-1.91-2.954-4.417-5.438-7.313-7.343l3.97-6.907-1.72-1-3.968 6.844-.063-.03c-3.024-1.652-6.25-2.546-9.468-2.876-.478-.05-.96-.073-1.437-.094V7.187h-2z"/></svg>
