<svg xmlns="http://www.w3.org/2000/svg" xmlns:xlink="http://www.w3.org/1999/xlink" width="300" height="400"><symbol id="a" fill="none" stroke="#000" stroke-width="5"><path d="M125 200l25-129 25 129m-62.5 0h25m25 0h25m-25 0c0 6.904-5.596 12.5-12.5 12.5s-12.5-5.596-12.5-12.5 5.596-12.5 12.5-12.5 12.5 5.596 12.5 12.5z"/><g stroke-linecap="round"><path d="M182.69 40.093C190.32 48.155 195 59.027 195 71c0 11.973-4.685 22.845-12.31 30.907M117.31 40.093C109.68 48.155 105 59.027 105 71c0 11.973 4.685 22.845 12.31 30.907M173.61 93.322C179.12 87.5 182.5 79.647 182.5 71c0-8.647-3.384-16.5-8.89-22.32M126.39 48.678C120.88 54.5 117.5 62.353 117.5 71c0 8.647 3.383 16.5 8.89 22.322"/></g></symbol><use xlink:href="#a"/></svg>
