<svg xmlns="http://www.w3.org/2000/svg" version="1" width="300" height="400"><pattern id="a" width="10" height="10" patternUnits="userSpaceOnUse" patternTransform="scale(5)"><path fill="none" stroke="#ffd400" stroke-width=".5" d="M0 3.45l.33-.37.33-.58.33-.57.33-.33.33.01.17.34.17.55.17.53.17.31.17-.01.33-.32.33-.51.33-.49.33-.29.33.01.17.3.17.47.17.46.17.26.17-.01m0 5.24l.33-.37.33-.58.33-.57.33-.33.33.01.17.34.17.55.17.53.17.31.17-.01.33-.32.33-.51.33-.49.33-.29.33.01.17.3.17.47.17.46.17.26.17-.01"/></pattern><path fill="url(#a)" d="M0 0h300v400H0z"/></svg>
