<svg xmlns="http://www.w3.org/2000/svg" xmlns:xlink="http://www.w3.org/1999/xlink" width="60" height="60"><symbol id="a"><rect width="58" height="58" rx="10" ry="10" x="1" y="1" fill="#fff" fill-opacity=".5" stroke="#a30075" stroke-width="2"/><path d="M26.125 4.375L24 6.5l11.094 11.125L37.22 15.5l-4.97-4.97.28-.28c.656-.654 1.505-1.22 3.064-1.22 2.268 0 4.468 2.325 4.468 4.47v41.03h2V13.5c0-3.388-2.953-6.47-6.468-6.47-2.088 0-3.55.896-4.47 1.814l-.28.28-4.72-4.75zm-2.53 3.406l-11.97 3.25.53 1.908 11.97-3.22-.53-1.937zm1.905 3.69l-9.97 7.342 1.19 1.594 9.968-7.343-1.188-1.594zm3.22 3.56L21.374 25l1.594 1.188 7.343-9.97-1.594-1.187zm3.374 2.564l-3.25 11.968 1.937.532L34 18.124l-1.906-.53z" fill="#a30075"/></symbol><use xlink:href="#a"/></svg>
