<svg xmlns="http://www.w3.org/2000/svg" xmlns:xlink="http://www.w3.org/1999/xlink" width="60" height="60"><symbol id="a"><rect width="58" height="58" rx="10" ry="10" x="1" y="1" fill="#fff" fill-opacity=".5" stroke="#a30075" stroke-width="2"/><path d="M28.375 9.906l-5.563 3.875-9.968-2.717c-.045.17-2.02 7.85 9.625 11.312l30.405 8.313 2.188-8.157-30.25-8.28 5.468-3.875-1.905-.47zm-23.28 10.75v1.813l21.56 5.936c.367-.534.815-1.023 1.314-1.437L5.093 20.655zm27.186 6.407c-2.833 0-5.124 2.29-5.124 5.125 0 2.035 1.215 3.79 2.938 4.624l-25-6.906.062 18.157c1.07 0 2.1-.236 3.032-.657.948-.438 2.045-.718 3.156-.718 1.116 0 2.176.28 3.125.718.93.42 1.955.657 3.03.657 1.08 0 2.138-.236 3.063-.657.942-.438 2.008-.718 3.125-.718 1.11 0 2.2.28 3.156.718.924.42 1.95.657 3.03.657 1.082 0 2.14-.236 3.064-.657.954-.438 2.008-.718 3.124-.718 1.117 0 2.17.28 3.126.718.93.42 1.98.657 3.062.657 1.087 0 2.1-.236 3.03-.657.95-.438 2.04-.718 3.157-.718s2.17.28 3.126.718c.924.42 1.944.657 3.03.657l-.03-4.5L31.78 37.28c.17.02.333.064.5.064 2.835 0 5.157-2.323 5.157-5.157 0-2.833-2.322-5.124-5.156-5.124zm6.407 2.843c.223.62.37 1.253.407 1.938l12.875 3.562.436-1.687-13.718-3.814zm-6.374.063c1.23 0 2.218.987 2.218 2.218 0 1.23-.987 2.218-2.218 2.218-1.23 0-2.25-.988-2.25-2.218s1.02-2.22 2.25-2.22z" fill="#a30075"/></symbol><use xlink:href="#a"/></svg>
