<svg xmlns="http://www.w3.org/2000/svg" height="400" version="1" width="300"><path d="M147.195 187.82c-4.59 1.1-8.214 4.742-9.282 9.345h-8.437l-.125 5.656h8.563c1.288 5.534 6.234 9.657 12.156 9.657 5.924 0 10.87-4.12 12.155-9.656l8.313-.03v-5.656l-8.313.03c-.49-2.113-1.498-4.037-2.906-5.593l-12.126-3.75zm9.437-1.06l-4.375-1.44 4.375 1.44zm-6.563 5.718c4.14 0 7.5 3.36 7.5 7.5s-3.36 7.5-7.5 7.5-7.5-3.36-7.5-7.5 3.36-7.5 7.5-7.5z" fill-rule="evenodd" /><path d="M175.25 96.374L144 189.25l17.562 5.936 31.25-92.875-17.562-5.936zm2.47 4.875l10.343 3.5-28.656 85.124-10.344-3.47 28.656-85.155z" /><path d="M167.503 127.48l13.013 4.404-.39 1.148-13.01-4.404zM158.017 156.534l13.045 4.415-.41 1.212-13.045-4.416z" /><path d="M173.57 129.34c-2.41-.854-4.417-1.575-4.462-1.6-.1-.062 8.638-25.842 8.823-26.026.276-.276 9.73 3.167 9.71 3.535-.01.21-1.94 6.035-4.286 12.947-2.933 8.64-4.443 12.587-4.834 12.632-.313.035-2.54-.635-4.95-1.49zM154.23 187.99c-2.567-.866-4.668-1.752-4.67-1.967-.006-.507 8.724-26.567 9.106-27.185.217-.35 1.48-.055 5.022 1.173 2.603.904 4.732 1.81 4.73 2.012 0 .635-9.13 27.61-9.33 27.575-.106-.018-2.29-.74-4.858-1.607z" fill="#00d400" /><path d="M164.09 158.37c-2.387-.817-4.42-1.565-4.516-1.66-.15-.15 8.558-26.832 8.88-27.213.06-.072 2.328.6 5.038 1.495l4.927 1.626-4.552 13.647c-2.592 7.773-4.742 13.635-4.994 13.618-.245-.016-2.397-.697-4.784-1.514z" fill="#d40000" /><rect fill="#333" height="300" opacity="0" width="100" x="100" y="50" /></svg>
