<svg xmlns="http://www.w3.org/2000/svg" height="400" version="1" width="300"><path d="M147.172 187.84c-4.588 1.098-8.213 4.74-9.28 9.344h-8.438l-.125 5.656h8.56c1.29 5.533 6.235 9.656 12.157 9.656 5.925 0 10.87-4.12 12.156-9.656l8.313-.03v-5.657l-8.313.03c-.49-2.114-1.498-4.037-2.906-5.593l-12.125-3.75zm9.438-1.063l-4.375-1.437 4.375 1.438zm-6.563 5.72c4.14 0 7.5 3.36 7.5 7.5s-3.36 7.5-7.5 7.5-7.5-3.36-7.5-7.5 3.36-7.5 7.5-7.5z" fill-rule="evenodd" /><path d="M175.23 96.393l-31.25 92.875 17.562 5.938 31.25-92.875-17.562-5.937zm2.47 4.875l10.343 3.5-28.656 85.125-10.344-3.47L177.7 101.27z" /><path d="M167.476 127.497l13.013 4.404-.39 1.15-13.012-4.405zM158 156.554l13.045 4.416-.41 1.212-13.046-4.415z" /><path d="M164.13 158.33c-2.862-.995-4.29-1.765-4.25-2.292.064-.86 8.3-25.87 8.65-26.267.418-.474 9.338 2.747 9.338 3.373 0 1.138-8.697 26.77-9.07 26.727-.196-.023-2.297-.717-4.668-1.54z" fill="#d40000" /><path d="M173.56 129.36c-2.222-.76-4.126-1.457-4.23-1.546-.243-.205 8.01-25.14 8.5-25.685.347-.388 8.503 2.047 9.33 2.784.643.575-7.918 25.618-8.797 25.73-.42.055-2.58-.523-4.803-1.285zM154.09 187.83l-4.66-1.575 4.627-13.9 4.625-13.9 4.953 1.63 4.952 1.632-4.537 13.503c-2.496 7.427-4.71 13.656-4.92 13.844-.21.188-2.477-.368-5.04-1.234z" /><rect fill="#333" height="300" opacity="0" width="100" x="100" y="50" /></svg>
