<svg xmlns="http://www.w3.org/2000/svg" height="400" version="1" width="300"><path d="M147.23 187.81c-4.59 1.1-8.215 4.74-9.282 9.345h-8.438l-.125 5.656h8.563c1.287 5.534 6.233 9.657 12.155 9.657 5.925 0 10.87-4.12 12.156-9.656l8.312-.03v-5.656l-8.313.03c-.49-2.114-1.5-4.037-2.907-5.593l-12.125-3.75zm9.436-1.062l-4.375-1.437 4.376 1.438zm-6.562 5.72c4.14 0 7.5 3.36 7.5 7.5s-3.36 7.5-7.5 7.5-7.5-3.36-7.5-7.5 3.36-7.5 7.5-7.5z" fill-rule="evenodd" /><path d="M175.28 96.364l-31.25 92.875 17.562 5.936 31.25-92.874-17.562-5.938zm2.47 4.875l10.343 3.5-28.656 85.124-10.344-3.47 28.656-85.155z" /><path d="M154.27 187.98c-2.567-.866-4.667-1.77-4.667-2.006 0-.495 28.09-84 28.342-84.25.14-.14 9.28 2.86 9.705 3.183.197.15-28.287 84.712-28.523 84.676-.105-.016-2.29-.737-4.857-1.603z" fill="#ffd400" stroke="#000" stroke-width=".381" /><rect fill="#333" height="300" opacity="0" width="100" x="100" y="50" /></svg>
