<svg xmlns="http://www.w3.org/2000/svg" height="400" version="1" width="300"><path d="M147.18 187.827c-4.59 1.1-8.215 4.74-9.283 9.344h-8.437l-.125 5.657h8.562c1.288 5.533 6.234 9.657 12.156 9.657 5.925 0 10.87-4.12 12.156-9.657l8.312-.03v-5.657l-8.313.03c-.49-2.113-1.5-4.037-2.907-5.593l-12.125-3.75zm9.436-1.062l-4.375-1.438 4.376 1.438zm-6.562 5.72c4.14 0 7.5 3.36 7.5 7.5s-3.36 7.5-7.5 7.5-7.5-3.36-7.5-7.5 3.36-7.5 7.5-7.5z" fill-rule="evenodd" /><path d="M175.23 96.38l-31.25 92.876 17.562 5.938 31.25-92.875-17.562-5.94zm2.47 4.876l10.343 3.5-28.656 85.125-10.344-3.468 28.656-85.156z" /><path d="M167.49 127.487l13.013 4.404-.39 1.15-13.01-4.405zM158.004 156.54l13.045 4.417-.41 1.212-13.046-4.416z" /><path d="M164.07 158.38c-2.387-.817-4.42-1.565-4.516-1.66-.15-.15 8.558-26.832 8.88-27.213.06-.072 2.328.6 5.038 1.495l4.927 1.626-4.552 13.647c-2.592 7.773-4.742 13.635-4.994 13.618-.245-.016-2.397-.697-4.784-1.514z" fill="#00d400" /><path d="M173.55 129.35c-2.41-.854-4.417-1.575-4.462-1.6-.1-.062 8.638-25.843 8.823-26.027.276-.275 9.73 3.168 9.71 3.536-.01.21-1.94 6.035-4.286 12.947-2.933 8.64-4.443 12.587-4.834 12.632-.313.035-2.54-.635-4.95-1.49zM154.22 188c-2.567-.866-4.668-1.752-4.67-1.967-.006-.507 8.724-26.567 9.106-27.185.217-.35 1.48-.055 5.022 1.173 2.603.904 4.732 1.81 4.73 2.012 0 .635-9.13 27.61-9.33 27.575-.106-.018-2.29-.74-4.858-1.607z" fill="#d40000" /><rect fill="#333" height="300" opacity="0" width="100" x="100" y="50" /></svg>
