<svg xmlns="http://www.w3.org/2000/svg" height="400" version="1" width="300"><path d="M147.167 187.833c-4.588 1.1-8.213 4.74-9.28 9.344h-8.438l-.126 5.656h8.562c1.288 5.533 6.234 9.656 12.156 9.656 5.925 0 10.87-4.12 12.156-9.657l8.313-.03v-5.657l-8.312.03c-.49-2.113-1.498-4.037-2.906-5.593l-12.125-3.75zm9.438-1.062l-4.375-1.437 4.375 1.438zm-6.563 5.72c4.14 0 7.5 3.36 7.5 7.5s-3.36 7.5-7.5 7.5-7.5-3.36-7.5-7.5 3.36-7.5 7.5-7.5z" fill-rule="evenodd" /><path d="M175.22 96.387l-31.25 92.875 17.562 5.938 31.25-92.875-17.562-5.938zm2.47 4.875l10.343 3.5-28.656 85.125-10.344-3.47 28.656-85.155z" /><path d="M163.606 141.77l13.013 4.404-.39 1.148-13.013-4.405z" /><path d="M169.12 143.57c-2.643-.904-4.846-1.684-4.894-1.733-.064-.063 12.412-37.447 13.412-40.19.098-.27.29-.217 5.063 1.39 2.73.917 5.016 1.72 5.08 1.784.067.067-2.817 8.833-6.666 20.263-5.037 14.957-6.837 20.144-6.987 20.138-.11-.003-2.364-.746-5.007-1.65z" fill="#ffd400" /><path d="M154.18 188.07l-5.066-1.7 7.254-21.537c3.99-11.846 7.283-21.567 7.32-21.603.055-.056 10.013 3.272 10.125 3.384.05.05-14.41 43.015-14.503 43.098-.035.03-2.344-.708-5.13-1.642z" /><rect fill="#333" height="300" opacity="0" width="100" x="100" y="50" /></svg>
