<svg xmlns="http://www.w3.org/2000/svg" height="400" version="1" width="300"><path d="M147.15 187.832c-4.59 1.098-8.213 4.74-9.28 9.343h-8.44l-.124 5.657h8.563c1.286 5.533 6.232 9.656 12.155 9.656 5.925 0 10.87-4.12 12.156-9.656l8.313-.032v-5.656l-8.312.03c-.49-2.113-1.498-4.037-2.905-5.592l-12.125-3.75zm9.438-1.063l-4.375-1.438 4.375 1.437zm-6.563 5.718c4.14 0 7.5 3.36 7.5 7.5s-3.36 7.5-7.5 7.5-7.5-3.36-7.5-7.5 3.36-7.5 7.5-7.5z" fill-rule="evenodd" /><path d="M175.2 96.385l-31.25 92.875 17.562 5.938 31.25-92.876-17.562-5.937zm2.47 4.875l10.343 3.5-28.656 85.125-10.344-3.47 28.656-85.155z" /><path d="M163.586 141.767l13.012 4.404-.388 1.15-13.013-4.405zM169.17 143.59c-2.76-.935-5.016-1.745-5.017-1.8-.002-.118 13.49-40.28 13.56-40.367.084-.1 10.033 3.284 10.094 3.434.06.146-13.374 40.2-13.532 40.35-.05.045-2.346-.682-5.104-1.617z" /><path d="M154.1 188.05l-5-1.704.735-2.16c.405-1.188 3.672-10.884 7.26-21.546s6.543-19.406 6.568-19.43c.04-.04 10.064 3.304 10.154 3.386.08.074-14.475 43.093-14.59 43.124-.07.02-2.376-.733-5.127-1.67z" fill="#ffd400" /><rect fill="#333" height="300" opacity="0" width="100" x="100" y="50" /></svg>
