<svg xmlns="http://www.w3.org/2000/svg" height="400" version="1" width="300"><path d="M175.25 96.34L144 189.217l17.562 5.938 31.25-92.875zm2.47 4.876l10.343 3.5-28.656 85.125-10.344-3.468 28.656-85.156zm-30.6 86.604c-4.59 1.098-8.213 4.74-9.28 9.344h-8.44l-.124 5.656h8.563c1.286 5.533 6.232 9.656 12.155 9.656 5.925 0 10.87-4.12 12.156-9.656l8.313-.03v-5.657l-8.312.03c-.49-2.114-1.498-4.037-2.905-5.593l-12.125-3.75zm2.875 4.656c4.14 0 7.5 3.36 7.5 7.5 0 4.14-3.36 7.5-7.5 7.5-4.14 0-7.5-3.36-7.5-7.5 0-4.14 3.36-7.5 7.5-7.5z" /><rect fill="#333" height="300" opacity="0" width="100" x="100" y="50" /></svg>
