<svg xmlns="http://www.w3.org/2000/svg" height="400" version="1" width="300"><path d="M147.195 187.82c-4.59 1.1-8.214 4.742-9.282 9.345h-8.437l-.125 5.656h8.563c1.288 5.534 6.234 9.657 12.156 9.657 5.924 0 10.87-4.12 12.155-9.656l8.313-.03v-5.656l-8.313.03c-.49-2.113-1.498-4.037-2.906-5.593l-12.126-3.75zm9.437-1.06l-4.375-1.44 4.375 1.44zm-6.563 5.718c4.14 0 7.5 3.36 7.5 7.5s-3.36 7.5-7.5 7.5-7.5-3.36-7.5-7.5 3.36-7.5 7.5-7.5z" fill-rule="evenodd" /><path d="M175.25 96.374L144 189.25l17.562 5.936 31.25-92.875-17.562-5.936zm2.47 4.875l10.343 3.5-28.656 85.124-10.344-3.47 28.656-85.155z" /><path d="M167.503 127.48l13.013 4.404-.39 1.148-13.01-4.404zM158.017 156.534l13.045 4.415-.41 1.212-13.045-4.416zM173.96 129.6c-2.667-.912-4.905-1.68-4.975-1.71-.097-.038 8.578-26.248 8.766-26.485.047-.06 10.005 3.298 10.117 3.41.107.107-8.77 26.388-8.924 26.418-.074.014-2.316-.72-4.983-1.633zM154.13 188.04l-5.007-1.68.642-1.844c.353-1.015 2.48-7.33 4.726-14.033 2.248-6.704 4.103-12.212 4.125-12.24.046-.06 9.76 3.192 10.022 3.353.133.082-.942 3.42-4.534 14.084-2.59 7.687-4.765 13.99-4.836 14.008-.072.018-2.383-.724-5.137-1.648z" /><path d="M164.11 158.53l-5.002-1.705 4.634-13.802c2.55-7.59 4.65-13.814 4.666-13.83.04-.036 9.888 3.27 10.06 3.375.068.043-1.807 5.82-4.168 12.836-5.27 15.66-4.99 14.847-5.1 14.838-.048-.004-2.34-.775-5.09-1.713z" fill="#ffd400" /><rect fill="#333" height="300" opacity="0" width="100" x="100" y="50" /></svg>
