<svg xmlns="http://www.w3.org/2000/svg" height="400" version="1" width="300"><path d="M147.223 187.826c-4.59 1.1-8.214 4.74-9.28 9.344h-8.44l-.124 5.656h8.562c1.287 5.533 6.233 9.657 12.156 9.657 5.925 0 10.87-4.12 12.156-9.657l8.312-.03v-5.657l-8.312.03c-.49-2.114-1.5-4.038-2.906-5.594l-12.126-3.75zm9.437-1.062l-4.375-1.438 4.375 1.438zm-6.562 5.72c4.14 0 7.5 3.36 7.5 7.5s-3.36 7.5-7.5 7.5-7.5-3.36-7.5-7.5 3.36-7.5 7.5-7.5z" fill-rule="evenodd" /><path d="M175.28 96.38l-31.25 92.875 17.562 5.938 31.25-92.876-17.562-5.937zm2.47 4.875l10.343 3.5-28.656 85.125-10.344-3.47 28.656-85.155z" /><path d="M154.26 187.99c-2.567-.866-4.667-1.77-4.667-2.006 0-.495 28.09-84 28.342-84.25.14-.14 9.28 2.86 9.705 3.183.197.15-28.287 84.712-28.523 84.676-.105-.015-2.29-.737-4.857-1.603z" fill="#d40000" /><rect fill="#333" height="300" opacity="0" width="100" x="100" y="50" /></svg>
