<svg xmlns="http://www.w3.org/2000/svg" height="400" version="1" width="300"><path d="M147.195 187.788c-4.59 1.098-8.214 4.74-9.282 9.344h-8.437l-.125 5.656h8.563c1.288 5.533 6.234 9.656 12.156 9.656 5.924 0 10.87-4.12 12.155-9.656l8.313-.03V197.1l-8.313.032c-.49-2.115-1.498-4.038-2.906-5.594l-12.126-3.75zm9.437-1.063l-4.375-1.437 4.375 1.437zm-6.563 5.72c4.14 0 7.5 3.36 7.5 7.5s-3.36 7.5-7.5 7.5-7.5-3.36-7.5-7.5 3.36-7.5 7.5-7.5z" fill-rule="evenodd" /><path d="M175.25 96.34L144 189.217l17.562 5.938 31.25-92.875-17.562-5.94zm2.47 4.876l10.343 3.5-28.656 85.125-10.344-3.468 28.656-85.156z" /><path d="M161.498 143.07l13.013 4.404-.388 1.148-13.013-4.405zM154.77 164.626l13.046 4.416-.41 1.212-13.045-4.415zM170.506 121.697l13.012 4.404-.388 1.15-13.013-4.405z" /><path d="M175.99 123.49c-2.75-.93-5.022-1.71-5.05-1.73-.042-.034 6.72-20.287 6.814-20.404.056-.07 10.173 3.38 10.173 3.47 0 .156-6.778 20.205-6.856 20.28-.044.043-2.33-.684-5.08-1.616zM161.31 166.77c-2.71-.925-4.943-1.696-4.96-1.714-.037-.036 6.66-19.967 6.733-20.04.025-.024 2.325.727 5.112 1.67l5.065 1.717-.54 1.625c-3.323 9.995-6.227 18.436-6.34 18.43-.078-.003-2.36-.762-5.07-1.687z" fill="#d40000" /><path d="M168.56 145.39c-2.712-.926-4.954-1.707-4.982-1.735-.056-.056 6.688-20.178 6.85-20.442.078-.125 1.27.234 5.164 1.556l5.063 1.718-3.457 10.3c-1.9 5.663-3.513 10.295-3.582 10.292-.07-.003-2.344-.764-5.056-1.69zM154.21 188.04c-2.71-.91-4.947-1.707-4.968-1.77-.04-.122 6.503-19.64 6.623-19.76.036-.037 2.344.703 5.128 1.644l5.06 1.71-3.33 9.924c-1.834 5.457-3.39 9.92-3.458 9.914-.07-.005-2.344-.752-5.055-1.662z" fill="#00d400" /><rect fill="#333" height="300" opacity="0" width="100" x="100" y="50" /></svg>
