<svg xmlns="http://www.w3.org/2000/svg" height="400" version="1" width="300"><path d="M147.195 187.788c-4.59 1.098-8.214 4.74-9.282 9.344h-8.437l-.125 5.656h8.563c1.288 5.533 6.234 9.656 12.156 9.656 5.924 0 10.87-4.12 12.155-9.656l8.313-.03V197.1l-8.313.032c-.49-2.115-1.498-4.038-2.906-5.594l-12.126-3.75zm9.437-1.063l-4.375-1.437 4.375 1.437zm-6.563 5.72c4.14 0 7.5 3.36 7.5 7.5s-3.36 7.5-7.5 7.5-7.5-3.36-7.5-7.5 3.36-7.5 7.5-7.5z" fill-rule="evenodd" /><path d="M175.25 96.34L144 189.217l17.562 5.938 31.25-92.875-17.562-5.94zm2.47 4.876l10.343 3.5-28.656 85.125-10.344-3.468 28.656-85.156z" /><path d="M182.7 102.775l.473.134-28.848 85.394-.644-.21 29.02-85.318z" /><path d="M151.36 187.08l-2.21-.748 2.6-7.71c1.43-4.242 7.848-23.32 14.263-42.4 6.414-19.078 11.697-34.73 11.74-34.78.1-.118 4.756 1.427 4.756 1.58 0 .2-28.81 84.825-28.876 84.815-.035-.005-1.058-.346-2.274-.757z" fill="#fff" /><path d="M156.88 188.91c-1.862-.632-2.31-.827-2.293-1.003.01-.12 6.447-19.246 14.304-42.503l14.285-42.284 2.396.826 2.396.826-1.278 3.815c-1.702 5.078-26.86 79.774-27.125 80.534-.114.328-.244.59-.29.585-.044-.005-1.12-.363-2.393-.795z" fill="#d40000" /><rect fill="#333" height="300" opacity="0" width="100" x="100" y="50" /></svg>
