<svg xmlns="http://www.w3.org/2000/svg" height="400" version="1" width="300"><path d="M147.147 187.845c-4.588 1.1-8.213 4.74-9.28 9.344h-8.438l-.126 5.655h8.562c1.287 5.533 6.233 9.657 12.156 9.657 5.925 0 10.87-4.12 12.156-9.657l8.313-.03v-5.657l-8.312.03c-.49-2.113-1.498-4.037-2.906-5.593l-12.125-3.75zm9.438-1.062l-4.375-1.438 4.375 1.438zm-6.563 5.72c4.14 0 7.5 3.36 7.5 7.5s-3.36 7.5-7.5 7.5-7.5-3.36-7.5-7.5 3.36-7.5 7.5-7.5z" fill-rule="evenodd" /><path d="M175.2 96.4l-31.25 92.874 17.562 5.938 31.25-92.875-17.562-5.938zm2.47 4.874l10.343 3.5-28.656 85.125-10.344-3.47 28.656-85.156z" /><path d="M167.453 127.503l13.013 4.404-.39 1.148-13.012-4.404zM157.967 156.557l13.045 4.416-.41 1.212-13.045-4.415z" /><path d="M173.78 129.58c-2.664-.91-4.862-1.712-4.884-1.78-.03-.09 8.297-25.012 8.777-26.272.073-.19 10.172 3.176 10.174 3.39 0 .072-1.983 6.026-4.41 13.233-3.27 9.72-4.463 13.102-4.612 13.095-.112-.005-2.382-.754-5.045-1.665zM154.08 188.05c-2.685-.9-4.882-1.707-4.882-1.79 0-.126 8.923-26.743 9.306-27.762.112-.297.173-.28 5.173 1.414 4.02 1.362 5.052 1.76 5.02 1.93-.02.12-2.128 6.437-4.684 14.04-3.45 10.263-4.698 13.82-4.848 13.814-.112-.005-2.4-.747-5.085-1.647z" fill="#ffd400" /><path d="M164.04 158.55c-2.687-.91-4.907-1.68-4.934-1.71-.055-.06 9.158-27.454 9.27-27.566.063-.063 9.746 3.15 10.04 3.333.184.113-9.073 27.538-9.307 27.573-.102.015-2.384-.72-5.07-1.63z" /><rect fill="#333" height="300" opacity="0" width="100" x="100" y="50" /></svg>
