<svg xmlns="http://www.w3.org/2000/svg" height="400" version="1" width="300"><path d="M129.33 154.26a24.438 23.625 0 1 1 42.9.126" fill="none" stroke="#000" stroke-width="5.8" transform="matrix(1.1867 0 0 1.2275 -24.074 10.693)" /><path d="M115.97 197.17v5.612l21.954.044c1.287 5.533 6.233 9.656 12.156 9.656 5.925 0 10.87-4.12 12.156-9.656h29.844V197.17h-76.11zm46.266 0c-1.285-5.536-6.23-9.656-12.156-9.656-5.923 0-10.87 4.123-12.156 9.656h24.312zm-12.156-4.688c4.14 0 7.5 3.36 7.5 7.5s-3.36 7.5-7.5 7.5-7.5-3.36-7.5-7.5 3.36-7.5 7.5-7.5z" fill="#000407" fill-rule="evenodd" /><path d="M129.8 178.805l.133-.392 49.98 16.723-.13.393zM133.757 171.113l.13-.393 46.63 15.602-.132.392zM138.528 163.377l.13-.393 45.592 15.255-.132.39z" fill="none" stroke="#000" /><path d="M160.37 169.67l-17.536-5.863.995-.484c2.512-1.225 5.318-2.048 8.136-2.39 1.33-.16 4.272-.18 5.484-.038 6.184.73 11.428 3.26 15.576 7.51 1.527 1.566 2.47 2.762 3.516 4.46.537.872 1.442 2.594 1.39 2.643-.015.014-7.918-2.613-17.562-5.838zM154.86 186.18c-23.715-7.94-24.058-8.057-24.008-8.254.3-1.2 2.1-4.803 3.004-6.013.105-.14 1.652.365 23.254 7.597 12.728 4.26 23.155 7.747 23.17 7.747.143 0-.15 2.532-.48 4.124-.28 1.36-.69 2.802-.806 2.834-.04.01-10.902-3.604-24.134-8.034z" fill="#00d400" /><path d="M157.6 178.09c-12.422-4.159-22.605-7.58-22.63-7.605-.072-.073 1.396-1.73 2.308-2.602.947-.906 2.057-1.814 3.123-2.555l.708-.49 1.82.602c1 .332 9.477 3.165 18.84 6.296l17.02 5.693.25.77c.525 1.602.824 2.87 1.065 4.51.16 1.1.26 2.952.158 2.946-.04-.003-10.238-3.407-22.66-7.566zM131.61 196.47c-1.03-2.26-1.808-5.253-2.057-7.913-.185-1.973-.067-4.793.282-6.734.19-1.054.48-2.23.552-2.23.035 0 10.872 3.617 24.08 8.038s24.027 8.04 24.04 8.04c.01 0-.117.322-.285.716l-.306.716-7.818-.02-7.817-.023-.33-1.005c-.46-1.403-1.265-2.89-2.12-3.92-1.86-2.236-4.213-3.703-6.996-4.36-.85-.203-1.092-.223-2.702-.225-1.418-.002-1.917.028-2.525.156-2.762.58-5.335 2.102-7.073 4.186-1.238 1.483-2.033 3.036-2.615 5.104-.024.082-.702.105-3.026.105h-2.996l-.288-.63z" fill="#fff" /><ellipse cx="150" cy="200" fill="#333" opacity="0" rx="60" ry="60" /></svg>
