<svg xmlns="http://www.w3.org/2000/svg" height="400" version="1" width="300"><path d="M129.33 154.26a24.438 23.625 0 1 1 42.9.126" fill="none" stroke="#000" stroke-width="5.8" transform="matrix(1.1867 0 0 1.2275 -24.074 10.693)" /><path d="M115.97 197.17v5.612l21.954.044c1.287 5.533 6.233 9.656 12.156 9.656 5.925 0 10.87-4.12 12.156-9.656h29.844V197.17h-76.11zm46.266 0c-1.285-5.536-6.23-9.656-12.156-9.656-5.923 0-10.87 4.123-12.156 9.656h24.312zm-12.156-4.688c4.14 0 7.5 3.36 7.5 7.5s-3.36 7.5-7.5 7.5-7.5-3.36-7.5-7.5 3.36-7.5 7.5-7.5z" fill="#000407" fill-rule="evenodd" /><path d="M130.396 176.368l.13-.393L180.51 192.7l-.13.39zM137.427 166.573l.13-.393 45.592 15.254-.133.393z" fill="none" stroke="#000" /><path d="M159.36 172.91c-10.926-3.656-19.923-6.667-19.992-6.692-.155-.057-.06-.134 1.262-1.033 3.23-2.194 6.692-3.543 10.65-4.15 1.422-.22 4.233-.298 5.76-.163 8.777.776 16.49 5.944 20.438 13.695.766 1.503 1.134 2.363 1.563 3.653.386 1.154.428 1.348.293 1.34-.058-.002-9.046-2.995-19.973-6.65zM131.51 196.25c-.968-2.28-1.56-4.49-1.927-7.177-.164-1.205-.137-4.668.046-5.977.293-2.105 1.14-5.44 1.48-5.832.044-.05 22.998 7.59 46.572 15.502l1.66.558-.327.975c-.18.536-.507 1.398-.726 1.914l-.4.94H162.302l-.315-.97c-1.26-3.875-4.145-6.794-7.976-8.072-1.375-.458-2.266-.594-3.915-.595-1.05 0-1.657.04-2.273.156-2.53.474-4.74 1.64-6.567 3.462-1.63 1.626-2.6 3.305-3.307 5.724l-.073.252-2.99.022-2.99.022-.385-.906z" /><path d="M155.78 183.85c-13.126-4.394-23.913-8.007-23.972-8.028-.084-.032-.08-.108.025-.358.273-.657 1.202-2.29 1.906-3.346.982-1.478 1.663-2.313 3-3.677l1.125-1.15 7.59 2.548c4.174 1.4 13.62 4.564 20.992 7.03 9.65 3.23 13.415 4.524 13.445 4.623.114.368.306 1.973.397 3.308.08 1.16.08 1.81 0 2.955-.12 1.726-.434 3.856-.596 4.032-.027.03-10.79-3.54-23.915-7.935z" fill="#ffd400" /><ellipse cx="150" cy="200" fill="#333" opacity="0" rx="60" ry="60" /></svg>
