<svg xmlns="http://www.w3.org/2000/svg" height="400" version="1" width="300"><path d="M129.33 154.26a24.438 23.625 0 1 1 42.9.126" fill="none" stroke="#000" stroke-width="5.8" transform="matrix(1.1867 0 0 1.2275 -24.074 10.693)" /><path d="M115.97 197.17v5.612l21.954.044c1.287 5.533 6.233 9.656 12.156 9.656 5.925 0 10.87-4.12 12.156-9.656h29.844V197.17h-76.11zm46.266 0c-1.285-5.536-6.23-9.656-12.156-9.656-5.923 0-10.87 4.123-12.156 9.656h24.312zm-12.156-4.688c4.14 0 7.5 3.36 7.5 7.5s-3.36 7.5-7.5 7.5-7.5-3.36-7.5-7.5 3.36-7.5 7.5-7.5z" fill="#000407" fill-rule="evenodd" /><path d="M130.396 176.368l.13-.393L180.51 192.7l-.13.39zM137.427 166.573l.13-.393 45.592 15.254-.133.393z" fill="none" stroke="#000" /><path d="M166.9 175.43l-19.97-6.697-7.68-2.577.36-.275c1.132-.864 3.31-2.17 4.585-2.747 2.327-1.055 4.727-1.76 7.293-2.142 1.18-.175 4.31-.247 5.563-.127 5.193.497 9.828 2.364 13.847 5.576 1.136.907 2.804 2.568 3.71 3.692 1.964 2.44 3.653 5.566 4.538 8.4.283.904.302 1.032.15 1.023-.06-.003-5.636-1.86-12.396-4.125zM131.63 196.52c-1.406-3.085-2.153-6.623-2.157-10.217-.003-2.88.358-5.21 1.234-7.94.166-.52.333-.995.37-1.055.053-.085 5.618 1.746 24.13 7.94 13.235 4.427 24.08 8.065 24.1 8.085.056.056-.706 2.205-1.078 3.04l-.333.747-7.833.022c-7.19.02-7.833.01-7.833-.116 0-.075-.13-.526-.29-1.002-.89-2.665-2.648-4.948-5-6.497-3.013-1.984-6.85-2.556-10.365-1.545-2.228.64-4.283 1.94-5.838 3.692-1.178 1.326-2.015 2.797-2.56 4.498l-.317.988h-2.97l-2.968.002-.293-.642z" /><path d="M155.79 183.86c-13.103-4.39-23.89-8-23.974-8.023-.135-.038-.11-.123.226-.795.89-1.77 1.89-3.338 3.075-4.813.84-1.047 2.507-2.773 2.733-2.83.11-.027 8.288 2.67 21.097 6.956 11.505 3.85 20.926 7.007 20.935 7.014.01.007.097.543.196 1.19.23 1.5.316 4.462.173 5.895-.15 1.518-.48 3.415-.587 3.395-.027-.005-10.77-3.6-23.872-7.99z" fill="#d40000" /><ellipse cx="150" cy="200" fill="#333" opacity="0" rx="60" ry="60" /></svg>
