<svg xmlns="http://www.w3.org/2000/svg" height="400" version="1" width="300"><path d="M129.33 154.26a24.438 23.625 0 1 1 42.9.126" fill="none" stroke="#000" stroke-width="5.8" transform="matrix(1.1867 0 0 1.2275 -24.074 10.693)" /><path d="M115.97 197.17v5.612l21.954.044c1.287 5.533 6.233 9.656 12.156 9.656 5.925 0 10.87-4.12 12.156-9.656h29.844V197.17h-76.11zm46.266 0c-1.285-5.536-6.23-9.656-12.156-9.656-5.923 0-10.87 4.123-12.156 9.656h24.312zm-12.156-4.688c4.14 0 7.5 3.36 7.5 7.5s-3.36 7.5-7.5 7.5-7.5-3.36-7.5-7.5 3.36-7.5 7.5-7.5z" fill="#000407" fill-rule="evenodd" /><path d="M131.74 196.62c-2.23-4.843-2.798-10.91-1.52-16.227 1.99-8.294 7.934-15.024 15.84-17.94 13.634-5.026 28.588 2.288 33.03 16.156.85 2.653 1.143 4.614 1.14 7.624-.006 3.667-.684 7.042-2.02 10.063l-.358.81H162.34l-.3-.93c-.82-2.522-2.8-5.133-5.038-6.635-5.68-3.814-13.404-2.28-17.37 3.447-.574.827-1.71 3.352-1.713 3.807-.003.282-.263.31-2.98.31h-2.977l-.223-.487z" fill="#00d400" stroke="#000" stroke-width=".177" /><ellipse cx="150" cy="200" fill="#333" opacity="0" rx="60" ry="60" /></svg>
