<svg xmlns="http://www.w3.org/2000/svg" height="400" version="1" width="300"><path d="M129.33 154.26a24.438 23.625 0 1 1 42.9.126" fill="none" stroke="#000" stroke-width="5.8" transform="matrix(1.1867 0 0 1.2275 -24.074 10.693)" /><path d="M115.97 197.17v5.612l21.954.044c1.287 5.533 6.233 9.656 12.156 9.656 5.925 0 10.87-4.12 12.156-9.656h29.844V197.17h-76.11zm46.266 0c-1.285-5.536-6.23-9.656-12.156-9.656-5.923 0-10.87 4.123-12.156 9.656h24.312zm-12.156-4.688c4.14 0 7.5 3.36 7.5 7.5s-3.36 7.5-7.5 7.5-7.5-3.36-7.5-7.5 3.36-7.5 7.5-7.5z" fill="#000407" fill-rule="evenodd" /><path d="M163.226 158.708l.67.224-10.153 30.343-.67-.224z" fill="none" stroke="#000" /><path d="M162.23 197.02c0-.075-.13-.526-.29-1.002-1.08-3.23-3.436-5.888-6.506-7.34-.446-.213-.777-.42-.758-.474.02-.053 1.978-5.912 4.355-13.02 2.378-7.106 4.328-12.93 4.335-12.94.025-.038 1.293.475 2.24.906 2.606 1.187 5.11 2.934 7.235 5.048 3.412 3.394 5.854 7.832 6.902 12.543.51 2.296.725 5.545.51 7.71-.28 2.804-1.003 5.626-2.032 7.936l-.324.728-7.833.022c-7.19.02-7.833.01-7.833-.116z" fill="#d40000" /><path d="M131.63 196.52c-.992-2.177-1.72-4.853-2.023-7.447-.156-1.335-.177-4.032-.04-5.296.545-5.053 2.37-9.54 5.48-13.47.903-1.14 2.913-3.135 4.038-4.008 3.8-2.95 7.893-4.673 12.708-5.348 1.242-.175 5.164-.15 6.44.04 1.097.164 2.878.524 3.202.647l.203.076-4.302 12.86c-2.365 7.075-4.33 12.942-4.368 13.04-.066.173-.083.175-.643.06-.316-.063-1.124-.137-1.795-.165-3.747-.152-7.303 1.36-9.793 4.164-1.177 1.326-2.014 2.796-2.56 4.497l-.316.99h-2.968l-2.97.002-.292-.642z" fill="#fff" /><ellipse cx="150" cy="200" fill="#333" opacity="0" rx="60" ry="60" /></svg>
