<svg xmlns="http://www.w3.org/2000/svg" height="400" version="1" width="300"><path d="M129.33 154.26a24.438 23.625 0 1 1 42.9.126" fill="none" stroke="#000" stroke-width="5.8" transform="matrix(1.1867 0 0 1.2275 -24.074 10.693)" /><path d="M115.97 197.17v5.612l21.954.044c1.287 5.533 6.233 9.656 12.156 9.656 5.925 0 10.87-4.12 12.156-9.656h29.844V197.17h-76.11zm46.266 0c-1.285-5.536-6.23-9.656-12.156-9.656-5.923 0-10.87 4.123-12.156 9.656h24.312zm-12.156-4.688c4.14 0 7.5 3.36 7.5 7.5s-3.36 7.5-7.5 7.5-7.5-3.36-7.5-7.5 3.36-7.5 7.5-7.5z" fill="#000407" fill-rule="evenodd" /><path d="M138.675 197.498a19.5 19.5 0 1 1 32.07.487" fill="none" /><path d="M160.55 167.484l7.25 3.38-10.564 22.658-7.25-3.38z" fill="none" stroke="#000" stroke-linecap="round" stroke-linejoin="round" stroke-width=".1" /><path d="M131.56 196.35c-.97-2.21-1.627-4.63-1.96-7.214-.17-1.312-.145-4.818.043-6.103.71-4.88 2.476-9.05 5.358-12.656 2.36-2.953 5.174-5.208 8.674-6.95 1.734-.863 3.16-1.393 5.005-1.86 2.273-.577 3.656-.747 6.102-.753 2.244-.005 3.07.072 5.08.47 2.294.457 4.086 1.073 6.326 2.176 3.846 1.894 7.08 4.653 9.5 8.11 4.104 5.86 5.585 13.106 4.086 20.008-.347 1.598-.834 3.114-1.52 4.735l-.35.82h-3.232c-2.563 0-3.22-.02-3.17-.105.034-.058.15-.247.258-.42.107-.173.385-.69.615-1.15 1.683-3.348 2.385-7.205 1.978-10.854-.177-1.58-.407-2.64-.885-4.077-2.474-7.44-8.888-12.57-16.705-13.366-1.35-.136-3.74-.058-5.054.165-2.056.35-3.603.85-5.472 1.77-6 2.945-10.018 8.64-10.814 15.325-.152 1.276-.115 3.738.076 5.026.352 2.382 1.198 4.918 2.223 6.667.258.44.3.576.24.757l-.073.22-2.993.023-2.992.022-.345-.785z" fill="#ffd400" /><path d="M157.89 190.22c-1.618-1.3-3.662-2.222-5.68-2.558-.462-.077-.85-.15-.86-.16-.016-.015 9.055-19.51 9.1-19.556.01-.01.448.132.974.315 1.16.404 2.892 1.243 3.92 1.9.807.517 1.977 1.372 1.977 1.447 0 .05-8.32 17.922-8.663 18.605l-.223.446-.544-.438z" fill="#ffd400" /><path d="M131.85 196.9c-.45-.872-1.332-3.418-1.655-4.78-.44-1.857-.594-3.058-.645-5.008-.07-2.667.095-4.375.646-6.716.927-3.94 2.846-7.694 5.518-10.793 3.858-4.474 9.536-7.595 15.485-8.51 1.414-.218 4.303-.302 5.86-.17 4.255.358 8.592 1.93 12.28 4.452 3.536 2.417 6.32 5.643 8.294 9.61 1.662 3.34 2.508 6.725 2.622 10.486.114 3.767-.526 7.178-2.014 10.734-.36.86-.378.884-.66.913-.158.016-1.583.002-3.166-.03l-2.878-.06.197-.313c.663-1.05 1.573-3.18 1.966-4.6.53-1.92.684-2.9.747-4.79.084-2.514-.217-4.603-.994-6.904-.978-2.894-2.59-5.508-4.7-7.625-3.654-3.666-8.555-5.717-13.66-5.717-2.5 0-4.33.27-6.322.935-4.98 1.663-9.027 5.126-11.35 9.714-1.034 2.04-1.617 3.882-1.966 6.21-.144.956-.17 4.014-.044 5.07.265 2.212 1.094 4.908 2.08 6.764.336.634.45.93.413 1.075l-.05.2H135.3c-1.406 0-2.728.024-2.938.053-.362.05-.39.04-.513-.198z" fill="#ffd400" /><path d="M131.85 196.9c-.487-.94-1.33-3.395-1.687-4.917-.512-2.172-.594-2.952-.595-5.67-.002-2.756.064-3.423.55-5.557.88-3.882 2.568-7.407 5.015-10.48.745-.936 2.827-3.02 3.734-3.736 2.528-1.998 5.403-3.556 8.25-4.47 2.482-.798 4.447-1.133 7.028-1.2 2.714-.068 4.476.125 7.038.77 4.903 1.237 9.763 4.255 12.98 8.06 3.824 4.524 5.923 9.956 6.094 15.77.112 3.793-.517 7.14-2.017 10.735l-.368.882-.457.028c-.25.016-1.675.002-3.163-.03l-2.707-.06.3-.51c1.118-1.91 2.053-4.582 2.42-6.92.188-1.207.252-3.497.132-4.756-.503-5.294-3.177-10.243-7.338-13.58-.213-.17-.412-.285-.442-.255-.03.03.1.168.288.306.22.163.33.3.304.388-.037.13-8.723 18.797-8.77 18.847-.012.013-.346-.22-.74-.52-1.632-1.228-3.232-1.943-5.312-2.37-.515-.104-.93-.223-.922-.262.012-.062 8.95-19.31 8.993-19.37.008-.013.25.05.534.138.285.09.536.133.558.097.042-.068-1.626-.574-2.608-.79-2.2-.485-5.463-.52-7.745-.087-1.005.192-2.42.6-3.368.972-6.707 2.63-11.394 8.55-12.382 15.64-.107.765-.127 1.43-.096 3.12.036 1.894.066 2.267.26 3.178.444 2.096 1.13 4.08 1.92 5.563.306.57.407.842.37.99l-.05.2-2.377.002c-1.307 0-2.628.024-2.936.053-.557.053-.56.052-.69-.198zm34.627-26.032c0-.045-.08-.123-.175-.175-.16-.085-.167-.078-.08.08.095.18.255.24.255.095zm-.927-.68c-.19-.145-.42-.217-.42-.13 0 .065.544.376.586.333.024-.022-.05-.114-.166-.202zm-.63-.333c.028-.046.012-.084-.037-.084s-.09.04-.09.085.017.084.038.084.06-.04.09-.085zm-.295-.172c0-.048-.54-.346-1.2-.662-1.426-.683-1.472-.7-1.546-.58-.036.057-.02.07.038.034.054-.033.097-.018.097.034s.036.072.08.046.1-.01.13.038.09.065.133.04c.043-.028.078-.017.078.024 0 .06.854.468 1.01.484.024.002.137.065.253.14.184.12.848.477.904.487.012.002.02-.036.02-.084z" fill="#d40000" /><path d="M137.5 195.59c-.813-1.616-1.367-3.244-1.804-5.3-.195-.922-.223-1.276-.26-3.274-.037-2.026-.023-2.348.143-3.352 1.073-6.5 4.978-11.763 10.816-14.577 2.93-1.412 5.235-1.928 8.614-1.928 1.58 0 2.736.122 4.08.43.428.1.864.198.968.22.104.024.19.05.19.06 0 .008-2.058 4.426-4.573 9.817l-4.573 9.802-.488-.028c-1.413-.077-3.76.33-5.198.9-2.1.834-4.234 2.513-5.528 4.346-.552.784-1.398 2.43-1.663 3.24-.083.256-.173.492-.2.526-.027.034-.264-.364-.525-.884zM161.99 196.18c-.544-1.727-1.523-3.4-2.778-4.747l-.58-.62.17-.4c.4-.94 8.623-18.503 8.698-18.578.107-.107 2.13 1.943 2.836 2.874 1.936 2.555 3.265 5.604 3.81 8.74.227 1.298.31 3.768.174 5.097-.27 2.618-1.125 5.355-2.366 7.58-.243.436-.443.84-.445.897-.004.083-.984.106-4.613.106h-4.608l-.3-.95z" fill="#ffd400" /><ellipse cx="150" cy="200" fill="#333" opacity="0" rx="60" ry="60" /></svg>
