<svg xmlns="http://www.w3.org/2000/svg" height="400" version="1" width="300"><path d="M129.33 154.26a24.438 23.625 0 1 1 42.9.126" fill="none" stroke="#000" stroke-width="5.8" transform="matrix(1.1867 0 0 1.2275 -24.074 10.693)" /><path d="M115.97 197.17v5.612l21.954.044c1.287 5.533 6.233 9.656 12.156 9.656 5.925 0 10.87-4.12 12.156-9.656h29.844V197.17h-76.11zm46.266 0c-1.285-5.536-6.23-9.656-12.156-9.656-5.923 0-10.87 4.123-12.156 9.656h24.312zm-12.156-4.688c4.14 0 7.5 3.36 7.5 7.5s-3.36 7.5-7.5 7.5-7.5-3.36-7.5-7.5 3.36-7.5 7.5-7.5z" fill="#000407" fill-rule="evenodd" /><path d="M131.75 196.62c-1.272-2.49-2.232-6.92-2.23-10.3 0-6.783 2.722-13.338 7.486-18.028 4.088-4.024 8.987-6.436 14.746-7.262 2.1-.3 6.044-.13 8.336.36 7.683 1.64 14.11 6.65 17.58 13.704 1.705 3.46 2.383 6.198 2.525 10.192.14 3.917-.362 6.925-1.734 10.398l-.562 1.42h-15.642l-.112-.59c-.06-.324-.42-1.22-.796-1.988-3.362-6.863-11.752-9.168-18.178-4.994-2.123 1.378-4.29 4.18-4.994 6.463l-.316 1.02-2.93.048-2.93.05-.25-.492z" fill="#ffd400" /><ellipse cx="150" cy="200" fill="#333" opacity="0" rx="60" ry="60" /></svg>
