<svg xmlns="http://www.w3.org/2000/svg" height="400" version="1" width="300"><path d="M155 153.656c-11.247-.034-22.088 6.107-27.906 15.844-4.948 8.28-5.88 18.612-2.72 27.656h-8.405v5.625l21.968.032c1.287 5.533 6.233 9.657 12.156 9.657 5.925 0 10.87-4.122 12.156-9.658h29.844V197.156h-6.656c3.134-8.98 2.24-19.246-2.625-27.5-5.76-9.772-16.566-15.966-27.813-16zm-.03 7.125c8.766.028 17.596 5.125 22 12.595 4.162 7.063 4.502 16.368 1 23.78h-15.72c-1.285-5.534-6.232-9.655-12.156-9.655-5.923 0-10.87 4.123-12.156 9.656h-6.094c-3.52-7.458-3.135-16.86 1.094-23.937 4.448-7.445 13.263-12.465 22.03-12.44zm-4.876 31.69c4.14 0 7.5 3.36 7.5 7.5 0 4.14-3.36 7.5-7.5 7.5-4.14 0-7.5-3.36-7.5-7.5 0-4.14 3.36-7.5 7.5-7.5z" /><ellipse cx="150" cy="200" fill="#333" opacity="0" rx="60" ry="60" /></svg>
