<svg xmlns="http://www.w3.org/2000/svg" height="400" version="1" width="300"><path d="M129.33 154.26a24.438 23.625 0 1 1 42.9.126" fill="none" stroke="#000" stroke-width="5.8" transform="matrix(1.1867 0 0 1.2275 -24.074 10.693)" /><path d="M115.97 197.17v5.612l21.954.044c1.287 5.533 6.233 9.656 12.156 9.656 5.925 0 10.87-4.12 12.156-9.656h29.844V197.17h-76.11zm46.266 0c-1.285-5.536-6.23-9.656-12.156-9.656-5.923 0-10.87 4.123-12.156 9.656h24.312zm-12.156-4.688c4.14 0 7.5 3.36 7.5 7.5s-3.36 7.5-7.5 7.5-7.5-3.36-7.5-7.5 3.36-7.5 7.5-7.5z" fill="#000407" fill-rule="evenodd" /><path d="M131.233 171.06l.132-.393 49.98 16.723-.13.393z" fill="none" stroke="#000" /><path d="M131.51 196.25c-.968-2.28-1.56-4.49-1.927-7.177-.164-1.205-.137-4.668.046-5.977.42-3.018 1.27-5.793 2.533-8.292.534-1.056 1.316-2.402 1.39-2.394.023.003 10.536 3.52 23.36 7.814l23.32 7.81-.023.54c-.087 2.16-.883 5.205-2.128 8.138l-.188.442H162.3l-.314-.972c-1.26-3.873-4.145-6.792-7.976-8.07-1.374-.458-2.265-.594-3.915-.595-1.048 0-1.656.04-2.272.156-2.53.474-4.74 1.64-6.568 3.462-1.63 1.626-2.6 3.305-3.306 5.724l-.075.252-2.99.022-2.99.022-.384-.906z" /><path d="M157.42 178.82l-22.913-7.676c-.31-.106 3.084-3.697 4.604-4.87 3.695-2.85 7.62-4.54 12.165-5.236 1.423-.22 4.234-.298 5.76-.163 7.83.692 14.78 4.835 19.122 11.397.837 1.265 2.102 3.778 2.634 5.235.67 1.828 1.184 4.03 1.396 5.977.133 1.22.206 2.99.122 2.983-.04-.003-10.34-3.444-22.888-7.647z" fill="#ffd400" /><ellipse cx="150" cy="200" fill="#333" opacity="0" rx="60" ry="60" /></svg>
