<svg xmlns="http://www.w3.org/2000/svg" height="400" version="1" width="300"><path d="M108.47 177.5l-.72 1.375-10 20-.53 1.125.53 1.125 10 20 .72 1.375h83.06l.72-1.375 10-20 .53-1.125-.53-1.125-10-20-.72-1.375h-83.06zm3.093 5h76.874l8.75 17.5-8.75 17.5h-76.875l-8.75-17.5 8.75-17.5zM150 187.438c-3.32 0-6.536 1.332-8.875 3.687-2.33 2.348-3.64 5.567-3.625 8.875v.03c-.015 3.31 1.294 6.497 3.625 8.845 2.34 2.355 5.556 3.687 8.875 3.687 3.32 0 6.536-1.332 8.875-3.687 2.33-2.348 3.64-5.536 3.625-8.844V200c.015-3.308-1.294-6.527-3.625-8.875-2.34-2.355-5.556-3.688-8.875-3.688zm0 5c1.94 0 3.945.842 5.313 2.218 1.367 1.377 2.2 3.404 2.187 5.344v.03c.013 1.94-.82 3.937-2.188 5.314-1.367 1.376-3.372 2.218-5.312 2.218-1.94 0-3.945-.842-5.313-2.218-1.367-1.377-2.2-3.373-2.187-5.313V200c-.013-1.94.82-3.967 2.188-5.344 1.367-1.376 3.372-2.22 5.312-2.22z" /><ellipse cx="150" cy="200" fill="#333" opacity="0" rx="80" ry="80" /></svg>
