<svg xmlns="http://www.w3.org/2000/svg" height="400" version="1" width="300"><path d="M120.01 155.216L99.967 197.23l-3.976-.03.053 5.67 41.716-.014c1.286 5.533 6.232 9.656 12.155 9.656 5.925 0 10.87-4.12 12.156-9.656h41.976V197.2l-4.013-.03-19.966-41.923-60.06-.03zm3.702 5.663l52.842-.063 17.575 36.402-32.06-.02c-1.284-5.535-6.23-9.655-12.155-9.655-5.923 0-10.87 4.123-12.156 9.656l-31.806.014 17.758-36.334zm26.204 31.633c4.14 0 7.5 3.36 7.5 7.5 0 4.14-3.36 7.5-7.5 7.5-4.14 0-7.5-3.36-7.5-7.5 0-4.14 3.36-7.5 7.5-7.5z" /><ellipse cx="150" cy="200" fill="#333" opacity="0" rx="80" ry="80" /></svg>
