<svg xmlns="http://www.w3.org/2000/svg" height="400" version="1" width="300"><path d="M120.01 155.216L99.967 197.23l-3.976-.03.053 5.67 41.716-.014c1.286 5.533 6.232 9.656 12.155 9.656 5.925 0 10.87-4.12 12.156-9.656h41.976V197.2l-4.013-.03-19.966-41.923-60.06-.03zm3.702 5.663l52.842-.063 17.575 36.402-32.06-.02c-1.284-5.535-6.23-9.655-12.155-9.655-5.923 0-10.87 4.123-12.156 9.656l-31.806.014 17.758-36.334zm26.204 31.633c4.14 0 7.5 3.36 7.5 7.5s-3.36 7.5-7.5 7.5-7.5-3.36-7.5-7.5 3.36-7.5 7.5-7.5z" fill="#000407" fill-rule="evenodd" /><path d="M109.12 191.25c1.512-3.145 5.45-11.22 8.75-17.944l5.997-12.226 26.325.008 26.325.008 8.358 17.385c4.597 9.563 8.454 17.634 8.57 17.937.19.496-1.378.55-15.492.55H162.25l-.352-.966c-1.21-3.32-3.423-5.812-6.506-7.326-1.87-.92-2.456-1.03-5.44-1.03-2.926 0-3.604.123-5.452.988-2.616 1.224-5.115 3.81-6.192 6.41l-.8 1.926H106.37l2.75-5.717z" fill="#ffd400" /><ellipse cx="150" cy="200" fill="#333" opacity="0" rx="80" ry="80" /></svg>
