<svg xmlns="http://www.w3.org/2000/svg" height="400" width="300"><path color="#000" d="M112.97 176.03l-2.032 3.44 12.937 7.56v25.907l-13.125 7.688 2 3.47 12.625-7.376h49.25l12.625 7.374 2-3.47-13-7.593v-26.06l12.813-7.5-2.032-3.44-12.655 7.407h-48.749l-12.657-7.406zm19.56 11.44h34.94L150 197.687l-17.47-10.22zm39.72 1.843v21.375L153.97 200l18.28-10.688zm-44.344.093L146.03 200l-18.124 10.594v-21.188zM150 202.312l17.813 10.407h-35.625L150 202.312z" font-family="Sans" overflow="visible" style="text-indent:0;text-align:start;line-height:normal;text-transform:none;block-progression:tb;-inkscape-font-specification:Sans" /><ellipse cx="150" cy="200" fill="#333" opacity="0" rx="80" ry="80" /></svg>
