<svg xmlns="http://www.w3.org/2000/svg" height="86" viewBox="0 0 1 1" width="86" version="1" preserveAspectRatio="none"><title>SVG drawing</title><desc>This was produced by version 4.2 of GNU libplot, a free library for exporting 2-D vector graphics.</desc><g fill-rule="even-odd" stroke="#000" stroke-miterlimit="10.433" fill="none"><path fill="#231f20" d="M.274.87C.314.87.352.836.352.797v-.29c0-.014.01-.024.024-.024h.058v.385L.74.863v-.66C.74.168.712.14.677.14h-.18C.462.14.434.168.434.203V.21c0 .04 0 .23.004.232h-.06C.34.442.31.47.31.506v.29c0 .02-.02.035-.038.035C.254.83.23.816.23.79L.263.622.268.566.263.4h.014C.307.4.333.377.333.347L.33.26S.383.21.383.202c0 0-.02-.02-.027-.02L.253.286C.237.3.23.32.23.345v.22l-.007.05L.19.796C.19.84.234.87.274.87zM.124.004h.757c.067 0 .12.053.12.118v.756c0 .066-.053.12-.12.12H.126C.06.997.007.943.007.877V.122C.007.057.06.004.125.004z" stroke-width=".00804"/><path fill="#fff" d="M.88.024c.056 0 .1.044.1.098v.756c0 .055-.044.1-.1.1H.126C.07.977.027.932.027.877V.122C.027.068.07.024.125.024H.88z" stroke-width=".00804"/><path stroke="none" d="M-.445.756h.097" stroke-width=".00174"/><path fill="#fff" d="M.547.332H.533L.53.33H.527L.524.327H.52L.52.325H.515L.512.322.51.32H.506L.504.318.502.316.5.313.497.31H.495L.493.306.49.304V.3H.488V.295L.484.293V.29L.482.287V.284L.48.28V.27C.48.232.51.202.547.202c.035 0 .064.03.064.065C.61.304.583.332.548.332z" stroke="none" stroke-width=".00174"/><g stroke-miterlimit="4"><path d="M.152.733H.87M.512.145L.51.695" stroke-width=".03642"/><path d="M.617.743C.617.803.57.85.51.85S.405.803.405.744.45.637.51.637s.107.047.107.106z" fill-rule="evenodd" stroke-width=".0364156" fill="#fff"/><path d="M.373.584L.647.582M.373.305L.648.303M.34.444h.34" stroke-width=".03642"/></g></g></svg>
