<svg xmlns="http://www.w3.org/2000/svg" xmlns:xlink="http://www.w3.org/1999/xlink" width="60" height="60"><symbol id="a"><rect width="58" height="58" rx="10" ry="10" x="1" y="1" fill="#fff" fill-opacity=".5" stroke="#a30075" stroke-width="2"/><path fill="#a30075" d="M28 10h4v40h-4zM44.656 7.396c-2.096 0-3.788 1.722-3.788 3.854 0 2.13 1.692 3.853 3.788 3.853s3.822-1.722 3.822-3.853c0-2.132-1.726-3.854-3.822-3.854zm-29.452.402c-2.096 0-3.822 1.722-3.822 3.854s1.726 3.853 3.822 3.853 3.79-1.72 3.79-3.853c0-2.132-1.694-3.854-3.79-3.854zm33.867 9.416l-9.75.067-2.867 2.614.23 14.207 2.735-.066-.165-11.29h1.516l.164 29.485 2.47.166.33-17.892 1.35.1.56 17.658 2.67-.067-.034-29.687 1.417.134.33 11.56 2.8.067-.56-14.543-3.196-2.513zM10 17.38L4.825 32.963l2.24.905 3.658-11.057 1.054.167-4.15 15.85 3.49.066.495 13.235h2.306l.394-12.967h1.45l.23 12.9h2.34l.23-13 3.822-.066-4.15-15.514 1.12-.67 3.36 11.224 2.47-1.373-5.04-14.977L10 17.38z"/></symbol><use xlink:href="#a"/></svg>
