<svg xmlns="http://www.w3.org/2000/svg" height="320" version="1" width="320"><path d="M197.08 41.894l-5.6 16.718 4.03 1.313 5.6-16.687-4.03-1.344zm27.21-31.98l-26.43-8.79-11.57 33.79 26.42 8.636 11.58-33.637z" fill="#d40000" fill-rule="evenodd" /><path d="M110.58 11.63h6.637v6.84h-6.637z" fill="#fff" fill-rule="evenodd" stroke="#fff" /><path d="M193.8 12.753l26.65 8.577M191.45 20.105l26.45 8.475" fill="none" stroke="#fff" /><path d="M204.7 23.79c-7.16-2.303-13.03-4.202-13.05-4.223-.03-.027 1.98-6.087 2.07-6.243.02-.024 26.33 8.444 26.38 8.486.01.016-.45 1.414-1.02 3.107-.77 2.252-1.09 3.076-1.2 3.068-.09-.006-6.02-1.894-13.18-4.196z" fill="#fff" fill-rule="evenodd" stroke="#fff" stroke-width=".102" /><rect fill="#333" height="380" opacity="0" width="150" x="85" y="-30" /></svg>
