<svg xmlns="http://www.w3.org/2000/svg" height="400" version="1" width="300"><path d="M174.938 112.137c-9.357 0-17 7.643-17 17s7.643 17 17 17 17-7.644 17-17-7.643-17-17-17zm0 5c6.65 0 12 5.348 12 12s-5.35 12-12 12-12-5.35-12-12 5.35-12 12-12z" fill="#000407" fill-rule="evenodd" /><path d="M167.34 144.33l-5.593 16.72 4.03 1.313 5.595-16.687-4.03-1.344z" fill="#000407" fill-rule="evenodd" /><path d="M174.01 141.06c-4.7-.377-8.68-3.402-10.32-7.845-.47-1.273-.692-2.585-.69-4.093 0-3.25 1.184-6.112 3.475-8.412 1.853-1.86 4.08-2.99 6.722-3.41.775-.123 2.86-.106 3.656.03 3.86.667 7.09 3.05 8.79 6.49.802 1.623 1.16 3.08 1.22 4.958.124 3.865-1.574 7.483-4.603 9.808-1.323 1.016-2.892 1.782-4.407 2.154-1.153.283-2.7.412-3.843.32z" fill="#d40000" stroke="#000" stroke-width=".063" /><rect fill="#333" height="380" opacity="0" width="100" x="100" y="10" /></svg>
