<svg xmlns="http://www.w3.org/2000/svg" height="400" version="1" width="300"><path d="M194.727 49.776c-9.357 0-17 7.644-17 17s7.643 17 17 17 17-7.643 17-17-7.643-17-17-17zm0 5c6.65 0 12 5.35 12 12s-5.35 12-12 12-12-5.348-12-12 5.35-12 12-12z" fill="#000407" fill-rule="evenodd" /><path d="M187.13 81.97l-5.594 16.72 4.03 1.313 5.595-16.687-4.03-1.344z" fill="#000407" fill-rule="evenodd" /><path d="M192.72 78.556c-3.702-.672-6.972-3.11-8.637-6.442-1.257-2.516-1.6-5.638-.91-8.292 2.063-7.922 11.34-11.49 18.117-6.97 2.4 1.602 4.08 3.885 4.9 6.664.393 1.336.537 3.714.312 5.154-.722 4.62-4.15 8.37-8.823 9.66-.985.273-3.96.408-4.96.226z" fill="#d40000" stroke="#000" stroke-width=".125" /><rect fill="#333" height="380" opacity="0" width="150" x="75" y="10" /></svg>
