<svg xmlns="http://www.w3.org/2000/svg" height="400" version="1" width="300"><path d="M150.09 75.23l-18.17 36.964 36.22-.004-18.006-36.96h-.044zm-.025 10.443l11.117 21.535-22.19-.07 11.073-21.465z" fill="#000407" fill-rule="evenodd" /><path d="M147.872 112.06v14.267h4.25V112.06h-4.25z" fill="#000407" fill-rule="evenodd" /><path d="M149.24 107.14c-5.567-.012-10.123-.046-10.123-.075 0-.073 10.777-20.962 10.893-21.115.073-.096 1.263 2.147 5.564 10.486 3.01 5.834 5.484 10.644 5.5 10.687.017.048-.32.07-.842.06-.478-.012-5.425-.032-10.992-.043z" fill="#ffd400" stroke="#000" stroke-width=".084" /><rect fill="#333" height="300" opacity="0" width="100" x="100" y="50" /></svg>
