<svg xmlns="http://www.w3.org/2000/svg" height="320" version="1" width="320"><path d="M160.29 95.163v20.057" fill="none" stroke="#000" stroke-width="2.895" /><path d="M176.188 59.95l-31.437-.136-.556 35.71 31.374-.002.62-35.57z" fill="#d40000" fill-rule="evenodd" /><path d="M193.85 12.62l26.56 8.843M190.89 21.4l26.41 8.736" fill="none" stroke="#fff" transform="matrix(1.0728 -.31085 .35087 .95046 -67.908 120.25)" /><path d="M157.24 80.744c-7.02-.024-12.76-.05-12.77-.06-.03-.028.1-8.058.13-8.098.02-.03 31.31.08 31.34.11 0 .005-.02 1.672-.06 3.706-.04 2.035-.07 3.857-.07 4.05l-.01.352-2.9-.01c-1.6-.003-8.64-.027-15.66-.05z" fill="#fff" fill-rule="evenodd" stroke="#fff" stroke-width=".052" transform="matrix(1 0 0 1 0 -.003)" /><rect fill="#333" height="380" opacity="0" width="100" x="110" y="-30" /></svg>
