<svg xmlns="http://www.w3.org/2000/svg" height="400" version="1" width="300"><path d="M150.084 74.81c-9.357 0-17 7.643-17 17s7.643 17 17 17 17-7.643 17-17-7.643-17-17-17zm0 5c6.65 0 12 5.35 12 12s-5.35 12-12 12-12-5.35-12-12 5.35-12 12-12z" fill="#000407" fill-rule="evenodd" /><path d="M147.872 108.608v17.72h4.25v-17.72h-4.25z" fill="#000407" fill-rule="evenodd" /><path d="M135.94 90.97h27.25v1.02h-27.25z" /><path d="M138.16 90.864c0-.56.383-2.247.722-3.184.762-2.103 2.458-4.322 4.28-5.6 5.285-3.704 12.58-2.58 16.433 2.533 1.163 1.544 2.134 3.9 2.3 5.579l.07.73h-11.902c-6.547 0-11.903-.027-11.903-.058z" fill="#d40000" /><path d="M148.75 103.67c-2.854-.302-5.834-1.877-7.705-4.075-1.638-1.924-2.664-4.338-2.845-6.699l-.066-.852h23.922l-.062.638c-.323 3.31-1.685 6.02-4.085 8.127-1.875 1.645-4.037 2.583-6.6 2.863-1.1.12-1.402.12-2.56-.003z" fill="#00d400" /><rect fill="#333" height="380" opacity="0" width="100" x="100" y="10" /></svg>
