<svg xmlns="http://www.w3.org/2000/svg" height="400" version="1" width="300"><path d="M192.345 68.333l-12.076 36.093 4.03 1.348 12.076-36.092-4.03-1.35z" fill="#000407" fill-rule="evenodd" /><g fill="none"><path d="M174.47 72.837l17.874-9.062L183.28 45.9l4.46-2.28 9.4 17.996 17.89-9.088 2.268 4.485-18.213 8.965 9.062 17.875-4.133 2.38-9.4-17.998-17.876 9.074-2.27-4.472z" stroke="#000" /><path d="M193.946 69.063l.47-.26.216.405c.12.224.24.453.273.51.055.1.033.095-.686-.146l-.744-.248.47-.26zM189.06 78.242c1.373-4.102 2.625-7.885 2.783-8.405l.286-.946 2.034.683 2.036.68-.307.828c-.17.456-1.445 4.23-2.836 8.387l-2.53 7.56-1.98-.663-1.982-.663 2.496-7.458z" /></g><path d="M203.65 84.275c-3.493-6.532-7.327-14.066-7.305-14.357.018-.244-.043-.356-.22-.402-.153-.04-.422-.423-.716-1.015-.26-.522-.516-.95-.572-.95-.055 0-.498.2-.984.445-.66.333-.973.425-1.242.366-.305-.066-.37-.033-.433.218-.06.236-.6.56-2.724 1.63-1.457.733-4.86 2.456-7.56 3.828l-4.91 2.495-.867-1.73-.867-1.73 8.84-4.464c4.86-2.455 8.877-4.5 8.925-4.54.047-.044-1.936-4.06-4.407-8.93s-4.49-8.89-4.49-8.937c0-.153 3.308-1.764 3.41-1.663.054.054 2.152 4.03 4.662 8.836s4.613 8.788 4.674 8.85c.064.063 3.843-1.784 9.014-4.407 4.897-2.485 8.917-4.503 8.932-4.485.052.06 1.682 3.34 1.682 3.387 0 .025-4.036 2.03-8.97 4.456-4.932 2.427-9.016 4.455-9.075 4.51-.06.052 1.922 4.1 4.405 8.998 2.482 4.897 4.514 8.918 4.514 8.936 0 .018-.578.358-1.282.755-.705.398-1.402.8-1.55.894-.256.165-.293.124-.888-.99z" fill="#d40000" stroke="#000" stroke-width=".125" /><rect fill="#333" height="380" opacity="0" width="150" x="75" y="10" /></svg>
