<svg xmlns="http://www.w3.org/2000/svg" height="400" version="1" width="300"><path d="M149.907 108.285c-9.357 0-17 7.643-17 17s7.643 17 17 17 17-7.643 17-17-7.643-17-17-17zm0 5c6.65 0 12 5.35 12 12s-5.35 12-12 12-12-5.35-12-12 5.35-12 12-12z" fill="#000407" fill-rule="evenodd" /><path d="M147.848 142.056v13.277h4.25v-13.277h-4.25z" fill="#000407" fill-rule="evenodd" /><path d="M148.49 137.13c-4.786-.604-8.82-4.06-10.056-8.613-1.18-4.348.104-8.95 3.332-11.937 2.15-1.99 4.71-3.05 7.672-3.174 5.702-.24 10.55 3.42 12.065 9.105.316 1.186.38 3.526.135 4.83-.8 4.24-3.53 7.533-7.544 9.107-1.548.606-3.92.896-5.605.683z" fill="#d40000" stroke="#000" stroke-width=".124" /><rect fill="#333" height="380" opacity="0" width="100" x="100" y="10" /></svg>
