<svg xmlns="http://www.w3.org/2000/svg" height="400" version="1" width="300"><path d="M168.06 143.11l-6.156 18.345c.027-.033 4.146.9 4.187.906l6-17.874-4.03-1.375zm-13.33-4.267l26.125-25.638 4.787 35.963-30.912-10.325m8.157-1.98l17.406 5.843-2.813-20.22-14.594 14.376z" fill="#000407" fill-rule="evenodd" /><path d="M171.55 139.74c-4.69-1.58-8.536-2.88-8.548-2.892s2.6-2.606 5.807-5.764 6.462-6.368 7.237-7.132l1.408-1.39 1.365 9.826c.75 5.404 1.38 9.917 1.397 10.03.023.146.008.2-.054.197-.048-.003-3.924-1.297-8.613-2.875z" fill="#ffd400" stroke="#000" stroke-width=".063" /><rect fill="#333" height="300" opacity="0" width="100" x="100" y="50" /></svg>
