<svg xmlns="http://www.w3.org/2000/svg" height="400" version="1" width="300"><path d="M150.084 74.81c-9.357 0-17 7.643-17 17s7.643 17 17 17 17-7.643 17-17-7.643-17-17-17zm0 5c6.65 0 12 5.35 12 12s-5.35 12-12 12-12-5.35-12-12 5.35-12 12-12z" fill="#000407" fill-rule="evenodd" /><path d="M147.872 108.608v17.72h4.25v-17.72h-4.25z" fill="#000407" fill-rule="evenodd" /><path d="M145.22 102.35c-6.37-3.522-8.532-11.075-4.79-16.728 4.383-6.624 13.106-7.155 18.404-1.12 6.524 7.43 1.06 18.678-9.042 18.614-1.774-.012-3.83-.356-4.572-.766z" fill="none" stroke="#000" stroke-width=".673" /><rect fill="#333" height="380" opacity="0" width="100" x="100" y="10" /></svg>
