<svg xmlns="http://www.w3.org/2000/svg" height="400" version="1" width="300"><path d="M150.084 74.81c-9.357 0-17 7.643-17 17s7.643 17 17 17 17-7.643 17-17-7.643-17-17-17zm0 5c6.65 0 12 5.35 12 12s-5.35 12-12 12-12-5.35-12-12 5.35-12 12-12z" fill="#000407" fill-rule="evenodd" /><path d="M147.872 108.608v17.72h4.25v-17.72h-4.25z" fill="#000407" fill-rule="evenodd" /><path d="M149.18 103.71c-3.813-.258-7.324-2.422-9.367-5.772-1.54-2.524-2.06-5.93-1.358-8.872 1.214-5.087 5.565-8.793 10.74-9.15 6.977-.48 12.82 4.94 12.82 11.898 0 2.953-1.045 5.7-3.02 7.934-2.454 2.778-6.023 4.22-9.815 3.962z" fill="#d40000" stroke="#000" stroke-width=".084" /><rect fill="#333" height="380" opacity="0" width="100" x="100" y="10" /></svg>
