<svg xmlns="http://www.w3.org/2000/svg" height="400" version="1" width="300"><path d="M213.29 53.15l-26.426-8.79L175.29 78.15l26.424 8.638L213.29 53.15zm-6.063 3.61l-8.013 23.976-17.088-6.2 8.013-23.975 17.087 6.2z" fill="#000407" fill-rule="evenodd" /><path d="M187.13 81.97l-5.594 16.72 4.03 1.313 5.595-16.687-4.03-1.344z" fill="#000407" fill-rule="evenodd" /><path d="M190.62 77.547c-4.503-1.643-8.238-3.006-8.3-3.03-.08-.028 7.694-23.56 7.868-23.813.033-.05 16.72 5.99 16.84 6.093.052.045-1.686 5.408-3.862 11.918-3.09 9.248-4 11.835-4.157 11.828-.112-.005-3.887-1.353-8.39-2.996z" fill="none" stroke="#000" stroke-width=".125" /><rect fill="#333" height="380" opacity="0" width="150" x="75" y="10" /></svg>
