<svg xmlns="http://www.w3.org/2000/svg" height="400" version="1" width="300"><path d="M194.727 49.776c-9.357 0-17 7.644-17 17s7.643 17 17 17 17-7.643 17-17-7.643-17-17-17zm0 5c6.65 0 12 5.35 12 12s-5.35 12-12 12-12-5.348-12-12 5.35-12 12-12z" fill="#000407" fill-rule="evenodd" /><path d="M187.13 81.97l-5.594 16.72 4.03 1.313 5.595-16.687-4.03-1.344z" fill="#000407" fill-rule="evenodd" /><path d="M182.377 61.677l24.81 8.302-.307.92-24.81-8.3z" /><path d="M195 65.856c-6.1-2.043-11.127-3.748-11.17-3.79-.043-.04.103-.413.336-.85 1.84-3.46 5.116-5.746 8.978-6.268 2.215-.3 4.348.006 6.423.92 4.898 2.155 7.807 7.467 6.963 12.714-.15.928-.174 1-.332.993-.058-.003-5.097-1.676-11.198-3.72z" fill="#d40000" /><path d="M193.8 78.675c-1.677-.123-3.493-.676-4.945-1.507-4.75-2.717-7.044-8.17-5.663-13.458.074-.28.155-.532.18-.558.027-.025 5.138 1.654 11.36 3.733l11.31 3.78-.178.453c-.974 2.47-2.803 4.61-5.122 5.987-1.333.792-3.398 1.447-4.853 1.54-.414.027-.85.06-.973.072s-.624-.006-1.117-.042z" fill="#00d400" /><rect fill="#333" height="380" opacity="0" width="150" x="75" y="10" /></svg>
