<svg xmlns="http://www.w3.org/2000/svg" height="400" version="1" width="300"><path d="M174.938 112.137c-9.357 0-17 7.643-17 17s7.643 17 17 17 17-7.644 17-17-7.643-17-17-17zm0 5c6.65 0 12 5.348 12 12s-5.35 12-12 12-12-5.35-12-12 5.35-12 12-12z" fill="#000407" fill-rule="evenodd" /><path d="M167.34 144.33l-5.593 16.72 4.03 1.313 5.595-16.687-4.03-1.344z" fill="#000407" fill-rule="evenodd" /><path d="M162.694 124.43l24.587 8.227-.293.88-24.587-8.228z" /><path d="M175.14 128.56c-6.158-2.062-11.224-3.776-11.26-3.81-.152-.143.904-2.026 1.713-3.053 3.145-3.994 8.638-5.528 13.474-3.764 4.665 1.703 7.824 6.24 7.814 11.22 0 1.133-.315 3.175-.484 3.16-.033-.002-5.098-1.69-11.256-3.753z" fill="#d40000" /><path d="M173.08 140.95c-2.58-.456-4.794-1.585-6.557-3.343-2.16-2.156-3.353-4.856-3.512-7.96-.068-1.344.26-3.798.52-3.867.044-.012 5.137 1.673 11.318 3.743 10.118 3.39 11.235 3.78 11.21 3.93-.014.09-.19.507-.394.923-1.614 3.325-4.627 5.657-8.376 6.484-.853.188-3.352.24-4.21.09z" fill="#00d400" /><rect fill="#333" height="380" opacity="0" width="100" x="100" y="10" /></svg>
