<svg xmlns="http://www.w3.org/2000/svg" height="400" version="1" width="300"><g fill="#000407" fill-rule="evenodd"><path d="M166.68 144.025l-5.53 17.125 3.968 1.28 5.53-17.124-3.968-1.28z" /><path d="M166.88 107.007l-11.164 33.534 26.21 8.727 11.165-33.534-26.21-8.726zm3.165 6.323l16.723 5.567-8.005 24.046-16.723-5.567 8.005-24.046z" /></g><path d="M170.37 140.12c-4.516-1.51-8.225-2.757-8.24-2.773-.024-.023 7.895-23.89 7.948-23.958.01-.012 16.27 5.394 16.577 5.51.104.04-7.863 23.936-7.986 23.952-.05.006-3.784-1.223-8.3-2.73z" fill="#d40000" stroke="#000" stroke-width=".063" /><rect fill="#333" height="300" opacity="0" width="100" x="100" y="50" /></svg>
