<svg xmlns="http://www.w3.org/2000/svg" height="400" version="1" width="300"><path d="M149.9 108.285c-9.357 0-17 7.643-17 17s7.643 17 17 17 17-7.643 17-17-7.643-17-17-17zm0 5c6.65 0 12 5.35 12 12s-5.35 12-12 12-12-5.35-12-12 5.35-12 12-12z" fill="#000407" fill-rule="evenodd" /><path d="M147.84 142.06v13.276h4.25V142.06h-4.25z" fill="#000407" fill-rule="evenodd" /><path d="M135 125h30" fill="none" stroke="#000" /><path d="M138.08 123.72c.24-1.978 1.227-4.244 2.588-5.94 1.62-2.022 3.758-3.368 6.548-4.125 1.264-.343 4.207-.313 5.598.057 1.465.39 3.597 1.476 4.702 2.395 2.24 1.864 3.893 4.85 4.203 7.593l.083.735h-23.81l.086-.715z" fill="#d40000" /><path d="M148.41 137.11c-1.812-.248-3.814-1.006-5.26-1.992-1.372-.937-2.867-2.6-3.7-4.114-.782-1.423-1.44-3.69-1.44-4.966v-.487h23.797l-.073 1.027c-.082 1.166-.538 2.733-1.163 4-1.54 3.122-4.527 5.498-7.91 6.29-1.26.295-3.102.4-4.25.243z" fill="#00d400" /><rect fill="#333" height="380" opacity="0" width="100" x="100" y="10" /></svg>
