<svg xmlns="http://www.w3.org/2000/svg" height="400" version="1" width="300"><path d="M166.52 144.022l-5.958 16.72 4.294 1.31 5.958-16.686-4.294-1.343zm28.985-31.98l-28.146-8.79-12.33 33.79 28.146 8.636 12.33-33.637z" fill="#d40000" fill-rule="evenodd" /><path d="M163.25 116.65l26.65 8.576M160.91 124l26.446 8.476" fill="none" stroke="#fff" /><path d="M174.15 127.685c-7.16-2.302-13.036-4.202-13.058-4.222-.028-.027 1.987-6.087 2.076-6.243.013-.024 26.332 8.444 26.374 8.486.016.016-.443 1.414-1.02 3.107-.766 2.252-1.088 3.076-1.2 3.068-.084-.005-6.012-1.893-13.172-4.195z" fill="#fff" fill-rule="evenodd" stroke="#fff" stroke-width=".102" /><rect fill="#333" height="300" opacity="0" width="100" x="100" y="50" /></svg>
