<svg xmlns="http://www.w3.org/2000/svg" height="400" version="1" width="300"><g fill="none"><path d="M132.348 117.97l14.076-14.266-14.266-14.076 3.505-3.578 14.626 14.084 14.08-14.294 3.573 3.533-14.427 14.28 14.266 14.077-3.165 3.567-14.626-14.084-14.07 14.278-3.57-3.52z" stroke="#000" /></g><path d="M147.872 108.608v17.72h4.25v-17.72h-4.25z" fill="#000407" fill-rule="evenodd" /><path d="M149.62 108.21l.362-.397.334.317.42.397c.085.077.063.08-.695.08h-.782l.362-.397zM147.9 118.465c0-4.326-.013-8.31-.03-8.853l-.028-.988h4.292l-.028.882c-.016.485-.03 4.47-.03 8.853v7.97H147.9v-7.865z" fill="none" /><path d="M134.5 119.32l-1.386-1.365 4.32-4.35c2.374-2.39 5.55-5.597 7.055-7.124l2.737-2.774-7.11-7.046-7.112-7.046 1.337-1.39 1.338-1.39 5.12 4.945c2.814 2.718 6.102 5.888 7.306 7.043l2.19 2.1 7.036-7.12 7.038-7.117 1.412 1.345 1.412 1.346-.995.948c-.55.522-3.804 3.736-7.236 7.143l-6.24 6.193 7.128 7.042 7.127 7.043-.548.637c-.302.35-.844.958-1.206 1.35l-.66.715-.99-.96c-.546-.53-3.188-3.07-5.873-5.647s-5.513-5.304-6.287-6.062l-1.406-1.378-7.062 7.143-7.062 7.142-1.386-1.365z" fill="#d40000" stroke="#000" stroke-width=".119" /><rect fill="#333" height="200" opacity="0" width="50" x="125" y="100" /></svg>
