<svg xmlns="http://www.w3.org/2000/svg" height="400" version="1" width="300"><path d="M168.085 142.535l-6.375 18.563c.005 0 4.127 1.284 4.094 1.25l6.312-18.47-4.03-1.343z" fill="#000407" fill-rule="evenodd" /><path d="M149.773 147.66l17.938-8.938-8.937-17.938 4.475-2.25 9.275 18.063 17.95-8.962 2.238 4.5-18.274 8.838 8.937 17.936-4.15 2.35-9.275-18.062-17.938 8.95-2.237-4.488z" fill="none" stroke="#000" /><path d="M179.26 160.17c-.09-.18-1.838-3.587-3.883-7.57l-3.72-7.242.256-.745.255-.745-.138-.05c-.076-.03-.424-.146-.772-.26l-.634-.207-.207-.426c-.113-.234-.22-.425-.24-.423-.02.003-.217.097-.44.21l-.402.21-.623-.21c-.343-.117-.633-.2-.645-.19-.012.013-.114.296-.226.63l-.203.61-7.69 3.828-7.69 3.828-.88-1.76-.878-1.757 8.96-4.462c4.93-2.453 8.963-4.465 8.963-4.47 0-.007-2.008-4.045-4.463-8.975l-4.463-8.964 1.76-.885c.968-.486 1.763-.88 1.767-.875.004.005 2.025 3.947 4.492 8.76s4.553 8.868 4.636 9.014l.15.265 7.45-3.728c4.1-2.05 8.135-4.058 8.97-4.464l1.517-.738.876 1.753c.482.965.868 1.76.857 1.767-.01.008-4.11 1.99-9.113 4.407s-9.105 4.404-9.12 4.416 1.99 4.06 4.452 8.993c4.43 8.88 4.474 8.97 4.338 9.057-.25.158-3.045 1.725-3.075 1.725-.017 0-.104-.148-.195-.328z" fill="#ffd400" stroke="#000" stroke-width=".063" /><rect fill="#333" height="200" opacity="0" width="50" x="125" y="100" /></svg>
