<svg xmlns="http://www.w3.org/2000/svg" height="400" version="1" width="300"><path d="M207.004 88.56l-6.2-40.576-29.338 29 35.538 11.575zm-6.2-6.84l-20.212-7.224 16.65-16.75 3.563 23.975z" fill="#000407" fill-rule="evenodd" /><path d="M187.13 81.97l-5.594 16.72 4.03 1.313 5.595-16.687-4.03-1.344z" fill="#000407" fill-rule="evenodd" /><path d="M198.05 80.674c-1.306-.473-5.734-2.06-9.84-3.53l-7.465-2.67 8.21-8.29c4.515-4.56 8.225-8.24 8.243-8.18.02.06.795 5.256 1.725 11.547.93 6.292 1.72 11.565 1.755 11.72.04.18.007.278-.094.273-.088-.005-1.228-.396-2.534-.87z" fill="#00d400" stroke="#000" stroke-width=".125" /><rect fill="#333" height="380" opacity="0" width="150" x="75" y="10" /></svg>
