<svg xmlns="http://www.w3.org/2000/svg" height="400" version="1" width="300"><g fill="none"><path d="M132.395 146.94l14.076-14.266-14.265-14.076 3.505-3.578 14.626 14.084 14.08-14.294 3.574 3.533-14.426 14.28L167.83 146.7l-3.166 3.567-14.626-14.084-14.07 14.278-3.572-3.52z" stroke="#000" /></g><path d="M147.92 137.578v17.72h4.25v-17.72h-4.25z" fill="#000407" fill-rule="evenodd" /><path d="M149.666 137.18l.363-.398.333.317c.183.174.373.352.42.396.084.077.062.08-.696.08h-.783l.362-.397zM147.946 147.435c0-4.326-.013-8.31-.03-8.853l-.027-.988h4.292l-.03.882c-.015.485-.028 4.47-.028 8.853v7.97h-4.178v-7.865z" fill="none" /><path d="M134.556 148.305l-1.358-1.363 6.956-7.047c3.826-3.876 6.972-7.113 6.99-7.193.02-.08-1.044-1.207-2.363-2.505s-4.496-4.443-7.062-6.987l-4.664-4.627 1.335-1.374 1.335-1.376 7.306 7.04 7.306 7.04 7.054-7.136 7.054-7.137 1.347 1.348 1.347 1.346-7.198 7.146-7.2 7.146 5.895 5.813c3.242 3.196 6.464 6.366 7.16 7.043l1.268 1.23-1.068 1.195c-.588.658-1.137 1.27-1.222 1.36-.124.136-1.5-1.13-7.39-6.81-3.982-3.836-7.28-6.976-7.33-6.976-.08 0-3.618 3.54-11.155 11.167l-2.983 3.018-1.36-1.362z" fill="none" /><path d="M134.55 148.23l-1.325-1.337 7.023-7.09 7.023-7.09-7.125-7.06-7.127-7.058 1.368-1.364 1.37-1.364 7.276 7.023 7.277 7.02 7.05-7.12 7.05-7.12 1.358 1.368 1.357 1.368-7.188 7.09-7.187 7.09 7.14 7.092 7.142 7.09-1.198 1.333-1.198 1.333-2.188-2.1c-1.203-1.153-4.483-4.314-7.288-7.023l-5.1-4.926-7.028 7.096c-3.866 3.902-7.057 7.093-7.093 7.09-.036 0-.66-.604-1.39-1.34z" fill="#d40000" stroke="#000" stroke-width=".124" /><rect fill="#333" height="200" opacity="0" width="50" x="125" y="100" /></svg>
