<svg xmlns="http://www.w3.org/2000/svg" height="400" version="1" width="300"><path d="M147.6 113.813v12.52h4.95v-12.52h-4.95z" fill="#000407" fill-rule="evenodd" /><path d="M149.62 108.21l.362-.397.334.317.42.397c.085.077.063.08-.696.08h-.783l.362-.397zM147.9 118.465c0-4.326-.012-8.31-.028-8.853l-.03-.988H152.137l-.028.882c-.016.485-.03 4.47-.03 8.853v7.97H147.9v-7.865z" fill="none" /><path d="M162.478 124.433l-12.374-12.374-12.374 12.373-7.07-7.07 12.373-12.375-12.374-12.375 7.07-7.07 12.374 12.374 12.374-12.375 7.072 7.07-12.375 12.376 12.375 12.374z" fill="#ffd400" stroke="#000" /><rect fill="#333" height="200" opacity="0" width="50" x="125" y="100" /></svg>
