<svg xmlns="http://www.w3.org/2000/svg" height="400" version="1" width="300"><path d="M192.345 68.333l-12.076 36.093 4.03 1.348 12.076-36.092-4.03-1.35z" fill="#000407" fill-rule="evenodd" /><g fill="none"><path d="M174.47 72.837l17.874-9.062L183.28 45.9l4.46-2.28 9.4 17.996 17.89-9.088 2.268 4.485-18.213 8.965 9.062 17.875-4.133 2.38-9.4-17.998-17.876 9.074-2.27-4.472z" stroke="#000" /><path d="M193.946 69.063l.47-.26.216.405c.12.224.24.453.273.51.055.1.033.095-.686-.146l-.744-.248.47-.26zM189.06 78.242c1.373-4.102 2.625-7.885 2.783-8.405l.286-.946 2.034.683 2.036.68-.307.828c-.17.456-1.445 4.23-2.836 8.387l-2.53 7.56-1.98-.663-1.982-.663 2.496-7.458z" /></g><rect fill="#333" height="380" opacity="0" width="150" x="75" y="10" /></svg>
