<svg xmlns="http://www.w3.org/2000/svg" version="1" width="40" height="80"><path d="M20 12.063c-7.806 0-14.03 6.29-14.03 13.937 0 6.468 4.462 11.96 10.56 13.5C10.433 41.04 5.97 46.532 5.97 53c0 6.935 5.127 12.76 11.905 13.78V80h4.25V66.78C28.903 65.76 34.03 59.936 34.03 53c0-6.468-4.462-11.96-10.56-13.5 6.098-1.54 10.56-7.032 10.56-13.5 0-7.646-6.224-13.938-14.03-13.938zm0 1.874c6.553 0 11.97 5.35 11.97 12.063 0 6.713-5.417 12.063-11.97 12.063-6.553 0-11.97-5.35-11.97-12.063 0-6.713 5.417-12.063 11.97-12.063zm0 27c6.553 0 11.97 5.35 11.97 12.063 0 6.713-5.417 12.063-11.97 12.063-6.553 0-11.97-5.35-11.97-12.063 0-6.713 5.417-12.063 11.97-12.063z"/></svg>
