<svg xmlns="http://www.w3.org/2000/svg" height="400" version="1" width="300"><path d="M126.61 126.285l-4.625 70.875h-8.156v5.656h24c1.286 5.533 6.232 9.656 12.155 9.656 5.925 0 10.87-4.12 12.156-9.656h24v-5.656h-8.155l-4.97-70.875H126.61zm6.72 7.094h33.31l4.595 63.78h-9.094c-1.284-5.536-6.23-9.656-12.155-9.656-5.923 0-10.87 4.123-12.156 9.656h-9.095l4.594-63.78zm16.655 59.093c4.14 0 7.5 3.36 7.5 7.5s-3.36 7.5-7.5 7.5-7.5-3.36-7.5-7.5 3.36-7.5 7.5-7.5z" fill="#000407" fill-rule="evenodd" /><path d="M131.25 151.863h37.12v1.143h-37.12zM130.28 172.006h39.67v1.23h-39.67zM131.3 162.93c.36-4.91.66-9.146.665-9.412l.01-.484h36.064v.484c0 .266.276 4.324.615 9.016.338 4.693.615 8.71.615 8.928v.396h-38.626l.655-8.928z" /><path d="M132.15 151.307c0-.273.277-4.28.616-8.903s.615-8.517.615-8.652c0-.207 2.543-.245 16.626-.245h16.625l.002.484c0 .267.277 4.324.615 9.017.34 4.693.616 8.592.616 8.664s-8.035.133-17.856.133H132.15v-.496zM128.89 196.09c.057-.508.418-5.436.804-10.95.385-5.516.746-10.444.802-10.952l.1-.924H169.452l.01.396c.005.218.384 5.563.843 11.878l.835 11.482-4.474-.047-4.475-.047-.21-.703c-.513-1.707-2.068-4.17-3.462-5.48-3.183-2.992-8.362-4.072-12.62-2.63-3.617 1.223-6.65 4.307-7.853 7.985l-.3.916h-8.956l.1-.923z" fill="#ffd400" /><ellipse cx="150" cy="200" fill="#333" opacity="0" rx="80" ry="80" /></svg>
