<svg xmlns="http://www.w3.org/2000/svg" height="400" version="1" width="300"><path d="M126.6 126.312l-4.625 70.875h-8.156v5.656h24c1.286 5.533 6.232 9.656 12.155 9.656 5.925 0 10.87-4.12 12.156-9.657h24v-5.656h-8.155l-4.97-70.875H126.6zm6.72 7.094h33.31l4.595 63.78h-9.094c-1.285-5.535-6.23-9.655-12.155-9.655-5.923 0-10.87 4.124-12.156 9.657h-9.095l4.594-63.78zm16.655 59.094c4.14 0 7.5 3.36 7.5 7.5s-3.36 7.5-7.5 7.5-7.5-3.36-7.5-7.5 3.36-7.5 7.5-7.5z" fill="#000407" fill-rule="evenodd" /><path d="M129.31 192.87c.214-2.13 1.132-14.48 2.04-27.442.91-12.964 1.835-25.464 2.057-27.78l.402-4.208H166l.314 1.515c.254 1.234 4.48 59.574 4.44 61.283-.008.278-1.983.505-4.39.505-3.226 0-4.377-.24-4.377-.91 0-.5-.88-2.12-1.952-3.602-3.068-4.234-9.612-6.108-14.672-4.2-2.464.93-5.97 4.333-6.983 6.78-.764 1.845-.998 1.933-5.13 1.933h-4.33l.39-3.872z" fill="#ffd400" /><path d="M129.31 192.87c.214-2.13 1.132-14.48 2.04-27.442.91-12.964 1.835-25.464 2.057-27.78l.402-4.208H166l.314 1.515c.254 1.234 4.48 59.574 4.44 61.283-.008.278-1.983.505-4.39.505-3.226 0-4.377-.24-4.377-.91 0-.5-.88-2.12-1.952-3.602-3.068-4.234-9.612-6.108-14.672-4.2-2.464.93-5.97 4.333-6.983 6.78-.764 1.845-.998 1.933-5.13 1.933h-4.33l.39-3.872z" fill="#ffd400" /><ellipse cx="150" cy="200" fill="#333" opacity="0" rx="80" ry="80" /></svg>
