<svg xmlns="http://www.w3.org/2000/svg" height="400" version="1" width="300"><path d="M126.61 126.285l-4.625 70.875h-8.156v5.656h24c1.286 5.533 6.232 9.656 12.155 9.656 5.925 0 10.87-4.12 12.156-9.656h24v-5.656h-8.155l-4.97-70.875H126.61zm6.72 7.094h33.31l4.595 63.78h-9.094c-1.284-5.536-6.23-9.656-12.155-9.656-5.923 0-10.87 4.123-12.156 9.656h-9.095l4.594-63.78zm16.655 59.093c4.14 0 7.5 3.36 7.5 7.5s-3.36 7.5-7.5 7.5-7.5-3.36-7.5-7.5 3.36-7.5 7.5-7.5z" fill="#000407" fill-rule="evenodd" /><path d="M130.81 161.89h38.44v1.144h-38.44z" /><path d="M131.45 161.248c0-.32.435-6.595.967-13.942s.967-13.457.968-13.578c0-.174 3.443-.22 16.625-.22h16.625v.495c0 .272.435 6.506.966 13.854.533 7.347.968 13.498.97 13.667 0 .29-1 .307-18.56.307h-18.56v-.582z" fill="#ffd400" /><path d="M128.9 196c.08-.77 2.376-32.546 2.376-32.873 0-.038 8.43-.069 18.736-.069h18.736l.007.572c.004.315.542 7.955 1.196 16.98l1.19 16.407-4.476-.047-4.474-.047-.21-.703c-.513-1.707-2.068-4.17-3.462-5.48-3.183-2.992-8.36-4.072-12.62-2.63-3.616 1.223-6.65 4.307-7.853 7.985l-.3.916H128.8l.104-1.01z" /><ellipse cx="150" cy="200" fill="#333" opacity="0" rx="80" ry="80" /></svg>
