<svg xmlns="http://www.w3.org/2000/svg" height="400" version="1" width="300"><path d="M126.6 126.312l-4.625 70.875h-8.156v5.656h24c1.286 5.533 6.232 9.656 12.155 9.656 5.925 0 10.87-4.12 12.156-9.657h24v-5.656h-8.155l-4.97-70.875H126.6zm6.72 7.094h33.31l4.595 63.78h-9.094c-1.285-5.535-6.23-9.655-12.155-9.655-5.923 0-10.87 4.124-12.156 9.657h-9.095l4.594-63.78zm16.655 59.094c4.14 0 7.5 3.36 7.5 7.5s-3.36 7.5-7.5 7.5-7.5-3.36-7.5-7.5 3.36-7.5 7.5-7.5z" fill="#000407" fill-rule="evenodd" /><path d="M130.94 161.344h38.563v1.143H130.94zM129.83 176.003h40.464v1.23H129.83zM131.59 146.695h37.12v1.143h-37.12z" /><path d="M132.47 146.08c.034-.298.22-2.847.416-5.665s.395-5.53.443-6.026l.085-.903h16.587c13.354 0 16.587.036 16.587.184 0 .103.194 2.878.432 6.168s.433 6.162.433 6.383v.4H132.41l.062-.54zM130.4 174.87c.047-.576.264-3.596.482-6.71l.398-5.666h37.312l.073.47c.04.257.24 2.903.444 5.88.204 2.977.41 5.786.457 6.242l.086.83h-39.338l.085-1.046z" fill="#d40000" /><path d="M131.42 160.51c.048-.456.254-3.265.457-6.242s.402-5.624.443-5.882l.073-.47h35.174l.09.975c.048.537.248 3.25.443 6.027.195 2.78.386 5.36.424 5.737l.07.686H131.33l.087-.83zM128.84 196.31c.064-.624 1.373-18.642 1.373-18.898 0-.026 8.898-.048 19.773-.048h19.773l.007.542c.005.297.315 4.746.69 9.886l.682 9.346h-8.976l-.185-.72c-.224-.872-1.164-2.85-1.704-3.582-1.835-2.49-4.273-4.19-7.117-4.958-1.744-.47-4.765-.475-6.392-.01-4.13 1.184-7.28 4.102-8.626 7.994l-.416 1.203-4.486.038-4.486.04.085-.833z" fill="#fff" /><ellipse cx="150" cy="200" fill="#333" opacity="0" rx="80" ry="80" /></svg>
