<svg xmlns="http://www.w3.org/2000/svg" height="400" version="1" width="300"><path d="M126.6 126.28l-4.625 70.876h-8.156v5.656h24c1.286 5.533 6.232 9.656 12.155 9.656 5.925 0 10.87-4.12 12.156-9.656h24v-5.656h-8.155l-4.97-70.875H126.6zm6.72 7.095h33.31l4.595 63.78h-9.094c-1.285-5.535-6.23-9.655-12.155-9.655-5.923 0-10.87 4.123-12.156 9.656h-9.095l4.594-63.78zm16.655 59.094c4.14 0 7.5 3.36 7.5 7.5s-3.36 7.5-7.5 7.5-7.5-3.36-7.5-7.5 3.36-7.5 7.5-7.5z" fill="#000407" fill-rule="evenodd" /><path d="M131.24 151.86h37.12v1.143h-37.12zM130.27 172.002h39.67v1.23h-39.67z" /><path d="M129.04 196.44c-.005-.34.342-5.643.77-11.787l.78-11.17h38.771l.79 11.17c.433 6.144.783 11.448.778 11.787-.01.553-.458.616-4.408.616-3.282 0-4.4-.112-4.402-.44-.008-1.063-1.825-4.202-3.21-5.546-5-4.852-13.062-4.83-17.94.047-1.32 1.32-3.112 4.478-3.12 5.5-.003.327-1.12.44-4.4.44-3.952 0-4.4-.064-4.408-.617zM132.34 149.296c.118-1.306.386-5.066.595-8.356s.452-6.338.54-6.773l.162-.792h32.676l.175 1.144c.096.628.346 3.675.554 6.772.208 3.096.473 6.698.59 8.004l.21 2.375h-35.718l.216-2.374z" fill="#d40000" /><path d="M130.8 171.11c-.004-1.273 1.11-16.48 1.263-17.24l.16-.79h35.51l.16.79c.09.436.334 3.484.545 6.774.21 3.29.48 7.13.598 8.532l.215 2.55h-19.223c-18.073 0-19.224-.036-19.226-.615z" fill="#00d400" /><ellipse cx="150" cy="200" fill="#333" opacity="0" rx="80" ry="80" /></svg>
