<svg xmlns="http://www.w3.org/2000/svg" height="400" version="1" width="300"><path d="M126.61 126.322l-4.625 70.875h-8.156v5.656h24c1.286 5.533 6.232 9.656 12.155 9.656 5.925 0 10.87-4.12 12.156-9.657h24v-5.656h-8.155l-4.97-70.875H126.61zm6.72 7.094h33.31l4.595 63.78h-9.094c-1.284-5.535-6.23-9.655-12.155-9.655-5.923 0-10.87 4.124-12.156 9.657h-9.095l4.594-63.78zm16.655 59.094c4.14 0 7.5 3.36 7.5 7.5s-3.36 7.5-7.5 7.5-7.5-3.36-7.5-7.5 3.36-7.5 7.5-7.5z" fill="#000407" fill-rule="evenodd" /><path d="M129.05 196.31c-.01-1.377 4.265-61.27 4.433-62.1l.16-.792h32.678l.18 1.144c.192 1.202 4.436 60.38 4.43 61.748-.005.778-.078.79-4.403.79-3.282 0-4.4-.11-4.402-.438-.008-1.064-1.825-4.203-3.21-5.547-5-4.85-13.062-4.83-17.94.047-1.32 1.32-3.112 4.48-3.12 5.5-.003.328-1.12.44-4.4.44-4.326 0-4.4-.014-4.405-.792z" fill="#d40000" /><ellipse cx="150" cy="200" fill="#333" opacity="0" rx="80" ry="80" /></svg>
