<svg xmlns="http://www.w3.org/2000/svg" height="400" version="1" width="300"><path d="M126.6 126.312l-4.625 70.875h-8.156v5.656h24c1.286 5.533 6.232 9.656 12.155 9.656 5.925 0 10.87-4.12 12.156-9.657h24v-5.656h-8.155l-4.97-70.875H126.6zm6.72 7.094h33.31l4.595 63.78h-9.094c-1.285-5.535-6.23-9.655-12.155-9.655-5.923 0-10.87 4.124-12.156 9.657h-9.095l4.594-63.78zm16.655 59.094c4.14 0 7.5 3.36 7.5 7.5 0 4.14-3.36 7.5-7.5 7.5-4.14 0-7.5-3.36-7.5-7.5 0-4.14 3.36-7.5 7.5-7.5z" /><ellipse cx="150" cy="200" fill="#333" opacity="0" rx="80" ry="80" /></svg>
