<svg xmlns="http://www.w3.org/2000/svg" height="400" version="1" width="300"><path d="M126.57 126.297l-4.625 70.875h-8.156v5.656h24c1.286 5.533 6.232 9.656 12.155 9.656 5.925 0 10.87-4.12 12.156-9.656h24v-5.656h-8.155l-4.97-70.875H126.57zm6.72 7.094h33.31l4.595 63.782H162.1c-1.285-5.536-6.23-9.656-12.155-9.656-5.923 0-10.87 4.123-12.156 9.656h-9.095l4.594-63.78zm16.655 59.095c4.14 0 7.5 3.36 7.5 7.5s-3.36 7.5-7.5 7.5-7.5-3.36-7.5-7.5 3.36-7.5 7.5-7.5z" fill="#000407" fill-rule="evenodd" /><path d="M131.21 151.875h37.12v1.143h-37.12zM130.24 172.018h39.67v1.23h-39.67zM132.31 149.312c.118-1.306.386-5.066.595-8.356s.452-6.338.54-6.773l.162-.792h32.676l.175 1.145c.096.63.346 3.676.554 6.773.208 3.096.473 6.698.59 8.004l.21 2.375h-35.718l.216-2.375zM129.01 196.46c-.005-.34.342-5.643.77-11.787l.78-11.17h38.771l.79 11.17c.433 6.144.783 11.448.778 11.787-.01.553-.458.616-4.408.616-3.282 0-4.4-.112-4.402-.44-.008-1.063-1.825-4.202-3.21-5.546-5-4.852-13.062-4.83-17.94.047-1.32 1.32-3.112 4.478-3.12 5.5-.003.327-1.12.44-4.4.44-3.952 0-4.4-.064-4.408-.617z" /><path d="M130.78 171.126c-.004-1.274 1.11-16.482 1.263-17.24l.16-.792h35.51l.16.792c.09.435.334 3.483.545 6.773.21 3.29.48 7.128.598 8.53l.215 2.552h-19.223c-18.073 0-19.224-.037-19.226-.616z" fill="#d40000" /><ellipse cx="150" cy="200" fill="#333" opacity="0" rx="80" ry="80" /></svg>
