<svg xmlns="http://www.w3.org/2000/svg" xmlns:xlink="http://www.w3.org/1999/xlink" version="1.2" width="60" height="60"><symbol id="a"><path d="M29.99 4.996c-13.807 0-25 11.194-25 25 0 13.807 11.193 25 25 25s25-11.194 25-25c0-13.807-11.193-25-25-25zM16.318 16.402l3.177.026 3.203.026L26.5 27.6c2.094 6.12 3.838 11.12 3.88 11.12.044 0 .117-.107.157-.234.04-.127 1.71-5.14 3.698-11.146l3.594-10.938h3.097c1.7 0 3.075.04 3.073.078-.002.038-2.38 6.77-5.312 14.948l-5.34 14.87-3.15.026c-2.937.023-3.17-.005-3.23-.156-.035-.09-2.398-6.687-5.26-14.688-2.862-8-5.258-14.677-5.312-14.817l-.078-.26z" fill="#a30075"/></symbol><use xlink:href="#a"/></svg>
