<svg xmlns="http://www.w3.org/2000/svg" xmlns:xlink="http://www.w3.org/1999/xlink" version="1.2" width="60" height="100"><symbol id="a"><path d="M42.468 6.78c-3.836 0-6.968 3.134-6.968 6.97 0 1.107.255 2.162.718 3.094-1.69-.207-3.38-.23-5.093-.063-3.048.296-6.11 1.203-8.97 2.75C11.938 25.07 7.364 37.3 10.97 48.064H6.25v3.906l15.312.03c.898 3.856 4.34 6.75 8.47 6.75 4.13 0 7.572-2.892 8.468-6.75h20.812v-3.937h-3.53c2.087-6.216 1.55-13.138-1.626-19-2.11-3.896-5.123-6.955-8.656-9.063 2.324-1.132 3.937-3.5 3.937-6.25 0-3.836-3.132-6.97-6.97-6.97zm-.5 2.064c.166-.017.33 0 .5 0 2.727 0 4.938 2.18 4.938 4.906 0 2.6-2.015 4.714-4.563 4.906-1.16-.506-2.37-.904-3.593-1.218-1.03-.9-1.688-2.206-1.688-3.688 0-2.556 1.92-4.655 4.406-4.906zm-18.03 13.312h4.374l5.03 14.782 4.908-14.782h4.25l-7.125 19.938h-4.313l-7.125-19.938zM29.5 44.813c.175-.018.35 0 .53 0 2.886 0 5.22 2.333 5.22 5.218 0 2.887-2.334 5.22-5.22 5.22-2.884 0-5.218-2.333-5.218-5.22 0-2.704 2.053-4.95 4.688-5.217z" fill="#a30075"/></symbol><use xlink:href="#a"/></svg>
