<svg xmlns="http://www.w3.org/2000/svg" height="400" width="300"><g fill-rule="even-odd" transform="matrix(.1493 0 0 -.1493 78.253 209.72)" stroke="#000" stroke-miterlimit="10.433" fill="none"><path stroke="none" d="M25.5 2.55h55.8"/><g stroke-width="1.448"><path stroke-linecap="round" stroke="#a30075" stroke-miterlimit="3.863" stroke-width="16.02048357" d="M453.64 88.84l76.394.34 31.338-32.113 77.746.348-78.32-71.197-183.133-.82-46.436 25.235-.18 40.362 56.8.254"/><path fill="#a30075" d="M385.047 78.44l-.226 50.45-61.362-25.495zM414.35 55.972l.144-31.803 8.965-13.567 57.02.255-.203 45.41z" stroke-width="4.0044295199999995"/><path stroke-linejoin="round" stroke-linecap="round" stroke="#a30075" stroke-miterlimit="3.863" stroke-width="24.032108099999995" d="M457.944 17.118l38.326.172-.59 131.636-62.827-.282.2-44.76-52.57-.234"/></g><rect transform="matrix(6.6977 0 0 -6.6977 281.77 438.16)" rx="20" ry="20" height="43.261" width="45.925" y="-15.255" x="-61.913" stroke="none"/><rect transform="matrix(6.6977 0 0 -6.6977 281.77 438.16)" rx="133.95" ry="9.405" height="9.405" width="7.524" y="-16.039" x="-70.847" stroke="none"/><rect transform="scale(1 -1)" rx="100" ry="100" height="388.47" width="388.47" stroke="#a30075" stroke-miterlimit="4" y="-257.33" x="288.47" stroke-width="13.395"/><path d="M375.792-122.993c-39.448 5.217-72.71 37.822-78.812 77.238-.747 4.83-1.006 42.262-.788 113.753l.326 106.554 2.98 8.923c5.91 17.712 13.56 29.862 26.164 41.573 8.81 8.187 15.774 12.655 27.686 17.76 16.262 6.975 13.134 6.81 129.46 6.81 116.32 0 113.19.165 129.46-6.81 12.99-5.57 19.425-9.868 29.09-19.435 14.535-14.384 22.433-28.736 26.342-47.874 1.952-9.556 2.026-14.506 1.738-116.22l-.3-106.232-2.89-9.226c-10.37-33.118-34.292-56.266-67.198-65.028-8.583-2.286-9.255-2.3-112.568-2.49-57.162-.103-106.976.214-110.693.706zm154.31 100.706h34.168l48.208 43.83 48.21 43.83-47.758.272-47.758.273-15.71 15.737-15.71 15.737h-25.649l-.31 28.082c-.29 26.15-.456 28.28-2.41 30.96-3.503 4.8-6.76 5.165-43.043 4.804-33.517-.332-33.602-.34-36.927-2.834-1.834-1.376-3.68-3.738-4.103-5.25s-.657-10.424-.52-19.806l.252-17.06h-35.864v6.3c0 3.464-.405 6.298-.902 6.298-.93 0-58.4-23.69-60.263-24.84-.615-.38-.4-1.006.523-1.522 2.492-1.395 58.785-24.028 59.76-24.028.486 0 .882 2.804.882 6.232v6.232l26.01.33c25.403.32 26.086.386 29.134 2.774 5.017 3.932 5.648 7.185 4.973 25.636l-.606 16.535h38.12l.007-10.76c.003-5.92.31-14.66.68-19.422l.675-8.66-15.64-.015c-8.603-.01-16.672-.29-17.933-.63s-3.073-2.26-4.028-4.272c-1.446-3.046-1.52-4.176-.45-6.76.705-1.705 2.132-3.556 3.17-4.11s9.24-1.01 18.228-1.01h16.34V55.4c0-21.696-.218-25.195-1.574-25.195-1.316 0-1.575 2.158-1.575 13.122V56.45h-67.186V24.41l4.746-7.076 4.747-7.075h12.608c9.875 0 12.732-.322 13.176-1.48 1.27-3.306 6.11-3.89 29.562-3.566 32.792.454 31.087-2.014 30.54 44.216l-.37 31.167h18.207l15.428-16.194 15.43-16.193 29.27.61c16.098.334 29.27.347 29.27.028 0-.32-13.212-12.626-29.36-27.347L557.422-5.265l-88.483-.446-88.483-.447L360.508 4.58 340.56 15.314l-.292 13.745-.293 13.743h25.085c23.787 0 25.227.112 27.85 2.176 2.1 1.65 2.762 3.104 2.75 6.035-.035 8.48-.528 8.585-39.808 8.585H322.19V32.854c0-26.59.013-26.755 2.362-28.256 1.3-.83 13.227-7.48 26.507-14.776l24.144-13.267 60.364.578c33.2.32 75.738.58 94.53.58z" fill-opacity=".502" fill="#fff" stroke-width="6.6977"/></g></svg>
