<svg xmlns="http://www.w3.org/2000/svg" height="400" width="300"><path d="M117.188 27v47h11.843l-6.686 123h-9.656v6h22.28c1.404 7.108 7.716 12.5 15.22 12.5 7.503 0 13.816-5.392 15.218-12.5h22.28v-6h-9.655l-6.686-123h11.844V27zm6 6h54v35h-54zm11.843 41h30.314c2.2 41.002 4.458 82 6.687 123h-6.624c-1.402-7.108-7.715-12.5-15.22-12.5-7.502 0-13.815 5.392-15.217 12.5h-6.626c2.1-41.006 4.61-81.993 6.687-123zm15.157 116.5c5.283 0 9.5 4.218 9.5 9.5s-4.217 9.5-9.5 9.5c-5.282 0-9.5-4.218-9.5-9.5s4.218-9.5 9.5-9.5z" /><rect fill="#333" height="380" opacity="0" width="100" x="100" y="10" /></svg>
