<svg xmlns="http://www.w3.org/2000/svg" width="300" height="400"><path d="M150.406 42.78c-1.58 0-2.844.43-2.844.97v52.438c0 .374.6.71 1.5.874v88.032c-6.962.45-12.63 5.683-13.78 12.437h-22.75v5h22.75c1.195 7.077 7.344 12.5 14.75 12.5 7.404 0 13.584-5.423 14.78-12.5h22.72v-5h-22.72c-1.118-6.562-6.525-11.707-13.218-12.405v-88.03c.718-.112 1.278-.336 1.53-.595l8-1.5c.16.298.334.584.532.844.385.506.995 1.062 1.906 1.062.475 0 .866-.16 1.188-.375 1.836-.32 5.908.043 15.125-.624 3.767-.272 7.492-.703 10.313-1.094 1.41-.195 2.588-.362 3.468-.53.414-.08.74-.143 1.03-.22.016.59.143 1.178.5 1.72l-.03.03c.042.072.056.04.094.094.02.03.01.066.03.094l.032-.03c.23.3.41.494.594.624.233.163.515.3.813.47.595.338 1.31.735 2.092 1.092.78.358 1.616.68 2.375.938.74.25 1.35.476 2.125.47.022-.002.04 0 .063 0 .006 0 .026-.002.03 0 .056.29.052.637.157.842.18.35.39.66.657 1 .533.68 1.266 1.472 2.186 2.375 1.84 1.808 4.454 4.118 7.563 6.814 6.216 5.39 14.43 12.274 22.405 19.375 7.98 7.104 15.748 14.366 21.625 19.843 2.938 2.738 5.424 5.034 7.22 6.656.896.81 1.6 1.446 2.155 1.905.277.23.532.41.75.563.11.076.205.143.344.218.138.075.214.22.81.22 1.085 0 2.024-.392 3.064-.907 1.04-.516 2.14-1.193 3.218-1.94 2.154-1.49 4.208-3.23 5.407-4.5 1.275-1.373 2.8-3.724 3.905-6.218.553-1.246.986-2.527 1.187-3.75.17-1.024.098-2.063-.343-3.03h.03c-.072-.35-.164-.424-.25-.563-.057-.093-.092-.27-.156-.376-.164-.265-.372-.585-.625-.938-.508-.706-1.207-1.627-2.095-2.75-1.776-2.245-4.287-5.28-7.344-8.906-6.114-7.253-14.416-16.812-23.31-26.72-17.792-19.812-37.797-40.964-48-48.28h-.033c-1.978-1.35-5.043-1.87-8.906-2.344-3.862-.473-8.454-.735-12.905-.937-4.45-.204-8.773-.326-12.094-.5-1.66-.09-3.075-.194-4.093-.314-.428-.05-.737-.104-1-.156-.355-.294-.796-.53-1.375-.53-.723 0-1.243.35-1.625.75l-8.625-.064v3l7.125.063c-.366 1.228-.69 2.74-.968 4.53l-.033.063c-.706 4.588-1.1 10.893-1.093 17.25-.007 6.356.387 12.66 1.093 17.25v.03c.206 1.332.43 2.502.688 3.532l-6.844 1.28V43.75c0-.54-1.293-.97-2.874-.97zm16.28 6.69c.942.08 1.976.153 3.19.218 3.38.178 7.703.33 12.124.53 4.42.202 8.94.452 12.656.907 3.692.452 6.69 1.234 7.563 1.813.008.006.02.024.03.03 9.478 6.81 29.737 28.065 47.47 47.813 8.873 9.885 17.16 19.435 23.25 26.657 3.043 3.612 5.537 6.64 7.28 8.844.87 1.103 1.573 1.988 2.03 2.626.23.32.4.585.5.75.035.055.05.084.064.125.007.022.03.056.03.064v.062l.157.25c.056.08.2.605.064 1.438-.137.833-.485 1.908-.97 3-.963 2.173-2.48 4.44-3.343 5.375-.937.992-2.92 2.717-4.905 4.093-.993.687-2 1.3-2.844 1.718-.694.346-1.152.447-1.436.5-.095-.072-.15-.11-.282-.218-.488-.404-1.21-1.046-2.093-1.843-1.766-1.596-4.22-3.89-7.158-6.626-5.875-5.475-13.673-12.74-21.687-19.875-8.02-7.142-16.254-14.046-22.438-19.407-3.09-2.68-5.693-4.975-7.437-6.688-.66-.647-1.045-1.11-1.438-1.563.48.012.87 0 1.563.094 2.16.294 5.104.962 8.062 1.594 2.958.632 5.947 1.237 8.344 1.406 1.2.085 2.24.088 3.22-.187.49-.14.975-.35 1.406-.75.43-.404.752-1.05.813-1.658l.03-.156-.03-.187c-.17-1.15-.93-2.11-1.814-2.72-.885-.61-1.9-.983-3.062-1.25-2.325-.533-5.187-.648-8.125-.594-5.877.108-12.304.92-14.126.906h-.032c.053 0-.535-.1-1.156-.312-.62-.21-1.384-.52-2.094-.844-.71-.324-1.385-.658-1.875-.937-.244-.14-.42-.267-.53-.345-.003-.07-.04-.306.03-.75.104-.645.376-1.58.813-2.656.873-2.152 2.292-4.865 3.687-7.533 1.396-2.668 2.774-5.282 3.594-7.468.41-1.095.696-2.048.72-3.033.012-.492-.023-1.04-.28-1.562-.26-.523-.782-.973-1.345-1.188l-.03-.03h-.032c-1.043-.357-2.25-.01-3 .624-.752.637-1.235 1.46-1.688 2.407-.906 1.898-1.608 4.385-2.28 6.97-.675 2.583-1.31 5.27-2 7.405-.682 2.102-1.582 3.58-1.876 3.813-.18.048-.478.11-.876.187-.796.153-1.938.34-3.313.532-2.75.38-6.432.795-10.124 1.062-6.644.48-10.354.268-13 .375.4-1.268.742-2.84 1.03-4.718.707-4.588 1.102-10.893 1.095-17.25.008-6.356-.387-12.66-1.093-17.25-.28-1.83-.613-3.35-1-4.593zm-3.124.06c.013.033.02.03.032.064.388 1.043.79 2.766 1.125 4.937.667 4.344 1.068 10.554 1.06 16.782.008 6.204-.398 12.41-1.06 16.75v.063c-.335 2.17-.738 3.863-1.126 4.906-.012.034-.02.032-.03.064-.014-.032-.02-.03-.033-.063-.387-1.042-.79-2.734-1.124-4.905-.668-4.343-1.07-10.584-1.062-16.813-.007-6.228.394-12.438 1.062-16.78.334-2.172.737-3.895 1.125-4.938.013-.033.02-.03.032-.063zm39.688 24.032c-.09.368-.094.595-.28 1.094-.183.484-.62 1.277-.876 1.844.247-.72.467-1.754.72-2.28.164-.35.282-.426.436-.657zm14.28 25.094c2.82-.052 5.506.102 7.376.53.936.216 1.657.503 2.063.783.072.05.04.08.092.124-.423.07-.99.122-1.843.062-2.055-.144-4.94-.716-7.876-1.344-.198-.042-.365-.05-.563-.093.3-.01.453-.058.75-.064zm-67.5 91.375c5.554 0 10 4.45 10 10 0 5.554-4.446 10-10 10-5.55 0-10-4.446-10-10 0-5.55 4.45-10 10-10z"/></svg>
