<svg xmlns="http://www.w3.org/2000/svg" xmlns:ns1="http://www.w3.org/1999/xlink" height="400" version="1" width="300"><symbol id="a"><path d="M261.67 199.21c0 60.085-49.622 108.79-110.83 108.79-61.212 0-110.83-48.708-110.83-108.79 0-60.085 49.622-108.79 110.83-108.79 61.212 0 110.83 48.708 110.83 108.79z" fill="none" stroke="#000" stroke-width="4" /><path d="M115.06 248.807h70v6h-70zm33.582-76.122l-15-25.98 4.33-2.5 15 25.98zm1.55-4.67h30v5h-30zm2.708 2.504l-15 25.98-4.33-2.5 15-25.98zm-5.86-.014h6v80h-6z" /></symbol><use ns1:href="#a" /><ellipse cx="150" cy="200" fill="#333" opacity="0" rx="125" ry="125" /></svg>
