<svg xmlns="http://www.w3.org/2000/svg" height="400" version="1" width="300"><path d="M137.938 82.25l-4.344 2.5 13.625 23.594-.126.22H147v.155l-13.47 23.343 4.345 2.5L147 118.75v69.344c-3.687 1.056-7.105 4.07-9.156 9.094h-8.438l-.125 5.656h8.564c1.287 5.533 6.233 9.656 12.156 9.656 5.925 0 10.87-4.12 12.156-9.656l8.313-.03v-5.658l-8.314.03c-2.037-4.998-5.424-8.03-9.125-9.092-.056-26.796-.03-54.068-.03-77.03h27.156v-5h-28.468zM150 192.5c4.14 0 7.5 3.36 7.5 7.5 0 4.14-3.36 7.5-7.5 7.5-4.14 0-7.5-3.36-7.5-7.5 0-4.14 3.36-7.5 7.5-7.5z" /><rect fill="#333" height="300" opacity="0" width="100" x="100" y="50" /></svg>
